<svg xmlns="http://www.w3.org/2000/svg" xmlns:xlink="http://www.w3.org/1999/xlink" width="325" height="330" viewBox="0 0 325 330">
  <defs>
    <clipPath id="clip-path">
      <rect id="Rectangle_523" data-name="Rectangle 523" width="325" height="330" rx="20" transform="translate(286 1336)" fill="#6053b4"/>
    </clipPath>
  </defs>
  <g id="Mask_Group_56" data-name="Mask Group 56" transform="translate(-286 -1336)" clip-path="url(#clip-path)">
    <path id="Path_258451" data-name="Path 258451" d="M979.617,118.986a6.017,6.017,0,0,0-4.045-1.257,13.162,13.162,0,0,0-2.759.208,13.791,13.791,0,0,0-3.494,1.257,46.142,46.142,0,0,0-18.574,5.661c-1.1-.42,0-1.049-1.287-1.257-3.312,1.886-5.7,2.306-7.358,1.886.184.837-1.1.208-1.841.837a5.951,5.951,0,0,1,3.5.841c-5.15,2.306-5.883,4.4-10.665,5.657,0-2.514,3.678-5.028,2.209-7.543-.921-.42-2.946.629-3.312-.42a15.316,15.316,0,0,0-1.837,1.045c-2.392-1.045-5.7.632-9.2,2.938-.917-.629-.734-1.049-2.02-.42-1.1-.42,1.471-.841.366-1.469-.366.212-.734,0-.734-.208a5.451,5.451,0,0,0-1.657,1.049c-2.758-1.049-13.791,3.563-9.746-1.678,1.471-.629,3.308-1.886,4.413-1.678,0-1.677,4.045-1.886,5.148-3.563-3.308,1.466-4.782,1.257-6.436,3.355-.183-1.678-2.941-.841-.921-2.514a13.305,13.305,0,0,1-4.78,1.045c1.288-.837-.921-.208-.736-1.257,2.575-.841,2.575-1.886,3.128-2.726,1.471.629,3.863-.208,6.436-1.257,0-.42-.37-.629,0-.837a10.319,10.319,0,0,0,5.15-1.469c-.921-1.049,0-2.1-1.474-2.514,3.312-2.306-.551-2.73.553-4.4-1.841,1.257-4.6,1.469-5.333,3.143a13.3,13.3,0,0,0-4.232-.417c.736,2.094-5.15,3.355-6.251,2.306-1.287,1.045-2.39,1.886-3.678,2.935a1,1,0,0,0-.738-.212c.184-1.257,1.288-2.094,2.575-2.723-.734.417-1.287.208-1.287-.212-.921.629-2.758,1.889-3.5,1.257.921-.837,3.5-1.466,2.575-1.674-2.2,1.677,0-1.049-2.2-.841.917-1.049,2.758-1.257,4.229-1.886.183-.841-.738-.629,0-1.257,4.782-1.889,7.541-3.772,10.665-5.033-2.02.629-.549-1.257.738-1.886.921.837,2.207-1.257,3.5-1.049-.738,1.049-1.287,1.049-3.128,1.677-.184,1.049.919.629.366,1.678,2.024-.42-.366-1.049.921-1.678.738-.212,1.654-.841,2.024-.629.183.417-1.1.837-.553,1.045,2.207-1.045,2.575-.629,2.575.632,1.47-.629,1.287-.212,2.758-.42-.183-.42-.734-.212-.917-.629.549-.629,1.654-1.049,2.02-1.677-.917.837,2.207.837,2.758-.42h-1.837c2.575-1.257,3.678-.42,4.967-1.678-.737.212-.737-.208-1.288-.208,1.288,0,2.942-1.257,2.942-2.1-1.105.629-1.654,1.469-2.392.841,1.841-1.469-2.392-2.514-2.758-.841,3.678-1.886,1.1,2.1,1.1,0-1.654.42-.183,1.049-1.471,1.678C920.215,95.925,925,95.5,925.364,93.2a4.227,4.227,0,0,1-3.678,1.678c-1.837-1.889-6.07-1.678-9.562-.212,1.654-.837.917-1.466,1.1-2.306-2.022,1.049-2.022.42-3.308-.629-1.1,1.049-1.471,1.469-3.129,1.469-.55.629.37,1.257-.734,1.886-1.287.42-3.862,1.257-2.941,0-1.658,1.049-4.6,1.678-4.6,3.355a4.517,4.517,0,0,1,1.654-.208c-.55.208-.918.417-1.471.629,3.862.417-1.837,5.449-4.6,4.192.551-.212,3.308-1.469,1.654-1.049-1.1.629-1.654.629-1.841,0,.921,0,2.026-1.049,1.841-1.677a3.839,3.839,0,0,1-3.128.628c-1.654,2.1-6.249,3.355-9.011,5.87-.367-.208-.918,0-1.288-.208.738-.42,1.658-.629,1.1-1.049-2.758.841-2.575,2.1-4.778,2.935-.738-.629-2.392-.208-.921.42-1.841,1.049-3.312,1.469-3.5,0-.734.837-1.1.629-2.392,1.049,0-.42.367-.841,1.1-1.049,0-.208-.366-.208-.549,0-.184-.208,0-.208.366-.42l.921-.417c-.553.837.183.208.551,1.045,2.392-1.678,1.1-1.045,2.941-2.094-1.287.42-2.02,0-3.308.208-.183-.42,1.288-.629,1.105-1.049-2.392,0-1.471,1.678-2.759,2.306-.736.42-1.474.629-2.39,1.049-.187-.42-.371-1.049-.921-.837.183,1.045.366,1.466,0,2.094-1.1.628-.921-.417-1.841,0,0,.42-.551.628-1.284.841,0,.629-.921,2.306,1.284,1.257.37-.837-1.654-.42-.551-1.049,1.471-.837,1.654,0,2.392.208-1.1,1.473-4.046,1.678-5.517,2.514l.367-.2c-4.046-2.514-12.14,5.449-17.29,10.061a28.148,28.148,0,0,0-5.15,1.257c1.475-1.049,2.392-2.1,2.209-3.355-1.288.629-1.105-.208-1.654-.208-.183,0-.367.208-.737.208,1.1-.629,1.288-1.257.921-2.094-1.1-.42-2.392,1.045-1.837-.212-2.575.629-3.312,2.73-5.337,2.73,1.841-1.889,4.049-2.518,5.15-4.2a.746.746,0,0,1,.921,0c-1.1.837-1.837,1.466-2.942,2.306a7.558,7.558,0,0,0,2.942-1.257c0,.208-.184.208-.367.208,1.654-.837,4.412-1.469,3.863-2.515-1.288.629-1.654,1.045-2.575,1.045v-.629c-.183,0-.367.212-.554.212-.183-.42.921-.841.554-1.469-2.392,1.678-5.7,3.147-7.174,2.726,2.024-1.257,4.965-1.469,5.15-3.147-1.288,0-2.392.841-1.839-.417a4.851,4.851,0,0,1-1.654.417v-.417a32.6,32.6,0,0,0,5.7-1.049,3.2,3.2,0,0,0-2.392-1.678c-1.287.42,1.654.42,0,1.257-2.02-.208-4.6.629-6.987,1.678.551-.208.367.208.184.629-4.6,1.257-9.933,2.1-13.978,5.244-1.839-.215-4.413,1.045-7.358,2.514-1.471.837-2.941,1.465-4.412,2.306a37.286,37.286,0,0,1-4.416,1.674c-2.2.42-7.537,2.515-8.091,4.824-3.5,1.05-6.8,2.516-10.482,3.984a47.706,47.706,0,0,1-5.7,2.306c-2.02.628-4.045,1.466-6.249,2.094-.738-.628,1.1-1.678-.738-1.046-2.024,2.306-8.091,3.144-10.3,4.822,4.045-1.258,8.091-2.1,11.952-3.144,2.024-.632,3.863-1.048,5.887-1.678l6.07-1.889c.183.42.917.212,1.287.42-2.762.628-5.52,2.726-7.54,3.984-2.026,1.465-3.5,2.306-3.129,1.048-.366.416-2.758,0-4.6.836-.555,2.936-4.967,1.47-8.095,2.936.37.628-1.837.84-1.1,1.677.367.842,2.022.212,2.388,1.05-2.388,2.934-6.066,2.514-10.482,4.192-.366-.42-.734-.42-.183-.838-1.1.628-4.412,2.1-4.6.628,2.2-1.256.917-.211,2.573-.42.734-1.256-.553-1.677-2.024-1.677,1.288-1.046.921-2.514,2.758-3.144a3.217,3.217,0,0,1-2.02,0c.183-.84,1.654-1.048,1.654-1.886a15,15,0,0,1-6.436,1.258c.366,1.466-2.759,1.886-3.68,1.886.367-1.05,1.839-1.47,3.312-1.47-1.287-1.044,1.837-.836,1.1-1.886-2.022,0-6.438,5.244-9.562,3.356,4.412-.838,4.965-2.514,7.357-3.984.366-1.886-.738-2.306-2.209-2.514l.184.836a3.5,3.5,0,0,1-2.022.212c.184-.42.551-.628-.187-.628,0-.84.921,0,1.841-.42-1.841,0-4.229.628-5.886.416a33.741,33.741,0,0,1-7.171,1.678c-2.575.42-4.965.84-6.436,1.678,1.654,0,4.78-1.466,5.7,0-.734,1.677-2.942,0-3.308,1.469,2.2-.212,2.941-1.048,4.045-.212-.553.212-.37.632-.921.842h-2.941c-.921-.209-1.471-.421-1.288-.838.367.838-1.47-.42-1.47.628.734,0,.917.838,1.287,1.258,2.388-.628,4.046-.628,4.78.208-3.125,2.514-6.438,1.47-8.828,3.984-.55-.63-3.676-.42-4.6.42.921-.212,1.288,0,1.1.628a90.013,90.013,0,0,0-9.2,1.05,27.421,27.421,0,0,0-4.045.836c-1.471.212-2.942.628-4.413.838,1.654-1.258,2.759-1.046,4.784-1.886-1.1-.209-2.575,0-3.129-.838,1.471-1.048,2.759-1.886,2.575-2.726,2.575-.836,4.233-2.306,7.174-2.306-1.287-1.048-3.494.212-4.965.84,0-.212-.367-.212-.551-.42,2.022-2.1.734-3.146-.553-5.453,4.782-1.886,9.377-2.514,13.977-3.142,2.392-.421,4.6-.63,6.988-1.05a31.143,31.143,0,0,0,6.99-2.514c3.68-.628,7.724-.212,12.874-2.1,0,.84,1.1.42.921,1.258A16.579,16.579,0,0,1,751.2,136.8a23.874,23.874,0,0,1,5.333-.416c0-2.1,4.233-.63,5.7-2.1.366.42.734.208.183.836,3.125-2.934,6.621,0,10.85-2.514-2.022.42,1.291-2.1-2.388-.836-.555.836,1.47.628.366,1.044-.366-1.673-4.229-.208-6.07-1.257-2.207,2.514-5.333,1.678-9.011,2.934-.55-.416-1.837-1.886-2.758-.628,1.837-.838-.184,1.048-.184,1.678-2.758.84-5.516.628-7.907,1.048.55-1.678.55-1.048,2.759-1.466-.367-1.048-.738-.632-.367-1.678-2.207.209-2.207,1.258-3.128,1.886.183-2.1-5.7.838-7.541.209.183.628-.183,1.048-1.287,1.256,0-.416.553-.628-.184-.836-4.6,1.256-8.828,2.726-13.24,3.983a92.5,92.5,0,0,1-12.69,2.936c-2.575,1.677-10.667,4.4-10.854,1.465a98.481,98.481,0,0,0-15.448,2.306c-2.575.632-5.15,1.05-7.908,1.678-2.575.42-5.333.84-8.092,1.048-3.5,2.1-8.091,2.516-11.4,2.516.554,0-.921.84-1.837.632-3.5-.842,1.654-2.306,4.6-2.936-1.839.209.183-2.1.553-2.729,5.333-1.674,9.562-2.3,14.161-3.772,1.288-.208,1.654.628,2.942.212,1.837-1.47,4.412-.212,6.8-1.05,1.471-.42,2.209-1.886,3.5-2.306,1.471-.42,3.125.63,4.6.208.734-.208,2.02-1.048,2.758-1.256,0,0-.183.628-.37.628,1.474-.208,2.024-1.256,3.128-1.466.183,0,.55.838.734.838,1.841,0,3.678-1.886,5.52-2.514,1.471.416-1.287,1.677.734,1.256,0-1.048,2.024-1.256,2.575-2.1,1.658,1.256,5.337-1.466,5.15.211a94.568,94.568,0,0,1,11.586-3.987c-.55,0-.55-.208-.734-.837,3.5-1.049,4.784-1.257,6.438-2.514,0,.208-.367.42-.367.629a136.931,136.931,0,0,1,13.24-3.772c.367-.42.551-1.049,1.1-1.473,1.288.424,1.654,0,2.392-1.042,1.1.2.917,1.466,2.2.625-.917-.208-.55-.629.183-.837a19.028,19.028,0,0,1,2.392-1.049c.183.629,1.287,0,1.287.837.37.629-1.287.841-1.287,1.257,3.128-1.045,2.945-1.886,2.758-3.351-1.287-.212-3.125.417-4.412.417-.551,1.889-5.887,2.306-7.174,2.1.553-.208.37-.628.736-.837.184.417.184.837.738.629a8.083,8.083,0,0,1,4.046-2.306c1.471-.42,3.308-.629,5.15-1.049-1.471-.841.734-1.257.366-2.306l-5.516,1.886c-1.841.629-3.678,1.049-5.333,1.469,1.654.208-1.1,1.257-1.658,1.678-.917-.212-3.862-.212-4.412.417.55-.208.55.212.734.628-2.2-.628-4.963.629-7.908,1.049,2.945-.628,1.471-1.049,3.5-1.886-2.209.208-3.312.208-4.6,1.678l-.184-.841a26.28,26.28,0,0,1-8.091,2.1,41.139,41.139,0,0,0-9.011,2.1c-.184-.42,0-.841-.738-.841-4.78,2.306-12.32,2.1-14.528,3.772-.366-1.045,1.837-1.886,3.125-1.674-.367-1.049-1.1-.841-2.022-.629a24.551,24.551,0,0,1-2.39,1.257l-.183-.629c-1.841.629-2.392,2.1-4.416,2.726-2.575.629-3.493-.629-6.8.417,1.287,1.257-3.5.84-4.6,1.889,5.15-.84-5.52,2.516-5.7.63,1.654-.212,1.654-1.05,2.758-1.47-2.575.63-1.471,0-2.2-1.048-2.026.628-2.392-.208-3.863,0,.367.84,2.2.42,3.125,1.048a1.361,1.361,0,0,0-1.288.63c-1.1-.209-2.024-1.466-2.941-.209a1.056,1.056,0,0,0-.738-1.048c1.841-.42,3.5-.837,4.784-1.257,1.47-.42,2.758-.841,3.862-1.049a45.974,45.974,0,0,1,8.645-1.049c4.045-1.678,8.824-.629,13.057-3.355.183.629,1.654-.208,1.654.629,5.7-2.306,12.507-.837,16.919-3.98-1.287.208-3.125,1.045-3.5.208,1.475-.208,7.911-2.935,6.808-.42a13.231,13.231,0,0,1,3.679-1.257c.366-1.466-2.392.629-2.575-.208,2.02-.629,6.621-2.515,8.641-1.469q5.67-1.686,11.4-3.143a41.631,41.631,0,0,1,4.967-1.049,37.253,37.253,0,0,1,4.6-.42c0-1.678,1.1.42,2.02,0,1.1-.837-.734-1.257.184-1.678.553-.208.553-.42.919-.629h.184c.553,0,.921-.208,1.47-.208s.921.42,1.475.208a2.593,2.593,0,0,1,.734-.628c1.471-.208,2.941-.629,4.416-.837.734.629,2.02,0,3.308-.629a150.054,150.054,0,0,0,16.736-3.775c3.128-.841,5.886-2.515,8.828-3.984.183,0,.553-.208.738-.208h-.184a21.455,21.455,0,0,1,5.15-1.677c-1.657-.42,2.2-1.469,2.388-1.889,0-1.257-1.654-.208-1.654-1.466-.921.42-2.207,1.469-2.758.837,2.392-1.257,4.412-1.466,6.253-2.723-1.1,0,1.288-1.469,1.654-2.1-.551.212-.366-.208-.183-.42-1.1.212-1.654,0-2.575.212,1.837-1.049-.738-.42-1.1-1.049.183-.629,2.207-.837,1.471-1.469-.918,0-3.863.42-3.68,1.469,2.392-.837,1.1,1.678.187,2.514-1.841-.629-5.152,1.678-6.807.212-.367.417-.367,1.045-.921,1.466-2.388.42-4.046.42-3.125-1.257a2.619,2.619,0,0,1-2.207,0c.553-.42,3.311-1.469,3.862-.837,1.1-.42,1.287-1.049,2.207-.841a11.566,11.566,0,0,0,1.105-2.094c2.575-.212,2.024-1.257,4.045-1.473l-.734-1.674c-1.1,0-1.474,1.257-2.024.837v-.208c1.1-.837,1.471-2.1.367-2.306.553-.629.921-.629,1.841-.629-.738-.208-1.471-.629-1.288-1.257.734-.42,1.471-.841,2.392-.212-.738-.417,1.654-1.674-.187-1.466a19.529,19.529,0,0,1-2.022,1.257l.184-.208c-1.1.629-2.026.629-2.209,0-.921.208-.921.629-1.654.837-.183-.42-.366-.837-.921-.837,1.471-.629,1.1-1.678,1.654-3.147-.366,0-.551,0-.734-.417-1.471,1.257-2.39,0-2.941,1.257-1.288-.841-.921-1.257-.921-1.889.738.212,1.837-.208,1.654-.837-1.654.628-3.308,1.257-4.046,2.514-.551,0-3.125.212-1.837-.837.183.208.183.42.734.42a3.03,3.03,0,0,0-3.862.417c0-1.045-3.125.212-2.022-1.045-1.658.417.183,1.257-1.288,1.674-2.945-.417-9.2,2.306-13.243,5.033.183-.208.921-.208.921,0-4.046,1.257-9.749.42-11.587,3.772-1.287,0,.55-1.045-.921-.837.184.212-.734.629-.917.212.367-.212.367-.42.183-.629,1.1-.212,1.839-.212,1.654-1.049-6.253,1.465-13.793,3.984-19.127,5.029-1.287.212-2.207,1.469-3.307.632,0,.629.734.417,1.1.417-.734.42-1.1,1.049-2.02,1.469-1.1-.841-4.416.629-6.255,1.886a23.174,23.174,0,0,0-7.174,1.886,12.061,12.061,0,0,1-5.883,1.049c-3.128,1.677-11.769,1.677-15.081,4.4-.549.208-1.1.208-1.1-.212-1.837.212-.366,1.469-2.392,1.678-.917.212-.734-.629-1.654-.417-1.1.837-2.207,1.045-1.47,1.466-1.288,0-1.841-.629-3.129-.629-.551,1.469-2.575.629-3.675.42a76.118,76.118,0,0,1-9.749,2.726c-1.837.417-3.678,1.045-5.517,1.466a23.421,23.421,0,0,0-5.333,1.886c1.471,0,4.229-.837,2.575.629,1.471-1.678,4.229-1.257,5.333-2.935,1.654.628,4.413-.629,5.7-1.466a4.258,4.258,0,0,0,3.128-.42c0,.629.734.42,1.1.629-2.2,2.1-6.066,1.678-10.112,3.355,5.15,0,7.908-1.049,12.687-2.306,0,.629.37,1.049,1.287.837,1.658-2.094,9.933-2.935,12.324-2.515,2.942-1.469,5.887-3.355,8.462-2.514-.738-.42,4.967-3.147,5.7-1.678.183.417-1.288.417-1.1.837,1.288,0,3.129-1.678,4.6-.629.734-2.306,7.724-1.678,9.746-4.4,1.287,0,1.657.42,1.474,1.257,1.837-1.045,2.388-1.045,4.963-2.514,1.475,1.049,4.233.212,6.808-.629A34.4,34.4,0,0,1,736.3,97.6c1.288-.212,2.2-.42,2.941,0-2.573,1.045-6.436,2.306-10.481,3.563a76,76,0,0,0-11.4,4.821c2.575-1.257,5.7-.629,6.988-2.515.187,1.674,3.678-.42,4.232.837-3.862.629-9.932,3.984-12.139,2.306.183.837,1.84.42,2.39,1.049-3.308,1.257-6.253-.212-9.011,2.515.183-.837,0-.837-.921-1.257a53.677,53.677,0,0,1-10.482,2.306c-1.471.208-3.308-.208-4.782.208-1.288.42-2.022,1.049-3.493,1.469-1.1.208-4.782,0-3.5,0-2.024.208-4.782.42-6.253,1.678,0-.42-.366-.42-.921-.42a.191.191,0,0,0,.187-.208,21.794,21.794,0,0,1-2.39.629c-.554,0-.921,0-.921-.42-1.654.42-1.471,1.469-3.863,1.678-.549-.629-1.47-1.049-3.124-.629-1.475.42-2.762,1.049-4.233,1.466-2.392-1.257-.183-.417-1.837.42-.921.42-2.392,0-2.942.841a14.9,14.9,0,0,1-3.128.208c0,.208.183.629-.183.837-2.209,0-5.15.212-6.988,1.257.918,0-.186.42-.37.632,1.841-.42,3.312-.841,4.6-1.049-2.39.837-4.6,1.678-6.436.629-1.287,1.886-3.678.629-5.333.837-2.207.212-6.808,2.73-7.357.841-.551.42-.367,1.257-1.654,1.257,0-.837-1.288-.629-2.026-.837-.549,1.465-2.758,1.465-4.6,1.678.734-.212,1.1-.629.55-1.049a1.791,1.791,0,0,0,2.207-.629c-3.5,0-4.416,1.257-7.357.837,0,.42,0,.628-.921.628.183.212.366.212.553.42a34.884,34.884,0,0,0-6.253,1.049c.183-.42,0-.841-.736-1.257.183.629-.551.629-.921,1.045.37.212.553.212.553.42a10.864,10.864,0,0,1-3.678.212c-.183-.42-.183-.841-1.1-.632.183.629,1.1,1.049-.184,1.469-2.024.42-2.758-.208-4.229-.42.184.629.918.841-.183,1.049-1.1-.208-6.07-1.049-6.253.208-5.7.212-10.115.212-14.344,1.049-.738-1.257-4.967,0-7.174-.208-1.288-.212-1.839-1.049-3.312-1.257-1.288-.212-4.046.417-6.249.208a44.844,44.844,0,0,0-5.337,0c-1.471,0-2.942,0-5.333-.208,0-.42,1.47-.212,1.287-.841-1.471,0-1.654,1.049-2.941,1.049-.921-.837-5.334,0-4.046-1.257-2.575-.208-2.209,1.466-4.416,1.257-1.1-.208-.917-1.049-2.2-.837-.37.629-1.1.837-2.575.629-.187-.42-.553-.42,0-.841-5.7,1.049-6.623-.837-11.956-1.257,0,.42.183.629,0,.837a7.252,7.252,0,0,0-2.942-1.045c-1.1-.42-2.39-.629-3.311-1.049v.42c-.551,0-1.1-.212-1.471-.212v.212c-.183,0-.366-.212-.734-.212,0,.841,0,1.469-1.1,1.257.921-.629.734-.629.551-1.678-.918-.208-.918.212-1.288.632v-.212h-.734c-.37-.837-2.392-.628-2.575-1.465-2.024.837-2.575-.212-2.207-.841-1.837.629-2.392.212-3.679,1.049-.734-.628,0-.42.183-1.257-2.022,0-1.654-.212-3.125-.841-.738.212-1.1.629-1.841.841-.734-.629-1.837-.42-.366-1.049-4.784-1.466-6.987,1.678-9.2.629a1.135,1.135,0,0,1-.366.629h-.738c-1.837-.42-4.229-1.257-6.436-1.678.183,0,.183-.208.366-.208-1.1.208-2.388-.629-2.758-.208h.183a12.076,12.076,0,0,0-4.78,0,36.3,36.3,0,0,0-9.011-1.889.621.621,0,0,0-.37-.208v.208c-.917-.208-1.837-.208-2.942-.417-.921-.42-1.47-.841-.734-.212a1,1,0,0,1-.736-.208c-.921-.42-1.471-1.049-2.024-1.049a2.436,2.436,0,0,0-1.288-.208h.183a.819.819,0,0,0-1.1,0l-1.658-1.257a4.09,4.09,0,0,1-1.837.208c-.554-1.469-2.024-1.049-3.5-1.049h-.551a2.977,2.977,0,0,1-1.841-.42.92.92,0,0,0-.734-.417c-.183-.212-.37-.212-.553-.42a5.369,5.369,0,0,1-2.575,0,1.108,1.108,0,0,1-.734-1.049c3.308,2.1,6.436-1.049,8.091,1.886.367-1.678,1.654-.208,3.863-.208-.367-1.049.736-.42,1.1-.837-2.024-.841-1.288,0-1.841,0-.367-.42-1.654-.632-1.1-1.257.551,0,1.288.417,1.471,0-1.841-.212-2.758-.841-2.945-1.681-2.388,0-3.862-1.257-8.824-2.094-.921.208.366,1.049-1.105.837-5.52-3.143-11.219-2.306-15.631-4.192-1.105.629.366,1.886-1.658,1.257-.917-.837-.551-1.257,0-1.886-4.412-.212-6.621-2.935-11.033-4.192a4.205,4.205,0,0,1-2.392.417,23.767,23.767,0,0,1-2.941-1.045c-2.024-.841-4.233-1.889-5.887-1.257,2.209.417,4.783,1.466,5.7,2.723-2.022.42-7.17-1.257-6.066-2.935-2.758,0-4.233-2.935-5.52-1.466,0-.841-1.1-1.889-2.575-2.73.553,0,1.287.42,1.474,0a14.9,14.9,0,0,1-4.232-2.931c-.551.208-.367,1.049.183,1.678a20.663,20.663,0,0,0-2.942-.841c.367,0-.549-.629-1.654-1.049-1.47-.628-3.128-1.257-4.6-1.886-1.654-.629-3.308-1.469-4.782-2.1a69.969,69.969,0,0,0-9.562-3.143c.183-.42.366-.837-.551-1.257-.37.629-.553,1.466-1.841.837,0-.837,1.471-.208-.183-1.049a2.066,2.066,0,0,1-2.392-.837c-1.1,0,.367.837-.734.629-.738-.42-1.474-.837-1.658-1.465.184-.42,1.288.208,1.105-.42-1.837-.212-2.209-.629-4.229-1.049-.367.837,1.471.629,1.471,1.886a38.45,38.45,0,0,1-8.275-1.677,66.476,66.476,0,0,1-8.278-3.143C343.468,72.443,337.952,69.5,332.8,67.2c-.187-1.049,2.941,1.049,1.654-.212-4.6-1.465-5.887-1.045-8.828-4.192-1.654-.837-2.209,0-3.312,0-1.287-1.466-6.8-2.1-8.091-4.821-.734.837-2.209-1.257-3.5-.841.37-1.045-.551-1.257-1.287-1.045.37-1.678-2.392-1.678-2.759-3.147-1.1.629-2.39-.42-3.862-1.678-1.1-.208.366,1.049-.734.629-2.024-1.886-6.07-2.306-6.623-4.821-1.839.629-7.909-3.147-8.826-4.824-.921,1.473-6.253-1.674-5.886-2.514a36.511,36.511,0,0,1-6.438-1.049c.367-.208.921-.417,1.288-.629a104.581,104.581,0,0,0-12.874-6.078,115.5,115.5,0,0,1-14.344-7.759c-.184.42-.554.42-1.288.42-2.575-3.772-11.953-3.772-10.852-7.339-2.575-1.257-.551.841-2.388.42-5.52-3.143-10.3-3.984-13.061-6.71-3.491-.629-4.778-1.674-9.194-2.935,0-.629,1.654.42,1.841-.208-5.15-2.1-7.911-2.514-11.4-5.661-.184,1.469-3.129-.208-3.68.629,2.759,1.257,6.438,2.935,7.358,5.033-2.392-.42-2.945-2.514-4.05-2.1,4.416,4.2,8.095,3.147,13.978,6.081-.183.42-.366.42-.734.629,1.839,1.469,4.412,1.886,6.253,2.306a43.657,43.657,0,0,0,7.354,4.192c2.575,1.257,5.15,2.306,7.911,3.355,5.333,2.306,10.482,4.4,14.528,7.759a16.077,16.077,0,0,1,6.069,1.886c2.2,1.049,4.78,2.094,6.987,3.143-1.287.841-5.7-2.514-6.8-1.465,2.02,1.045,9.745,4.192,10.482,5.869.183-.629.549-.841,1.287-.42,1.471.42.734,1.049,1.654,1.469.921-.629,4.229,1.045,7.174,2.723.367.841,1.837,2.306,2.575,1.889a7.762,7.762,0,0,1-1.287-1.049c1.287.629,2.2,1.465,2.941,1.677-.366-.212-.366-.42-.183-.841.734,1.049,4.412,1.049,5.7,2.935a4.45,4.45,0,0,0-1.837-.629c-1.841-1.049-2.207-.42-2.758-1.678,0,.212-.183.212-.553,0,0,.212-.184.42-.184.629,1.654.629,2.575,1.889,3.312,1.257.367.42.551.632.734.632a.839.839,0,0,0-.183.629c-2.392-.841-3.678-2.306-5.333-2.726,1.654,1.257,3.678,2.726,5.333,2.935a2.729,2.729,0,0,0,.921,1.257l.183-.208c1.287.42.551,1.049,1.1,1.469,1.471.417,4.229,2.935,4.412,1.674-1.654-.837-3.862-1.886-3.491-2.935a12.038,12.038,0,0,1,1.837.841c.367-.841-1.47-1.257-2.024-1.889,4.05,1.889,9.932,5.453,13.244,6.71.917-.628-1.471-1.049-.553-1.677.553.42,2.575.841,2.207,1.469-.183.417-.921,0-1.287.417-.184,0-.184.212-.184.212h.734c3.312,1.886,6.625,3.355,10.3,5.241s7.537,3.772,11.769,6.081c.734,1.886,6.8,3.143,9.2,4.609,3.125,1.889,8.828,3.987,13.423,5.873,3.68,1.465,7.358,3.563,10.854,5.241a43.559,43.559,0,0,0,10.3,3.772c-.183.42-.37.841.551,1.257.183-.417.183-1.045.738-.837a9.715,9.715,0,0,1,4.046,3.563,3.131,3.131,0,0,1,1.47-.417l.184.208c-.551,1.678-4.784.208-7.171-1.049,0,1.257-1.474-.837-2.392-.42-.183.841.734,1.469,1.471,2.1a1.825,1.825,0,0,1,1.1-.42c.367.212.734.629,1.1.841a2.42,2.42,0,0,0-1.1-.212c.734.212,1.839,1.469.734,1.049-6.253-4.4-15.448-7.547-22.251-11.739.551.208.551.629.738,1.049l-1.841-.841c.183-.42.366-.42.736-.629-1.841,0-3.5-2.935-4.782-2.935,1.1,1.049-.921,0-.921-.42-.551.629-.366.629-1.837.42.734.42,1.654.837,1.654,1.257-4.229-.837-9.562-4.821-13.608-7.127-1.658-.212,1.288,1.678-.553,1.466-1.105-1.678-4.046-.417-4.046-2.094.551-.42,4.967,1.886,3.312-.212-2.392-.417-4.6.629-6.991-1.886-.183,1.257-1.471,1.049-2.942.629.184-.208.367-.42.921,0a.636.636,0,0,0-.37-.208c2.024-1.049-6.987-5.869-6.8-3.987,2.209.216,4.6,2.73,6.621,2.938,0,.208-.183.629-.183.837q-2.507-1.585-5.15-2.935c.549.212.921,1.049.366.841-1.654-1.049-2.392-2.1-3.862-3.147-1.1-.208-3.125-1.466-3.5-.629,4.233,2.306,6.44,3.987,9.566,5.453-1.288-.42-2.575-1.049-3.312-.841-.917-1.049-3.678-3.563-5.883-3.772,3.308,2.094,5.883,4.192,6.436,6.286-.553-.208-1.287-.629-1.47-.417,2.39,1.886,2.02-.42,4.412,1.257.366-1.049-2.575-1.678-2.209-2.726a49.142,49.142,0,0,1,9.566,5.244c-1.471-1.049-.921.629-2.207-.212-.367-.42-2.392-2.1-2.575-1.678-1.1,1.049-6.8-.42-9.2-3.355-1.287.42-2.575-.417-3.5-1.257,1.471.628,2.026,0,2.942-.208-1.654-.841-2.022,0-3.308,0-.554-.42-.738-.841-.921-.841,1.1.841-.734.841-1.288.628.554-1.257-4.412-3.351-2.39-.837-1.837-1.049-2.022-1.886-1.837-2.306a20.041,20.041,0,0,0-4.967-.208c.366-.632,1.287-.42,0-1.257-1.288-.212-.551.417-1.288.417-.366-.208-.549-.42-.183-.837-2.392,1.045-5.333-3.772-6.619-3.355.549.42,1.1.629.734,1.049-2.022-1.257-4.413-2.514-4.78-3.772-1.1.837-1.475-1.261-3.129-2.1-1.287,1.466-9.377-2.514-8.274-3.567-1.841-.208-3.129.212-4.967-1.886-1.1,1.049,3.125,2.1,3.5,3.147-1.658,0-5.15-2.73-6.991-2.938-.921-1.466-1.654-2.306-1.1-3.143-1.287-.42-1.837.208-2.941.208.366.212,1.1.42,1.287.841a6.649,6.649,0,0,0-1.837-.212c-1.841-.629-3.5-2.306-2.945-3.351,1.1.837,2.024-.42,1.287-.629-1.1.837-4.229-1.049-5.516-.42,2.024,1.466,1.837,0,3.679,1.257.367,1.257-.921.837.366,2.1a25.415,25.415,0,0,0-6.436-2.935c.183-.629,1.471.417,1.288-.629-1.654-1.257-1.288.417-2.392.208-.734-.841-2.022-1.469-2.022-2.306C238.454,38.9,235.7,36.8,230,34.076c-1.1.841,2.942,1.469,2.759,2.306a70.7,70.7,0,0,1-8.828-2.723L220.614,32.4a.627.627,0,0,0,.553-.212c-.37-.208-.553-.42-.37-.837-1.287-.629-2.2-.841-2.758-.42.921.208,1.654,1.049,2.207,1.257a46.9,46.9,0,0,0-5.148-1.466c.183-.42.921,0,1.287-.42-3.5-.212-5.15-2.514-6.436-1.678-3.5-2.306-9.566-5.029-15.266-7.759-5.886-2.514-11.769-5.029-15.081-7.335-4.046-1.469-9.928-1.677-12.137-4.824-1.287.212-2.941-.629-4.782-1.257s-3.5-1.257-4.6-1.049c.734.42,0,.42-.736.42A36.367,36.367,0,0,0,146.5,3.468,61.313,61.313,0,0,1,134.36.325c0,1.678,7.174,1.678,5.7,3.563A33.831,33.831,0,0,1,146.13,6.4a23.188,23.188,0,0,0,5.7,2.306c-.737-.208-1.471-.629-1.658-.208.37.208,1.1.42,1.1.629-2.391-1.049-4.229-1.257-4.966-.629,3.862,1.049,9.011,2.514,12.14,4.612-1.288.837-7.908-2.726-8.645-2.306a90.861,90.861,0,0,0,9.749,4.821c-2.024.42,1.654.632.734,1.469-2.575,0-3.678-1.257-5.333-1.469.738.212,1.654,1.469.366,1.049-1.654-1.049-1.837-.629-3.675-1.257,0-.42,2.388-.208.734-1.049-2.208,0-6.437,0-7.541-1.886-.183.42.554.837.37,1.257a7.307,7.307,0,0,0-3.312-.629l.183-.837a16.721,16.721,0,0,0-6.8.208c-.92-.42-2.945-1.257-4.783-1.886-2.025-.629-3.862-.841-4.412-.42,2.758,1.049,6.987.837,8.458,3.143,3.679,1.049,7.541,2.306,11.22,3.355,3.5,1.257,6.8,2.306,9.012,2.935,1.47.42,3.124,1.049,4.782,1.678a32.912,32.912,0,0,0,4.6,1.889c2.575.629,6.621,1.465,7.724,3.351-1.47-1.257-3.678-.837-5.15-2.306-1.287,0,.554.841-.734.629a126.354,126.354,0,0,0-19.864-6.918c-3.5-1.045-6.987-1.674-10.482-2.514s-7.174-1.469-10.849-2.1l-11.036-1.886c-3.679-.42-7.357-1.049-11.036-1.466-1.838-.212-3.675-.629-5.516-.841s-3.679-.42-5.7-.629q-5.632-.685-11.22-1.677c0,2.726-8.461.841-11.036,0-1.471,1.469-4.962-.629-5.516.841,1.287.629,5.149.417,5.516,1.674-.917,0-3.129,0-3.129.42a14.6,14.6,0,0,1,3.312.42c0,.42,0,.837-.55.837a26.979,26.979,0,0,1-4.412-.417c-1.287-.212-2.575-.42-3.679-.629-2.208-.42-4.045-.841-5.516-.212a14.442,14.442,0,0,1,4.962,1.257,25.89,25.89,0,0,0,6.437,1.257c-.734,0-.917,2.31,0,1.473-.55-2.1,2.575-.216,3.862-1.261,1.841.208,2.391,1.049,2.575,2.1-1.654,1.045-6.253.417-8.274,1.466,0,1.257,1.838,1.886,3.679,1.469a23.4,23.4,0,0,0,6.987,1.466c1.287.212,2.575.212,4.045.42,1.287.208,2.762.208,4.233.42,2.758.208,5.7.417,8.458.629,1.287.208,2.758.208,3.862.42a17.34,17.34,0,0,1,3.5.837c1.1.208.55.837,2.025,1.049,2.388.208,5.516.417,8.641.837a17.662,17.662,0,0,1,8.278,3.147,30.166,30.166,0,0,1,4.6.837c1.471.42,3.129.841,4.783,1.469q.55-.943,3.312,0c-.921.417,0,.417-.187,1.257-1.287-.212-2.942-.629-3.675-.42.55.629,2.758.841,1.838,1.678-3.5-1.049-4.966,0-8.091-.629.917.42.734,1.049,2.575,1.257,2.575-1.257,7.908.629,9.562-1.257,1.1.629,1.654,2.1.554,2.306a21,21,0,0,0,6.8,2.726c2.391.837,4.966,1.466,6.8,2.723-.183,1.049-2.208.42-2.941.841,3.679,1.466-.737.629-.921,1.257,2.941,0,7.541,1.678,11.4,2.514a103.416,103.416,0,0,0,9.379,4.612c3.128,1.469,6.436,2.935,9.564,4.2,6.438,2.723,13.057,5.449,19.678,8.384,13.057,5.661,25.931,11.322,36.967,17.82,6.987,2.726,14.161,6.286,18.944,8.176C252.616,86.7,258.5,89,260.707,91.1a6.768,6.768,0,0,1,2.207.629.186.186,0,1,0,.367,0c2.39,1.049,5.52,2.515,7.357,3.355a2.729,2.729,0,0,1,1.1.629l-1.1-.629c-.734-.208,1.1,1.049,1.288,1.678-4.046-1.886-6.621-3.772-7.909-2.726a8.431,8.431,0,0,1-1.287-1.257c.367.212.921.42,1.1.212-2.941-2.1,0,2.094-2.575,1.045.184-1.678-3.311-1.466-2.207-3.143,1.471.629,1.654,1.678,2.392,1.049a77.11,77.11,0,0,0-10.667-4.824c1.288,1.889,4.967,2.306,6.987,3.563.367.632,0,1.257.367,1.889,1.841,1.678,4.049,2.094,5.337,3.563-1.1-.212-2.392-.629-2.392-.42-3.312-1.678-2.575-2.723-6.253-4.612.183.212.366.42-.183.212-3.129-1.257-4.233-2.515-7.174-3.355-.921-1.049-3.5-4.4-4.229-2.1,2.02.629,4.229,1.886,4.412,3.147,3.862,2.514,6.991,1.678,9.194,3.98-2.02-1.045-3.675-1.257-4.778-.837,2.02,1.257,2.02-.42,4.045,1.049-.183.42-.921,0-1.287.42,2.392.629,6.621,2.306,6.987,3.98-2.575-.837-4.78-1.886-6.8-2.723-1.1-.629-1.471-1.049-.183-1.049-1.471-1.257-3.678-1.886-4.967-2.726h.367c-.734-.417-1.837-1.257-2.758-1.886-.921-.837-3.308-1.886-3.125-.837,1.654,1.045,2.575.417,3.308,1.674l.183-.208c.37.208.554.42.921.629-.551,1.469-2.207-.42-4.046-.629-.183.42.367.837.184,1.469a32.652,32.652,0,0,1,2.941,1.465c.554-1.049,3.5,1.257,3.863,1.469-.184.417-.918.208-.734.837,1.1.629,1.1,0,2.39.841-1.841.208-5.7-1.469-7.908-2.938,3.676,3.355,7.537,4.4,11.4,5.244.921,1.466,4.233,3.563,5.15,3.98-.549-.417-.549-.629-.366-.629l1.654.629a3.747,3.747,0,0,0,.736,1.049,1.138,1.138,0,0,1,.367-.629c.37.212.553.212.921.42.551.42,1.1,1.049,1.837,1.049-.734.208-.734.417.187,1.045,0-.629,1.288.212,1.654-.208,2.575,1.469,5.15,3.355,7.724,5.029.183.215-.183.632-.554.632,2.392,1.049,3.5,2.1,4.967,2.306.183.208.37.208.738.42a57.688,57.688,0,0,1-14.9-6.918c-1.471-.841.921,1.466-.734.629-3.5-2.935-11.4-6.081-17.656-8.387.366-.208.738-.208.366-.837-3.679.629-8.457-3.772-11.769-4.612.366.208.921.42.921.837A93.218,93.218,0,0,0,226.5,87.749a62.945,62.945,0,0,0-11.957-4.4l.37-1.049q-6.784-2.211-13.427-4.821c-1.471-.629-2.758-1.049-4.229-1.678a7.839,7.839,0,0,0-1.287-.841v.212q-4.2-2.088-8.275-4.4c0,.42-.553.629-1.1.42-.183-.212-.183-.42-.37-.629a13.774,13.774,0,0,0-3.308-1.049,6.113,6.113,0,0,1-1.654-.841,3.243,3.243,0,0,1-.921-.837c-.367,0-.367.208-.367.208-.37-.208-.553-.208-.921-.42q-.275-.316-.553-.629c-1.1.42-5.15-1.886-5.333-2.306-.551-.208-.734,0-.551.42-.921-.42-1.841-.629-2.758-1.049-.554-.208-.921-.417-1.471-.629a2.435,2.435,0,0,0-1.1-.42c-3.5-1.257-7.174-2.515-10.852-3.563,0-.208.183-.208.553-.417-1.658-.42-.921-1.257-2.945-1.677-.551.837.553,1.045,1.1,1.677a11,11,0,0,1-2.392-.841,43.711,43.711,0,0,0-4.966-1.465.62.62,0,0,0-.367-.212c-1.1-.208-2.021-.629-3.125-.837l-8.278-2.514c-5.15-1.257-9.929-2.73-14.711-4.2.183.208.367.208.183.629-2.025-.837-4.045-1.678-5.887-2.306-.183-.208-.367-.42-1.287-.629v.208q-2.91-.946-5.883-1.674c-3.129-.629-6.253-1.257-9.565-1.678a1.74,1.74,0,0,0-1.471-.212,5.859,5.859,0,0,1-1.838-.417,3.372,3.372,0,0,1-.921-.841c.367-.42,1.654,1.049,1.474.208a6.1,6.1,0,0,0-2.762-1.466l-.183-.208c-.921-.212-2.025-.42-2.942-.629-2.025-.212-3.679-.212-4.416-.629,0,.417-.917.629-1.1,1.045a31.289,31.289,0,0,0-4.412-.208v-.837c-.737.208-1.654.208-2.575.417a12.112,12.112,0,0,1-2.758.212,17.813,17.813,0,0,1-4.966-.841c.55,0,.55.42.55.837-2.575,0-4.783,0-5.15-1.045a4.646,4.646,0,0,1-4.045-1.257c-2.021.208,0,1.466-1.1,1.674h-.734V38.9a5.049,5.049,0,0,1-1.841.208c-1.654-.208-3.308-.208-4.962-.42q-4.035-.372-8.091-.417H31.734c-1.471,0-2.942.208-4.412.208h-.737c.183-.837-1.471-.42-1.287-1.257,1.654-.42,2.025.208,3.679-.208.55-.212,1.838-1.473.367-1.473-.734,1.052-3.129.424-4.6.424.18.629-.554.629-.921,1.045,1.474,0,.367,1.257,1.287,1.678-2.208.212-4.229.42-6.437.629-1.474.212-2.942.212-4.412.42l-4.416.629c-5.7.841-11.4,1.678-16.552,2.935,17.29-2.723,34.576-3.98,52.782-4.821,0,.837,3.308-.42,2.575.837a49.7,49.7,0,0,1,7.911,0h.55a5.457,5.457,0,0,0,1.838.212,58.832,58.832,0,0,1,6.07.629c2.758.42,5.516.837,8.278,1.049a24.006,24.006,0,0,0,3.862.208c1.284,0,2.571.208,3.675.208,0,.42-.18.841.37,1.049-.37-1.257,1.1-1.045,2.2-1.257.921,1.469,4.783.629,6.991,2.514.921-1.257,6.8,1.257,7.908,1.678.55-.208.55-1.045,1.654-.837.183,1.049,2.391.42,3.308,1.465,1.658-1.045,4.233.212,6.624.42.183,1.886,3.308,1.678,5.887,2.306,1.1-.208-.554-.837.734-.837A41.193,41.193,0,0,1,121.3,49.59l4.6,1.469c3.129.837,6.253,1.886,9.382,2.726,2.021.629,4.046,1.257,6.066,2.094,1.1.629,2.025,1.678,3.312,1.257a1.037,1.037,0,0,1-.921-.417c.37.208.737.208,1.1.417l4.966,1.889c1.654.629,3.312,1.466,4.966,2.094-.367,0-.921-.42-1.1,0,1.47.841,1.1-.42,2.575.42-.184.837.736.837-.367,1.049a12.555,12.555,0,0,1,4.229,1.466c-.183,0-.366,0-.366.212,1.837,1.466,0,.629-1.1.417q-1.731-.672-3.5-1.257c-.366.42.554,1.049-.183.841-.734-.42-2.941-.629-2.758-1.257.738-.42,1.837,1.466,2.024.208q-2.317-.788-4.6-1.678-1.86-.448-3.679-1.049c.921.42,2.941,1.886,1.1,1.886a90.764,90.764,0,0,0-13.611-5.241c-4.779-1.257-9.378-2.514-13.241-3.563-11.219-2.935-22.619-6.5-35.126-8.6v-.629c-2.391.42-4.6-.208-6.624-.628a11.19,11.19,0,0,0-5.883,0c-1.287-.42-2.758-.837-2.941-1.678-.921,0-2.945-.629-3.129,0,2.208,0,3.308.629,3.5,1.886a46.181,46.181,0,0,1-6.62-.628,51.33,51.33,0,0,1-6.991-.837,51.082,51.082,0,0,1-8.274.42,43.907,43.907,0,0,0-7.911.629c1.474.417,3.866,0,5.887,0s3.862.208,4.049,1.678c-3.129-.841-5.52,1.257-9.015.417.187,1.049-.917,1.049-2.942.629-1.1,1.257-3.5,1.257-6.253,1.257s-5.516,0-7.541,1.049a13.932,13.932,0,0,0-4.6-1.045c-.183,1.045,1.838.208.55,1.045.921.212,2.945-.629,2.945,0-2.575.42-5.149.629-7.541,1.049A66.733,66.733,0,0,0,8.928,51.06c-2.2.42-4.412.837-6.437,1.257l-3.308.629a19.136,19.136,0,0,0-3.308.837c.55,2.73-5.153,1.473-6.624,2.514,2.391.841-4.045,1.052-5.887,1.473a59.322,59.322,0,0,0-11.219,4.4c2.395.837,4.783-1.678,7.728-1.678a1.921,1.921,0,0,1-1.1,1.886c-.554-.417-3.308.841-2.758,1.678,2.575-1.049,4.046-.837,6.253-1.049-2.575,1.473-5.887,4.2-9.382,3.355-1.838,1.889-5.333,1.889-9.2,3.772,1.287,1.261-3.308,2.31-6.253,3.147-2.021,2.1.37,1.889-3.129,3.355,1.291.212,2.025-1.049,2.949-.629-.554,1.678-1.108,3.355-4.416,4.192,0-.417.55-.629.734-1.045a17.026,17.026,0,0,0-3.308,1.674A5.894,5.894,0,0,0-51.579,82.5c-2.391,0-1.654.629-3.129,1.469-2.388,1.257-6.437,1.466-7.17,3.563,1.841,0,3.862-1.886,4.966-.629-1.471,1.466-3.308.42-3.129,1.466,1.474.42,5.7-2.514,6.257-1.045l-2.762,1.045c.187.841,2.575,0,1.474,1.469.55-.42,2.388-.629,2.2-1.049-.917.42-1.471.212-1.654-.42A51.6,51.6,0,0,1-49,86.7c-2.758,2.935-10.3,5.449-14.161,6.706-.18.629-.18,1.469-.921,1.889,2.025-.841,4.232-1.473,1.654-1.257,1.658-.841,2.212-.215,3.129.208-2.941,2.514-2.575.417-5.333,2.094,1.654-.42,2.391-.208,1.287,1.049,4.229-1.049,9.565-2.306,12.324-3.984,1.1.841,3.308-.208,5.516-1.049s4.412-1.257,5.15.212c1.838-.42.183-1.886,2.391-2.306,1.471,0,2.758.208,4.412.208,1.1-1.257,3.862-1.677,4.6-.837-.554.208-.367.629-.737.837-1.838-.42-6.437,1.257-8.091,2.514,3.308-1.045,7.541-1.674,10.3-3.143-.55,0-1.287.42-1.474.208,1.291-.417,1.291-1.045,2.578-1.257.367.629-1.1,1.257.734.841.554-.42.737-1.049,1.654-1.257a22.559,22.559,0,0,0,10.486-2.1,5.03,5.03,0,0,0,1.838.208h2.025a25.767,25.767,0,0,0,4.229-.837C-2.659,85.023-.267,84.811.47,86.7a17.529,17.529,0,0,1,10.849-1.049c.921-.212.183-1.049,1.287-1.049,1.841.629,4.233,0,6.437-.42,2.391-.42,4.783-1.049,6.991-.837-.183,1.257-4.6,0-3.129,1.466a25.845,25.845,0,0,1,8.828-.629c2.758.212,5.333.841,7.724.841-.183.629-2.021.417-1.654,1.257,1.471,0,4.412.42,6.253-.212.18.42.734.632.55,1.257a9.293,9.293,0,0,1,4.783.212c1.654.42,3.129.837,4.962,1.257.554-.629-1.1-1.257,0-1.257h2.578c-.554.42-.554,1.049.367,1.257a13.881,13.881,0,0,1,2.941,0c1.1,0,2.025.212,3.129.212a18.309,18.309,0,0,0,5.883-.212c-1.471,1.049,1.1.42,1.287.42,0,0-.18.629,0,.629.737.208,1.841.42,2.762.629a15.873,15.873,0,0,0,3.308.42c2.208.208,4.783.42,6.991.629a29.032,29.032,0,0,1,6.437.837,13.251,13.251,0,0,1,3.859,1.257c-.734-.837,2.208-1.466,3.679-.208.187.841-.917.42-1.1,1.049.734,0,1.287.208,2.021.208.737.212,1.287.212,2.025.42,1.287.212,2.758.629,4.229.841,1.474.417,2.758.629,4.229,1.045a25.723,25.723,0,0,1,4.232,1.257c2.942.841,5.883,1.681,8.825,2.73,1.474.417,2.945.837,4.6,1.465,1.471.42,3.125,1.049,4.6,1.466-.37-.208-.92-.208-.737-.629,2.942,1.257,4.966,2.1,6.8,2.935a40.447,40.447,0,0,0,6.437,2.306c4.233,2.1,12.691,5.032,15.082,6.29-.367-.417-2.392-1.678-1.1-1.466,4.233,3.772,8.462,5.449,15.083,8.384,0,1.257,3.124,2.935,4.6,2.935,1.47.841,0,.212-.187,1.257.37.632,3.128.42,3.678,1.678-.183.42-3.308-1.045-2.022-.208,2.022.629,1.839.837,3.308.629.554.629.554,1.257,1.1,1.886.736,0,.183-1.257,1.654-.417-.184,3.143,6.436,3.772,8.644,6.287-3.308-1.046-6.436-2.094-9.377-3.352a76.439,76.439,0,0,0-7.724-3.147c.549.212.549.629-.184.629l-1.47-.417a1.106,1.106,0,0,0-.187-1.469c-2.022,0-1.837-1.257-3.491-2.1-1.841-.208-4.967-1.466-7.909-2.723a62.883,62.883,0,0,1-7.174-3.355c-2.207-1.049-10.3-2.935-12.14-5.449-.183.417,0,1.045-.734.837a56.783,56.783,0,0,0-5.333-2.514c-2.025-.841-3.679-1.469-3.679-1.469-.367.208.183,1.049-.554,1.049-.917-.42-.917-1.257-1.654-1.886-2.575,1.045-5.15-2.514-8.274-2.1.367,1.469,2.021.837,1.838.42.737.417,1.841.629,2.208,1.045-2.025-.629,0,.42-.183.841a1.941,1.941,0,0,1-1.841-.42c-.367,2.1,4.783,1.469,6.807,2.1,2.2.628.734,2.306,3.308,2.935.183-.42-.55-.629-.733-1.049,2.021.212,4.779.42,5.883,1.886-1.654-.417-.55,1.049.737,1.257.367-.208.734-.208.917,0a.19.19,0,0,0-.183.212,3.3,3.3,0,0,0,2.391.208.188.188,0,0,1-.183-.208h.554c-1.474.837,2.758,1.049.55,1.886,1.471.42,1.471.212,1.654-.208,1.658.629,4.6,2.726,6.069,2.094,2.942,2.514,4.967,1.473,9.2,4.2.183-.841-1.287-1.469-1.654-2.1a13.991,13.991,0,0,0,3.125,1.049c-.184.42.183,1.049.736,1.469h-.921c.554.208,1.288.417,1.841.629,2.022,1.466,5.15,2.935,6.438,4.4.183-.208.183-.837.734-.629,1.287.42.553,1.886,2.207,1.678.551-.837-1.841-1.049-1.1-1.886,2.575.629,6.987,1.466,9.379,3.144-1.471-.838-2.942,0-2.2.42,1.288,0,2.2-.42,4.046.42-.554.208-.738.836-1.288,1.044,2.392,1.258,5.15,1.678,6.987,2.73-.183.208-.549.208-1.1.208-3.308-1.048-8.091-4.195-10.3-3.567,3.5.84,7.174,3.772,11.4,4.824-.549,1.466,6.255,2.094,6.991,4.4a19.973,19.973,0,0,1,4.412,1.258c.184.42.551.84.738,1.256v.42c.183-.208.183-.208.367-.208.921.628,2.207,1.678,2.941,1.47.921.416,1.471.836,1.471,0,.921.416,0,1.044.553,1.677,1.654.63,3.491,1.466,5.333,2.094l-.183.212a5.747,5.747,0,0,0,2.2.63,20.917,20.917,0,0,1,4.049,2.722c-.37-1.466-.921-1.046.734-.838a6.713,6.713,0,0,1-2.207-1.468c1.287.632,2.024,1.048,3.311,1.678-.366.212-.921.42-1.287.628,2.941.84,2.575,2.1,5.516,2.938v-.212a2.419,2.419,0,0,0,1.1.212,5.334,5.334,0,0,1-1.471-.84c-.183-.42-.367-.63.738-.63-.371.63,1.1,1.258,1.654,1.886,1.1,0-.554-1.465,1.287-.836a57.653,57.653,0,0,0,6.253,2.514c-.553.838,2.575,2.306.921,2.514,2.942,1.47,3.308,2.306,5.333,2.1-.921.42.734,1.469-.921,1.678.921.42,1.1.208,2.024.628,0-.628-.736-1.886.918-1.258.921.63,2.024,1.05,2.945,1.678a.754.754,0,0,0-.187.416c1.841,1.05,5.7,2.73,8.278,5.034a16.1,16.1,0,0,1-6.619-3.356c.917,1.47,3.678,3.146,6.066,4.2-1.471,0-9.379-5.453-9.2-3.564a2.578,2.578,0,0,0-1.654-1.889,23.5,23.5,0,0,0-3.862,0c.921-1.886-3.125-.63-2.942-2.516-1.47-1.048-1.287.209-2.207-.212-1.1-.836-1.471-1.885-2.758-2.722a71.45,71.45,0,0,1-8.462-3.355c-2.758-1.258-5.516-2.936-8.274-4.4-5.521-3.144-10.669-6.286-16-8.592,2.209,1.466,5.15,2.722,5.887,4.192a8.73,8.73,0,0,1-1.654-1.258v-.212c-.738-.208-1.658-.628-2.207-.42a1.536,1.536,0,0,0-1.105-.628c.551.42.921.628.921.84-.183,0-.183.208-.183.208h-1.1c.734.842,2.392.842,3.308,2.726.37-.42-.367-.836,0-1.256.921.628.553,1.258,1.471,1.678a15.223,15.223,0,0,1,5.7,1.465,56.767,56.767,0,0,1,6.253,3.148c2.022,1.044,4.229,2.306,6.253,3.351a40.507,40.507,0,0,0,6.253,2.73c-.187,1.674,1.837,1.674,1.837,1.046a6.411,6.411,0,0,1,2.575,3.355c2.575-.84,7.541,4.192,10.667,4.192,1.1,1.678,3.5,2.726,6.07,3.772a49.673,49.673,0,0,1,6.8,2.938c-.183-.212-.366-.212-.366-.42l2.207,1.256c2.942,3.146,8.275,4.4,12.691,7.339a20.274,20.274,0,0,1,3.125.628c.549,1.258,3.494,2.306,5.516,3.564.738-.628,1.658-.836,3.862.628a11.156,11.156,0,0,0-5.15-4.192c.184,0,.184-.208,0-.628-1.287-1.048-2.758-.42-2.941-1.256a2.176,2.176,0,0,1,2.024.416h.183c.918.632,1.654,1.468,2.575,2.1.734-.42-.736-.838-.921-1.258a2.427,2.427,0,0,0,1.1.42c1.287.63,2.575,1.258,3.679,1.674.366.212.551.632.917,1.05,1.1.42.37-.209-.183-.63.183.212.553.212.738.42a3.963,3.963,0,0,1-.921-.628V188.8a7.525,7.525,0,0,0,1.47.416c.184,0,.184.212.37.212a6.5,6.5,0,0,0,.918,1.466c0,.84-2.022-.628-1.837.42a8.881,8.881,0,0,1,3.862,1.886c1.1.208,1.1-.836,2.758,0,.921.42.738,1.048,1.471,1.47h-.183c3.678,1.256,9.011,4.191,9.932,6.5,3.125,1.05,5.883,2.1,8.828,3.144a72.332,72.332,0,0,1,8.641,3.987c0,.418-.551,1.046.187,1.258.551-.42,2.02.208,2.941,0-.183,1.044,1.288.628,1.288,1.256-.738-.212-.738.417-1.288.417a6.713,6.713,0,0,1,2.392,1.469c.734-.628-1.658-1.048-.553-1.886,1.287.63,1.657.209,2.758.63,1.658,1.886,5.337,1.465,8.645,4.192-.367.208-.921.208-.921.836,1.841.84,2.207-.416,4.049.212-.187.416-.921.208-1.287.416,1.654-.416,3.675.632,5.7,1.678,2.024,1.258,3.678,2.514,4.6,2.934-.553-.208-1.1-1.044-.37-.836a109.635,109.635,0,0,0,11.957,5.028c3.862,1.472,7.723,2.73,11.769,4.2,0,.42-.921.208-.183.628,3.675,1.258,22.989,4.4,18.756,6.71.371.208,1.1.42.921.628-.549-.208-1.47-.628-1.654-.208,1.471,1.046,4.78,1.256,7.171,1.886a10.487,10.487,0,0,0,1.287,1.677c4.416-.84,6.438,3.352,10.854,3.772,0,.84-2.209-.42-1.841.628,6.069-.416,15.265,4.2,23.355,5.454,0,.836-3.124-1.05-2.388.208,1.471.212,3.308.628,5.15,1.048,2.022.42,4.046,1.05,6.251,1.47a120.3,120.3,0,0,0,12.507,2.722c-1.837.42,2.024.84,2.024,1.678-5.15.84-10.115-2.306-17.106-2.306.187.42-.918,1.256.37,1.677,2.2-2.306,9.011,1.05,13.791,1.258.187.42,1.658.628.921,1.47,4.6-.842,13.244,1.465,19.681,3.771,1.837-1.044,5.517,1.05,8.458.84-1.287.209-1.1,1.466-2.941,1.258-.554-.836,1.837-1.048-.367-1.258-.553,1.05-2.575.838-4.6.421s-4.229-1.05-5.15-.842c1.471.42-.921.42-.183,1.258,2.575-.416,4.6,1.048,6.8.42,1.1,1.048,5.886,2.726,3.5.628,1.837,2.1,6.436,1.47,8.274,3.148-6.253-1.258-8.641-.212-13.24-1.05,2.575,1.466,4.229,1.258,6.8,1.678,0,.416-.367.628-.734.836,4.045.838,7.54,1.258,10.665,1.886,1.654.42,3.125.84,4.6,1.258s2.942,1.048,4.6,1.677c.183-.416,0-.836.553-.836,3.676,1.678,10.482,2.1,14.344,2.306-.736-.208-1.287-.208-1.1-.628,2.575.42,5.517.208,5.7,1.465,1.287,0,.553-1.256,2.392-1.044,1.654.836,2.39,2.094,4.416,2.722-1.841-1.256,7.908-1.048,5.148.628,3.676.421,5.517-.208,8.092,1.47a14.214,14.214,0,0,1,3.5-1.258c-.371-2.934.917-3.146.734-5.244-3.125.632-5.334.842-6.253-1.256-.735.84-5.334.42-6.255-.418-4.045,1.466-9.194-1.469-15.448-1.677.37-1.47-1.837-.63-2.758-1.886a25.962,25.962,0,0,0,5.7,0c-.921.836,0,1.256,1.1,1.886.917-.84,3.676-.42,4.6.42.736-1.258-2.392-.628-2.759-1.47a63.39,63.39,0,0,0,6.8-.628c1.1,1.678,5.333,2.1,7.908,1.466,1.1.84,1.1.84,0,1.469a53.469,53.469,0,0,1,8.279-.42,20.142,20.142,0,0,1,6.987,1.47c1.474-2.1,6.07.836,7.911.42-.738-.212-1.475-.42-1.658-1.05,1.841.209,1.658-.42,3.5-.212,0,.63.549.842,1.1,1.05.734.208,1.654.208,2.207.42.551-.628-1.657-1.048,0-1.258,4.78.421,6.621.63,10.3-.212.551,1.05,0,1.89,3.491,1.89a1.9,1.9,0,0,1,.555-1.256h-.183c1.837.208,3.491.628,5.333-.212h.183c.183,0,.366-.209.551-.209.921.209,2.207.209,1.841,1.258-1.1-.208-.554-1.048-2.209-.836.738,1.256-2.207,1.465-3.862,1.465,3.679,0,6.07,3.356,7.54,1.05,5.7.42,9.562,1.465,15.449,2.306-.183.416-.921.628-1.1.836,3.125.42,4.782-1.678,5.15,0-2.758.212-6.07,0-7.358.84a6.439,6.439,0,0,1,2.392.418c-2.575-.63-.551,1.256-5.15.84.554,1.048-1.654,1.048-1.654,1.886,1.471.42,3.863.208,4.6,1.048-4.413,1.05-7.171,1.05-9.746-.208.921-.212,2.942.208,2.942-.42-3.125.208,2.024-1.048-1.1-.84-1.654,1.256-3.68,1.469-5.7,2.1,1.1-1.258-2.575.836-3.5-.838-.921.208-1.1,1.046-2.207,1.258-4.6-1.886-13.242-1.678-18.024-2.1.921.42,2.575.208,2.392,1.257-.551,0-.734.212-1.105.212-1.837-1.256-5.7,0-6.436-1.677-2.941,0-2.941.208-4.6-.42-.554.628.366,1.469-2.942,1.048.183-.628,1.654-.42,1.654-1.048-2.207-.209-5.52,0-8.461,0a27.4,27.4,0,0,1-4.229-.209,8.44,8.44,0,0,1-2.942-1.048c-3.862,2.1-8.645,1.048-13.244.208-2.39-.42-4.6-1.048-6.619-1.256s-4.046-.421-5.517.42c0-.42-.921-.42-1.1-.842,1.471.421,2.024.212,1.837-.628-2.941-.208-2.758-.42-6.8-1.466.738,1.678,5.15,2.094,6.8,3.564-1.287.42-4.229-.208-6.436-.42.738,1.048,5.887,1.678,7.541,1.886a1.472,1.472,0,0,1,1.287-.838c.737.208,1.471,1.05,2.207,1.258,3.863.628,9.563-.42,11.587,1.469-2.024-.42-2.942,0-3.5.63a116.605,116.605,0,0,1,12.874.836,58.82,58.82,0,0,0,6.436.42c2.207.208,4.782.208,7.54.208,0,.212-.549.42-.549.63,3.862-.417,7.908.84,12.137-.417-.184.417-.918.417-1.1.838a52.729,52.729,0,0,0,6.438-1.05c-1.288.63,2.024,1.05,2.392,1.89-.184-.628.37-1.048,1.657-.84,1.288.42-.736.628.551.84,2.941-.42,6.436-.42,8.645-1.258,0,.63-2.945,1.046-1.1,1.466,1.837-.836,5.148-.628,8.457-.208,3.312.208,6.625.628,8.279.836-1.654-.208,1.837-1.048,2.207-.42.734-.836-2.392-.836-.553-1.256.921,1.048,4.6.212,5.333.628.921,1.048-2.022.212-1.654,1.048a32.42,32.42,0,0,0,8.274,1.05c-5.333,1.466-16.181-.42-23.723,2.1.551.628,2.575-.42,3.5-.42.551,1.885,2.022,0,3.491.836-.734,1.258-2.2,1.258-3.862,1.048-.917,0-1.654-.208-2.575-.208a7.652,7.652,0,0,0-2.2,0c.734,0,1.471,0,1.1.63-.553,0-.736.208-1.1.208-3.679-.208-10.115-1.258-10.482.42-2.945-.212-5.15-2.1-7.54-1.47,2.941.63,5.882,1.258,6.987,2.73,0,.416-4.229.205-2.392.626,4.233-1.05,5.887-.838,9.932-.838-.366-.42-2.941,0-2.39-.84,1.841,0,4.6-.42,4.782.628-1.654.42.921,1.47,1.287.84-1.654-.211.367-1.048,1.1-1.256.183.416,1.47.208,2.39.208a1.925,1.925,0,0,0,.551,1.258,10.964,10.964,0,0,0,4.046-.838c3.679.63,8.278,0,12.69-.628,2.209-.42,4.412-.628,6.438-.84a56.163,56.163,0,0,1,5.7-.42c1.475-.838,4.416-.418,4.05-1.258.734.212,3.862.42,4.045,0-.366-.42-2.758.212-2.945-.42,0-.416.555-.416,1.1-.628,1.658.628,1.841.212,3.5-.209a12,12,0,0,1,1.841.838,61.593,61.593,0,0,1,8.641-1.258.88.88,0,0,1-.549.842,6.8,6.8,0,0,1,4.045-.212,14.259,14.259,0,0,0-3.862,1.889c2.39-.84,6.619-1.048,7.357-2.306-1.1,0-2.207,1.258-2.945.418a18.87,18.87,0,0,0,4.416-1.674c0,.628.734.628,1.837.416-1.1.84.921,1.47,2.024,1.886.184-1.046-1.287-1.046-1.47-1.886,2.758,0,.549-.628,1.654-.836,2.941-.421,3.311.628,5.886.42-.553,1.044-2.762,1.465-3.862,2.3,3.308-.208,3.308-1.466,6.066-1.886,0,.84-.917,1.048.738,1.048,3.494-2.1,10.665-2.726,15.081-3.771-.921-.632-1.658.836-2.392,0,0-.42,1.1-.632,1.654-.842.367.63,2.207.209,2.024,1.47,2.942-1.47,6.621-1.258,10.667-2.306.549.416,1.653,1.886,2.941.628-.734,0-1.288.208-1.288-.42a19.361,19.361,0,0,1,3.312-.84c1.1-.208,2.575-.628,4.412-.836.738,1.885,5.333.836,7.724,1.469,1.1-.628-.917-.628.37-1.048,6.066.208,9.562-.63,17.286-1.47-3.5,1.258,3.5-.42,1.288.84,2.207-1.048,5.886-2.514,7.724-2.514-.367-.212-.367-1.256.183-1.256,1.287.208.366,1.044,2.39,0-.183,1.044.551,1.674,2.026,1.256.734-.42-.187-1.048.917-1.472,1.841,0,2.207-.208,3.5-.208a3.47,3.47,0,0,0-1.471,1.256c1.837-.624,1.1.42.734.842a18.144,18.144,0,0,1,4.782,0c-.366-1.466-1.837-1.886-.732-3.144-1.841.208-1.841-1.048-2.575-1.468,8.274-1.886,19.124-3.984,26.664-3.564q-1.375,1.887,1.1,2.514c.921-3.142,4.416-3.983,8.645-4.4,1.1-.212,2.022-.212,3.125-.42s2.024-.42,3.128-.628a14.961,14.961,0,0,0,5.517-2.1c.366-1.886-.921-1.678-1.471-3.354,4.229-1.046,4.967-2.936,6.436-4.4,3.125-1.47,4.413-1.678,7.908-3.148.184.42.367.63,1.288.212,1.471-.628-1.654,0-.921-1.256,3.678-1.258,3.862-4.2,7.357-4.824-1.471-1.258-.734-2.514-.366-3.356.183.421,1.654-.208,1.654-.628-.921.212,0-.42.921-.628-.921.84,3.308,1.256,3.5-.208-2.026,0-5.521.836-4.416-1.258-1.837.838-2.758.628-3.5.208a17.677,17.677,0,0,1,1.841-1.886,7.992,7.992,0,0,0-2.575-.628c2.207-1.678,7.907-4.612,11.033-3.567,2.024-1.046,3.679-4.4,6.07-3.144a7.977,7.977,0,0,0-2.759,2.514c2.024-.628,4.229-3.351,6.253-2.514a43.685,43.685,0,0,1-8.461,5.45c-.734-.208-1.837-.208-2.022.212.55-.212.734.208.55.42a43.643,43.643,0,0,1-6.8,2.3c2.209.212,4.967-.836,7.725-2.094a2.1,2.1,0,0,0,1.1-.208c0-.212,0-.212-.183-.42,2.575-1.258,5.15-2.726,7.354-3.988a24.044,24.044,0,0,0,9.749-3.98c1.287-.208,1.654.42,2.941.209,3.863-1.678,11.953-7.544,12.691-4.192,2.024-.209,0-1.05,1.287-1.47.921,0,2.024-.208,2.024.84-4.232,4.4-11.036,8.6-15.819,13,1.658.212,3.863-.208,4.416,1.048,11.586-4.4,13.795-12.787,25.564-16.979-2.573-1.886,1.839-5.028-1.474-6.29a17.11,17.11,0,0,0,1.841-.84c1.471,0,2.575.212,2.575,1.05,1.654-.418.551-1.046,2.207-1.466,1.1.628-.553,2.094.918,1.886.553-.838.553-1.678,1.841-2.514.366.208,1.1,0,1.47.208-.183.628-3.128,1.048-2.207,1.677,1.287-.208,2.207,0,3.862-.84-.734-.628-2.575-.416-.183-1.674,1.1,0,2.024.418,3.312.418-2.024-.838-2.392-2.306-1.471-3.984-1.475.628-1.474-.416-2.207-.628.919-.417,3.124-.838,2.207-1.466-2.024.628-1.288.628-2.945.42,1.1,1.258-1.471,3.98-3.678,3.564.553-.63.736-1.47-.184-1.47-1.47.628-1.47,1.678-2.575,1.05,2.392-1.05-.549-.63-.917-.842l-.553-1.256c2.024-.63,3.861-2.514,5.333-2.514,0,.628-2.758,1.048-2.209,1.677,2.026,0,2.946-1.048,4.967-1.048.738-.42,1.1-.838,1.1-1.258-.549-.208-1.837.208-2.02-.42.734-.208.917,0,1.654-.42l-.183-.416c-.184-.212-.184-.42-.738-.212-3.125,1.469-6.07,2.514-7.541,1.889,2.575-.212,1.658-.628,4.6-1.889l.367.628c1.471-1.046,1.658-.836,3.5-1.466-1.837,0-2.942.42-3.312-.628-1.287,1.258-4.229,2.094-6.436,2.934,2.024-.84-.367-2.1-.367-1.886-1.47.838-.921,1.678-1.654,2.306a2.4,2.4,0,0,0-1.1.417h-.366a.189.189,0,0,1-.184-.208c1.1-.63,1.288-1.258.551-1.886a3.609,3.609,0,0,1-1.837.42l-.37-.42a5.207,5.207,0,0,0,1.47-1.47c-2.02.212,2.024-1.678-.183-1.466a9.123,9.123,0,0,1-2.575,1.678l-2.207-1.89c1.1-.208,1.657-.836,3.311-1.256,0-.838-1.287,0-1.47-.628a25.584,25.584,0,0,0,4.045-2.726c-.736.211-1.837-1.046-1.287-1.258,1.1.628,2.758-.42,4.229-1.258.187,0,.37-.208.553-.208.183-.212.551-.212.734-.42-1.1.208-.917-.84,0-1.258a6.38,6.38,0,0,1-1.837.63.848.848,0,0,1-.183-.63,13.332,13.332,0,0,0,4.412-2.3c.738.416,1.658.628,2.024,1.465.921-.42,1.654-.836,1.654-1.256-1.287.208-1.287,0-1.287-.63.366,0,.921-.208,1.287-.208a1.218,1.218,0,0,1,.555-1.469c.549-.208.917,0,.917-.42a3.165,3.165,0,0,1-2.022,0c.367-.417.551-1.046,1.288-1.466.551,1.256,2.575,1.466,1.287,2.722,1.837-.628,2.575-.628,4.046-1.674,1.287,1.258,2.941,1.678,5.516,1.258.738-.84-1.1-.42.555-1.47.734.212,2.388-.628,2.575.42-1.1.838-2.575.209-1.841,1.05,2.941-1.05,4.416-.628,6.07-1.258-.738.63-1.841,1.678-2.942,2.514a4.98,4.98,0,0,1-3.679,1.258c-.183-.42,1.288-.838.551-1.466-1.654.417-2.022,1.046-4.046,1.466a1.155,1.155,0,0,0,.183,1.469c.555-.211,1.471-.628,1.654-.42.554,1.05-1.47,1.886-3.308,2.936,3.125-.42,3.863,1.677,4.046,2.934a30.786,30.786,0,0,0,4.229-1.466c-1.471,1.674,1.841-.212,2.575.208-1.471,1.05-.368.838,1.1.838.367.628-1.837,1.256-1.471,1.889,1.105,0,2.575-.42,3.5-.42-.921-1.048-1.1-1.048-.736-2.306-1.839.63-2.022-1.048-3.308-.42-.554-.628,1.654-1.048,1.654-1.677-.738.211-1.471.211-2.209.42.183.42.737.84,0,1.256-1.47-.416-3.125-.416-4.229-1.256,3.308-1.678,3.5.208,6.621-1.258-.738.838.55.628,1.1,1.048,1.837-.628.183-1.256,2.022-1.889,1.657-.417.553.84,1.474.42.734-1.048-.921-.628-.187-1.466-1.471.838-2.388.838-2.575,0,2.024-1.256,4.967.208,5.7-1.889a18.821,18.821,0,0,1-2.39,1.048c-.183-.836-1.654-.42-.183-1.466,1.47.628,1.287-1.256,2.573-2.1-1.653-.208-2.024.209-3.678-.208,1.471-.42-.921-1.048.55-1.468.921-.208,1.841,1.468,2.575,0-1.654,0-.734-.838-1.837-1.05-1.654.63-1.654,1.47-2.575.842.921-1.47,4.229-1.47,4.412-1.89-1.1-.208-2.2,0-2.941-.838,1.84-.836,2.024-1.885,4.045-2.726-.366,1.678,2.758-.836,3.5-.416,0,1.258-2.024.836-3.862,1.886,1.1.42,1.47.208.736,1.466,1.839-1.466,3.125-1.046,2.575.42,2.022-2.306,5.15-1.47,9.013-3.772-1.1-1.258,1.287-1.048,2.02-.84-.183-.42-2.02-.838-.921-1.678.555-.208.921,0,1.658-.42-.37-1.046,1.287-1.886.917-2.722-.366.208-.917.416-1.1.208.734-.208,1.287-.42,2.02-.628,2.024.836,2.392,2.306,4.229,3.142a8.232,8.232,0,0,0,1.841-1.046,2.066,2.066,0,0,0,1.1-.212c0,.212-.183.212-.37.421-.183,0-.183.208-.183.208-.918,1.048-2.758,2.514-1.1,2.726.187-.628.37-1.258,2.024-1.886.366.42-.738,1.886.736,1.466,1.1-1.046.918-1.466.734-2.094a1.77,1.77,0,0,0,.921-.212c-.736-1.886,2.022-1.046,2.942-1.466,1.1-1.258-.734-1.258.183-2.726,6.07-3.144,12.507,0,15.819-4.612-.738,0-2.207.836-3.5,1.469-4.046-.84-9.011-.42-13.978,0,0-.42.55-.84,0-1.256a3.348,3.348,0,0,0-1.287,1.044,3.236,3.236,0,0,1,.736-2.094c-1.841.63-.921,1.886-2.575,1.886-.37-.628,1.288-1.256.734-1.886-.734.418-1.654.838-1.654.209.551-.209,1.471-.63,1.288-.838-.555-.212-1.471-.212-2.209-.42a118.669,118.669,0,0,0,12.874-4.824c-2.758-.836-7.724,1.258-11.586,1.678a2.734,2.734,0,0,0-1.288-2.306c.184-.418.554-.628.921-1.258,2.209.212.734,1.47,1.288,2.306,4.046-1.256,1.1-4.192-.367-2.726.367-.836,1.471-1.256,2.759-1.678-.921-.628,1.47-1.044.917-1.673-1.1.628-1.837.836-2.2.416.551-.628,1.654-1.046,2.2-1.678a3.387,3.387,0,0,1-1.1-1.256v-.42h-.187a10.77,10.77,0,0,0-.917-2.3c-1.1,0-2.758.838-3.5.418.551-.838.738-1.258-.366-1.678a15.723,15.723,0,0,0,1.837-1.046c0-1.256-1.471-.42-1.837-1.256,1.47-.632,3.124-1.682,4.045-1.682-.366-.416.184-.836,0-1.256-1.654.42-2.207,1.889-3.311,1.677-.55-.628,1.287-1.677,2.207-1.677.183-1.886,5.887-6.078.183-5.03a3.313,3.313,0,0,1,1.841-1.048c-1.287-.84-.921-1.048-2.575-1.258.551-.42.551-.84,1.1-1.048,1.287-.84,1.474-.212,2.575-.84,1.287-2.724-3.125-4.82-6.621-1.046a.7.7,0,0,1-.183-.42q2.061-1.2,4.046-2.514a15.775,15.775,0,0,0,2.39-.84c4.967.42,9.2,2.1,5.517,6.286-1.471,1.681-3.492,1.681-3.492,3.358,2.2-1.05,2.573-1.678,4.412-1.89-1.471-1.466,4.045-2.722,6.253-4.192.183.42-.734.628-.734,1.47,1.654-1.47,3.492-1.258,5.883-2.73a.932.932,0,0,0-.734-.416,2.629,2.629,0,0,1,.734-.63c2.207-.208,4.965-2.306,9.194-3.983.184.211-.183.42-.183.628,4.6-2.935,10.3-3.984,13.795-7.544a13.7,13.7,0,0,1,2.758-.841c.183,0,.366-.212.738-.212a.622.622,0,0,0,.549-.208,8.452,8.452,0,0,1,1.288-.629c.366.837,1.1.837,1.654,1.257C982.005,123.386,981.642,120.451,979.617,118.986Zm-239.635,3.98c.734,1.257-2.207,1.049-2.207,1.469C736.3,124.227,738.7,122.966,739.983,122.966ZM720.3,125.272c.738-.208,1.471-.208,2.024-.417.183,1.677-1.471.628-3.312,1.257C719.014,125.484,719.752,125.484,720.3,125.272Zm.921,5.661c.183.841-2.024,1.257-2.758,1.049C718.282,131.145,720.3,131.353,721.223,130.933Zm-36.046,1.885a3.959,3.959,0,0,1-1.841.632c0-.42,0-.84-.551-.84C682.968,131.774,685.726,131.774,685.176,132.818Zm-15.266,1.47c.551.836-.921.836-.736,1.258h2.945c.917-.209,1.837-.209,2.575-.421,1.654-.208,2.941-.208,3.862.842-3.312.208-4.6,1.256-6.991,2.306-.734-.209-1.1-.63-2.02-.63.55-.84,1.1-.628,2.392-.628-.555-1.048-2.026-1.468-4.05-1.048C667.153,134.708,668.256,134.5,669.911,134.288Zm7.541-24.318c-3.312-.841,1.654-2.306,3.125-2.306-.551,0,0,1.257.553.208.734,0,0,.42.734,1.049C679.844,109.129,678.186,108.712,677.452,109.97Zm13.978-2.935c-.921.208-1.658.42-2.575.629a6.027,6.027,0,0,1-2.024-.212c1.287-.417,2.758-1.045,4.229-1.466a11.307,11.307,0,0,1,4.049-1.049A10.752,10.752,0,0,1,691.43,107.035Zm7.54-3.772c-.187-.632,1.471-1.053,2.2-.841C700.992,103.051,699.888,103.475,698.97,103.263Zm37.7-6.5c-.738-1.257,1.837-1.049,3.124-1.257C739.8,96.341,737.775,96.553,736.672,96.762ZM456.02,109.129c.554.629,1.841.841,3.128,1.049-.183.42.184.841.734,1.049-.183.628-1.287.42-2.388,0,.918-.42-.186-.629.734-1.049C457.308,109.97,455.47,109.97,456.02,109.129Zm-2.2,0c-1.287.42-1.841-.208-3.128-.837C451.974,107.664,452.346,108.5,453.815,109.129ZM204.062,7.031c.738-.837,2.024.42,2.575,1.049C206.454,8.709,204.432,7.24,204.062,7.031ZM286.64,45.19c-1.287-.841-2.39-1.257-3.128-.841-.551-.42-.183-.628-.734-1.049.734.212,2.941.841,4.6,1.469C287.008,44.77,286.64,44.978,286.64,45.19Zm.917,6.5c.184,0,.371-.208.738,0Zm-.366-.841c-.183-.629.551-.417.921-.417.366.208.551.208.917.417C288.662,51.06,288.295,51.476,287.191,50.848Zm1.1-.629c-.183-.208-.366-.208-.553-.417a1.981,1.981,0,0,1,2.024.417C289.766,50.848,288.845,50.219,288.295,50.219ZM326.549,68.88c.917,1.257,2.758,1.045,3.125,1.886C329.49,71.815,325.446,69.508,326.549,68.88Zm-8.278,3.143c.37-.42,1.47,0,1.841-.42.732.42,0,1.049,1.653,1.469C321.217,73.909,319.559,72.652,318.272,72.023ZM163.049,9.337c.187-.417.738-.417.738-.629a12.367,12.367,0,0,1,1.471.629l.366.42C164.89,10.178,163.97,9.758,163.049,9.337ZM85.807,41.415a9.792,9.792,0,0,1,3.5,0c.92.208,2.024.42,2.758.629.367.208.737.208.921.42a1.316,1.316,0,0,1,.367,1.049A25.54,25.54,0,0,0,85.807,41.415ZM-56.721,92.358c0,.42.183.42.554.42-.183.629-2.758,1.257-3.129,1.049-.18-.629,1.1-.837.554-1.469,1.471-.629,1.838,0,3.308-.837C-55.434,91.941-56.167,92.149-56.721,92.358Zm15.082-14.465c0-.417-.183-.417-.55-.417A5.88,5.88,0,0,1-39.065,75.8C-39.065,76.844-40.719,77.264-41.639,77.892Zm22.069-15.931c.367-.841,4.416-2.514,4.416-1.049C-17.363,61.121-17.179,61.541-19.571,61.961ZM40.2,84.394a15.406,15.406,0,0,0-3.129,0C35.236,83.974,40.569,82.925,40.2,84.394Zm13.241.837a17.742,17.742,0,0,0-4.962.42c-.37-.629,2.2-.42.917-.841C49.948,84.394,53.81,84.182,53.443,85.231Zm100.969,34.592c0,1.257-1.841.42-2.945-.208C152.02,119.194,153.308,119.823,154.412,119.823Zm-4.233-1.049c0,.42.37.629.554.841-.554-.212-1.287-.42-1.841-.629A1.258,1.258,0,0,1,150.179,118.774Zm-1.838-.208c.183.208.183.208.183.42-.367,0-.737-.212-1.1-.212A1.5,1.5,0,0,1,148.342,118.565Zm8.275,3.355c.553-.212.921-.42,1.474-.632.917.42,1.654.841,2.575,1.257A9.467,9.467,0,0,1,156.617,121.921Zm15.635,7.543a6.565,6.565,0,0,1-3.5-2.3c1.654,0,2.209.837,3.679,1.257Zm30.526,19.5a.631.631,0,0,0,.554-.208c.734.42,1.654.84,1.837,1.47A4.609,4.609,0,0,1,202.778,148.961Zm321.48,124.951c-.186.42.367.63,1.1.63-1.1.628-2.02-1.05-4.046-.421.184-.416-.183-.628-.549-.628C522.233,273.075,521.867,274.332,524.258,273.912Zm50.025,13.417a5.313,5.313,0,0,1,4.045-.208C578.144,287.749,575.382,287.12,574.283,287.329Zm29.055-5.661a1.322,1.322,0,0,0,.553-1.258c1.839-.208,1.1.84,2.942.42C606.833,281.668,604.992,281.46,603.338,281.668Zm271.269-92.874c.555-.208.921-.416,1.475-.628l.734,1.469C875.711,189.844,874.977,189.632,874.607,188.794Zm-6.436,28.722a.633.633,0,0,1,.553-.208A.626.626,0,0,1,868.17,217.516Zm49.841-58.068c.366,1.044,2.758-.421,3.311.416-1.841.84-3.862,1.678-3.5,2.514a10.542,10.542,0,0,1-3.124,1.048,7.183,7.183,0,0,1,2.2-2.722c-.917-1.048-1.47,1.05-2.02.628-.183-.208-.183-.42.183-.628.183,0,.367-.212.551-.212C916.357,160.076,917.461,159.864,918.011,159.448Zm-31.081-6.918c-2.758,1.256-5.15,2.514-7.174,3.563-.183,0-.366-.212-.551-.212C882.884,154.414,884.723,153.365,886.93,152.529ZM849.043,219.2c-.734-.216-2.022,0-2.022-1.052.921-.418,1.1,0,2.209-.418C849.781,218.146,848.676,218.57,849.043,219.2Zm-8.275,2.93c-.55-2.306-2.575-2.094-.736-4.4,1.84-.84,2.573-.42,3.862-.628v.208a1.9,1.9,0,0,0-.917.838c.549.42.917.628,1.47.42a2.762,2.762,0,0,1,0,2.1,16.7,16.7,0,0,0-2.207.628c.183.628,1.1.42,2.024.208,0,.208-.183.42-.183.628a.62.62,0,0,0-.37.212A7,7,0,0,1,840.768,222.128Zm71.36-81.971c.366.842.917,1.678,2.758.421-.37.836.183,1.048.734,1.468-.183.208-.367.208-.367.416-2.758-1.677-8.828,0-14.344,1.89C904.587,143.513,907.9,140.366,912.128,140.157ZM909.919,99.28a5.25,5.25,0,0,1-3.5,2.094C906.978,99.908,908.078,100.329,909.919,99.28Zm-10.482,5.237c.551-.208,1.288-1.466,0-.837.551-1.049,3.308-1.257,4.412-1.469.555,1.049-2.941,1.678-3.678,1.678.921.629,2.392-.417,1.288,1.257,2.024-.417,4.6-2.935,5.7-1.257-2.945,1.469-6.436,3.772-9.381,3.147-.918.208-2.575,1.049-2.759.42,1.288-.632,2.759-1.469,2.759-.42,0-.629,1.657-1.257,2.39-2.1-2.2.42-4.965,1.049-6.619,2.726C891.9,106.823,897.413,104.517,899.437,104.517Zm-7.174-.208a5.04,5.04,0,0,1-2.392.837C889.505,104.308,892.08,103.472,892.263,104.308Zm-18.573,5.87c-1.1.629-1.288,0-2.392.841C870.745,110.178,873.69,109.129,873.69,110.178Zm-3.5,0c-.738-1.886,3.5-1.678,0,0Zm-28.323,11.742c.184,1.045,1.654.837-.553,1.886,0-1.049-1.1-.42-.551-1.469Zm-.366-1.049c-.37.208-.553.629-.738.837a12.407,12.407,0,0,1-3.862.629A24.871,24.871,0,0,1,841.506,120.872ZM829,121.08c.55.629-1.288.841-.555,1.469.921-.42,1.1-.212,2.026-.42,0-.42-.921-.42-.367-.841.734,0,1.287.212,1.471.841-.367.208-.738.208-.921.42a16.314,16.314,0,0,0-2.942.417,6.569,6.569,0,0,0-2.024,0c.183.212.37.42.555.42-.555.212-1.1.212-1.658.42A8.205,8.205,0,0,1,829,121.08Zm-6.07,3.563c-.734,1.049-1.837.629-2.942.841C819.25,124.643,823.295,123.386,822.929,124.643Zm-42.667,18.241c0,.628.734.42.734,1.048-1.1.416-2.388.836-2.941.628C777.687,143.721,778.975,143.3,780.262,142.884Zm-119.543-8.6c-2.207.628-5.516,1.258-9.011,1.886-1.654.42-3.5.628-5.333,1.048a40.575,40.575,0,0,0-5.333,1.47c-1.658-.212-3.129-.42-3.862-1.05-1.288.42.366.838.183,1.466-1.1.42-2.209-.836-2.945,0-1.471,0-.551-.416-.551-1.046a17.2,17.2,0,0,1-5.517,1.258c-.37,1.048,1.471.208,2.392.208a6.406,6.406,0,0,1-3.128,1.05,12.844,12.844,0,0,1-3.125-.421c-.37-1.048,2.02-2.094-.738-2.094,2.024-1.048,7.541.209,8.462-1.256a38.056,38.056,0,0,0-6.623.416c-2.2.212-4.413.212-5.334-.628a28.368,28.368,0,0,1,7.174-1.048,32.038,32.038,0,0,0,7.541-.63l.183.84c3.312-.628,6.8-1.469,10.667-1.889,1.1-.208,2.39-.208,3.494-.418a21.879,21.879,0,0,1,3.68-.42c2.39-.212,4.782-.42,7.17-.42.553-.208.187-.628.921-.836a13.141,13.141,0,0,1,2.941.208c0,.836-2.2.836-3.675,1.258C660.166,133.868,660.166,134.288,660.719,134.288Zm-31.45,23.69a41.388,41.388,0,0,1-5.333.628c-3.68.212-7.909,0-12.874.63,0-.42,0-.838-.551-.838,5.333-1.886,13.791-1.469,19.31-1.886,1.1-.42-.553-1.256-1.654-1.048.367-.84,2.022-.212,2.942-.42.183.628-.555.628-.367,1.256s2.388-.208,3.492-.208A20.675,20.675,0,0,1,629.269,157.978Zm-25.378-13.417c-.736-1.048-2.39,0-3.311-1.048-1.288.42,1.471.628,0,1.256-3.312,0-3.125-.836-6.621-.208,0,.838,3.125-.42,2.392.838a10.353,10.353,0,0,0-5.7.628,1.4,1.4,0,0,1,.37-1.466c-1.288,0-1.475.42-1.288,1.258a3.924,3.924,0,0,1-3.862-1.05c2.388-2.306,11.033-.42,14.161-2.094,5.7.63,10.665-.212,16.549-.212-.183-.628-1.654,0-2.02-.416,0-.84,2.758-.84,2.941,0,1.288-.632,1.288-1.048.737-2.1,4.046,1.678,1.471,3.144-4.046,3.356.367.416,1.471.208,2.388.416.37.84-2.2.42-2.2,1.048-.738,0-.371-.628-.554-1.048-2.2.42-3.491.628-4.78.84A40.659,40.659,0,0,0,603.891,144.561Zm4.046,5.242c-.553.836-1.658.628-2.758.42C604.992,148.965,606.65,150.431,607.937,149.8Zm-9.194-2.306c-.738,1.465-1.841.42-3.863.42C595.247,147.287,597.638,147.7,598.743,147.5Zm11.586-6.5c.366-.626,2.02-.416,2.758-.838,0,.63.55.63.55,1.05C611.8,141.627,612.166,140.366,610.329,140.994Zm10.848.212c2.575,0,3.863.628,6.8.836-1.471,1.47-4.229.42-6.987,1.258C620.994,142.675,621.545,142.043,621.177,141.207Zm1.654,7.967a1.254,1.254,0,0,1,1.841-1.048C624.857,148.753,623.752,148.961,622.832,149.173Zm4.416.208c-2.024-.628-2.575-1.885.183-2.514,0,.208-.366.42-.366.63,6.066-.63,6.621-1.258,11.769-2.306C641.225,148.125,630.005,148.753,627.248,149.381Zm8.458-7.335c.37-1.048,1.658,0,1.841,0,.183.628-1.287.416-1.287,1.046C634.606,143.3,637.364,141.835,635.706,142.047Zm-5.883.208c.183-.628,1.471-1.048,1.654-1.677.738.836,4.046-.421,4.416.628C633.868,140.578,632.4,142.463,629.822,142.255Zm8.275-.42c3.5-1.048,11.4-1.678,9.566,0C645.088,140.786,641.959,142.463,638.1,141.835Zm18.394,22.013c0,.42-1.475.42-1.475.84-.917,0-1.1-.42-1.1-1.05.734-.212,1.654-.212,2.388-.42C656.12,163.638,655.937,163.848,656.491,163.848Zm-1.288-1.886a52.684,52.684,0,0,0,11.033-1.886c4.229-1.05,8.828-1.89,12.324-2.514.183.416-.554.836-.37,1.256,1.474-.42,1.474-1.469,3.128-1.889l.183,1.256c.921-.208.921-.628,1.839-.628,1.1-.416-.734-.416.37-1.046l2.39-.42c0,.42.184.42.551.42-.738.838-1.1,1.886-3.125,2.094a2.07,2.07,0,0,1,.734,1.05c-1.287-.42-2.573,1.048-4.045.42a1.644,1.644,0,0,0-.738,1.466,71.136,71.136,0,0,0-10.849,1.677c1.287.42,4.045-1.048,4.965,0,1.1-.42,1.471-1.048,3.308-1.256.37.628,1.475.628.738,1.465-1.1.421-.738-.836-1.654-.628-1.1.42-1.1,1.05.183.84a35,35,0,0,1-11.769,1.886c1.1-.42,2.02-1.677,3.308-1.048-.184-1.886-2.392-.417-3.493.212-.187-.42-2.024-.84-1.1-1.05-.183-.84,2.392-.42,3.863-1.256-1.471-.628-5.52,1.044-6.438.836.367.63,1.288,1.258-.736,1.678,0-2.1-2.575-2.1-5.334-1.886C655.2,162.8,655.386,162.382,655.2,161.962Zm-.921,1.048c-.183.838-1.287.838-2.392.838s-2.39,0-2.758.42c-.736,0,.367-.63-.553-.63.37-.628,1.474-.84,2.575-.84A17.43,17.43,0,0,0,654.283,163.01ZM653,152.737c-.921.84-1.654-.42-3.5,0,0,.208.553.208.921.208,0,.42-1.471.212-1.288.84.551.628,3.125-.208,4.412-.42-1.837,1.678-6.8,1.886-8.457,2.934-.738-.628-.555-1.465-.184-1.677-.553-.838-1.1,0-2.024-.418-1.287.63,1.654.418,1.1,1.258-3.679.42-4.6.208-6.253,1.466-1.654-.209,0-.418-2.941,0-.554-2.094,3.125-.838,4.229-1.678-1.837-1.046-6.253,1.89-6.438-.208a92.77,92.77,0,0,0,9.749-1.678,21.572,21.572,0,0,1,5.15-.628h2.575A7,7,0,0,1,653,152.737Zm-2.026-11.951c.371-1.046-1.1-.418-2.02-.208,3.125-1.258,10.116-1.678,15.632-3.144C661.454,140.157,655.937,139.321,650.97,140.786Zm14.9-4.612c-2.758,0-3.311.42-6.253.628,2.942,1.05-5.886,1.89-6.619,1.05,4.412-1.886,10.665-1.466,13.606-3.356C667.157,135.336,665.869,135.546,665.869,136.174Zm.921-2.934c-.187,1.048-1.657.628-2.39.42C664.4,133.03,666.419,133.24,666.789,133.24Zm77.059-19.5a32.515,32.515,0,0,1-6.069,1.469c0-.629,4.228-1.257,2.758-1.257-1.1.208-2.209.629-2.758.208,2.941-.629,5.882-1.049,8.644-1.678A25.165,25.165,0,0,1,743.848,113.741Zm37.334-21.8h.183c-.183.212-.183.212-.183,0ZM792.4,98.019c.554.629-2.02.841-2.02,1.469-.738.208,0-1.257-.738-1.678C791.112,97.39,791.482,98.019,792.4,98.019Zm-10.482-5.87a2.089,2.089,0,0,0,1.1-.208v.208C782.286,92.57,782.1,92.149,781.916,92.149Zm5.516-6.71c-.183,1.469,0,2.1-.366,2.938-.367.208-.551.208-.366.417h.183a1.118,1.118,0,0,1-.367.628c-2.024,0-3.311-1.045-5.333-1.257,1.654-1.049,2.022-1.678,3.863-1.678.549-.208.917-.837.183-.629C784.125,85.651,786.883,85.231,787.432,85.439ZM786.7,80.41c.366.417-.922,1.466.919.837,0,.42-1.1.629-1.657.841.553-.841-.184-.629-.551-1.257Zm-3.312,2.935a8.088,8.088,0,0,1,2.758-.629c-.55.837-2.388,1.678-2.575,2.514C782.653,85.439,783.387,83.765,783.387,83.345Zm-2.575-2.514c.921-.212.921.417,2.024-.212a7.51,7.51,0,0,1-2.392,1.678C779.709,81.668,781.733,81.463,780.812,80.831Zm-1.654,6.078c.553,1.049.921,2.1-1.471,2.726C779.524,88.378,775.846,87.749,779.158,86.909ZM775.112,82.3c.734.208,3.308-1.678,3.678-2.1.551,1.469-2.758,3.147-4.232,3.563C774.376,82.925,776.583,82.5,775.112,82.3Zm-1.47,3.563c1.653.208-.738,1.678-2.759,2.1C770.33,87.117,773.642,86.7,773.642,85.86Zm-5.887,2.1c.183.629-1.288,1.049-2.575,1.465C765.546,88.586,766.467,88.166,767.755,87.957ZM763.526,86.7c.183.629.921.208.366,1.045.367-.208.555-.208.921-.417C765.918,87.957,760.031,87.957,763.526,86.7Zm10.116,1.886c1.287-.841.734.629,2.02-.212a28.167,28.167,0,0,1-.917,3.775c-2.758-.208-4.233,2.1-6.07,2.935-1.471.42-2.024-.208-3.863.841-.366-1.257,1.288-.629,2.392-1.678-1.287-1.678-3.312.837-4.967.629C765.733,91.729,771.8,91.521,773.642,88.586Zm-14.715.42c-.734,1.045-.917-.212-2.392.417C756.352,88.794,759.11,87.957,758.927,89.006Zm-16.366,5.869c.734.837-1.841,1.678-1.841.629C741.273,95.3,742.007,95.084,742.561,94.876Zm-16.553,8.384c.917-1.678,5.516-1.678,8.275-3.143C733.916,101.794,728.584,103.051,726.009,103.26ZM623.386,123.386l1.837-.208v.837h-.183c-.551-.208-1.1-.208-1.837-.42C623.386,123.806,623.2,123.594,623.386,123.386ZM508.81,268.255c.183.208.366.208.551.416A2.281,2.281,0,0,1,508.81,268.255ZM523.7,124.643c.183,0,.183.212.366.212l-.183.208A.779.779,0,0,0,523.7,124.643Zm-5.333-1.678c-.183.42-1.1.212-1.837,0,0,.42.734.42,1.287.42v.212H515.98c-.183-.212-.366-.632-.551-.632C517.268,122.966,516.9,122.129,518.372,122.966Zm-17.656-1.677c.183-.629,1.841.212,2.758.212-.367.208-.551.42-.367.42h-1.287A1.522,1.522,0,0,0,500.715,121.288ZM171.331,68.88c-.183.837-2.39-.212-2.941-.841C168.573,66.782,170.41,68.459,171.331,68.88Zm19.495,8.6a36.785,36.785,0,0,1,5.148,2.514c-1.653-.208-6.253-1.886-7.174-2.935a5.783,5.783,0,0,1,1.841.42C190.641,77.264,190.826,77.264,190.826,77.476Zm25.381,11.947h.183c.183.212.366.42.551.42a4.407,4.407,0,0,1-1.839-.629v-.208c-.366,0-.553-.212-.921-.212-1.1-.629-2.39-1.466-3.5-2.094h.554A19.4,19.4,0,0,0,216.206,89.423Zm7.353,2.515c.187.212.37.632.187.841-.738-.208-1.658-.837-2.024-.837-.367-.42-.738-.628-1.1-1.049l.183-.208C221.539,91.1,222.643,91.517,223.559,91.937Zm24.83,15.726c-.183-.42-.921-.841-2.024-1.257.921.208,1.841.629,2.758.837C249.31,107.664,249.123,107.872,248.39,107.664Zm20.6,11.11a1.1,1.1,0,0,1-.183,2.1C267.147,119.823,268.805,119.614,268.988,118.774Zm2.758,3.147c-1.287-.632-.921-1.469-1.471-2.1.184-.208.921.208,1.471.42C271.2,120.872,272.3,121.288,271.746,121.921Zm87.175,35.849c.549-1.258,2.941,0,5.15,1.046l.366.42c-.734.84-2.941,0-4.6-.838-.187-.208-.371-.42-.554-.42,0-.208,0-.208-.366-.208Zm-18.207-13.209a40.06,40.06,0,0,0-6.253-2.514c-.367-.212-.738-.42-.738-.632A50.412,50.412,0,0,1,342,143.929s0,.216.184.216C341.265,143.929,340.531,143.513,340.714,144.561Zm39.725-44.653a3.58,3.58,0,0,1-1.474-.841c.187-.208.37-.208.921-.208C379.518,99.276,380.069,99.7,380.439,99.908ZM199.286,81.456a14.58,14.58,0,0,0,2.758,1.049h-.553a11.627,11.627,0,0,0-2.2-.629C199.1,81.668,199.1,81.668,199.286,81.456Zm23.54,12.579a4,4,0,0,1,1.471,1.049C223.746,94.664,223.376,94.455,222.826,94.035Zm169.75,11.322c.183.208.551.42.738.629h.917c0,.208-.183.208-.183.42l-1.837-.841C392.392,105.566,392.392,105.566,392.576,105.357ZM365.908,158.4c.553-1.469,7.724,3.144,2.024.42A14.918,14.918,0,0,1,365.908,158.4Zm-75.955-39.412c.553-.841,2.207.629,3.312,1.257C292.345,121.288,291.24,119.823,289.953,118.986Zm64.185-28.514c.367-.629,2.024-.629,2.575.212C356.162,91.1,355.609,91.312,354.138,90.472Zm-2.575-1.465a11.982,11.982,0,0,0-2.39-2.1c.736-.42,3.678,1.466,4.045,1.886C353.034,89.423,351.2,87.537,351.563,89.006ZM332.435,141Zm24.832,15.722c.366.421,2.02.63,1.1,1.258a6.252,6.252,0,0,1-1.654-.836C356.9,156.929,356.9,156.72,357.267,156.72ZM233.676,101.165a77.553,77.553,0,0,0-6.621-4.612c.553.208.921,0,1.658.417.183,1.469,4.778,1.889,5.883,3.987C234.046,100.957,233.863,100.957,233.676,101.165Zm-9.746-6.918c1.105-.42,2.2,1.045,4.046,1.257C227.792,97.182,225.217,94.664,223.929,94.247ZM182.918,75.17q-1.507-.662-2.942-1.469A14.521,14.521,0,0,1,182.918,75.17Zm-2.392-2.1c-1.837-1.049-3.863-.837-6.07-2.306a9.426,9.426,0,0,1,2.392.42c.736.208,1.287.208,2.024.417C179.789,72.023,180.526,72.443,180.526,73.072Zm-4.6-.629c-.918-.841-.551-.212-2.022-.629.183-.42-.183-.629-.366-1.049h.183c.551,1.049,2.758,1.678,5.15,2.726-.183.417-1.288.208-.183.837a16.3,16.3,0,0,1,5.516,2.1s0,.208.183.208q-3.811-1.474-7.54-3.143c-2.392-1.049-4.784-2.1-7.171-2.935-1.287-.629-2.575-1.049-3.862-1.677.366-.212.917-.212,2.02,0C169.306,70.345,173.168,71.815,175.927,72.443Zm29.98,71.49a8.151,8.151,0,0,1,1.837,1.048A15.952,15.952,0,0,0,205.907,143.933Zm56.277,31.444a12.513,12.513,0,0,1-3.128-1.885A9.941,9.941,0,0,1,262.184,175.377Zm7.17,4.824h.367c.553.417-.917.417-2.022,0C268.068,179.569,268.988,180.2,269.354,180.2Zm160.922-74.636c-1.47-.837-2.388,0-3.124-1.049C426.967,103.051,431.2,104.517,430.276,105.566Zm-4.045-1.049c-.734-1.257-2.575-2.094-2.575-3.351C425.313,102,426.967,102.843,426.231,104.517Zm.37,4.824.183.208a10.813,10.813,0,0,1-2.392-.208c.184,0,0-.212-.921-.841C424.027,107.872,425.313,108.712,426.6,109.341Zm-4.416-.42a6.842,6.842,0,0,1-1.654-.837,7.244,7.244,0,0,0,1.837.417C422.185,108.5,422.185,108.712,422.185,108.921ZM398.829,90.888a5.317,5.317,0,0,0,.921,1.261c-.553-.208-.921-.42-1.47-.629C398.28,91.312,398.28,90.68,398.829,90.888Zm-16.185,3.775v.42a1.254,1.254,0,0,0-.734-.208,3.316,3.316,0,0,1-.921-.841A7.994,7.994,0,0,1,382.644,94.664Zm-5.7-2.515c-.553-.42-1.1-.629-1.47-.42-.554-.208-1.1-.208-1.288-.837.917.208,1.1-.42,2.392.42.183.417.366.628.549,1.045Zm-.183.837a1.017,1.017,0,0,0,.917.42v-.629c.37.42.738,0,2.392,1.257a1.2,1.2,0,0,0-1.471,0,5.023,5.023,0,0,1,2.758,1.049c-.183,0-.366.212-.549,0-2.759-.629-2.392-1.886-4.416-1.886C376.39,93.407,376.577,93.2,376.76,92.986Zm5.15,8.179v-.212h1.471c0,.841-1.1.841-.921,2.1-5.517-2.514-9.562-3.355-14.345-6.918C371.794,96.97,376.207,99.492,381.91,101.165Zm-23.173-8.6c-.921-.42-1.1-.841-1.657-1.049.921,0,2.024-.208-.184-1.049,1.658.212,4.416,1.886,6.991,2.935C362.229,94.247,359.287,90.892,358.737,92.57Zm-.183-2.514c-1.287-1.473-4.049-1.889-5.887-2.73C353.771,87.325,358,87.957,358.554,90.055ZM352.3,86.488c-1.471.629-2.575-1.049-4.782-1.678C348.622,83.553,351.38,86.7,352.3,86.488Zm-16.37-6.078c-.183.629-1.654-.628-2.39-.841-.367.629,1.654.841,2.207,1.469-1.471.208-2.207-.841-3.678-1.889A4.455,4.455,0,0,1,335.931,80.41Zm-8.274-4.4c-.921,0-2.392,0-2.945-.837C325.265,74.541,326.92,74.958,327.657,76.007Zm1.1,1.678c-1.1.837-4.6-1.886-6.066-2.726C324.712,76.007,326.553,76.215,328.757,77.684Zm-67.31,19.077c.738.208,1.288.42,2.024.629l.184.208C262.735,97.182,262,96.97,261.447,96.762Zm-8.461-.208c.187-.42-1.471-.841-.918-1.469a13.153,13.153,0,0,0,2.759,1.257,15.416,15.416,0,0,0,1.654,1.889,6.042,6.042,0,0,1-3.308-1.889A.192.192,0,0,1,252.986,96.553Zm8.828,4.821c-.917-.42-1.1-.42-1.288,0a.245.245,0,0,0-.183.42c0,.208-.183.208-.366,0-.367-1.049-2.026-1.889-3.5-2.935.736.208,1.287.417,2.024.629a12.929,12.929,0,0,0,3.308,1.257v-.212c.183,0,.37.212.553.212H262c0,.208.187.42.187.629Zm5.52,11.322-.37.837c-.551-.42-1.288-.629-1.839-1.049C265.31,111.647,266.23,111.856,267.334,112.7Zm-21.522-9.436h-.184c1.288.629,2.759,2.726,3.68,2.306-1.658-1.257,1.47.629,1.1-.208a13.512,13.512,0,0,1-2.2-1.469c4.413,1.889,8.458,2.935,11.587,5.033.183.42.917.837.549,1.257,1.841,0,3.5,2.1,5.7,2.935.366,1.257-.738.42,1.654,1.469-1.105,0-.367.629-.554,1.466-1.287-.417-.734-1.045-1.1-1.466a4.17,4.17,0,0,0-2.392.42c-.921-.629-.738-1.469-1.471-2.1-.921-.42-1.287.208-2.207-.208.551,1.465,4.412,2.306,5.15,4.192,3.5.42,4.229-1.678,8.458.208,0-.837-1.471-1.466-2.575-2.306,3.128.42,5.52,2.514,7.91,3.355a1.605,1.605,0,0,0,1.1,1.469,1.05,1.05,0,0,1,0-1.049h.738c.549.629,1.654,1.257,1.654,1.886a7.156,7.156,0,0,0,.921.208,1.872,1.872,0,0,0,1.1.841c0-.212.183-.212.366-.42,1.288.42,2.392.841,2.392,1.469.921.417.738-.841,1.654,0a5.162,5.162,0,0,0,2.207,1.886c-.549.42-2.575-1.257-2.575-.208,1.288.629.367,1.465,1.654,2.094.184-.417.921.212,1.105-.208-1.105-.42-1.839-.841-1.839-1.469.734.42,2.2.42,2.022,0,3.312,1.889,7.908,2.726,9.932,5.033,2.758,0,8.278,2.934,10.116,4.4,1.654-.42,4.6.628,7.54,2.306a36.392,36.392,0,0,1,7.358,5.028c3.675,1.678,3.491.84,6.987,2.306-.921-.628-2.575-2.514-3.125-2.094.367-1.048,2.575.208,6.066,1.886a3.525,3.525,0,0,1-1.1-.208c2.392,1.256,6.253,2.306,10.115,3.771.184,0,.371.212.554.212a26.454,26.454,0,0,0,2.392,1.886c-.554-.84.917-.212,1.1-.212a10.834,10.834,0,0,1,1.475.842,8.017,8.017,0,0,1,1.287.836,4.355,4.355,0,0,0-2.024-.628c.738.84,2.575,1.469,4.046,2.1l1.1,1.258a14.89,14.89,0,0,0-4.967-1.466c1.288,0,6.253,3.772,7.541,2.306a3.9,3.9,0,0,1,2.207,1.886c-.183.208-.37.628-.738.628-.921-.42-1.287-1.048-2.575-1.469a1.512,1.512,0,0,0,0,1.258c-1.47-.838-2.941-1.674-4.782-2.516-.366-.628-.551-.836-1.287-.208q-.551-.312-.551,0c1.471.42,1.1.838,2.392,1.258a.84.84,0,0,1-.184-.63,18.737,18.737,0,0,0,4.78,2.516c-7.537-1.466-12.137-3.352-19.678-7.544-.366,1.258,2.575,2.3,2.759,3.56a25.313,25.313,0,0,0-6.8-2.722,22.613,22.613,0,0,1-5.517-2.306l.184-.63c0-.628.921-.212,1.654.209-.551-1.258-2.575-1.05-2.209.208-1.654-.838-2.575-.63-4.412-1.886.366-.628,1.471,0,2.575.628-1.1-1.886-4.967-2.1-7.541-2.726-1.837-.416,0-1.046-1.1-1.466-2.02-.42-12.32-5.244-14.161-7.339-1.288-.208-1.654-.208-1.471.84-1.837-.628-2.575-1.469-2.575-2.306-2.39.418-4.782-2.1-6.987-3.987-1.658-.837.734,1.473-.738.632-1.287-.629-.549-.42-.183-.841-1.841-.837-1.841.42-4.046-1.045a3.366,3.366,0,0,0,1.471-2.306c-1.1-.42-.553,1.045-1.1,1.466-2.207-.837-1.471-1.678-2.941-2.514.183.628-.738,1.045-1.471,1.257a2.456,2.456,0,0,1-2.575-2.1,5.007,5.007,0,0,1,2.575,2.1c.183-.629-.554-1.257.551-1.469-2.575-.417-2.392-1.257-4.6-2.723-.366.629-1.837.837-.917,2.514-1.287-1.257-3.128-2.306-4.232-3.563.37-.629,1.84.208,2.945.837.917.42-.371-1.466-.371-1.886-1.1-.42.371.629-.734.629a23.125,23.125,0,0,0-3.128-1.886c-.551-1.049.187-.42.37-1.049-3.311-.837-2.575,1.886-5.7,0,0,.42.37.837,1.287,1.257-2.758-.208-5.7-1.886-8.457-3.563-3.129-2.1-6.07-4.192-8.645-4.4-1.288-1.466-.367-1.257-2.209-1.466-.366-1.678,1.471-1.469,3.312-1.049a5.324,5.324,0,0,0-1.471-.837c.184,0,.184-.212.367-.212.366-.42.183-.629-.183-1.466-.921-.212-.738.417-.554.837-1.287-.837-3.491-1.886-4.046-1.049a5.7,5.7,0,0,1-2.39-1.886c-.734-.208-.184.42.187.837-1.105.212-1.475-1.674-3.129-2.306a4.167,4.167,0,0,0,1.288,1.257c-.551.632-.921-.837-1.839-1.045,0,.208.551.42.918.837-.367.629-2.388-1.049-3.125-.629a4.348,4.348,0,0,0-2.392-2.1c-.183-1.257,2.209.42,2.759,0-2.759-2.094-6.255-4.192-9.2-6.286,3.312.837,5.333,2.094,8.645,3.772,0,.629-2.942-.208-.738.841,2.024-1.049,4.782,2.306,7.174,2.515.551.208,1.1.628,1.654.837C245.075,103.051,245.445,103.26,245.812,103.26ZM161.029,65.733c.734.42,1.287.628,2.02,1.049.738-.629-.551-1.049-.734-1.469,1.1.632,1.1-.208,2.575.632-.183.629-1.471-.212-1.287.837,2.207,1.257,1.837-.208,4.045,1.049-.183.42,0,.628.367,1.049a30.449,30.449,0,0,0-3.125-1.049c-.183.208-.738.42-.921.628l-1.654-.628c-.736-.212-1.47-.629-2.207-.841A4.486,4.486,0,0,0,161.029,65.733Zm19.494,60.588c-.738-.417-2.024-1.466-2.941-2.094a.428.428,0,0,0,.366-.42c-1.471-.841-2.207-1.049-2.941-.629-.371-.629-2.392-1.049-1.471-1.889,2.2,1.049,9.562,3.987,5.516,3.567a28.065,28.065,0,0,1,7.908,3.772c.184,0,.184.212.367.212-.734-.212-.183.629.738,1.045C184.2,129.884,181.26,124.855,180.522,126.321Zm9.2,3.772Zm8.091,8.388c-.183-1.046,3.312.628,2.945.628a5.165,5.165,0,0,0-1.471-.416,11.4,11.4,0,0,1,1.471.628C200.383,139.741,198.729,138.692,197.809,138.48Zm61.244,35.849c.921.628,1.654,1.258,2.575,1.89a23.715,23.715,0,0,1-6.253-3.356A10.073,10.073,0,0,0,259.052,174.329Zm-11.4-3.352a.536.536,0,0,0-.367-.211,2.075,2.075,0,0,1,1.1.211C248.019,170.766,247.832,170.766,247.649,170.977Zm.738.418c.734.212,1.654.628,2.207.84a9.811,9.811,0,0,0,1.288.838C251.145,173.283,249.491,172.235,248.387,171.394ZM272.293,184.6c-.366,0-.551-.208-.917-.42.366.212.551.212.734,0q-1.983-1.318-4.046-2.514c.921,0,3.5,2.1,4.229,1.678C273.768,184.182,270.821,183.974,272.293,184.6Zm2.392-.628h.37l1.1.628A2.257,2.257,0,0,0,274.684,183.974Zm.921-.836c-.184-.42-.367-.842.921-.63a2.34,2.34,0,0,0,.917,1.046A9.485,9.485,0,0,0,275.6,183.137Zm53.885,26.624c-.183-1.258,1.654.208,2.759.628C332.25,211.439,330.228,210.6,329.49,209.761Zm64.735,27.254c1.1-.209-.183-.63.738-1.05a30.655,30.655,0,0,0,7.357,3.146C401.034,239.741,396.988,237.855,394.226,237.015Zm9.2,2.726c-.187-1.258,2.941.42,3.308.836A5.153,5.153,0,0,1,403.425,239.741Zm53.332,18.449c0-.421.549-.421.736-.842,1.839.212,2.388,1.05,4.413,1.258C461.54,259.447,457.861,258.818,456.758,258.19Zm9.566,1.677c2.02.838,2.758.418,4.412,1.258C470.368,261.961,465.769,260.7,466.323,259.867Zm17.835,10.062a6.767,6.767,0,0,1,4.05.42C487.471,271.4,486.183,270.141,484.159,269.929Zm5.15,1.469c.554-.42,1.841-.42,3.5,0C492.436,272.026,490.412,272.235,489.308,271.4Zm2.024-4.195c.183-.63,2.024.628,2.758.84C493.541,269.091,491.883,267.835,491.333,267.2Zm4.784-.418c.183-.84,2.02-.42,3.491-.212C499.608,267.623,496.85,267.414,496.116,266.785Zm3.862,0c1.288.208,1.288-.42,2.941,0a1.22,1.22,0,0,0,1.1.628c-.184.838-2.209.209-2.392.838-.551-.208-.367-.42,0-.208C501.815,267.414,499.425,267.623,499.978,266.785Zm8.641,9.017a3.707,3.707,0,0,1-2.941-.42C505.678,274.541,508.989,274.544,508.619,275.8Zm-1.837-6.5c-.183-.628.738-.628,1.287-.836.367,0,.925.208,1.292.208.183.208.179.42.179.838A16,16,0,0,1,506.782,269.3Zm70.072,5.03a3.947,3.947,0,0,1,2.2,0C577.953,274.12,577.22,274.961,576.854,274.329Zm24.46.632a13.993,13.993,0,0,0-5.15-.63C597.081,273.7,602.23,273.284,601.314,274.961Zm-2.392,18.449c-.553.628-1.841.628-3.5.836A4.1,4.1,0,0,1,598.922,293.411Zm.734,2.722h-2.392C596.715,295.087,600.026,294.875,599.656,296.133Zm9.749-1.674c-2.941,0-5.15-1.048-7.54-.212-.551-.42-.551-1.048-2.392-.836,3.128-1.47,8.461-.212,11.586-.842A2.679,2.679,0,0,0,609.4,294.459Zm-4.416-15.517V278.1c2.762-.836,4.233,0,7.358.212C610.138,279.154,607.75,278.1,604.988,278.942Zm21.152-.418c-2.758-.84-8.278-.84-9.011.42-.921,0-1.288-.42-1.288-1.048-1.653.42-.553.42-.553,1.258-1.654,0-1.471-1.258-2.941-1.258,4.782-1.258,8.644.208,14.161-1.258C625.957,277.476,626.324,277.476,626.14,278.524Zm5.517-.628c-1.288-.628-2.2.208-4.046.42,0-1.258,2.392-1.256,4.416-1.469C632.21,277.056,631.473,277.268,631.657,277.9Zm93.061,5.449c-1.471.421-.738-1.044-2.392-.416,1.1-1.469,2.942-.42,4.967-.84C727.843,282.716,724.348,282.508,724.718,283.344Zm24.09-7.967c-1.1.42-2.388.632-3.863,1.258a1.022,1.022,0,0,1-.734-.838v-.208c0-.208.183-.208.183-.42h-.549c-1.658,0-3.678.42-4.783,0,3.125-1.258,6.438-.838,9.2-2.934a1.349,1.349,0,0,1,1.837.42c-2.758.628-1.654,1.465-3.491,1.677.551.421,2.575-.84,2.392.209l2.2-.63c-.183-.628-1.1-.42-1.1-1.256.37.208.738.208,1.474-.212.734.42-1.474,1.469.184,1.256A7.137,7.137,0,0,1,748.808,275.378Zm36.05-29.348c1.654-.84,4.045-1.677,2.758-2.514h.183c1.471-.212,2.575.208,2.207.626-1.1.84-1.841-.838-2.207.42.734-.208,1.287,0,1.287.42,1.288-.84,2.022-1.048,2.942-.628.553.836.183,2.094-1.1,2.934C788.716,247.076,785.407,247.916,784.858,246.03Zm30.342-6.709c2.575-.42,5.334-3.144,6.438-1.886C820.35,238.271,816.121,240.577,815.2,239.321Zm22.99-14.257c-.184-.209-.184-.209-.184-.418a6.784,6.784,0,0,1,2.942-1.256c0,.416-.551.836-.921,1.256A2.981,2.981,0,0,1,838.191,225.064Zm34.758-6.5c.184,1.256-1.287,1.048-3.124,1.886,0-.209-.184-.209-.184-.418C869.64,219.406,871.294,219.406,872.949,218.566Zm-9.011-14.257c1.288-1.886-1.1-1.046-2.207-2.094l2.024-.84c.921,1.256,1.1,1.048,2.207,2.1Zm7.357-9.853.184-.209c-.367.209-.738,0-.738-.208-.183,0-.183,0-.367.208-.183-.208,0-.42.555-.84,1.471-.416,1.837.42,2.758.632.551-.212,1.1-.42,1.837-.628.184.208.184.416.367.628a12.687,12.687,0,0,0-3.863,1.258Zm6.07-.838c-.187-.212-.187-.212-.187-.42.187,0,.371.208.555.42A.233.233,0,0,0,877.365,193.618Zm46.713-51.151c-2.024.626-.921,1.258-2.024,1.882h-.734c.183-.836,0-1.465-1.1-1.465a2.613,2.613,0,0,0-.736.628c.921-.628,1.841-1.05,2.758-1.678a4.921,4.921,0,0,0,1.841.628ZM645.818,297.181c-2.2.212-1.471,1.258-1.837,1.89C645.818,298.859,646.188,297.6,645.818,297.181Z" transform="translate(-238.301 1299.302)" fill="#7569be" fill-rule="evenodd"/>
  </g>
</svg>
