<svg id="Group_16211" data-name="Group 16211" xmlns="http://www.w3.org/2000/svg" width="31.933" height="31.933" viewBox="0 0 31.933 31.933">
  <g id="Group_16210" data-name="Group 16210" transform="translate(0 0)">
    <path id="Path_115582" data-name="Path 115582" d="M290.188,199.169a.533.533,0,0,0,.716.233,45.631,45.631,0,0,1,4.709-2.1.533.533,0,0,0-.321-1.015,45.647,45.647,0,0,0-4.871,2.162A.532.532,0,0,0,290.188,199.169Z" transform="translate(-272.035 -184.025)" fill="#fff"/>
    <path id="Path_115583" data-name="Path 115583" d="M290.663,97.061A.531.531,0,0,0,290.9,97a45.623,45.623,0,0,1,4.709-2.1.533.533,0,0,0-.321-1.015,45.648,45.648,0,0,0-4.871,2.162.532.532,0,0,0,.242,1.006Z" transform="translate(-272.035 -88.013)" fill="#fff"/>
    <path id="Path_115584" data-name="Path 115584" d="M31.4,7.983a.532.532,0,0,0-.532.532V29.272a1.6,1.6,0,0,1-1.6,1.6H16.5V29.644a15.684,15.684,0,0,1,4.79-.9,27.452,27.452,0,0,1,7.816,1.037.532.532,0,0,0,.7-.505V5.855a.531.531,0,0,0-.417-.519s-.417-.093-1.13-.224a.532.532,0,0,0-.193,1.047c.272.05.5.094.675.129V28.565a30.057,30.057,0,0,0-7.451-.889,16.72,16.72,0,0,0-5.3,1.02,12.468,12.468,0,0,0-4.811-1.02,35.864,35.864,0,0,0-7.983.912V6.266a35.032,35.032,0,0,1,7.983-.944,11.539,11.539,0,0,1,4.258.877V27.143a.532.532,0,0,0,.806.456,60.932,60.932,0,0,1,10.006-4.741.532.532,0,0,0,.364-.505V.532a.533.533,0,0,0-.72-.5,56.615,56.615,0,0,0-8.61,4.305.532.532,0,1,0,.564.9,56.885,56.885,0,0,1,7.7-3.931V21.972A59.644,59.644,0,0,0,16.5,26.219V5.855a.533.533,0,0,0-.294-.476,12.324,12.324,0,0,0-5.028-1.12A34.542,34.542,0,0,0,2.517,5.343a.532.532,0,0,0-.386.511V29.272a.532.532,0,0,0,.532.532.524.524,0,0,0,.146-.021,34.188,34.188,0,0,1,8.37-1.044,11.514,11.514,0,0,1,4.258.878v1.251H2.663a1.6,1.6,0,0,1-1.6-1.6V8.516A.532.532,0,0,0,0,8.516V29.272a2.664,2.664,0,0,0,2.661,2.661H29.274a2.664,2.664,0,0,0,2.661-2.661V8.516A.532.532,0,0,0,31.4,7.983Z" transform="translate(-0.002 0)" fill="#fff"/>
    <path id="Path_115585" data-name="Path 115585" d="M290.188,147.969a.533.533,0,0,0,.716.233,45.63,45.63,0,0,1,4.709-2.1.533.533,0,0,0-.321-1.015,45.642,45.642,0,0,0-4.871,2.162A.533.533,0,0,0,290.188,147.969Z" transform="translate(-272.035 -136.019)" fill="#fff"/>
    <path id="Path_115586" data-name="Path 115586" d="M290.188,250.369a.533.533,0,0,0,.716.233,45.628,45.628,0,0,1,4.709-2.1.533.533,0,0,0-.321-1.015,45.651,45.651,0,0,0-4.871,2.162A.533.533,0,0,0,290.188,250.369Z" transform="translate(-272.035 -232.032)" fill="#fff"/>
    <path id="Path_115587" data-name="Path 115587" d="M92.906,153.939a16.891,16.891,0,0,0-7.178.253.532.532,0,0,0,.137,1.046.541.541,0,0,0,.138-.018,16.04,16.04,0,0,1,6.66-.245.532.532,0,1,0,.243-1.036Z" transform="translate(-80.011 -144.062)" fill="#fff"/>
    <path id="Path_115588" data-name="Path 115588" d="M92.906,205.143a16.9,16.9,0,0,0-7.178.253.532.532,0,0,0,.137,1.046.541.541,0,0,0,.138-.018,16.039,16.039,0,0,1,6.66-.245.532.532,0,1,0,.243-1.036Z" transform="translate(-80.011 -192.072)" fill="#fff"/>
    <path id="Path_115589" data-name="Path 115589" d="M290.188,301.569a.533.533,0,0,0,.716.233,45.631,45.631,0,0,1,4.709-2.1.533.533,0,0,0-.321-1.015,45.653,45.653,0,0,0-4.871,2.162A.533.533,0,0,0,290.188,301.569Z" transform="translate(-272.035 -280.039)" fill="#fff"/>
    <path id="Path_115590" data-name="Path 115590" d="M92.906,256.341a16.891,16.891,0,0,0-7.178.253.533.533,0,0,0,.137,1.047.539.539,0,0,0,.138-.019,16.04,16.04,0,0,1,6.66-.245.532.532,0,1,0,.243-1.036Z" transform="translate(-80.011 -240.078)" fill="#fff"/>
    <path id="Path_115591" data-name="Path 115591" d="M92.906,358.739a16.891,16.891,0,0,0-7.178.253.533.533,0,0,0,.137,1.047.54.54,0,0,0,.138-.019,16.039,16.039,0,0,1,6.66-.245.532.532,0,1,0,.243-1.036Z" transform="translate(-80.011 -336.089)" fill="#fff"/>
    <path id="Path_115592" data-name="Path 115592" d="M92.906,307.538a16.881,16.881,0,0,0-7.178.253.533.533,0,0,0,.137,1.047.54.54,0,0,0,.138-.019,16.039,16.039,0,0,1,6.66-.245.532.532,0,1,0,.243-1.036Z" transform="translate(-80.011 -288.081)" fill="#fff"/>
  </g>
</svg>
