<svg xmlns="http://www.w3.org/2000/svg" width="22.843" height="22.095" viewBox="0 0 22.843 22.095">
  <g id="Group_16397" data-name="Group 16397" transform="translate(-956.31 -604.332)">
    <path id="Path_698" data-name="Path 698" d="M13.5,22.5H15V24H13.5Z" transform="translate(948.995 591.758)" fill="#011c34" stroke="#011c34" stroke-width="0.4"/>
    <path id="Path_699" data-name="Path 699" d="M22.5,22.5H24V24H22.5Z" transform="translate(944.483 591.758)" fill="#011c34" stroke="#011c34" stroke-width="0.4"/>
    <path id="Path_700" data-name="Path 700" d="M31.5,22.5H33V24H31.5Z" transform="translate(939.972 591.758)" fill="#011c34" stroke="#011c34" stroke-width="0.4"/>
    <path id="Path_701" data-name="Path 701" d="M22.447,3H3A1.5,1.5,0,0,0,1.5,4.5V17.962a1.5,1.5,0,0,0,1.5,1.5H5.989v5.237H7.421l5.237-5.237h9.789a1.5,1.5,0,0,0,1.5-1.5V4.5a1.5,1.5,0,0,0-1.5-1.5Zm0,14.962H12.037L7.485,22.515V17.962H3V4.5h19.45Z" transform="translate(955.01 601.532)" fill="#011c34" stroke="#011c34" stroke-width="0.4"/>
  </g>
</svg>
