<svg id="Group_1685" data-name="Group 1685" xmlns="http://www.w3.org/2000/svg" width="27.256" height="25.793" viewBox="0 0 27.256 25.793">
  <path id="Path_6072" data-name="Path 6072" d="M26.3,37.15h-.048v-.628a.958.958,0,0,0-.957-.957h-1.14V34.7a.773.773,0,0,0-.729-.77V25.791a.773.773,0,0,0,.729-.77v-.866H25.26a.765.765,0,0,0,.764-.764v-.816h.581a.621.621,0,0,0,.62-.62v-.705A.62.62,0,0,0,26.9,20.7l-9.156-4.952a.4.4,0,1,0-.38.7l9.062,4.9v.419H.83v-.415l12.994-6.818,1.891,1.023a.4.4,0,1,0,.38-.7l-1.891-1.023a.8.8,0,0,0-.749,0L.363,20.7a.619.619,0,0,0-.332.549v.7a.621.621,0,0,0,.62.62h.581v.816A.765.765,0,0,0,2,24.154H3.1v.866a.773.773,0,0,0,.729.77v5.3a.4.4,0,0,0,.8,0v-5.3h1.28v8.134H4.631v-.959a.4.4,0,0,0-.8,0v.961a.773.773,0,0,0-.729.77v.866H1.963a.958.958,0,0,0-.957.957v.628H.957A.958.958,0,0,0,0,38.107v.836a.592.592,0,0,0,.591.591H26.665a.592.592,0,0,0,.591-.591v-.836A.958.958,0,0,0,26.3,37.15ZM2.032,23.355v-.78H25.224v.78ZM23.354,34.727v.839H20.617v-.839Zm-2.009-.8V25.793h1.28v8.134h-1.28Zm-.729-8.934v-.839h2.738v.839Zm-2.763,8.936V25.791a.773.773,0,0,0,.729-.77v-.866h1.234v.866a.773.773,0,0,0,.729.77v8.139a.773.773,0,0,0-.729.77v.866H18.582V34.7A.773.773,0,0,0,17.853,33.929Zm-.071.8v.839H15.045v-.839Zm-2.009-.8V25.793h1.28v8.134h-1.28Zm-.729-8.934v-.839h2.738v.839Zm-2.763,8.936V25.791a.773.773,0,0,0,.729-.77v-.866h1.234v.866a.773.773,0,0,0,.729.77v8.139a.773.773,0,0,0-.729.77v.866H13.011V34.7A.773.773,0,0,0,12.282,33.929Zm-.4.8h.329v.839H9.474v-.839h2.408Zm-1.679-.8V25.793h1.28v8.134H10.2Zm-.729-8.934v-.839h2.738v.839ZM6.71,33.929V25.791a.773.773,0,0,0,.729-.77v-.866H8.674v.866a.773.773,0,0,0,.729.77v8.139a.773.773,0,0,0-.729.77v.866H7.44V34.7A.773.773,0,0,0,6.71,33.929ZM3.9,24.993v-.839H6.64v.839Zm0,9.734H6.64v.839H3.9Zm-2.1,1.8a.157.157,0,0,1,.157-.157H25.294a.157.157,0,0,1,.157.157v.628H1.805Zm24.651,2.213H.8v-.628a.157.157,0,0,1,.157-.157H26.3a.157.157,0,0,1,.157.157Z" transform="translate(0 -13.742)" fill="#6053b4"/>
</svg>
