<svg xmlns="http://www.w3.org/2000/svg" width="560.163" height="274.632" viewBox="0 0 560.163 274.632">
  <path id="Path_257014" data-name="Path 257014" d="M560.1,5.271c-2.8-.376-6.6-.566-8.508.376-1.343-3.2-6.271,1.884-7.054-2.826-1.231,0-.335,2.636-1.681,2.636a17.351,17.351,0,0,0-2.91-1.694c-.783,1.7-2.687,1.318-3.137-.376.45,0,.225-.752.56-.942,1.231,1.318,4.366.19,5.6-1.128-2.239.376-5.151-.19-7.165,1.318.335,0,.9-.19,1.006.186-.9,0-.9,1.132-1.789,1.318-.225-.938.783-1.5-.45-1.318-.337.566-.56,1.318-1.12,1.508-2.127-.942-5.263-.942-7.167.566-3.133-3.2-8.508,3.013-9.516-2.826-2.352,1.508-4.815,2.45-7.388.942-.562.19-.114,1.508-.787,1.508-2.687-2.074-6.046,2.636-9.069,2.26,0-1.884,3.022-.38,1.905-2.26-4.143,2.823-7.952.186-11.311,1.128,0-1.128,1.233-.752,1.008-2.07-.9.376-3.022,0-4.143,1.128-.111-.566-.558-.752-.448-1.694-2.129,1.694-4.253.19-6.719,0-.335,1.128.9,1.508.225,1.694l-1.791.566c.335-.752.225-1.694-.448-1.694-2.464,1.5-5.711,1.128-7.838,3.579.671-1.884-.785-.19-.9-.19,0,0,0-.942-.112-.942-4.7-.752-13.326,6.219-15.675,4.149.558.938-1.008,3.2-2.241,2.07-.335-1.132.448-1.132.448-1.884-7.054,3.013-14.89,4.331-23.175,7.157.221,0,.558-.19.669.186-3.918.566-5.709-.186-8.844,1.884-3.024.19-8.4,2.45-9.966,2.636.335.19,1.791.38,1.008,1.132-3.472-1.884-6.159-.942-10.414.566-.56-2.074-3.695-1.132-3.472,1.128,1.008,0,1.456-.566,1.681-1.508.448.566,1.568-.376,1.343,1.318-1.456.38-6.046,2.45-3.918-.186-4.255,3.012-6.046.19-9.854,2.636-1.233-4.145-6.161,1.132-6.161-1.318a2.246,2.246,0,0,1-3.805.376c2.35-1.884,4.143-1.694,5.6-3.2-.9.38-1.793.566-2.128-.186-1.12,1.884-2.462,2.07-3.693,1.128.223,1.884-1.12.566-1.456.376-.225,1.512,1.006,0,.783,1.512a6.5,6.5,0,0,1-6.157.562,1.442,1.442,0,0,0,1.006-1.318c-1.568,1.128-3.583-.566-3.583,2.07.673,0,1.789-1.128,2.014-.186a4.542,4.542,0,0,1-4.926.752c.335,0,2.128-.566,1.119-.752-1.343,0-1.677,1.128-2.464,1.694-3.245-2.26-5.259-.566-8.4-.566-.223,1.694-2.016,1.884-3.249,2.45a3.851,3.851,0,0,0-.448-1.318c-.223-1.132,1.12-.756.673-2.074-1.121.19-3.695,1.694-5.6.376-.673,1.132-3.918,3.2-4.7.566,1.9-.942,3.7-2.07,4.813-1.508.114-1.5,5.936-.938,5.263-3.389.339.566.56,1.318,1.345.942a28.24,28.24,0,0,0,1.681-3.2c.223,3.2,1.566-2.07,2.125.752,1.01.19.448-1.318,1.01-1.694.783.19,1.231,1.128,2.239,1.128,6.157-5.459,14-3.765,20.378-6.967-1.456,0-3.36.752-4.253-.566.446-.186,1.566.756,1.677-.566-.558-.186-1.456.38-1.791-.376,1.456-1.318,2.8.756,3.247-.186-1.677.376-.111-1.7-.223-1.7-.671-.562-1.343.942-2.464-.562,0,.942.448.942.448,1.694-.56,0-.673-.942-1.343-.942-3.472,5.839-10.189,3.579-14.669,7.347-.448-2.26-1.343-.756-1.12.376-1.341-.19-1.679-1.132-2.35-2.074-.9,3.393-4.7,1.132-6.046,3.769-2.016-2.07-5.711,2.26-7.725,2.45.223,0,.335.186.335.752-1.008.566-1.566,1.132-2.353.19.562-1.318.562.562,1.456,0-2.35-2.451-5.374.942-8.508.752a6.945,6.945,0,0,1-1.566,1.884c-.673-1.132-2.239-.19-3.474.186-.111,1.318-.446,2.45-1.789,2.45,1.789,2.636,4.366.942,6.157,0-.783,2.07.785,1.884-.223,3.2-1.121-2.261-5.486.942-6.717.566.558,0,1.231-.19,1.231.942-.9.186-2.353,1.88-3.136.938,1.456-.186.9-1.88,2.016-.562-.673-1.132-1.456-2.26-2.574-2.45-.112,1.508,1.008.19.783,2.074-.337,0-.337.376-.558.562-.562-1.128-3.137.38-2.466-1.5-2.014,1.318-5.151,1.88-6.157-.38-3.359,2.074-5.936,4.148-9.518,4.148-.112-.566-.112-1.7-.448-1.7-.112,1.132-.9,1.318-1.231,2.26-.225-1.508-.785.19-.9-.566.333-.186.223-1.128.448-1.5a1.322,1.322,0,0,1-1.456,0c-.112,1.5,1.008.186.783,2.07-.673.19-.783.942-1.345,1.318-1.231-1.318-2.687,2.074-4.812.942,0-.566.335-.942.111-1.884-1.008.38-.783,2.26-1.791,2.826,0-.752.335-.942.446-1.508-1.119,3.582-4.812.942-5.709,1.132.335,0,.783.566.335.752-4.591.376-8.4,2.45-12.651,3.392-.114-.566.334-.756-.114-.942-1.9.942-11.2,8.476-9.852,2.446-.223,0-.56.19-.56-.376.337-.186.785-.186.785-.566-.9-.562-2.466,1.318-3.584,1.884-.337-.562-.558-1.318-1.006-1.5-1.793,3.579-3.584-.942-5.6.942-.225-1.132,1.006-.566.669-2.074-2.573,4.335-7.613,2.45-11.531,4.521-.225-1.128,1.566,0,1.008-1.508-2.8,1.884-8.285,1.512-11.87,3.582.783-1.512-1.12-.38-1.231-1.512,2.239-3.575,5.036-1.318,8.061-4.517-.223-.566.111-2.45-.448-2.26-.558,4.331-4.253,2.636-6.382,4.521-.225-.752-.9-.19-.673-1.694-1.9,3.013-6.269,3.2-9.629,2.447-.671,2.074-2.687.19-4.032,1.7.562-.756.223-2.636,1.233-3.016.446,1.132-.671,2.074.446,1.694.114-3.389,3.809-1.88,4.48-3.2-.669,0,.335-.942-.111-1.884-1.12,1.5-2.241.376-3.249,2.07-.669-1.318-3.135-2.07-1.679.376-1.119-2.447-3.135,0-4.253-1.884,3.022-.186,3.918-2.446,6.157-3.013-1.345-1.318-2.125-.376-3.36-.19a4.153,4.153,0,0,1,.225-1.318c-3.92.38-6.608,1.508-9.741-.938,0,.562.111,1.318-.225,1.318-1.9-1.512-5.038-.19-6.83.186.335,0,.671,0,.56.752-1.233.19-2.576.756-2.8-.938-.558.186-.111,2.07-1.008,1.88-.9-.938-1.342-2.636-2.351-3.2.9,1.694-3.47,3.2-2.462-.194-1.681,0-2.574,1.512-3.805-.752a7.1,7.1,0,0,1-1.456,2.45c.335,4.335-.225,4.9.111,8.1,1.345-1.132,2.464-1.888,3.024.938.223-1.318,2.464-1.508,3.022-.376,1.681-3.013,4.48.376,7.39-.566,0,2.26.9.376,1.454,2.074-1.006.376-1.789.942-2.687,1.318.337-1.508-.111-1.7-.669-2.636a1.113,1.113,0,0,1-2.129.376c-.225,1.884,1.231.566,1.456,1.5a22.9,22.9,0,0,0-3.135,2.26c-.671-2.446-2.689-2.07-3.92-.752-.56-.942-.56-1.128-.112-2.26a5.451,5.451,0,0,1-7.277.566c-.56,3.389-2.912-.752-3.808.376.448.19.672.566.9,1.318-.785-.186-.785.942-1.566.566,0-1.694-1.007-1.508-1.68-2.074-.224.942.894,1.512.111,1.884-2.241-.186-3.135-.562-4.815.942-.224-1.508-.111-2.826-1.68-2.636a4.464,4.464,0,0,1-.224,1.884c.672.566,1.121-1.508,1.345-.19-1.567.942-2.687-1.884-3.919,1.318-.448-.376-1.007-.186-.9-1.694.559.19.224,1.694,1.12,1.318-.337-2.07,1.007-2.26,1.791-2.446-1.791,0-2.911-4.9-3.47-1.512-2.687-.938-4.48-2.637-7.167-3.955,0-.562.448-.752.448-1.318-1.345-.752-2.126,2.45-2.352-.376,1.231,0,2.8.19,3.359-1.128a1.127,1.127,0,0,1-1.118-.756c1.118.946.222-1.694,2.35-1.128-.224-1.694.785-1.508.672-2.826-.67-.752-1.791-.566-2.126-1.694,2.012-1.508,3.246-1.128,4.478.566-.337.376-1.345-.376-1.345.562,1.456-.376-.9,1.7.559,1.318.785-1.881,1.68-2.071,2.576-2.823-.448,1.884,1.12-1.318,1.569,1.318.446-.376.446-1.508,1.007-1.884,2.126,2.636,6.157,1.884,8.285,2.45-.448-.566-1.231-.19-1.121-1.7.224,0,.337-.376.562-.562.894,1.88,2.574-.566,3.022,1.88,1.345-.186,1.345-.562,2.128.194.225-.946-.225-2.074,1.231-1.888,0,.942-.669.942-.669,1.884,2.125,0,5.821-2.26,7.277,0,1.566-3.765,3.805-3.389,6.044-2.636,2.241.566,4.366,1.508,5.6-1.318,0,.566.45.376.562.752-.669-.186-1.008.376-.785,1.508,1.345-.376,1.345-.19,3.249.376-.56-2.446-2.576-1.694-3.472-3.579.56-.942,1.906-.566,2.912-.942-.448-1.318-2.8-.942-3.582-.752,0,0-.114,1.5-.45,1.5s-.785-1.128-1.12-1.128c-1.789-.19-4.366,2.446-5.374-.19,1.008.19,1.345-.566,1.568-1.5-4.366,1.694-7.277.752-12.205,1.694,0-.376.225-.566.225-.942-1.68,1.128-3.582-.19-5.486,2.071,0-.562.446-.752.446-1.5a14.393,14.393,0,0,0-2.8,2.07c.559-1.128-.9-1.318-1.12-2.637.113.942-.111,1.508-.786,1.508-.557-.566.337-1.132-.333-1.318-1.345.752-2.911,1.128-3.921,2.26,0-.756,1.345-1.7.448-2.264-1.567,2.45-6.047-.376-7.613-.752.783.566-.786,1.508-1.01.566-.335,1.128,1.01,1.318.337,1.694-.337-1.694-2.015-.376-2.352-1.128-.448-1.508.9-.38.785-1.318a9.619,9.619,0,0,0-3.583-2.074c2.35-2.07,7.165,1.132,10.524-2.446-.224-1.132-1.118.376-1.567.562-.224-3.012-.9-.186-1.569-1.318.559-3.765,2.8,0,3.808-1.128-.335,0-.67,0-.559-.942.222,0,.335-.376.446-.566,1.569.19,4.48,1.508,4.591-.942,1.234,0,2.352,3.013,3.472,1.884a5.483,5.483,0,0,1-3.248-3.769c0-.562,1.9-.376,1.01-.942-1.793,1.7-2.576,1.512-4.367,1.7.222.752,1.229-.19,1.118,1.318-.786,0-2.015.752-2.126-.756.67-.752-.45-2.26-.561-1.318.67.38-.224,1.7-.448,1.884-.111-.752-.67-.376-1.007-.376a3.385,3.385,0,0,0-.335-1.694c-.785,0-1.234.752-1.793,1.128-1.68-1.128-3.581-.376-5.6.376-1.9.756-3.807,1.7-5.374,1.132.111,0,.335,0,.224-.376-.561,2.07-2.128.562-2.017,1.884-.335-.38-1.68-1.132-1.79-.38.111.756,1.231,0,1.231.942a1.034,1.034,0,0,1-.448.942c-.67-1.128-.783-.562-1.567,0a8.085,8.085,0,0,0-.785-1.318c-1.567.756-2.239.566-3.695.942a4.21,4.21,0,0,1,.224-1.318c-.67.376-1.232.566-1.791-.376a8.687,8.687,0,0,0,1.791-2.26c-1.121.752-2.8.186-3.246,2.26.448.186,1.007-1.318,1.232,0a4.571,4.571,0,0,0-2.017,1.884c0-.756-.222-1.132-.783-.942.562-1.132-.224-2.45-.67-3.2-.224,1.694.559,1.694.446,3.2-1.118-.376-.224.752-.783.942-1.231.186-1.345-1.7-2.463-1.884.335-1.508,1.342-1.508,1.791-2.637-1.342-.38-1.567,1.694-2.687,1.694,0-1.132.448-1.318-.224-1.884-1.567,2.637-4.7,1.694-6.606,1.884.335,1.128.786-.752.9.566-.113.562-.562.562-.786.942-.111-1.132-.894-.942-.67-2.83-1.345,1.512-2.8,0-4.591.57-.224-.756-.448-3.393-1.121-1.884.335,0,.559.186.448.942-1.007.376-1.68.186-3.359.186,0-3.2-1.9-3.2-2.8-4.9-.559.566.224,1.132-.335,1.318-2.241-2.447-3.581-2.447-6.608-4.145,1.456-.376-1.34-.942-.335-1.884-1.007.756-2.8,1.132-3.357.38.335-.19.222,2.26-.113,1.884-.335-.942,0-1.7-.786-1.132.227-1.508.116-2.636-.446-2.826-.335.19-.113,1.7-.559,1.7-.561-.942-.785-.566-1.234-1.132a2.085,2.085,0,0,0,.785-1.128c-.785.186-.224-.942-.113-1.318A4.648,4.648,0,0,1,106.4,4.329c-.224,2.26.224,3.393-.448,4.9.67.376.448,2.26.559,3.393a12.633,12.633,0,0,1-5.037-2.26,16.186,16.186,0,0,1-4.256-5.087,5.852,5.852,0,0,0,.224-4.145C96.433,5.081,95.2,4.519,93.968,3.01,92.737,1.692,91.394-.382,89.939.936c-.562,2.45-.224,2.83-.562,5.273-1.455-.938-2.015,1.132-2.911,2.64-1.231.376-1.68-.19-2.911-.19.113-.562.113-1.128-.222-.938-.561.186.335.938-.113,2.257-1.231-.186-2.241,3.769-3.246,2.264a10.731,10.731,0,0,1-1.01,4.707c.113-.566-.446-.752-.559-.19.224.194-.111.566-.448.194.559-.57-.335-3.773-.894-1.888.446,1.132,1.455,2.45.559,4.521.67,0,.894.756.894,1.884a7.812,7.812,0,0,1-1.007,1.318,14.817,14.817,0,0,0,.337,2.45c-1.007.942-3.473,1.128-3.808-2.26-.785.186-2.352,3.579-2.463.186.224,0,1.007-.376,1.456-1.5-.67-.38-2.241,1.884-2.241-.756,2.017-2.07,4.593-2.446,6.608-.376a2.987,2.987,0,0,0-2.463-2.26,5.686,5.686,0,0,0-3.36.756A2.326,2.326,0,0,0,68.1,17.891c-.335-.566-.111-1.694-.446-2.26-.562-.376-1.9,0-2.8-.19s-1.456-.938-.786-3.2c-.335-.942-.446,1.318-.781.938a3.089,3.089,0,0,1,.111-2.447,25.622,25.622,0,0,1,3.7-3.013,19.858,19.858,0,0,0,3.694-2.83c-.113-1.318-.672-2.257-.224-4.517-1.68-1.132-3.249.562-5.039,2.26A12.445,12.445,0,0,1,62.953,4.7c-.894.376-1.68.566-2.35-.186-.672,4.141-2.465,4.707-2.8,8.662a.469.469,0,0,0-.67,0c-.786,3.393-1.234,5.839-2.689,7.347-.224.752.335.566.224,1.132-.559-.38-.9,1.318-1.345,1.884-.111.562.561.562.337,1.318C51.645,34.28,51.2,39.743,50.188,50.669c.9,3.2.672,7.343,1.68,10.546-.894,1.318.113,4.335-.894,5.653.559.186.783.562.67,1.5-.446-.376-.783-.376-1.007.19,1.12.376-.111,2.26-.111,2.45-.224,3.765,1.007,7.533.559,11.488-2.911,0-3.808-7.157-6.271-6.215-.448-1.694-1.68-3.012-1.118-5.273.67.376,1.342.752,1.677-.756A31.761,31.761,0,0,0,43.7,66.492,14.88,14.88,0,0,0,41.343,63.1c.786-3.769-2.017-4.9-3.135-7.347.224-.752.67,0,.9-1.318-2.241-1.318-4.367-4.521-5.711-7.91,1.007-5.087-2.911-8.476-1.007-12.81-.559-1.318-1.232-2.636-.786-4.331,1.01-1.512,2.017-1.884,3.138-4.521.559-2.26-.562-3.769-.448-5.839-.672,1.318-2.017,1.318-2.017-.38.448-.562.786-.186,1.234-.562.559-2.83,1.567-4.149,2.35-6.785-.448-.376-1.232-.938-.448-2.447.337.19-.111,1.694.561.752-.337-.562.335-1.694.111-2.26-1.232,2.26-.448-.562-.67-.942-.672.19-.9,1.7-1.682,2.26a4.432,4.432,0,0,1-.446-2.26c0-.938.224-2.07.224-3.013C33.728,1.5,33.728,0,32.386.56c-.224.566.224,1.132.448,1.508a31.518,31.518,0,0,0-1.121,5.463q-.306,2.711-.448,5.463c-.335.376-.559.376-.9,1.128.561.566,1.12.19,1.569.756-.224.942-.335,1.694.335,2.26-1.342.752-.448,2.07-1.118,3.2-.672-.19-.672.186-1.345,1.694-.224-.376-.67.752-.894-.19-.337-1.318-.672-2.637-1.12-4.145-.224-.752-.448-1.318-.67-2.07a8.087,8.087,0,0,0-.9-1.884,8.338,8.338,0,0,0-.358,2.035A8.919,8.919,0,0,0,26,17.891c.111,1.318.446,2.636.446,3.955-1.791,2.636-1.9,4.335-2.239,7.537.224,1.128.67-.942.9.186-1.456,3.955-1.456,8.666-3.919,12.244a2.189,2.189,0,0,0-2.8-1.128c-1.007.186-2.015.376-2.911-1.508-.9,1.318-1.569.752-2.463,1.694a6.676,6.676,0,0,0-.337,2.074c-.559.752-1.118.376-1.791.376-3.024,3.389-.335,5.839-2.126,9.228A15.9,15.9,0,0,1,5.85,48.971c-.9-1.318-1.906-2.446-2.911-2.636.446,1.318-.561,3.955-1.682,3.579.337,2.636-1.118,5.273-.67,8.1,2.8,1.318,4.813-2.264,7.724-.566-.894,3.579.113,7.343,1.68,10.546,1.456,3.2,3.473,5.839,4.143,7.537a1.851,1.851,0,0,1,.113-1.7,6.762,6.762,0,0,1,1.791,3.2c.448-1.694,1.345.566,1.9,0a2.65,2.65,0,0,1,0-2.26,11.59,11.59,0,0,0,4.591,3.769,21.974,21.974,0,0,1,4.928,2.826c.222-.376.335-1.132.67-.942a32.846,32.846,0,0,0,3.248,3.013,13.689,13.689,0,0,0,3.135,1.884c2.126,1.128,4.254,1.884,6.606,3.2.111-.376.224-1.132.559-1.132a10.261,10.261,0,0,0,2.576,2.83.937.937,0,0,1,0-.946c3.47,3.393,8.847,3.955,8.285,10.74-.224-.756-.559-.756-.786,0,.561,1.128,1.571,3.2.451,4.521,1.342.186,1.79,3.2.783,4.331a3.77,3.77,0,0,1-.111,1.884c.783.752.446.562,1.118.186a3.421,3.421,0,0,0,0,1.508c-.448-.19-.894-.566-.894.376,1.791.566,0,2.074.446,3.579,1.007.376,1.12-2.26,2.463-.942-.783.566-.222,1.7-.559,3.016-.111-.19-.783-1.7-1.007-.566.67.376.113,1.884.448,2.636.448.19.9.376,1.118.19-1.232,1.128,1.345.562.448,2.636-1.566-2.074-3.246-2.074-5.15-2.26-.111-3.2-3.47-3.955-3.47-7.347a2.2,2.2,0,0,0,1.007-.376c-.448-.752-.337-1.884-.559-2.826-2.911-1.128-1.68-8.289-4.48-10.546-.559,2.256-1.9,1.5-2.8,0-.559,2.07-1.232.938-2.015,0-.448,4.331-3.246,2.636-3.246,6.4-.224-.752-.786-1.318-1.121-.376,0,.752,1.232.942.67,2.074-.222.562-.67-.19-1.118-.38a7.351,7.351,0,0,0,.672,5.273,15.42,15.42,0,0,1,1.68,4.711c-2.352-.186-3.581-2.447-4.7-4.521s-2.017-4.331-3.807-5.083l.448-1.7c-2.576-3.955-4.591,2.637-6.832-.562-2.126,1.318-4.367,1.128-6.941-.19,0,.752-2.017-.566-2.576.376-2.015-2.26-2.8-.566-3.135,2.074-.335,2.446-.448,5.839-1.231,6.591.224,2.26,1.007,4.711.67,7.157-1.005-.942-1.005-.186-.67.942l-1.121-1.128c-.783,2.447-1.791,1.5-1.118,4.145,3.135,1.694,5.037,5.839,5.037,10.36-.446-.38-.559.752-1.118,0-.9,1.5,1.121,2.26.67,3.765-1.791-2.446-1.005-5.649-2.461-8.286-.113,1.318-.786.562-1.01,1.694.561.566.786.186,1.231.752-.783.19.113,1.694-.222,2.826,1.231,1.128.783,1.694,1.9,3.389.337-.562,2.128.19,2.128,1.512-1.791-1.888.113,1.5-1.342.748,2.35,3.016,2.687,4.711,4.254,5.843-1.118-.38-2.126,0-2.8,1.694.894.376.335,1.318.559,2.07a27.814,27.814,0,0,1,3.919,6.971,23.3,23.3,0,0,0,4.591,7.157c-1.791,1.318-4.367-2.26-7.613-4.145-.9.752-2.017.752-2.463,3.013a9.688,9.688,0,0,1,2.574,2.636c.9.946,1.793,2.074,2.687,3.016a23.928,23.928,0,0,0,2.911,2.637,5.105,5.105,0,0,0,3.135,1.132c1.569,4.145,7.5,3.579,11.086,6.781,1.345,1.318,4.928,3.2,6.27.752a31.553,31.553,0,0,0,7.167,3.2c2.574.942,5.261,1.694,8.172,3.012.224,1.319-1.231,1.508.113,1.885,2.015-1.508,5.6,1.317,7.389.751-5.374-2.445-10.076-5.462-15.45-8.285,0-.566-.448-.942-.448-1.7,1.68,1.318,3.919.942,5.485.566,1.68-.376,2.687-.752,2.128.756.448-.38,1.456,1.88,2.687,2.07,1.345-3.579,3.249,1.318,5.487,1.694.111-1.128,1.232.19,1.232-1.318.111-1.318-1.007-1.694-.9-3.2,2.352-2.26,4.145.566,7.054,1.132,0,.752.337.942-.111,1.318.786,0,3.135-.376,2.687,1.884-1.68.376-.559-.376-1.566-.942-.786,1.318-.224,2.446.559,3.388-1.007.566-1.231,2.827-2.576,2.827a1.813,1.813,0,0,1,1.121,1.317c-.335.942-1.345.566-1.567,1.7a5.8,5.8,0,0,1,4.029,2.26c.224-2.447,2.128-.942,2.687-.562-.559,1.128-1.455,1.128-2.35.186.335,2.262-1.345.191-1.234,1.885,1.234,1.128,5.263-3.393,6.495,1.128-2.8-1.5-3.581.757-5.374,1.132-1.68,5.649,2.463,5.087,4.256,7.723,2.8.191,6.83,3.77,9.069,2.827-1.007-.757-3.246-.566-3.359-3.2.9-2.074,1.793,1.5,2.352-.377-1.342-.942-2.015,0-2.463-2.074.448.189.335-.753.67-.753,1.234.942,2.576,2.447,2.352,3.77,0-1.512.9,1.317,1.01-.195-.448-.562-.337-1.5-.448-2.441a2.869,2.869,0,0,1-2.687-3.017c2.574-1.7,4.254,1.317,6.268-1.128.224,1.128,2.128,2.256,2.8,1.5-.559,0-.67-.566-.559-1.5a21.45,21.45,0,0,0,5.822,2.822c1.79.566,3.47.942,5.487,1.508-1.234,1.128-1.793.377-3.248.751.559.942,1.566,1.319,1.79,2.638-1.118.755-2.015,1.317-2.125,2.829-1.793,0-3.024,1.5-4.928,0,.562,2.07,2.128,1.319,3.249,1.124,0,.38.224.57.224.946-1.68,2.07-1.121,4.145-.786,8.1-6.94,1.128-12.093-5.467-19.033-4.71-2.352-1.128-4.7-4.332-8.4-4.9.224-.942-.448-1.132-.113-2.26-3.022.189-5.6-2.262-7.389-4.332-.67,3.013-2.687-2.074-4.032-1.132,0-.751-.335-.942.224-1.317-2.911,1.694-3.808-4.521-7.054-4.332,1.345.939-1.566,1.881,1.007,2.824.562-.753-.559-2.07.224-1.7-.448,2.636,2.352,3.389,3.024,6.029,2.239-1.7,3.694,1.5,6.271,2.447.111.942.335,3.955,1.342,2.826-1.342-.189.448-1.508.559-2.07,1.9.753,3.473,2.636,5.152,3.579-.785,1.881-.672,1.128-2.128.187-.111,1.7.224,1.317-.335,2.636,1.456,1.132,1.68-.377,2.463-.562-.785,2.822,3.694,2.445,4.7,4.33,0-.942.448-1.317,1.121-1.128-.224.562-.448.562-.113,1.319,6.384,1.883,12.317,1.694,17.915,3.953,2.017-1.128,7.615-1.317,7.167,3.2,6.719,3.579,13.772,2.447,21.163,4.521,2.463-2.074,5.6-1.317,7.724-.375-.335-.191.672-.942,1.345-.377,2.241,2.26-1.68,3.2-3.581,3.013,1.677,0,0,3.013-.451,3.953-3.694.942-6.606.566-9.852,1.508-.9-.189-.9-1.508-1.9-1.508-1.456,1.7-2.911-1.317-4.591-.941-1.007.189-1.793,2.074-2.687,1.883-1.121,0-2.017-2.07-2.911-2.26-.561,0-1.569.566-2.017.566,0,0,.224-.942.337-.942-1.01-.189-1.569.942-2.352.942-.113,0-.224-1.319-.224-1.319-1.121-.941-2.8,1.13-4.143,1.13-.9-1.5,1.231-1.885-.224-2.262-.224,1.508-1.567.942-2.126,1.885-.785-2.636-3.81-.566-3.248-3.013a28.589,28.589,0,0,1-4.367.377,13.007,13.007,0,0,1-4.143-.566c.335.189.335.755.222,1.508-2.574-.753-3.357-.753-4.813-.377,0-.377.335-.377.448-.757-3.921-.751-7.167-1.5-9.519-2.822a6.178,6.178,0,0,1-1.232,1.5c-.785-1.5-1.007-.942-1.79-.187-.562-1.132-.113-2.636-1.121-2.26,1.007,1.694-1.566.942-2.241.942.115-.942-.894-.942-.446-2.074,0-1.128,1.007-.187,1.231-.942-2.241-.753-2.463.566-2.8,2.636.786.942,2.128,1.512,2.911,2.451,1.01-2.262,4.48.566,5.152,1.694-.448-.186-.448.757-.786.757,0-.566.224-1.319-.222-1.512-2.352,2.074-4.367-.187-7.056-1.5.562,2.074-.783,1.132-1.118,2.826,2.8.942,5.6,1.885,8.063,2.827-1.01-1.132,1.118-.942,1.567-1.319.559.942,2.463,2.824,3.022,2.262-.448-.191-.335-.757-.224-1.508,1.231,2.449,3.472,2.26,5.374,3.388-2.126-.939-1.232.566-2.911.566,1.455.942,2.241,1.885,3.472.566L76.5,243.18c3.36-.566,8.174,3.579,12.317,3.013,0,.566-.111,1.317.224,1.512,3.7-.946,8.734,3.009,10.637,1.5,0,1.694-1.68,2.07-2.463.942,0,3.2,2.125,1.128,3.022.941v.942c1.345-.193,2.128-2.263,3.472-2.263,1.791,0,2.239,2.451,4.7,2.074-.67-2.26,2.463.189,3.359-.942-1.79-.377-.785-.751.67-.751s3.362.562,3.249,2.07c-1.118-.187-1.342.941-2.015,1.132,1.791,0,1.007.562,1.232,2.447,1.455-.377,1.68.941,2.687,1.132-.111-1.508-1.456-1.508-1.9-2.451a1.526,1.526,0,0,0,1.007-.377c.786.566,1.234,3.013,2.017,1.128a3.422,3.422,0,0,0,.335,1.885,41.248,41.248,0,0,1-6.381.377,15.21,15.21,0,0,1-6.047-1.881c-3.135.942-6.16-2.451-9.63-.566,0-.942-1.121-.566-.9-1.508-4.367.566-8.62-5.087-12.43-2.447,1.01.377,2.354.187,2.354,1.5-1.01-.375-6.046,0-4.7-3.011a7.32,7.32,0,0,1-2.8-.191c-.67,1.7,1.793.566,1.569,1.7-1.567-.189-5.152-.189-6.157-3.015-1.569-.377-3.135-.753-4.48-1.13-1.455-.375-2.8-.941-4.032-1.317a16.442,16.442,0,0,1-6.717-4.336c-.448,2.262-.561-1.317-1.345-1.317-1.007.189,0,2.26-.67,2.074-.337-.191-.451.185-.786.185-1.456-.185-1.121-1.5-2.015-2.26-.561,1.132-2.352,0-3.7-.566.113-1.7-.559-2.262-1.456-2.636s-1.9-.187-2.687-.564c-5.822-3.015-13.324-8.664-18.026-11.115,3.47,3.2,4.815,2.825,7.5,6.4,2.352.191,4.7,1.7,7.054,3.2s4.815,3.2,7.167,3.953c-.224,1.132.335,1.508.446,2.451-.559.562-1.456.186-2.015.562,1.231,1.512,5.487.38,7.391,3.955.335-1.319,1.456-.187,2.239.38.785-1.319,2.463-1.508,4.253-1.134a15.333,15.333,0,0,1,4.48,1.7c-.224.751-3.246-.942-2.241.186,1.01.377,2.13.566,2.017,2.074-.67,0-2.015-1.132-2.125-.189,1.005.942,3.47.942,2.574,3.579,1.456.751-.335-1.885,1.232-1.508,0,.379.224.566.67.755.226,2.262-.894,1.885-1.34,2.827,1.455,1.694,1.79-.195,1.9-.757,1.007,1.508-1.12,1.508-.224,2.636a12.047,12.047,0,0,0,3.808,2.074c-.448-.189-.559-.566-.67-1.132.557.377,1.566-.942,1.79.566-.448,0-1.01-.375-1.12.191,1.9,1.879,5.152,1.5,6.157,3.953.9-.375-.559-1.508.448-1.694,2.128-.189,1.68,2.07,3.024,2.636.224-.566-.224-2.451.559-2.074,1.231.566,3.47,0,3.024,2.074-.448.187-2.687-.189-1.793.562,2.017-.375,3.359.942,4.367-.937,1.345.941-.448,2.445.9,3.011.559-.189.224-1.694.785-1.694.446.942,3.916,3.579,2.35,1.319a10.163,10.163,0,0,0,3.807,1.128c.111-.562,0-1.694.448-1.694a22.509,22.509,0,0,0,8.172,1.883,26.353,26.353,0,0,1,7.615,1.319c.111-.753-.448-1.128,0-1.319,1.9.942,3.47,1.694,4.815,0a3.949,3.949,0,0,1-.337,1.319c1.455-.753,3.135.566,4.367,1.317-1.007,1.7-2.687,0-3.135,2.827,2.352,0,3.473-3.77,6.16-2.636.448-.943-.786-1.7,0-1.885,1.007.566,1.342.377,2.015-.377,0,1.5,1.007,1.7,1.68,2.262,2.687-1.508,5.263,1.694,7.726-.943,5.263,1.317,12.989,1.128,17.243-.757.337,1.134,1.793.38,1.68,2.262,1.9-1.7,2.911,1.132,4.256-.939-.448,0-.786-.193-.672-.942a5.39,5.39,0,0,1,2.241-.566c0,.751,0,1.508.67,1.319,1.007-3.013,3.7-.191,5.263.189.111-.942-.448-.942-.672-1.319,1.232-.378,3.581-.755,3.919,1.5-.783.566-1.232-1.883-1.68-.375.448.189.448.941.672,1.317,3.47-2.825,8.285-2.26,10.637-2.07.785,0,1.231-1.512,1.566-1.512,1.01,0,1.9,1.889,3.584.946-.335.185.448,0,1.231-.189.337,0,3.584-1.319,4.48.375.225,1.134-2.462.942-1.566,1.512,1.119-.193,1.456-.946,2.574-.193-.335-2.256,1.568-2.07,2.241-1.128-1.01.751-2.466.942-2.8,2.636,1.906-.942,5.6-3.389,5.486.755,0-.379.56-.566.673,0-1.233,1.319-.671,2.258-1.791,3.389,3.918-4.33,7.613,1.508,10.974-4.521.111.753-.337,1.128-.227,1.885,1.008,0,.787-1.508,2.128-1.132,0,.941.448.941.448,1.7.787-.38,1.681-.566,2.127-1.132-1.34.375-2.014-.377-2.35-1.885,2.125.377,3.022-1.885,5.153.189-1.235-.189-.9,1.508-2.129,1.319.335.942.221,2.827,1.456,2.451,0-.757-.225-1.7.221-1.885-.111,2.07,4.032,2.07,5.823,1.885.223-1.7-.9-1.132-.783-2.636a2.143,2.143,0,0,0,1.9.186c-.56,1.128-.335.942-.112,2.827,1.008.185.335-1.508,1.233-1.508.111,1.694,1.679.566,2.014,1.883,1.231-1.694,1.793-.566,1.679.566,1.12-1.512,1.566-1.132,2.353-2.636.558.753,0,.562.111,1.881,1.345-.753,1.231-.377,2.241,0,.446-.562.671-1.5,1.119-2.07.669.751,1.345,0,.448,1.317,3.47.377,4.255-5.087,6.046-4.33,0-3.393,1.456-2.263,2.687-1.512.335-1.124-.9-1.5-.111-1.881.894.753,1.679.566,2.8-.189.337,1.319-.334,1.512-.448,2.451.673-.942,1.681-.191,1.793-.753a1.876,1.876,0,0,1-1.008-1.132c.783-.185.9-.942,1.791-.751,0,.375.111.941.111,1.317,2.466-3.017,6.271-1.508,7.281-3.768,1.006-.562.783.942,1.342,1.132a2.4,2.4,0,0,0-.448-1.317c.673-1.134,4.59,1.5,2.462-.568,1.456-.189,2.018,1.5,2.8.377-.673,0-.783-1.128-.111-1.317-.337.751-.114,1.508.669,1.128.225-.753.9-1.128,1.456-1.7-.783,1.319,1.456.568,1.9,0-.223,0-.558.191-.673-.375.562-.377,2.129-1.7,2.8-.566-.111.755-1.231.375-1.12,1.132,1.12.562,1.345-.942,2.351-1.508.673,2.636,2.912-2.636,3.47.566-2.573-1.132-3.693,4.9-5.484,1.694.111,2.451-1.008,1.319-2.351,2.262.448,1.317-.45,1.132-.45,1.883,1.456,0,.783-.751,1.122-1.132.333.38,1.117-.186,1.006,1.132-.335.187-.9.191-.9.753,1.231-.562,1.9-.187,2.241.942,1.566-1.319,2.8-.377,6.044-1.885.56-.942-.56-1.319.448-1.885,4.143,1.134,7.392-3.764,10.637-3.388.448-1.508-.783-2.451.673-2.827.783.377.673,1.319.558,2.636,2.576-2.445,4.7-.185,7.616-1.5.9-4.145,5.374-1.508,6.942-5.087-1.345.942-3.135,1.508-4.032.191,1.008-1.885,4.478-3.393,4.368-.191,1.456-2.07,3.245.942,3.582-1.883.56,2.826,4.03,1.694,5.934.189-.225.187.448.377,1.231.187,3.922-1.319,8.847-2.07,12.43-5.274.112.753.112,1.508.783,1.128-.111-1.128-.223-2.256.673-2.445.335.942-.673,1.694.45,1.317.223-.751.783-1.508,1.454-.942.56-.751-.448-.941.112-1.508a.9.9,0,0,1,1.231.568c0,.751-.673.566-.448,1.508,1.008-1.319,1.343-.942,2.576-2.076-.112-1.5-1.008.38-1.345-1.5,5.825-7.538,13.661-8.1,20.267-11.116.448,1.132-1.791,1.317-.783,1.7,2.687-2.074,3.245-3.582,5.6-2.074,1.122-.377,1.008-1.885,1.57-2.826,1.119.755,3.918-3.2,5.374-.753,0-1.694,1.456-.189,1.9-1.885.225,1.7.671,1.134.894.191.448,2.447,1.681.186,2.353,1.5.337-1.7,1.231-1.5,2.351-1.128.558-.753-.448-.942.111-1.508,1.568.566,3.472-2.447,4.59.375.562-2.256,4.591-2.822,5.6-1.317-.111-2.636,3.249-3.2,3.36-2.07a22.355,22.355,0,0,1,3.135-4.145,15.971,15.971,0,0,0-.333,1.883c5.374-1.128,9.406-5.087,16.346-5.273a1.625,1.625,0,0,1,.448-1.508c2.351,2.827,6.271-4.9,6.942.566,1.456-.378,0-1.508.9-2.636,3.36-.566,5.6-2.829,7.613-1.512,1.679-1.879,2.576-1.69,4.7-3.388.223.941-.787.755-.673,1.7,2.687-1.132,4.032-2.831,6.494-1.132-.337-2.07,1.342-2.07,1.342-3.579-1.566.375-3.582.942-4.59-1.319,1.12-1.317,2.018,1.128,2.353-.377-3.136-2.074-4.368,1.885-7.838,2.447a3.426,3.426,0,0,1,.111-1.5c-1.231-.375-2.351,1.128-3.359,2.07-5.822-1.128-11.868,6.215-17.577,4.332-1.456,2.636-4.592,3.391-7.281,4.71.225-2.262,3.249-1.508,3.474-3.955-1.456.377-7.054,3.579-6.608.187.112,1.132.448,2.636-.335,2.829-.783.562-.673-.755-1.231-.57-.225,2.636-5.263,2.831-6.944,3.017.225,0,.337.186.337.751-.673-.751-2.351,2.451-3.472,1.134.673,0,1.12-.377,1.12-1.319-1.345-1.319-.783,2.07-2.239,2.07-.223-.942.783-.751.671-1.694-2.35,1.317-6.942,1.694-9.069,3.2-.225,1.5,1.006,0,.783,1.5-.448-.186-1.456.942-1.566,0,0-.562.448-.942.448-1.5-4.59,1.128-8.847,3.389-14.444,4.33-1.008-1.883-4.257,1.7-5.936,1.7-2.127,0-5.486,2.074-8.51,3.391-4.7,2.07-9.741,1.885-13.549,5.274-.111-.753-.111-1.5-.783-1.13,0,.753.225,1.7-.112,1.885a3.455,3.455,0,0,1-3.247-1.885,12.68,12.68,0,0,1-1.006,2.638c.558,0,1.342-1.7,1.789-.568-.558.377-.448,1.508-1.342,1.319-1.456-2.447-.673-.751-2.576-1.128a1.065,1.065,0,0,0,.783-1.132c-1.231,1.694-3.581,0-4.7,1.694,1.679.38,2.014-.377,3.36.38-1.57.751-1.906.562-3.249,1.879-.335-.751.785-1.694-.225-1.694-1.231,2.26-4.028-2.07-5.822.755.56-.566,1.679.187,1.01.564-.787.189-1.01-.377-1.57-.564-.9,3.389-3.36,1.13-4.591,3.013-.783-.375-.783-1.132-1.12-1.508-.335,1.7-3.135,2.827-3.695,2.827-.223-1.319,1.345-.753,1.345-1.694-3.024,1.128-3.807,2.822-5.153,4.145-.669.375-.446-1.134-1.006-1.134.671,1.885-1.566,2.827-3.022,3.579,0-1.508-.225-2.26.111-2.826.337.377,1.456-.185,1.793-.942-.9-.562.783-1.881.669-2.822.673,0,.673.562.45,1.317,2.127-1.7,5.038-1.132,7.167-2.826,0,.566-.45,1.128.111,1.317-.671-1.508,1.006-.566.785-1.508-.9-.562.56-2.07,1.008-2.636-.225.757-.225,1.132.448,1.319.446-3.013,2.239-.377,2.912-2.07.783.375-.45,1.508.783,1.128L301.9,233.2c1.008-.568,4.143-1.5,5.04-1.885.783,0-1.008-2.07.448-1.885,0,2.074,3.245-1.694,3.805,1.319,2.576-2.258,3.92-.377,6.159-3.013.225.755,1.9.942,2.128-.185-.448.375-1.345-.568-.673-.757,4.59.757,10.3-2.07,15-2.447-.337,0-.56-.375-.673-.755l1.231-.377a3.441,3.441,0,0,1-.111,1.508c.894-1.508,2.687.942,3.36,0-.9-.189.446-.566.558-.189a2.78,2.78,0,0,1,.673-2.07c-.448,0-1.12.566-1.231,0,2.35-2.636,6.271-1.7,8.844-2.262.783-1.132-1.119-1.132-.223-2.26,1.12,1.317,2.016-2.827,2.687-.753-.11,1.13-2.912,1.7-1.456,3.2,1.231-1.512,1.9-4.712,3.922-3.393-.787-4.336,3.47-3.579,4.476-6.029.783.757,2.912,1.319,3.92-.377-2.128.191-4.03-.189-5.151-2.636.335-.189.9-.189.783-.751-1.679-.189-.783,2.26-2.462,2.07.111,1.694,1.789.189,2.014,1.694-2.35.942-4.478,1.885-6.271,1.508,1.01.185.225-1.508,1.01-1.694.335.377,1.791.751,1.791,0,.111-2.451,3.245-5.087,5.374-3.579.562-2.831,2.576-.757,2.912-.942-.783-.189.112-1.7.337-1.885.223,2.07,3.135.568,1.456-.941,1.231-.377,1.566.566,1.679,1.317A24.092,24.092,0,0,0,365.5,200.8c.111,1.13-.448,1.5.448,1.7.671-.753.111-.942.448-1.508.223,0,.335.189.446.755.673-3.579,3.7.377,4.145-1.317-.337,0-.671,0-.671-.757,1.342-.185,2.8-.562,3.359.757.223-2.074,1.117.375,2.125-.191.112-3.013,4.928-4.9,4.815-2.449.9-1.5,1.345-3.013,2.8-1.881.112-2.451-2.014,0-2.576-1.132.673-1.319,3.249-.942,3.92-2.262a4.628,4.628,0,0,1,1.568,3.2c.783-.566.673-1.883,1.231-2.636-.334,0-.783.377-.9-.189.9-1.885,3.249-1.885,3.36.755-.783-.189-.783,2.262-.335,1.881.225-2.07,2.128-2.26,2.574-3.955-1.343-.186-.783,1.508-1.9,1.508-.562-1.317.111-1.883-.9-2.449a7.048,7.048,0,0,0,3.695-1.7c.114.942-.783.753-.335,1.885,1.119.186.45-1.694,1.008-2.074.558.38,1.342.189,1.679,1.317,2.129-3.2,4.032-2.445,7.39-3.764.225-2.074-1.677.566-1.9-.756,2.912-3.389,6.382-3.955,9.4-7.157,0,.566-.335.942-.446,1.508,1.566-2.636,3.022-.752,3.245-2.826,4.48.756,13.549-3.769,17.691-2.446,2.239-.756,4.7-4.335,6.607-1.7.9-2.07,3.92-1.128,4.7-2.823-.448,0-.112-.756.225-.942,4.7.376,6.494-4.521,11.98-4.711-.446-2.26-3.582,1.884-3.47-1.694-2.912.566-3.92-.566-6.5.186.337-.186.783-.186.783-.752-.223,0-.558.19-.669-.186a2.784,2.784,0,0,0,2.462-2.074c-2.016.942-4.7,2.26-6.719,1.132.335-2.074,4.257-1.132,4.48-2.26-1.9-.19-3.582-.756-5.711-.566.783-1.694-.9.186-.783-1.508,1.119-1.508,2.014-.752,2.8-1.318-.334.19-1.119-.942-.448-1.318,1.01.376,1.01-.19,2.018-.566.111.566-1.008,1.7-.114,1.884,1.008-1.508,2.912-4.145,3.92-2.07,0-.942-.446-.942-.446-1.7a2.6,2.6,0,0,0,1.679-.938l.111,1.318a11.029,11.029,0,0,0,3.137-4.148c1.006.194,4.59,0,4.813-1.88-1.568-.19-3.359,2.636-4.7.186-3.805,1.318-8.51,1.884-10.972,3.392-1.566.942-3.92.376-5.263,1.128s-3.359,2.636-4.367.566c1.008.566,1.9-1.318,2.912-.562.56-.756-.448-.942.112-1.512,14.446-1.69,29.111-15.633,44.9-18.455-.558-3.955,4.032-3.769,5.6-3.016.446-2.636,2.574-.562,2.687-2.636-.785-.752-2.687.942-3.024-.942.114-.752-.673-2.447,0-2.827,3.359-1.88,5.823,1.318,7.279-1.128-1.791.566-3.584-2.45-6.382-1.318.448-.19,0-3.769-.225-2.26.673,3.012-1.231.942-1.791,2.826-1.008.186-1.343-.942-1.679-2.26.671-2.26,3.135-2.45,4.028-4.335-.223-1.884-1.231-2.26-2.237-1.128-4.7-2.26-11.759,4.145-16.685,4.521-.558.186-.448-1.132-1.231-.566-2.462,1.318-6.382,4.9-9.293,2.45-1.679,1.318-3.247,1.128-5.151,1.694,0,1.128-.56,1.884-1.566,1.884.334-.942-.114-.566-.225-1.7a3.538,3.538,0,0,0,1.9-1.5c-.448-.566-1.568.376-1.345-1.508,1.9-.566,2.353-2.826,4.032-3.579-.56,0-.673-1.132-1.568-.376-.894,2.826-4.03,3.579-4.253,7.347-.673-.194-1.345-1.884-.9-3.017-2.462-1.694-5.6,1.694-7.95.752-.223-1.694.9-1.88,1.12-3.2-2.127.376.225-1.318,0-2.26-1.343,1.88-4.143,2.446-6.159,3.765-15.115-.752-31.24,9.984-45.347,11.682-4.032,2.446-8.4,3.955-11.087,5.459-1.456,2.45-4.815,4.711-6.494,3.955-.783,1.512-5.151,2.83-6.494,3.392,1.791-.566-.112-.566-.446-1.318,2.462-.942,4.143-.752,4.476-3.2.335.19.673.19,1.008.566-.225.186-.558.186-.558.566,2.014,0-.783-2.83.783-3.393.448,2.26,2.014-1.128,2.014,2.074-.894.562-1.343-.756-1.343.938a23.065,23.065,0,0,0,6.271-2.823c-1.12-1.318-2.912,1.5-4.366,1.318-.339-.566-.45-1.508-.785-2.074-1.679-.562-2.912,1.318-3.92-.562,3.807-2.83,3.359.562,5.936-.566-.114,0-.337-.19,0-.376,1.789-.942,2.687-.566,4.253-1.884.785.376,3.024,2.637,2.576-.752-1.12.752-2.464,1.318-3.022-.38-2.576,0-3.584,3.769-5.377,2.636a4.014,4.014,0,0,0,2.353-3.012c-1.231.19-.783,2.074-2.128,2.074,0-.566.337-.942.448-1.508-1.231,1.318-3.693,2.826-4.366.942,2.351-1.508,4.48-2.45,6.159-3.769,0,.566.223,1.7.335.752,0-.376-.111-.562-.111-.938-2.8-1.132-3.584,3.013-5.6.376,1.343-.19,2.351-2.074,3.472-1.132.225-2.636,3.022-3.955,4.7-3.765-4.367-1.884-6.831,4.521-10.414,6.025-.448-1.5,1.9-2.26.558-3.389-3.693,3.769-9.516,1.508-13.211,2.827,3.247-2.637,6.159-4.335,9.069-4.149.9-.186-.894-1.124.114-1.5,2.462.942,7.052-2.07,10.637-4.331,0,.752-.225.938.111,1.318,1.345-3.769,4.928-2.26,6.719-3.955-.225,0-.558.186-.673-.194,4.368-.372,10.189-2.07,14-5.835l.225,1.694c4.255-3.2,10.637-7.157,16.011-6.591-.111-.942.114-1.512.673-1.7,12.653-2.822,26.649-12.054,38.517-14.125-.448.186-1.006.376-1.006-.566,5.711.752,10.3-1.7,15.227-3.2.673.566,1.12,1.694,1.681,2.26-.225-1.884-.56-.942-.9-3.013,2.464,1.318,5.6.186,7.95-1.512,0,.38.114.946.114,1.322,1.677-2.26,4.028-3.579,5.709-2.636-.335,0-.335-.566-.448-1.318,1.454-.756,2.687-1.318,3.024,0,.783-.566,1.789-.756,2.462.752,1.12-.752-.223-2.07.335-2.826,11.2-1.128,26.314-5.839,38.519-9.6-10.077,1.694-20.155,3.389-30.344,7.72-.111-1.318-1.9,1.132-1.566-.938-5.488,3.013-13.213,1.5-18.364,5.273-.112-.566-.112-1.318-.448-1.318.448,1.694-.45,1.884-.9,2.636-.783-1.884-2.687.752-4.253-.942-.223,2.07-3.92,1.128-4.7.942-.225.752-.112,1.694-.673,2.07-.335-1.5-1.456.566-2.127-.752-.673,2.26-2.351,1.508-3.583,2.45-.562-2.636-2.128-.756-3.584-.19-.558.752.448.942-.112,1.508-7.5,1.128-14.557,4.521-22.728,5.273.221-.19.558-.19.558-.566-.9,0-.448,1.318-1.345,1.318-.111-1.128-.558-.752-.223-1.694-1.233,1.318-3.247.942-4.7.942-.223,1.508.56.942.783,1.508-.671,0-.558.942-1.342.942-.112-.942.671-.756.335-1.884-1.456-.19-.783,1.694-2.239,1.694-.114-2.07-1.568,0-2.464-1.128-.337,1.881-.448,1.881-.223,2.823-.785-.186-1.456-.186-1.681.942,0-.376-.112-.942-.112-1.318-.56.566-2.574,3.016-3.135.942,1.343.19,2.241-2.636,4.03-1.318-.558-3.579-5.6,2.45-6.942-.566,6.384-2.636,11.31-3.389,18.028-5.273,0-.752-.562-.942-.114-1.318.562.186,1.681-1.132,1.793-.19-.223,1.132-1.343-.752-1.006,1.318a13.9,13.9,0,0,0,4.812-2.07,1.161,1.161,0,0,1-1.119-1.884c5.376.566,11.422-3.013,16.012-4.145,6.719-1.694,13.548-2.636,20.826-3.955l.112.942c2.464-2.827,5.151-.566,7.165-3.393.9.19,1.681.376,2.016,1.7.448-.38,1.791,0,1.679-.942-1.231.562-2.014,0-2.239-1.7,1.568-.752,5.936-1.694,7.95-1.318,2.576-2.446,6.944-2.07,9.183-4.331-1.791-.942-5.376,3.2-6.159-1.132,1.9.566,3.022-2.822,5.261-1.88-.223-1.512.448-1.7,1.681-1.318,1.006-3.955,5.822-1.512,7.95-4.335a4.527,4.527,0,0,0,2.8,1.508c0-1.508-1.12-.376-.448-1.7-.562-.186-1.679.942-1.793,0,6.271-2.446,10.751-4.707,16.35-6.4-.45-4.149,3.135-1.508,4.03-2.83-1.454-1.691,2.464-.938,3.472-1.318a21.491,21.491,0,0,0,6.942-3.761c-1.568-1.888-2.912,1.5-4.815.562,0-1.132.111-2.07.673-2.45.335.756,2.014-.376,1.681-1.694-1.57.942-2.466.376-3.922,0,1.679-1.694,3.7-4.9,5.936-2.636,1.119-2.26,3.359-1.884,5.932-3.012-.669-2.261,2.243-2.074,4.143-2.637,1.345-2.264-.111-3.016,2.243-3.955-.783-.756-1.345.748-1.906-.194.45-2.257.9-4.517,3.136-4.707,0,.566-.448.752-.56,1.508a7.647,7.647,0,0,0,3.583-2.83c1.456.946,1.12-.372,2.127-.752,1.57-.752,4.257.566,4.815-2.071-1.231-.942-2.687,1.132-3.245-1.318,1.119-1.508,2.125.942,2.125-.752-1.006-1.132-3.918,1.128-4.143-1.132l1.9-.376c0-1.318-1.679-.942-.783-2.636-.448.376-1.679-.19-1.568.752q1.009-.279,1.01,1.132a21.8,21.8,0,0,1-3.7.186c2.016-3.013,7.167-3.765,9.854-3.765a6.762,6.762,0,0,1,.783-2.45c-1.456.19-2.912.376-1.231,1.128-1.119.38-1.456-.752-2.014-1.5,2.127-2.45,1.789.376,3.807-.566C559.654,7.341,559.208,6.589,560.1,5.271ZM423.275,202.116c0,1.694-.9.751-1.456.377C421.819,201.365,423.052,201.74,423.275,202.116Zm-45.236,17.14c-.337.377-1.568,1.319-2.462,2.07a3,3,0,0,0,.111-1.5,1.875,1.875,0,0,0,1.679-1.508C377.7,218.505,377.7,219.444,378.039,219.257ZM264.389,264.841c0-.751-.335-1.128-.673-1.128,0-.942.673-1.132,1.456-1.317-.45.941.337.751-.112,1.879.56,0,1.791-.942,1.566.566C266.068,264.275,265.173,264.656,264.389,264.841ZM74.711,204.752c-.224,1.128-.448-.751-1.345-.377l.113-1.317c.67,0,.783.562,1.232.942C74.6,204.187,74.373,204.563,74.711,204.752ZM74.486,26.181c-.67-1.318-2.352.562-2.125-1.7C73.031,24.106,74.821,23.92,74.486,26.181ZM323.957,35.6a6.331,6.331,0,0,1-4.592,1.318C320.71,35.408,322.391,35.408,323.957,35.6ZM556.742,8.473c0,.942-.783.752-.558,1.884-1.008.376-1.12-.566-2.239-.19,0-.566.558-.376.9-.566,0-.562-.112-.752-.337-.942C554.728,7.907,556.519,8.1,556.742,8.473ZM544.425,25.991c-.221.942-1.117,1.132-2.014,1.318.114-1.318,1.008-1.508,1.681-2.07C544.091,25.614,544.2,25.991,544.425,25.991ZM529.759,42.569c-.225,1.128-2.687,2.823-2.687.562C528.3,43.322,528.3,42.945,529.759,42.569ZM491.69,6.213c1.231.376-2.241,2.447-2.128.566C490.12,6.779,491.353,6.965,491.69,6.213Zm-7.95,0c.333.752-1.456,1.318-.45,1.508-.223.562-2.8,1.88-2.687.376C482.059,7.907,482.73,6.965,483.74,6.213Zm-42.664,163.5c.114,1.318-1.789,1.7-2.239,1.132C439.062,169.152,440.629,169.714,441.077,169.714ZM420.026,93.051c.337,1.884-1.231.752-1.679.942C418.237,92.861,419.578,92.675,420.026,93.051Zm-33.591,12.244c-.446-1.694,1.456-.752,1.57-1.884-.225-.566-.783.376-1.456,0-2.464,5.463-8.285,4.145-12.542,5.839-3.47,1.318-6.157,4.335-8.733,4.521-.223-.376-.673-.186-.783-1.128-.9,1.5-2.241.376-3.472,1.128-.56-1.318.223-1.128-1.231-.566.448-.942-.112-1.128-.225-2.26.785-.562.673.756,1.008,1.132a7.748,7.748,0,0,0,.9-2.636c.562.186.783,1.128,1.345,1.318.558-.376.448-1.318,1.006-1.7-.783-1.318-2.687.756-3.693-1.128,1.342-.752,1.9.566,3.245-.19-.783-.562-1.789-.376-2.8-.562-2.35,2.447-1.456,6.405-4.255,7.723.335.938,1.233.562,1.906.752-1.9,2.826-4.368.942-5.6,3.579-.448-.376-1.12,0-1.345-.942-.783.566-2.352,2.826-2.8,1.318-.56.19,0,1.508-.671,1.694-2.241-2.26-5.711,3.017-7.95,1.512-1.231,2.443-4.7,3.009-5.936,2.636-1.231,3.955-6.717,3.955-8.958,2.636-2.239.938-1.9,1.88-3.918,2.447.673,0,2.014,1.132,2.129.376.111,1.7-1.233,1.884-3.36,2.45,0,0,.223-.566.558-.566-3.022.19-8.4,6.785-12.318,2.074a3.794,3.794,0,0,0,2.8-1.7c-.56.942-4.143-.186-4.257,2.636-.894.566-1.231-.186-1.566-.938,0-1.132,0-2.074,1.008-2.074,0-1.128-1.342.566-1.008-1.128,1.906-.566,3.137.186,5.04-.566-.785-.752-2.018-.752-3.92-.19,4.03-3.579,6.607-4.707,11.422-5.087-.225-2.07-1.9-.938-2.353-2.446,3.137,0,4.926-3.2,7.169-3.016l.111.942c.223.942-.335.942-.783,1.132.673,1.128,1.566-.752,1.006-2.074.9-.376,1.345-1.128,2.576-1.128.111.942-.673,1.128-1.343,1.318,1.006,1.694,2.8-1.318,4.143-2.636,1.006-.942.337,1.508,1.006,1.128,1.01-1.128,7.281-3.389,8.737-2.07.669-.752.783-1.128.334-2.45,1.008-.562,1.681-.376,1.9.756.9-2.636,2.8-1.318,4.368-.942,1.008-.376-.783-1.318.111-1.508.785-.186.337.19.337.756,1.119-.38.671-2.264,2.127-2.074a17.884,17.884,0,0,0,.112,4.145c.673-.19-.112-1.884,0-2.827,1.231-.752,1.231.942,2.128.756-.673-1.884.894-5.467,2.128-2.45-1.01.752-1.235-.19-1.793-.376.112,1.128.671,1.128.223,2.26,1.231-1.7,1.456-.566,2.912-.376,0-1.132.558-2.636-.448-3.955a19.317,19.317,0,0,1,3.135.938c.112,1.132-.9,1.132-1.679,1.508-.45.186.671,1.508.785,2.07.669-.376-.448-.562.111-1.5.673,0,1.12.376,2.014-.19.562.752,0,.566.225,1.694,1.679-1.884.448-4.707,2.462-4.9-.223-.566-.446-.752-1.006-.566,2.8-4.707,8.062-.938,10.189-4.521,1.01.756.56,1.318,1.456,0,.785,2.074-.335,3.2-1.233,4.521-.223-.938.114-1.318.114-1.88-1.456.186-3.807-1.132-5.488,1.694,2.576-.942,4.368.376,6.607-.19-.112,1.508,0,1.132.56,2.074.894-.756-1.006-2.261-.112-3.2.562,1.128,2.351-1.508,3.807-.376.335-.19-.112-.756-.335-.756.335-1.318,1.231.942,2.127.19a1.1,1.1,0,0,0-1.008-.566c0-1.318.673.19,1.12-.376-.112-.376-.448-.19-.673-.19,0-1.128,1.456-.942,1.57-1.884.558.756,1.789,1.7,2.125-.186,4.032.752,8.175-.376,12.093-1.508l.114,1.318c2.573-2.636,5.263-2.446,7.95-3.389-1.681,3.955-5.488,2.637-8.512,4.145C389.459,103.221,388.338,105.481,386.435,105.295ZM408.383,95.5c-1.566,3.955-5.709,2.26-8.51,4.141C401.439,96.253,406.03,96.257,408.383,95.5ZM384.421,27.689c-.673,2.257-2.014,1.318-3.584,2.443C381.4,28.813,383.079,26.933,384.421,27.689Zm-22.73,86.834c.223,1.132-.225,1.512-1.008,1.7l-.112-1.318ZM349.373,23.54c-.448,1.512-2.014.566-2.912.942C346.911,23.164,348.815,23.54,349.373,23.54Zm8.51,86.085c-.9.19-1.008-2.26-.671-3.013C358.332,106.8,357.659,108.307,357.884,109.626Zm-.9-.186c0,.562-.448.562-.785.752.112-1.318-.558-.942-.558-2.07C356.428,107.931,356.54,109.06,356.988,109.44Zm-8.956-77.234c-.114,1.132-1.793,2.074-1.793,0C347.134,31.83,347.359,32.586,348.032,32.206Zm-9.406-2.071c-.673,0-1.57-.376-2.018.566C335.937,30.511,338.512,27.309,338.626,30.135Zm10.189,97.008c0,1.512-1.345,1.132-2.016,1.132C346.911,126.581,347.918,127.705,348.815,127.143ZM337.056,26.557c.225,1.884-2.239.752-2.462,2.07-1.008.19.335-2.07-.448-1.694C334.817,26.367,336.05,26.557,337.056,26.557Zm15.119,186.106c0,.941-.673,1.132-.673,2.074-.45,0-.45-1.319-1.233-.568C350.046,212.852,351.277,212.852,352.175,212.663Zm-3.026,0c-1.231.566-2.237,1.7-3.805,1.7C345.566,212.287,348.142,212.852,349.149,212.663Zm.337,11.306c-.9-.757-1.679.937-2.127.185C347.022,222.646,349.711,222.269,349.486,223.969Zm-1.343-9.608c0,1.128-.9,2.26-1.681,1.508C346.8,214.923,347.47,213.607,348.142,214.361Zm-4.815.942c-.558,1.128-1.231,2.07-2.239,1.5-.112-.939,1.008-.562,1.456-.939,0-.946-1.12.185-1.568,0C341.646,214.357,342.319,215.3,343.327,215.3Zm-9.406,5.462c0,2.262-2.35.562-2.912,1.7C331.457,220.576,332.69,221.895,333.921,220.765Zm-1.456-1.317c-.223.942-2.239,1.128-2.687.751-.225-1.132,1.345-.189.783-1.508A6.642,6.642,0,0,0,332.465,219.448Zm-9.964-85.71c-2.128,2.636-3.359,3.012-5.823,4.521,0-.942,1.345-.376.673-2.07C319.59,135.808,320.71,134.49,322.5,133.738Zm8.173,87.969c-.558.753-2.91,3.579-3.807,1.128C327.987,223.778,329.443,222.084,330.674,221.707Zm-1.9-3.017c0,1.134-.783,2.262-1.343,1.7C327.65,219.633,327.764,218.691,328.771,218.691Zm-1.343,2.262c-.894.942-2.912,1.132-4.367,1.7.337-2.451,3.024-.38,2.689-3.017.56-.377.785,0,1.233.191C326.644,220.2,326.194,221.518,327.427,220.952ZM302.234,40.119c.448,1.508-.783.942-1.343,1.318C300.553,39.929,301.674,39.553,302.234,40.119Zm17.8,182.531c-2.239,1.5-5.374,1.694-8.733,3.764.448,1.885,1.343-.751,2.128.377,0,1.508-1.681,1.132-2.576,1.7-.783-1.512.223-2.26-.448-3.953C314.1,223.589,316.455,221.707,320.037,222.65ZM304.81,132.42c.223,2.26-1.566,2.26-3.024,2.637C301.786,132.8,303.69,132.606,304.81,132.42Zm-3.47,4.707c.223,2.264-4.59,1.318-1.12.756A1.129,1.129,0,0,1,301.34,137.127Zm5.484,91.361c.448,1.7-1.342.939-2.014,1.5C305.145,228.676,305.593,229.241,306.824,228.488Zm-2.462-.566a2.828,2.828,0,0,1-1.343,2.262,3.3,3.3,0,0,0,.111-1.885Zm-6.719,6.783c0,.375-1.008,1.883-1.119.751-.337,0-.225.566-.225.942-.9-.187-.448-.566-.448-1.694C296.635,234.137,296.748,235.271,297.643,234.7Zm-3.022.375c-.114.377-.337.942.111.942.112.942-1.008.566-1.456.753C293.39,235.833,293.613,235.08,294.621,235.08Zm-6.83,5.84c-.114,1.694-1.231.189-2.018,1.508C285.326,240.729,287.119,241.486,287.791,240.92Zm.446,15.447c-1.231-.191-2.464-.377-2.464-3.013C286.56,254.482,287.9,254.482,288.237,256.366Zm-1.791-12.81c-.335.755-1.9,1.883-.111,1.883-.225,2.07-1.9.753-3.024,1.134C284.207,244.873,284.767,244.873,286.446,243.556Zm-19.37-196.28c-.45,1.132.335.752-.111,1.884a5.92,5.92,0,0,0-4.032,0C263.381,47.466,265.731,47.843,267.076,47.276Zm18.139,206.639c.558,1.885-2.351,2.451-2.128.566C284.207,254.482,284.432,252.973,285.215,253.916Zm-1.568-10.547c.112,1.319-1.9,1.5-2.352,1.13C281.968,243.369,282.414,244.122,283.647,243.369Zm-21.274-194.4c.446,1.508-1.456,1.132-1.679.942C260.917,48.785,261.813,48.219,262.373,48.971Zm16.8,200.047c.223,1.319-.9,1.885-1.456,1.319A1.931,1.931,0,0,1,279.169,249.018Zm-5.711,5.087c-2.016.191-3.582,2.451-5.151,2.07-.335-1.317.448-1.5.112-2.822.56.751,2.127-.566,2.016,1.317C270.659,252.973,272.339,254.3,273.458,254.1Zm-.671-.375c-.562-.568-.448-2.638.671-2.451-.671,2.826,1.343-.566,1.679,1.883C273.906,253.162,274.129,253.354,272.787,253.73Zm-2.576,9.228c-.673,1.508-1.12.755-2.128.566C268.755,262.016,269.2,262.958,270.211,262.958ZM234.605,49.351c.111.752-.225.752-.225,1.318-.9.376-1.231-.566-2.239,0A1.7,1.7,0,0,1,234.605,49.351ZM247.371,259c-.673,1.694-2.018.189-2.353,2.26-1.568,0-2.239-.942-3.359.753l-.112-2.262C243.114,259.945,245.242,258.437,247.371,259ZM229.9,50.669c-1.01-.566-1.343.376-2.241,0C227.662,49.157,230.013,48.971,229.9,50.669Zm11.308,210.4c-.9,2.451-3.359,2.829-4.59,1.317-1.008,2.265-2.128,4.15-4.59,2.638.673-1.5,3.024-.187,3.247-3.762C237.851,261.454,239.979,260.511,241.21,261.073Zm-1.008-5.649c.112,1.317-1.679,1.317-2.127.942.112-1.319.673-1.885,1.679-2.07C239.754,254.671,239.754,255.424,240.2,255.424Zm-2.91-.377c-.114,1.694-1.233.187-2.464.942,0-.755-.448-.942-.448-1.7A4.908,4.908,0,0,1,237.292,255.047ZM220.159,42.189a1.474,1.474,0,0,1-1.9.756C218.481,41.061,219.264,42.756,220.159,42.189Zm14.894,226.041c0,.946-1.345.38-1.793.755.562-1.128-.111-.942-1.008-.751C232.477,266.349,234.156,268.231,235.053,268.231Zm-2.018-6.592.114,1.319-1.57.189C231.356,262.019,232.587,262.2,233.035,261.639ZM217.694,41.627a1.5,1.5,0,0,1-1.566,1.128c0-.942.9-1.884,1.57-1.132Zm-.444,6.967c0,.942-1.008-.186-1.345-.186C216.017,46.524,216.914,47.843,217.25,48.595Zm-2.127,2.26c0,1.132-.9,1.132-1.57,1.132C213.44,50.479,214.673,50.1,215.123,50.855Zm-2.8-.942c.334,0,.223.376,0,.376,0,1.132,1.117.19.894,1.7-.671,0-.56.942-1.343.752-.112-.376-.337-.752-.558-.752C211.316,50.669,212.434,51.045,212.324,49.913ZM224.192,271.06c-.112-.566-.562-.193-1.008-.379-.337-.753.9-1.7-.112-1.885.225-.753,1.345,1.319,1.679,2.074-1.12.377-.669,1.319-1.9.751C223.071,271.06,223.744,271.247,224.192,271.06ZM209.635,40.305c.112,1.512-1.343,2.264-1.343.19A.816.816,0,0,1,209.635,40.305Zm.225,9.608c.221,1.318-.673,1.318-.673,2.45-.337-.19-.56-.942-.673-1.694A1.327,1.327,0,0,1,209.86,49.913Zm8.733,218.321a2.364,2.364,0,0,0-.223,1.317c-.337-.189-.9-.751-.337-.941-.225-.377-.785-.377-.671-1.319.335.185.558.377.671,0C218.256,267.477,218.256,268.42,218.593,268.234Zm-2.016,2.26a4.421,4.421,0,0,1,.112-3.2C217.248,268.043,217.808,270.119,216.577,270.494ZM202.468,45.954c0,.566.111.752.335.942-.558.942-.558-.942-1.679.186.112-.752-.225-.752-.56-.752C201.125,45.2,201.685,47.463,202.468,45.954Zm7.838,210.028c-2.239,2.451-8.061,2.451-10.3,3.582C200.9,256.737,207.171,256.734,210.306,255.982Zm-3.247,3.582.112,1.317c-.783.191-1.566.191-1.9-.189C205.155,259.565,206.163,259.75,207.059,259.565Zm-2.125,1.694a5.321,5.321,0,0,0,.111,1.319c-.56-.187-1.343,0-1.343-1.128Zm-1.233,7.349c0,.566-.335.375-.335,0-1.008,2.26-.337-1.134-1.345-.753.114-.566.785-.566,1.231-.566C203.366,268.039,203.366,268.607,203.7,268.607Zm-6.492-8.666c0,1.508-1.683,1.128-2.466,1.694C195.078,259.565,196.311,260.882,197.209,259.941ZM177.273,32.772c-.337.756-1.345,1.508-1.793.566C175.481,32.4,176.712,33.148,177.273,32.772ZM153.09,255.424c-2.687-3.013-.9-5.087,2.911-4.521-.335-.751-1.007-.566-1.569-.942-.224-1.508,1.455-.375,1.569-1.317.448.189.335,1.128.335,1.883,3.135-.566,3.359-.755,6.719-1.132.448,1.7,1.68,0,2.241,1.7.894-.379-1.009-.941,0-1.883,2.239.185,2.015,1.5,4.478.562,0-1.319-2.128.755-1.68-1.319a3.54,3.54,0,0,0,3.808-.751,4.358,4.358,0,0,1-.224,2.26c.894,0,1.007-.751.894-1.883,1.569-.562,2.017.755,2.576,1.7-1.566,3.579-7.391.377-9.519,2.822-3.805-.941-7.278-.562-11.307-.941.111.755,1.118.189,1.345.941,0,1.319-2.017.942-1.9-.375C152.866,253.162,152.753,253.539,153.09,255.424ZM167.646,22.792c-.111.938-1.121,1.5-1.566.938C166.3,22.978,166.863,22.792,167.646,22.792Zm-.9-3.206c.224,1.7-1.232,1.884-1.007,0Zm.785,33.53c-.448.752-2.911,1.318-2.465-1.128C165.966,53.115,166.525,52.739,167.535,53.115Zm-1.68-29.385c-1.345,2.26-3.807,0-5.152.752a4.59,4.59,0,0,0,.672-2.823c1.232,0,2.241,1.694,3.359.752C164.959,23.164,164.959,24.3,165.855,23.73Zm3.133,220.581c-.222.939-1.79.187-2.574.562C166.974,242.8,167.646,244.311,168.988,244.311ZM164.062,41.623a4.47,4.47,0,0,0-.224,1.884c-.783.38-.559-1.128-1.342-.752C162.607,41.437,163.39,41.623,164.062,41.623Zm-.67,3.955V46.9c-1.234,1.132-1.906-.186-3.359-.748,1.007-1.132,2.126.376,3.357-.566Zm-3.359,1.132c-2.241,1.508-3.921-1.128-6.495.19a14.422,14.422,0,0,0,.224-2.636c1.231,1.5,3.694,2.26,4.143.376.448,0,.559.752.559,1.694.786-.376.335-.752.224-1.884C159.474,44.64,159.358,46.334,160.033,46.71Zm2.239,193.833c.111,2.07-1.007-.191-1.9.566C160.7,239.977,161.375,240.352,162.272,240.543Zm-3.359-12.434c-3.47,2.074-9.071.941-12.652.566-.786.375.222,2.074,1.007,1.883-.337,1.319-1.345-.189-1.9,0,0-.751.335-.941.335-1.883-.111-.942-1.566-.187-2.239-.377,4.367-4.33,8.734-.942,15.115-1.508C158.464,227.356,158.464,228.11,158.912,228.11Zm-.335,26.186c-.337.751-1.345.562-1.9.937,0-.751-.448-.937-.337-1.879C157.568,252.973,157.344,254.858,158.577,254.3Zm-5.6-209.66c0,1.694-1.118,1.694-2.015,1.884,0-.756.335-.942.224-1.884C151.743,45.764,152.191,44.446,152.975,44.636ZM151.408,249.58a13.042,13.042,0,0,0-.335,3.2c-1.793-.377-2.576-1.319-4.591-2.262C147.714,248.448,149.5,250.333,151.408,249.58Zm-10.078,8.1h1.68c-5.374,1.319-12.652,1.7-19.147-.942-.335,0-.224.942-.67.942a4.687,4.687,0,0,1-2.017-1.128c.111-1.317,1.68-.566,2.687-.755,0-.568.111-1.319-.335-1.319,3.246-.566,9.068.942,13.883-1.508a5.6,5.6,0,0,1,2.576,2.26c1.007-.375-.224-1.5,0-2.26.783-.377,1.455,1.885,2.015.566,1.008.377.335.757.335,1.885,1.68-.566,2.911-1.128,3.921-.942.335-1.508-1.01-.751-1.68-.942,1.007-1.5,3.36-.942,4.254,0,.224,1.694-1.566,3.017.337,3.2-1.455,1.508-5.152-1.508-5.935.377,2.463,1.132,6.943-.377,8.174,2.262-3.47,2.074-6.381-.564-10.189,0Zm9.071-17.14c0,1.128-.672,2.26-1.232,1.317C149.056,240.729,149.839,240.729,150.4,240.54Zm-3.249,2.636c.113-.377.337-.377.337-.942-4.145,0-4.591.566-8.064,1.319-1.231-4.707,6.271-3.389,8.064-3.955C148.832,240.725,149.169,242.61,147.152,243.176Zm-1.9,6.785c-.224,1.124-1.118,1.124-1.342,2.258-.448-1.319-2.8,0-2.911-1.885,1.456,1.317,2.574-1.319,4.254-.377Zm-12.093-19.78c0-.377-.335-.377-.67-.566.111-.568,1.007-.191,1.007-.942-.337-1.128-2.017-.187-2.911-.566,1.342-2.07,4.591-1.319,5.822-2.447a3.426,3.426,0,0,1,0,2.636c.224,1.508.67,0,1.232.942.9-.566-1.007-.942-.67-2.262,2.46,0,3.022.568,4.14-.751,1.01.751,0,.751,1.9.562.113,3.2-2.015.566-2.911,1.7,1.007,1.881,4.143-1.512,4.143,1.5-3.918-.566-9.068,2.636-13.435-.942C131.589,228.3,131.924,230.366,133.156,230.18Zm7.95,16.951c1.12.189-.783,1.7.337,1.883-.337,1.319-1.12-.185-1.345-.566C139.988,247.506,140.995,248.072,141.106,247.131Zm-1.342,1.883c-2.352,1.134-7.95.191-6.495-2.07C134.835,249.014,137.079,246.944,139.764,249.014Zm-5.152-36.357c.448.195-.335.757.337.942-.67,2.074-2.687,0-3.808-.186C131.589,210.964,133.941,213.98,134.611,212.658Zm-3.133-.185h-1.569c.224-.377.448-.751,0-.942.111-.566.9-.189,1.007-.942C131.365,210.778,131.589,211.53,131.478,212.472Zm.783,36.167c-2.128,1.128-7.054-.377-10.861.189,2.35-3.393,6.157-.566,9.63-1.132C130.582,249.014,131.7,248.639,132.261,248.639ZM122.072,208.7c-.672-.942-2.687.375-3.135-1.7-.672.377-1.12,1.13-2.241.753-.111-.942-.894-1.5-.222-2.262.783,0,.335,1.319.894,1.508.786,0,.786-1.128,0-1.317a11.192,11.192,0,0,1,7.5.751c-.67.377-1.455,1.885-2.241.757-.108,2.822,1.456,1.317,2.241.562.113.566,1.121,1.885.559,1.885,0,1.508-1.566,0-2.574.751.785,1.319,3.581,0,4.029.757-.222-1.134-.559-2.451.672-2.262-.224,3.2,1.345,3.764,3.024,4.332a3.721,3.721,0,0,0-.337,1.883c-3.357-1.694-10.524.757-15.226-.751,0-.753.446-.942.335-1.7-1.007.195-1.232,1.512-2.352,1.512l.113-1.887c-.562-.187-.672.375-1.345.375-.785.195.335.757-.335,1.319l-1.566-.178c.113-.566,0-.753-.224-.942.672-.942,1.007-2.26,2.352-2.07a3.2,3.2,0,0,1-.224-1.885c.67.942,1.791-.566,2.463.753.448-.187.672-.942.672-1.7a46.285,46.285,0,0,0,7.167.753Zm-2.463,43.711c-.222-1.508.561-1.317.785-2.26,1.9.751,2.35.375,4.254.751-1.791-2.26,4.143-1.128,4.591.377C126.1,252.977,121.851,250.341,119.61,252.415Zm1.234,1.885c-.113,1.128-1.455.185-1.68-.195C119.5,252.6,120.395,253.734,120.843,254.3Zm-1.9-4.336c.224,1.7-.561,1.885-1.68,1.7-.224-1.319.67-.753.67-1.7-2.574-1.508-5.374-.566-6.268-3.768,2.35.942,3.246,0,5.037-.753.448.568.562,1.319,1.234,1.508-.561.942-.785.564-1.68.377A3.059,3.059,0,0,0,118.939,249.964Zm-10.637-.751c-.337.942-2.128.186-1.68-1.132a1.141,1.141,0,0,1,1.342-.187C107.965,248.456,107.854,249.213,108.3,249.213Zm5.933-236.4c-.67,1.7-1.118-.562-1.9-.752,0-1.318,1.231.566,1.12-.752C114.011,11.3,113.561,13.184,114.235,12.808Zm-7.389,4.149c-1.345.372-2.352-1.7-3.7,0-.783,0-.222-2.264-1.118-2.074-.113-.942.783-1.318.111-1.884,1.12-.942,1.9-.752,3.024-.566a3.2,3.2,0,0,1-.224,2.26c.67.752,1.566,1.132,1.9,2.26ZM84.676,234.141c-.111.942-1.456-.186-2.015,0C82.661,232.824,84.227,233.39,84.676,234.141Zm-2.126,8.1c-.226.939-1.682-.193-2.465-.193C80.533,239.6,81.208,242.245,82.55,242.245ZM70.007,233.2c.9,1.132-.894,1.317-1.9.755C68.105,231.7,69.9,233.956,70.007,233.2ZM84.9,35.408c-.786.38-1.68,0-1.567,1.7-1.68-.19-1.345-5.653.111-6.971C84.114,31.644,85.348,32.4,84.9,35.408ZM53.66,178.38c-.113,1.508-.9,1.132-1.793.566.224-.752-.222-1.128,0-1.884C52.653,177.438,53.323,177.628,53.66,178.38Zm10.637-149c-.337,2.074-1.12,1.318-1.68,1.884-.9,3.2-.337,4.711-1.68,6.219-.786-.19-.67-1.318-1.007-2.074A18.428,18.428,0,0,1,61.945,29c.559,0,1.345,1.132,1.68-.938.111.562.448.752.67,1.318ZM43.247,111.7c-.337.942-1.456-.566-1.569-.942a1.012,1.012,0,0,1,1.232-.19A.952.952,0,0,0,43.247,111.7Zm16.46-79.494c-.337-.186-.224-.752-.559-.942.111-1.318.559-.938.67-1.88A6.183,6.183,0,0,1,59.707,32.206ZM24.546,167.644c-.222,1.694-2.687-.752-1.79-1.694.785-.566,1.12.942,1.793,1.694ZM13.687,151.069l-.561-.566c.448-1.318-.111-2.45,1.231-1.508C13.687,150.127,14.471,150.879,13.687,151.069Z" transform="translate(-0.501 -0.007)" fill="#afa8d9" fill-rule="evenodd" opacity="0.75"/>
</svg>
