<svg xmlns="http://www.w3.org/2000/svg" width="26.807" height="26.807" viewBox="0 0 26.807 26.807">
  <g id="_001-auction" data-name="001-auction" transform="translate(0 -0.001)">
    <g id="Group_1678" data-name="Group 1678" transform="translate(5.273 8.976)">
      <g id="Group_1677" data-name="Group 1677">
        <path id="Path_6064" data-name="Path 6064" d="M101.6,171.573a.523.523,0,1,0,0,.74A.524.524,0,0,0,101.6,171.573Z" transform="translate(-100.704 -171.42)" fill="#6053b4"/>
      </g>
    </g>
    <g id="Group_1680" data-name="Group 1680" transform="translate(0 20.524)">
      <g id="Group_1679" data-name="Group 1679">
        <path id="Path_6065" data-name="Path 6065" d="M13.257,394.9a1.833,1.833,0,0,0-1.477-2.918H2.88A1.831,1.831,0,0,0,1.4,394.9,2.62,2.62,0,0,0,0,397.223v.524a.524.524,0,0,0,.524.524H14.136a.524.524,0,0,0,.524-.524v-.524A2.62,2.62,0,0,0,13.257,394.9ZM2.324,393.264a.78.78,0,0,1,.555-.23h8.9a.785.785,0,1,1,0,1.571H2.88a.785.785,0,0,1-.555-1.341Zm-1.277,3.959a1.572,1.572,0,0,1,1.571-1.571h9.424a1.572,1.572,0,0,1,1.571,1.571Z" transform="translate(0 -391.987)" fill="#6053b4"/>
      </g>
    </g>
    <g id="Group_1682" data-name="Group 1682" transform="translate(0.001 0.001)">
      <g id="Group_1681" data-name="Group 1681" transform="translate(0 0)">
        <path id="Path_6066" data-name="Path 6066" d="M26.34,22a3.3,3.3,0,0,0-.631-.724L23.263,19.14a.52.52,0,0,0-.208-.182l-1.479-1.29-6.848-5.974a1.568,1.568,0,0,0-.46-2.5L14.9,8.56a2.1,2.1,0,0,0,2.022-.541,2.094,2.094,0,0,0,0-2.962L12.48.615a2.093,2.093,0,0,0-3.5,2.022L2.656,8.957a2.107,2.107,0,0,0-.542-.071A2.094,2.094,0,0,0,.633,12.461L5.076,16.9a2.094,2.094,0,0,0,3.5-2.022l.632-.632a1.571,1.571,0,0,0,2.5.459l7.294,8.38a.526.526,0,0,0,.071.089l.029.026,2.173,2.5c.054.064.112.126.172.186a3.114,3.114,0,0,0,2.213.921,3.214,3.214,0,0,0,.441-.03,3.168,3.168,0,0,0,2.337-1.618A3.1,3.1,0,0,0,26.34,22ZM10.259,1.355a1.047,1.047,0,0,1,1.481,0L16.182,5.8A1.047,1.047,0,0,1,14.7,7.278L10.259,2.836h0A1.048,1.048,0,0,1,10.259,1.355ZM7.3,16.163a1.048,1.048,0,0,1-1.481,0L1.374,11.721a1.047,1.047,0,0,1,1.48-1.481L7.3,14.683A1.048,1.048,0,0,1,7.3,16.163Zm2.2-3.685L8.038,13.942,3.595,9.5,9.518,3.576l4.443,4.443L12.494,9.485,12.48,9.5,9.52,12.46Zm1.869,1.092,0,0L11,13.942a.524.524,0,0,1-.747-.734l2.974-2.974a.524.524,0,0,1,.888.376.519.519,0,0,1-.154.37l-.367.367-.007.007Zm1.084.4,1.53-1.53,6.479,5.651L18.1,20.452Zm6.334,7.277,2.466-2.466.791.69-2.568,2.568Zm6.74,3.4a2.13,2.13,0,0,1-1.567,1.093,2.08,2.08,0,0,1-1.77-.593c-.04-.04-.079-.082-.115-.125l-.005-.006-1.9-2.189,2.67-2.67,2.186,1.907.005,0a2.254,2.254,0,0,1,.432.5A2.067,2.067,0,0,1,25.529,24.648Z" transform="translate(-0.021 -0.001)" fill="#6053b4"/>
      </g>
    </g>
    <g id="Group_1684" data-name="Group 1684" transform="translate(6.753 5.274)">
      <g id="Group_1683" data-name="Group 1683">
        <path id="Path_6067" data-name="Path 6067" d="M132.1,100.861a.524.524,0,0,0-.74,0l-2.221,2.221a.524.524,0,1,0,.74.74L132.1,101.6A.524.524,0,0,0,132.1,100.861Z" transform="translate(-128.985 -100.707)" fill="#6053b4"/>
      </g>
    </g>
  </g>
</svg>
