<svg xmlns="http://www.w3.org/2000/svg" width="24.485" height="23.26" viewBox="0 0 24.485 23.26">
  <path id="Path_702" data-name="Path 702" d="M26.036,11.345h-6.87l1.375-4.122A2.449,2.449,0,0,0,18.216,4H16.242a1.228,1.228,0,0,0-.941.441l-5.754,6.9h-3.1A2.451,2.451,0,0,0,4,13.794V24.812A2.451,2.451,0,0,0,6.448,27.26H22.739a2.461,2.461,0,0,0,2.293-1.589l3.375-9a1.224,1.224,0,0,0,.077-.43V13.794A2.451,2.451,0,0,0,26.036,11.345ZM6.448,13.794H8.9V24.812H6.448Zm19.588,2.227-3.3,8.791H11.345v-11.8l5.47-6.564h1.4l-1.912,5.733a1.222,1.222,0,0,0,1.161,1.612h8.57Z" transform="translate(-4 -4)" fill="#fff"/>
</svg>
