<svg xmlns="http://www.w3.org/2000/svg" width="36.242" height="40" viewBox="0 0 36.242 40">
  <g id="_001-pdf" data-name="001-pdf" transform="translate(-24.049 0)">
    <path id="Path_257757" data-name="Path 257757" d="M59.753,6.067,54.224.538A1.827,1.827,0,0,0,52.924,0H29.645a1.841,1.841,0,0,0-1.838,1.838v18.2H26.514a2.467,2.467,0,0,0-2.465,2.465V33.778a2.468,2.468,0,0,0,2.465,2.465H45.928A1.841,1.841,0,0,0,47.766,34.4V25.636A1.841,1.841,0,0,0,45.928,23.8H26.514a1.293,1.293,0,1,1,0-2.586h1.293v.667a.586.586,0,1,0,1.172,0V1.838a.667.667,0,0,1,.667-.667H52.231V6.849a1.214,1.214,0,0,0,1.212,1.212h5.677v30.1a.667.667,0,0,1-.667.667H29.645a.667.667,0,0,1-.667-.667.586.586,0,1,0-1.172,0A1.841,1.841,0,0,0,29.645,40H58.453a1.841,1.841,0,0,0,1.838-1.838V7.367A1.826,1.826,0,0,0,59.753,6.067ZM26.514,24.97H45.928a.667.667,0,0,1,.667.667V34.4a.667.667,0,0,1-.667.667H26.514a1.294,1.294,0,0,1-1.293-1.293V24.6A2.449,2.449,0,0,0,26.514,24.97ZM53.4,6.849V1.374l5.515,5.514H53.443A.04.04,0,0,1,53.4,6.849Z" fill="#6053b4"/>
    <path id="Path_257758" data-name="Path 257758" d="M229.657,351.073a.586.586,0,0,0,.586-.586V348.54h1.27a.586.586,0,0,0,0-1.172h-1.27V346.1h1.43a.586.586,0,1,0,0-1.172h-2.016a.586.586,0,0,0-.586.586v4.973A.586.586,0,0,0,229.657,351.073Z" transform="translate(-189.005 -317.981)" fill="#6053b4"/>
    <path id="Path_257759" data-name="Path 257759" d="M155.581,351.506a.586.586,0,0,0,.413.17h0c.042,0,1.023,0,1.415-.011a2.724,2.724,0,0,0,2.5-3.006c0-1.8-1.024-3.017-2.549-3.017h-1.377a.586.586,0,0,0-.586.587v0h0v4.778a.824.824,0,0,0,.183.495Zm1.78-4.692c1.016,0,1.377.953,1.377,1.845,0,1.251-.677,1.823-1.347,1.834-.186,0-.519.006-.813.008,0-.575-.006-3.089-.007-3.687Z" transform="translate(-121.087 -318.639)" fill="#6053b4"/>
    <path id="Path_257760" data-name="Path 257760" d="M88.531,350.874a.586.586,0,0,0,.586-.586v-1.593l.809,0a2,2,0,1,0,0-4H88.531a.586.586,0,0,0-.586.586h0v5.01a.586.586,0,0,0,.586.586Zm1.4-5.01a.828.828,0,1,1,0,1.656l-.8,0c0-.3,0-1.346,0-1.659h.807Z" transform="translate(-58.904 -317.763)" fill="#6053b4"/>
    <path id="Path_257761" data-name="Path 257761" d="M185.258,92.737a9.435,9.435,0,0,0-3.707,1.9,1.636,1.636,0,0,0-.324,2.137,1.4,1.4,0,0,0,1.184.71,1.558,1.558,0,0,0,.557-.109,5.635,5.635,0,0,0,2.273-2.29c.272-.412.546-.871.82-1.367l.305-.087a29.225,29.225,0,0,1,5.166-.939,7.167,7.167,0,0,0,2.917,1.928,1.636,1.636,0,0,0,2.057-1.187,1.217,1.217,0,0,0-.593-1.481,6.051,6.051,0,0,0-2.993-.5c-.3,0-.616.016-.944.036a23.4,23.4,0,0,1-3.221-4.256q.06-.208.115-.41a8.923,8.923,0,0,0,.425-3.38c-.172-1.094-.878-1.25-1.173-1.265a1.564,1.564,0,0,0-1.814,1.359,5.6,5.6,0,0,0,.719,2.94c.138.293.292.595.462.9q-.095.3-.206.633a33.669,33.669,0,0,1-2.026,4.731Zm-2.814,3.57c-.042.005-.112.014-.233-.172a.361.361,0,0,1-.02-.422,4.472,4.472,0,0,1,2.156-1.405c-.9,1.4-1.576,1.958-1.9,2Zm12.96-3.281a.209.209,0,0,1-.01.04c-.146.447-.343.489-.677.411a4.237,4.237,0,0,1-1.505-.859C194.778,92.631,195.324,92.913,195.4,93.026ZM187.469,83.7c.024-.167.051-.356.5-.356l.089,0c.133.163.2.886-.107,2.317A4.186,4.186,0,0,1,187.469,83.7Zm.816,5c.257.4.534.794.827,1.193.421.571.9,1.165,1.4,1.731-.581.07-1.181.161-1.781.27-.406.074-1.114.213-1.942.419q.276-.572.542-1.182C187.682,90.319,188.006,89.493,188.285,88.7Z" transform="translate(-144.654 -75.748)" fill="#6053b4"/>
  </g>
</svg>
