<svg id="play-circle" xmlns="http://www.w3.org/2000/svg" width="170.419" height="170.419" viewBox="0 0 170.419 170.419">
  <g id="Group_16192" data-name="Group 16192" transform="translate(0 0)">
    <path id="Path_257012" data-name="Path 257012" d="M85.21,159.768A74.558,74.558,0,1,1,159.768,85.21,74.558,74.558,0,0,1,85.21,159.768Zm0,10.651A85.21,85.21,0,1,0,0,85.21,85.21,85.21,0,0,0,85.21,170.419Z" transform="translate(0 0)" fill="#fff"/>
    <path id="Path_257013" data-name="Path 257013" d="M20.886,15.589a5.326,5.326,0,0,1,5.539.4L63.7,42.622a5.326,5.326,0,0,1,0,8.67L26.425,77.92A5.326,5.326,0,0,1,18,73.585V20.329a5.326,5.326,0,0,1,2.886-4.74Z" transform="translate(45.907 38.252)" fill="#fff"/>
  </g>
</svg>
