<svg version="1.2" xmlns="http://www.w3.org/2000/svg" viewBox="0 0 325 183" width="325" height="183">
	<title>potrait-background-svg</title>
	<defs>
		<clipPath clipPathUnits="userSpaceOnUse" id="cp1">
			<path d="m20-201h285c11.05 0 20 8.95 20 20v344c0 11.05-8.95 20-20 20h-285c-11.05 0-20-8.95-20-20v-344c0-11.05 8.95-20 20-20z"/>
		</clipPath>
	</defs>
	<style>
		.s0 { opacity: .8;fill: #9991cf } 
	</style>
	<g id="Clip-Path: Mask_Group_53" clip-path="url(#cp1)">
		<g id="Mask_Group_53">
			<path id="Path_258449" fill-rule="evenodd" class="s0" d="m418.9 46.9c-0.4-0.3-1-0.3-1.3-1q-0.1 0.1-0.2 0.1-0.1 0.1-0.3 0.2-0.1 0-0.2 0.1-0.1 0-0.2 0.1-0.1 0.1-0.1 0.1-0.1 0-0.1 0-0.1 0.1-0.1 0.1-0.1 0-0.2 0c-0.2 0-0.4 0.1-0.5 0.1q-0.3 0.1-0.5 0.2-0.3 0-0.6 0.1-0.2 0.1-0.5 0.2-0.2 0.1-0.5 0.2c-2.6 2.7-7 3.5-10.4 5.7 0-0.2 0.2-0.3 0.1-0.5-3.2 1.3-5.3 2.9-6.9 3q-0.1 0.1-0.2 0.1-0.1 0.1-0.1 0.1-0.1 0.1-0.2 0.1 0 0.1-0.1 0.2 0.1 0 0.2 0 0 0 0.1 0.1 0.1 0 0.1 0.1 0.1 0 0.2 0.1c-1.9 1.1-3.2 1-4.5 2.1 0-0.7 0.7-0.8 0.6-1.1-1.7 1.1-5.9 2-4.8 3.1-1.4 0.2-1.6 0.7-3.3 1.5 0-1.3 1.5-1.3 2.6-2.6 2.8-3.2-0.4-4.4-4.1-4.7q-0.3 0.1-0.5 0.1-0.2 0.1-0.4 0.2-0.3 0.1-0.5 0.2-0.2 0-0.4 0.1-1.5 1-3.1 1.9 0 0 0 0.1 0 0 0 0.1 0.1 0 0.1 0 0 0.1 0 0.1c2.7-2.8 6-1.3 5 0.8-0.8 0.5-0.9 0-1.9 0.6-0.4 0.2-0.4 0.5-0.8 0.8 1.2 0.2 0.9 0.3 1.9 1q-0.2 0-0.4 0.1-0.2 0.1-0.4 0.2-0.1 0.1-0.3 0.2-0.1 0.1-0.3 0.3c4.3-0.8 0 2.3-0.1 3.8-0.7 0-2.1 0.8-1.7 1.2 0.8 0.2 1.3-0.9 2.5-1.2 0.1 0.3-0.3 0.6 0 0.9-0.7 0-1.9 0.8-3 1.3 0.2 0.6 1.3 0 1.3 0.9q-0.1 0.2-0.3 0.3-0.2 0.1-0.3 0.2-0.2 0.1-0.4 0.2-0.2 0.1-0.3 0.1c0.8 0.4 0.6 0.7 0.2 1.3 0.6 0.3 1.8-0.3 2.7-0.3q0.1 0.2 0.2 0.4 0.1 0.2 0.2 0.4 0.1 0.3 0.1 0.5 0.1 0.2 0.2 0.4h0.1v0.4q0.1 0.1 0.2 0.2 0.1 0.2 0.2 0.3 0.1 0.1 0.2 0.2 0.1 0.1 0.2 0.2c-0.4 0.5-1.2 0.8-1.6 1.3 0.2 0.3 0.8 0.1 1.6-0.3 0.5 0.4-1.4 0.7-0.7 1.2-0.9 0.3-1.8 0.7-2 1.3 1.1-1.1 3.3 1.1 0.2 2.1-0.4-0.7 0.7-1.6-0.9-1.8-0.3 0.5-0.6 0.6-0.7 1q0.2 0.1 0.4 0.3 0.1 0.2 0.3 0.4 0.1 0.2 0.2 0.5 0 0.2 0 0.5c3-0.3 6.7-1.9 8.8-1.3q-1.2 0.6-2.4 1.1-1.2 0.4-2.4 0.9-1.2 0.5-2.5 0.9-1.2 0.4-2.4 0.8c0.5 0.1 1.2 0.1 1.6 0.3 0.2 0.2-0.5 0.5-0.9 0.6 0 0.5 0.7 0.2 1.2-0.1 0.4 0.5-0.8 0.9-0.5 1.4 1.2 0 0.5-0.9 1.9-1.4q-0.1 0.1-0.2 0.3-0.1 0.2-0.2 0.4-0.1 0.2-0.1 0.4-0.1 0.2-0.1 0.5 0.1-0.2 0.2-0.3 0.2-0.1 0.3-0.2 0.1-0.1 0.2-0.2 0.2-0.1 0.3-0.1c0.4 0.3 0 0.6 0 0.9 3.8-0.3 7.5-0.6 10.6 0q0.3-0.2 0.6-0.3 0.3-0.2 0.7-0.3 0.3-0.2 0.6-0.3 0.4-0.1 0.7-0.2c-2.5 3.5-7.3 1.1-11.9 3.5-0.7 1.1 0.7 1.1-0.2 2.1-0.7 0.3-2.8-0.4-2.2 1.1q-0.1 0-0.2 0 0 0.1-0.1 0.1-0.1 0-0.2 0-0.1 0-0.2 0c0.1 0.5 0.3 0.8-0.6 1.6-1.1 0.3-0.2-0.8-0.5-1.1-1.3 0.5-1.4 1-1.5 1.4-1.3-0.1 0.1-1.2 0.8-2 0 0 0-0.2 0.1-0.2 0.2-0.2 0.3-0.2 0.3-0.3q-0.1 0-0.2 0.1-0.1 0-0.2 0-0.1 0-0.2 0.1-0.1 0-0.2-0.1-0.2 0.2-0.3 0.3-0.2 0.1-0.4 0.2-0.2 0.1-0.3 0.2-0.2 0.1-0.4 0.1c-1.4-0.6-1.7-1.7-3.2-2.3-0.6 0.1-1 0.3-1.5 0.4 0.1 0.2 0.5 0 0.8-0.1 0.3 0.6-1 1.3-0.7 2-0.6 0.4-0.8 0.2-1.3 0.4-0.8 0.6 0.6 0.9 0.7 1.2-0.5-0.1-2.3-0.3-1.5 0.7-2.9 1.7-5.3 1.1-6.8 2.8 0.4-1.1-0.6-1.4-1.9-0.3 0.5-1 0.2-0.8-0.6-1.1 1.4-0.8 2.9-0.5 2.9-1.4-0.5-0.4-2.9 1.5-2.6 0.3-1.6 0.6-1.7 1.4-3.1 2 0.6 0.7 1.4 0.5 2.2 0.7-0.1 0.3-2.6 0.3-3.3 1.4 0.7 0.5 0.7-0.2 1.9-0.6 0.9 0.1 0.2 0.8 1.4 0.8-0.5 1.1-1.2-0.2-1.9 0-1.1 0.3 0.7 0.8-0.4 1.1 1.2 0.3 1.5 0 2.8 0.1-1 0.7-0.9 2.1-2 1.6-1.1 0.8 0 0.5 0.1 1.1q0.3-0.1 0.5-0.2 0.2 0 0.5-0.1 0.2-0.1 0.4-0.2 0.2-0.2 0.5-0.3c-0.6 1.6-2.8 0.5-4.4 1.5 0.2 0.6 0.9 0.6 2 0-0.6 0.6 0.7 0.3 0.1 1.1-0.7 0.3 0.2-0.7-1.1-0.3-1.4 0.4-0.1 0.9-1.5 1.4-0.4-0.3-1.4-0.2-0.8-0.8-2.4 1.1-2.6-0.3-5.1 0.9 0.9 0.7 2.1 0.7 3.2 1 0.6-0.3 0.2-0.6 0-1 0.6-0.1 1.2-0.1 1.7-0.3 0 0.5-1.7 0.8-1.2 1.3 0.9-0.5 1.1 0.8 2.5 0.3-0.3 1-0.2 1 0.5 1.7-0.7 0-1.8 0.4-2.6 0.4-0.3-0.5 1.4-1 1.1-1.5-1.1 0-2 0.2-0.8-0.6-0.6-0.3-3.1 1.1-2-0.2q-0.4 0.2-0.8 0.4-0.4 0.1-0.8 0.3-0.4 0.1-0.8 0.2-0.4 0.1-0.8 0.3 0-0.6-0.3-1.1-0.2-0.5-0.7-0.8-0.4-0.3-1-0.4-0.5-0.1-1.1 0c1.4-0.8 3-1.4 2.5-2.2-0.1-0.1-0.8 0.2-1.2 0.3q-0.1-0.1-0.2-0.2-0.1-0.1-0.1-0.3 0-0.1 0-0.3 0.1-0.1 0.2-0.3c1.5-0.3 1.8-0.8 3-1.1 0.6 0.5-0.5 0.8-0.4 1.1q0.4 0.1 0.8 0 0.3 0 0.7-0.2 0.4-0.1 0.7-0.3 0.3-0.2 0.6-0.4c0.8-0.7 1.7-1.4 2.2-1.9-1.2 0.5-2.4 0.1-4.6 0.9-0.5-0.6 0.6-0.1 1.4-0.8-0.1-0.8-1.4-0.1-1.9-0.3-1.3 0.8 0.1 0.5-0.5 1.1-1.9 0.3-3.2 0-4.1-0.9q-0.4 0.2-0.7 0.4-0.4 0.2-0.8 0.3-0.4 0.2-0.8 0.3-0.4 0.2-0.8 0.2c1-0.9-0.5-1.1-1-2q-0.1 0.1-0.2 0.1 0 0 0 0 0 0 0 0.1c-0.4 0.3-0.5 0.6-0.7 0.9q0.2 0.1 0.3 0.1 0.2 0 0.4 0 0.2 0 0.4 0 0.2 0 0.4-0.1c0 0.3-0.3 0.2-0.7 0.3q-0.1 0.1-0.2 0.2-0.2 0.1-0.2 0.3-0.1 0.1-0.1 0.3 0 0.2 0.1 0.3c-0.3 0-0.7 0.2-1 0.2 0 0.5 0 0.6 1 0.5 0 0.3-0.6 0.6-1.3 0.9-0.2-0.6-0.9-0.8-1.5-1.1q-0.4 0.3-0.8 0.5-0.4 0.3-0.8 0.5-0.4 0.2-0.8 0.4-0.5 0.2-0.9 0.3 0 0.1 0 0.2 0 0 0 0.1 0 0.1 0 0.1 0.1 0.1 0.1 0.1 0.2 0 0.4-0.1 0.1 0 0.3-0.1 0.2 0 0.4-0.1 0.1-0.1 0.2-0.1c-0.6 0.3-0.7 1 0.1 0.9-0.1 0.1-0.4 0.1-0.6 0.3-0.1 0-0.2 0.2-0.4 0.2-1.1 0.6-2.3 1.4-3.2 0.9q-0.1 0.1-0.1 0.2c-0.3-0.2-0.5-0.4-1-1l-1.5 0.6c0.8 0.8 2.6 0.2 1.7 1.6l1.4-0.5c0.1 0.1 0.3 0.1 0.5 0.1q-0.4 0.3-0.7 0.5-0.4 0.3-0.8 0.6-0.4 0.2-0.8 0.5-0.4 0.2-0.8 0.4c0.2 0.5 1.1-0.1 1.1 0.5-1.2 0.3-1.6 0.8-2.5 1l1.7 1.4q0.3-0.1 0.5-0.3 0.3-0.1 0.5-0.3 0.3-0.1 0.5-0.3 0.2-0.2 0.5-0.4c1.6-0.1-1.4 1.3 0.1 1.1q-0.1 0.2-0.2 0.3-0.2 0.2-0.3 0.3-0.1 0.2-0.3 0.3-0.1 0.1-0.3 0.2l0.3 0.4q0.2 0 0.3-0.1 0.2 0 0.4 0 0.2 0 0.3-0.1 0.2-0.1 0.4-0.2 0.8 0.8-0.4 1.5 0 0 0 0 0 0.1 0 0.1 0 0 0 0 0.1 0 0.1 0h0.3q0.1 0 0.2-0.1 0.1 0 0.2-0.1 0.1 0 0.2-0.1 0.1 0 0.2 0c0.6-0.5 0.2-1.1 1.3-1.7 0-0.2 1.8 0.8 0.2 1.4 1.7-0.6 3.9-1.3 4.9-2.2 0.3 0.8 1.1 0.4 2.5 0.4q-0.3 0.1-0.7 0.2-0.3 0.1-0.7 0.3-0.3 0.1-0.6 0.3-0.3 0.1-0.6 0.4l-0.3-0.5c-2.2 0.9-1.5 1.2-3.5 1.4 1.1 0.5 3.4-0.3 5.7-1.4 0.4-0.2 0.4 0 0.6 0.1l0.1 0.4c-0.5 0.3-0.7 0.1-1.2 0.3 0.1 0.4 1.1 0.1 1.5 0.3q0 0.5-0.8 0.9c-1.6 0-2.3 0.8-3.8 0.8-0.4-0.4 1.7-0.8 1.7-1.2-1.1 0-2.5 1.4-4.1 1.9l0.5 0.9c0.2 0.2 2.5-0.1 0.6 0.7 0.9 0.4 0.9-0.4 2-0.8 0.7 0 0.5 0.6 0.1 1.1 1.7 0.3 3.6-1.8 2.8-2.7 1.3 0.1 0.7 0.1 2.2-0.3 0.7 0.4-0.9 0.7-1.6 1.1 0.5 0.1 0.5 0.9 1.6 0.4q-0.2 0.4-0.3 0.9-0.1 0.5 0.1 0.9 0.2 0.5 0.5 0.8 0.4 0.3 0.9 0.4c-1 0-1.7-0.3-2.5-0.3-1.9 1-0.5 0.8 0.1 1.3q-0.4 0.2-0.7 0.3-0.4 0.1-0.7 0.2-0.4 0-0.8 0.1-0.4 0-0.7 0c-0.7-0.4 1.5-0.8 1.6-1.2-0.2-0.2-0.8 0-1.1-0.2-0.9 0.6-0.9 1.3-1.4 1.9-1.1 0.2 0.2-0.9-0.7-1.4-1.2 0.3-0.4 0.8-1.6 1.1 0-0.6-0.9-0.8-2-0.8q-0.1 0.1-0.3 0.2-0.2 0.1-0.4 0.1-0.1 0.1-0.3 0.2-0.2 0.1-0.4 0.1c2.5 1-0.8 3.4 1.1 4.8-8.9 3.2-10.5 9.5-19.3 12.8-0.4-0.9-2.1-0.6-3.3-0.8 3.6-3.3 8.7-6.5 11.9-9.8 0-0.8-0.8-0.6-1.5-0.6-1 0.3 0.6 0.9-1 1.1-0.5-2.6-6.6 1.9-9.6 3.2-0.9 0.1-1.2-0.4-2.2-0.2q-0.8 0.6-1.7 1-0.9 0.5-1.8 0.9-0.9 0.4-1.9 0.7-1 0.2-2 0.4c-1.6 1-3.6 2.1-5.5 3 0.1 0.2 0.1 0.2 0.1 0.3q-0.1 0.1-0.2 0.1-0.1 0.1-0.2 0.1-0.1 0-0.2 0-0.1 0-0.2 0c-2.1 0.9-4.2 1.7-5.9 1.6q0.7-0.2 1.4-0.4 0.6-0.2 1.2-0.4 0.7-0.2 1.3-0.4 0.7-0.3 1.3-0.6c0.1-0.1 0-0.4-0.4-0.3 0.1-0.3 0.9-0.3 1.5-0.1q0.9-0.5 1.7-0.9 0.8-0.5 1.6-1 0.8-0.5 1.6-1.1 0.8-0.6 1.5-1.2c-1.5-0.6-3.2 1.5-4.7 1.9q0.2-0.3 0.4-0.5 0.2-0.3 0.5-0.5 0.3-0.3 0.6-0.5 0.2-0.2 0.6-0.4c-1.9-0.9-3.1 1.6-4.6 2.4-2.4-0.8-6.7 1.4-8.4 2.7q0.3 0 0.5 0.1 0.3 0 0.5 0.1 0.3 0 0.5 0.1 0.2 0.1 0.5 0.2-0.2 0.2-0.4 0.3-0.2 0.2-0.4 0.4-0.1 0.2-0.3 0.3-0.2 0.2-0.3 0.4c0.5 0.3 1.2 0.5 2.6-0.1-0.8 1.5 1.8 0.9 3.4 0.9-0.2 1.1-3.4 0.8-2.7 0.2-0.7 0.1-1.4 0.6-0.7 0.4 0 0.4-1.1 0.8-1.2 0.5-0.3 0.7-0.9 1.6 0.2 2.6-2.6 0.4-2.7 2.7-5.5 3.6-0.6 1 1.8 0.5 0.7 1-0.7 0.3-0.9 0.1-1-0.2-2.6 1.1-3.6 1.3-6 2.4-1.1 1.1-1.6 2.5-4.8 3.3 0.4 1.3 1.3 1.1 1.1 2.5q-0.5 0.3-1 0.6-0.5 0.2-1 0.4-0.6 0.2-1.1 0.4-0.5 0.1-1.1 0.2c-0.8 0.2-1.5 0.3-2.4 0.5-0.8 0.2-1.5 0.2-2.3 0.3-3.2 0.3-5.9 1-6.6 3.3q-1.8-0.4-0.8-1.9c-5.7-0.3-13.9 1.3-20.2 2.7 0.6 0.4 0.6 1.3 2 1.2-0.9 0.9 0.3 1.2 0.5 2.3q-0.4 0-0.9-0.1-0.4 0-0.9 0-0.4 0-0.9 0-0.4 0.1-0.9 0.1c0.3-0.3 0.8-1.1-0.5-0.6q0.1-0.2 0.2-0.3 0.1-0.1 0.2-0.3 0.2-0.1 0.3-0.2 0.2-0.1 0.4-0.1c-1 0-1.3 0.1-2.7 0.1-0.8 0.3-0.1 0.8-0.7 1.1-1.1 0.3-1.6-0.1-1.5-0.9-1.5 0.8-0.8 0.1-1.8 0-0.4 0-0.4 0.8-0.1 0.9-1.4 0-4.2 1.1-5.9 1.9 1.7-0.9-3.6 0.3-1-0.6-5.8 0.6-8.4 1.3-13 1.1-1 0.3 0.5 0.3-0.3 0.8-1.8-0.5-5.3 0.3-5.9-1.1-1.3 0.1-2.5 0.5-3.3 0.6q-0.3 0.1-0.6 0.1-0.3 0.1-0.7 0.2-0.3 0.1-0.6 0.1-0.3 0.1-0.6 0.2c0 0.5 0.4 0.4 1 0.4-1 0.9-1.8-0.2-2.2-0.5-3.1 0.8-5.9 0.6-8.1 1.7 0.1-0.9-1.3-0.6-1.5-1.1-0.5 0.2-1.3 0.3-1.3 0.7 0.6 0.6 1.1-0.5 1.8 0-3.3 0.7-8.7 1.2-11.4 2.8-1.2 0-0.5-0.1-0.5-0.8-2.1 0.3-2.1 1.3-4.6 1.4 0.8-0.6 2.5-0.9 2.9-1.7-2 0.2-2.2-0.6-4.5-0.3-0.8 0.1 0.9 0.6-1.2 0.6 0.1 0.7 1.2 0.7 1.1 1.4-0.8-0.3-2.4-0.7-1.5-1.4-0.9 0.2-1.4 0.2-1.4-0.3q-0.4 0.2-0.8 0.4-0.4 0.2-0.9 0.3-0.4 0.2-0.8 0.3-0.4 0.2-0.9 0.3c0.6 0.6 1.4-0.3 2.3-0.3-0.6 0.9-3.8 1.1-5.6 1.7q0.3-0.2 0.7-0.4 0.3-0.2 0.7-0.4 0.4-0.2 0.7-0.4 0.4-0.1 0.8-0.2-0.4-0.1-0.7-0.2-0.4 0-0.8 0-0.4 0-0.8 0.1-0.4 0.1-0.7 0.2 0.1 0 0.1-0.1 0.1 0 0.2-0.1 0-0.1 0-0.2 0.1-0.1 0.1-0.2-0.9 0.1-1.7 0.1-0.8 0.1-1.6 0.3-0.8 0.1-1.6 0.2-0.9 0.2-1.7 0.3-0.1-0.1-0.3-0.1-0.2-0.1-0.3-0.2-0.2-0.1-0.4-0.2-0.2 0-0.4-0.1c-1.2 0.3-1.3 0.6-2.6 0.2-0.4 0.1-0.8 0.1-0.8 0.4 0.1 0.5 1.9 0 2.2 0.4-0.1 0.3-2.5 0.1-3.1 0 0.3 0.6-1.9 0.3-3 0.9q-0.6 0-1.1 0.1-0.5 0-1.1 0-0.5 0.1-1.1 0.1-0.5 0.1-1 0.1c-1.6 0.2-3.2 0.3-4.9 0.7-3.3 0.4-6.8 0.9-9.6 0.4q-0.4 0.2-0.7 0.3-0.4 0.1-0.8 0.2-0.4 0.1-0.8 0.1-0.4 0.1-0.8 0.1-0.1-0.1-0.1-0.2-0.1-0.1-0.2-0.3 0-0.1 0-0.2-0.1-0.1-0.1-0.3c-0.7 0-1.7 0.2-1.8-0.1-0.5 0.1-2.1 0.8-0.8 0.9-0.3 0.5-2.2-0.3-1-0.6-0.1-0.8-2.2-0.5-3.6-0.5-0.4 0.6 1.5 0.3 1.8 0.6-3.1 0-4.3-0.1-7.5 0.7-1.4-0.3 1.8-0.2 1.8-0.5-0.8-1.1-3.1-1.6-5.3-2.1 1.8-0.4 3.5 1 5.7 1.1 0.3-1.2 5.2-0.4 7.9-0.3 0.3 0 0.5-0.1 0.9-0.1 0.2-0.5-0.3-0.5-0.9-0.5q0.2 0 0.4 0 0.3-0.1 0.5-0.1 0.2 0 0.4 0.1 0.2 0 0.4 0c0.7 0 1.3 0.2 1.9 0.2 1.3 0.1 2.4 0.1 3-0.8-1.1-0.7-2.3 0.8-2.7-0.7-0.7 0-2.2 0.8-2.6 0.3 5.7-1.9 13.9-0.4 17.9-1.5q-0.8 0-1.6-0.1-0.7 0-1.5-0.1-0.8-0.1-1.6-0.3-0.8-0.1-1.5-0.3c-0.3-0.7 1.9 0 1.2-0.8-0.5-0.3-3.3 0.3-4-0.5-1.4 0.3 1 0.3 0.4 0.9-0.3-0.4-2.9 0.2-1.7 0.4-1.2-0.2-3.7-0.5-6.2-0.7-2.5-0.3-5-0.4-6.4 0.2-1.4-0.3 0.8-0.6 0.8-1.1-1.7 0.6-4.3 0.6-6.5 0.9-1-0.1 0.5-0.3-0.4-0.6-1-0.2-1.4 0.2-1.3 0.6-0.3-0.6-2.8-0.9-1.8-1.4q-0.6 0.1-1.2 0.3-0.6 0.1-1.2 0.2-0.6 0.1-1.2 0.2-0.7 0-1.3 0.1c0.2-0.3 0.7-0.3 0.9-0.6-3.2 0.9-6.3 0-9.2 0.3 0-0.2 0.4-0.3 0.4-0.5-2.1 0-4 0-5.7-0.2q-0.6 0-1.2 0-0.6 0-1.2 0-0.6-0.1-1.3-0.1-0.6-0.1-1.2-0.2-1.2-0.1-2.4-0.2-1.2-0.1-2.4-0.2-1.2-0.1-2.5-0.1-1.2-0.1-2.4-0.1c0.4-0.5 1.1-0.8 2.6-0.5-1.5-1.4-5.8-0.6-8.7-1.1-0.6-0.1-1.1-0.8-1.7-0.9q-0.1 0-0.3 0-0.1 0.1-0.3 0.1-0.1 0.1-0.2 0.2-0.1 0.2-0.2 0.3c-1.2-0.2-5.1-0.6-5.7-1.4 1.7 0.1 3.9 0.6 4.9 0.3-1.3-1.1-4.6-1.4-5.1-2.7 3 0.8 2.9 0.9 5.1 1.1 0.1 0.6-0.3 0.8-1.4 0.5 0.1 0.3 0.8 0.3 0.8 0.6 1.2-0.6 2.7-0.5 4.2-0.3 1.5 0.1 3.2 0.6 5 0.9 3.5 0.7 7.1 1.5 10-0.1q0.3 0.1 0.6 0.3 0.2 0.1 0.5 0.2 0.3 0.1 0.6 0.2 0.3 0 0.6 0.1 0.4 0 0.8 0.1 0.4 0 0.8 0 0.4 0 0.8 0 0.4 0 0.8 0c2.2 0 4.7-0.1 6.4 0 0 0.5-1.1 0.3-1.3 0.8 2.5 0.3 1.8-0.3 2.2-0.8 1.3 0.5 1.3 0.3 3.5 0.3 0.6 1.3 3.5 0.4 4.9 1.3 0.3 0 0.4-0.1 0.8-0.1 0.2-0.8-1.1-0.7-1.8-1 3.6 0.3 10.2 0.2 13.6 1.6 0.9-0.2 1-0.8 1.7-1 0.7 1.3 3.5-0.3 2.6 0.7 1.6-0.5 3.1-0.7 4.4-1.6 2.3-0.2-1.6 0.8 0.8 0.6 0 0.5-1.5 0.2-2.2 0.3 1.9 1 4 1 7.3 0.2-0.5-0.6-2.3-0.5-3.4-0.8 0-0.6 1.6-0.6 1.2-1.4 3.5 0.3 2-1.1 3.9-0.7q-0.2 0-0.4-0.1-0.3-0.1-0.5-0.1-0.2 0-0.4-0.1-0.3 0-0.5 0c0.6-0.4 1.9-0.5 3.2-0.5q0 0.1 0 0.2 0 0.1-0.1 0.2 0 0.1-0.1 0.2-0.1 0.2-0.2 0.2c1.2-0.1 2.6 0 2.6-0.6-0.9 0.2-1-0.1-1.3-0.2q0.7-0.1 1.5-0.1c-0.3-1.3-1.6 0.3-3.9 0 0.1-0.2 0.7-0.3 0.8-0.6-4.4-0.7-7.4-1.5-11.7-1.8-1.1 1.8-2.9-0.8-5.7-0.8 1.3 0 3.5-0.1 2.9-1.1 1.3-0.1 0.9 0.5 1.7 0.6 0.3-0.7-0.7-0.7-1.4-0.9-0.1 0-0.3 0.2-0.4 0.2h-0.1c-1.4 0.6-2.6 0.3-3.9 0.1q-0.1 0.1-0.2 0.2-0.1 0.1-0.1 0.2-0.1 0.2-0.1 0.3 0 0.1 0 0.3c-2.7 0-2.3-0.7-2.7-1.5-2.8 0.7-4.2 0.5-7.8 0.2-1.2 0.2 0.4 0.5 0 0.9-0.4-0.1-1.1-0.1-1.6-0.3-0.5-0.1-0.9-0.3-0.9-0.8-1.4-0.1-1.2 0.4-2.6 0.2 0.1 0.5 0.7 0.6 1.2 0.8-1.4 0.3-4.8-1.9-6-0.3q-0.6-0.3-1.2-0.5-0.7-0.2-1.3-0.3-0.7-0.2-1.4-0.2-0.7-0.1-1.3-0.1-0.8-0.1-1.6-0.1-0.8 0.1-1.6 0.1-0.8 0-1.5 0.1-0.8 0.1-1.6 0.2c0.8-0.5 0.8-0.5 0-1.1-1.9 0.4-5.1 0.1-6-1.1q-0.6 0-1.3 0.1-0.6 0.1-1.2 0.2-0.7 0-1.3 0.1-0.7 0-1.3 0c0.3 0.7 2.6 0.2 2.1 1.1-0.7-0.6-2.8-0.9-3.5-0.3-0.8-0.5-1.5-0.8-0.8-1.4q-0.6 0.1-1.1 0.1-0.6 0-1.1 0-0.5 0-1.1 0-0.5 0-1.1-0.1c0.7 0.9 2.4 0.3 2.1 1.4 1.6 0.1 3 0.3 4.4 0.6q-0.1 0-0.1 0.1 0.1 0 0.1 0 0.1 0 0.2 0c0.1 0.1 0.3 0.2 0.2 0.4 1.5-0.4 2.2 0.8 3 0.3-0.3 0-0.6 0-0.8-0.2 1.8 0.4 3.3 0.6 4.7 0.1 0.7 0.6 4.2 0.9 4.7 0.3 0.7 1.6 2.4 1.4 4.8 1 0.1 1.5-0.9 1.7-0.6 3.9q-0.3 0.1-0.7 0.2-0.3 0.1-0.6 0.2-0.4 0.1-0.7 0.3-0.3 0.1-0.6 0.3c-2-1.3-3.4-0.8-6.1-1.1 2-1.3-5.3-1.5-3.9-0.5-1.6-0.5-2.1-1.4-3.4-2.1-1.4-0.1-0.8 0.8-1.8 0.8-0.1-0.9-2.4-0.8-4.3-1.1-0.1 0.3 0.3 0.3 0.8 0.5-2.9-0.2-8-0.5-10.8-1.8-0.4 0-0.3 0.4-0.4 0.7-1.3-0.5-2.4-1-3.5-1.3-1.1-0.3-2.2-0.6-3.5-0.9-2.4-0.5-5-0.8-8.1-1.5 0.3-0.1 0.6-0.3 0.6-0.6-1.9-0.3-3.2-0.2-5.1-1.3 3.1 0.6 4.9 0 8.6 0.6q-0.2 0-0.4 0.1c1.5 0.1 2.5 1.1 3 0.3q-0.3-0.2-0.7-0.3-0.4-0.1-0.8-0.1 0 0-0.1 0c-1.4-0.9-4.2-0.7-5.6-1.9 1.1 1.2-2.1 0-2.9-0.7-1.7 0.4-3.2-0.7-5.2-0.3-0.5-0.7 1.3-0.7 0.2-1 0.7-0.2 2.3 0.3 3.9 0.6 1.5 0.3 3 0.5 3.4-0.3 1.7 0.2-0.1 0.3 0.3 1 1.4 0.1 1.3-0.8 2.2-1-2.2 0.2-5-1.4-6.4-0.6-4.8-1.8-11.4-3.5-14.8-2.9 0.5-0.6-0.6-0.8-0.7-1.1-3.7-0.1-8.8-2.7-10.5-0.9-0.9-0.4-0.1-1-0.3-1.3 5.3 0 9.1 2.4 13 1.7 0-0.6-2.9-0.9-1.5-1.2q-1.2-0.2-2.4-0.4-1.2-0.3-2.4-0.5-1.2-0.3-2.4-0.6-1.1-0.3-2.3-0.6c-1.7-0.3-3.2-0.8-4.7-1.1-1.4-0.3-2.8-0.6-3.9-0.8-0.6-0.9 1.8 0.5 1.8-0.1-6.1-1-13.1-4.5-17.7-4.2-0.3-0.8 1.4 0.2 1.4-0.4-3.3-0.4-4.9-3.5-8.2-2.9q-0.1-0.1-0.3-0.3-0.1-0.2-0.2-0.3-0.1-0.2-0.3-0.3-0.1-0.2-0.2-0.4c-1.8-0.4-4.3-0.6-5.4-1.4 0.1-0.3 0.8 0 1.3 0.2 0.1-0.2-0.5-0.4-0.7-0.5 3.2-1.8-11.4-4.1-14.2-5.1-0.6-0.3 0.1-0.1 0.1-0.5-3-1.1-6-2-8.9-3.1q-1.1-0.4-2.3-0.9-1.1-0.4-2.3-0.9-1.1-0.5-2.2-1-1.1-0.5-2.2-1c-0.5-0.2-0.2 0.3 0.1 0.5-0.7-0.3-1.9-1.2-3.3-2.1-1.6-0.8-3.1-1.6-4.3-1.3 0.2-0.1 0.8 0 0.9-0.3-1.4-0.5-1.6 0.5-3-0.2 0-0.4 0.4-0.4 0.7-0.6-2.5-2.1-5.3-1.7-6.6-3.2-0.8-0.3-1.1 0-2.1-0.4-0.8 0.6 1 0.9 0.5 1.4q-0.2-0.2-0.4-0.4-0.3-0.1-0.5-0.3-0.2-0.1-0.5-0.2-0.2-0.1-0.4-0.2c0.4 0 0.4-0.5 0.9-0.3 0-0.5-1.1-0.2-0.9-1-0.7 0.2-1.9-0.3-2.3 0-0.5-0.2-0.1-0.6-0.1-0.9q-0.8-0.5-1.6-0.9-0.8-0.4-1.6-0.8-0.8-0.3-1.7-0.7-0.8-0.3-1.6-0.7c-2.3-0.8-4.4-1.5-6.7-2.3-0.7-1.8-4.7-4-7.5-5h0.1c-0.6-0.3-0.4-0.7-1.1-1.1-1.3-0.6-1.3 0.2-2.1 0q-0.3-0.2-0.7-0.5-0.3-0.2-0.7-0.4-0.3-0.1-0.7-0.3-0.4-0.1-0.8-0.2c-0.2-0.8 1.4 0.3 1.4-0.3q-0.1-0.1-0.2-0.3-0.1-0.1-0.2-0.2-0.1-0.2-0.2-0.3-0.1-0.2-0.1-0.3c-0.2 0-0.2-0.2-0.3-0.2q-0.1 0-0.3 0-0.1-0.1-0.3-0.1-0.1 0-0.2-0.1-0.2 0-0.3-0.1v0.2q0.1 0 0.1 0.1 0.1 0.1 0.2 0.1 0.1 0.1 0.1 0.1-0.1 0-0.2-0.1c0.4 0.3 0.8 0.7 0.1 0.4-0.3-0.3-0.5-0.6-0.7-0.8-0.9-0.3-1.8-0.8-2.8-1.3q-0.1 0-0.2 0-0.1 0-0.2-0.1-0.2 0-0.3-0.1-0.1 0-0.1-0.1c0.1 0.3 1.2 0.7 0.7 1-0.7-0.5-1.3-1.1-2-1.6h-0.1q-0.2-0.1-0.4-0.2-0.2-0.1-0.4-0.2-0.2 0-0.4 0-0.2 0-0.4 0.1c0.2 0.6 1.3 0.1 2.3 0.9q0.2 0.5 0 0.5 0.6 0.2 1.1 0.6 0.6 0.3 1 0.7 0.5 0.4 1 0.9 0.4 0.4 0.8 1c-1.7-1.1-2.4-1-3-0.5-1.5-1-3.7-1.8-4.1-2.7q-0.3-0.1-0.6-0.2-0.3 0-0.6-0.1-0.3-0.1-0.6-0.1-0.3 0-0.6-0.1c-3.3-2.2-7.4-3.2-9.6-5.5l-1.7-1c0 0.2 0.2 0.2 0.3 0.3q-0.6-0.3-1.2-0.6-0.7-0.3-1.3-0.6-0.7-0.3-1.3-0.5-0.7-0.3-1.3-0.5c-2-0.8-3.8-1.6-4.6-2.8-2.4 0-6.1-3.8-8.1-3.2q-0.1-0.4-0.3-0.8-0.2-0.3-0.5-0.6-0.2-0.4-0.5-0.6-0.3-0.3-0.6-0.5c0 0.4-1.6 0.4-1.4-0.8q-0.6-0.2-1.2-0.5-0.6-0.2-1.2-0.5-0.6-0.2-1.2-0.5-0.6-0.3-1.2-0.6c-1.5-0.8-3.2-1.7-4.7-2.5q-0.6-0.4-1.1-0.7-0.6-0.3-1.2-0.6-0.6-0.3-1.2-0.6-0.6-0.3-1.2-0.5-0.5-0.3-1.1-0.5-0.5-0.1-1-0.3-0.6-0.1-1.1-0.2-0.6-0.1-1.1-0.1c-0.7-0.3-0.4-0.8-1.1-1.3-0.3 0.3 0.2 0.6 0 1-0.7-1.5-2-1.5-2.5-2.1h0.8c0 0 0-0.2 0.1-0.2 0-0.1-0.3-0.3-0.7-0.6q0.2 0 0.3 0 0.1 0.1 0.2 0.1 0.1 0.1 0.2 0.2 0.1 0.1 0.2 0.2c0.4-0.2 1.1 0.1 1.6 0.3v0.2q0.2 0.1 0.3 0.2 0.2 0.1 0.3 0.3 0.2 0.1 0.4 0.2 0.1 0.1 0.3 0.2-0.2-0.4-0.7-0.8 0 0 0 0 0.2 0.1 0.5 0.2 0.2 0.1 0.5 0.1c-0.1-0.2-0.4-0.4-0.7-0.6q1.1 0.5 2.1 1 1.5 0.8 3 1.7 1.5 0.8 2.9 1.7c2.1 1.1 4.2 2.4 6.3 3.4q0.8 0.3 1.6 0.7 0.7 0.3 1.5 0.6 0.9 0.4 1.7 0.6 0.8 0.3 1.6 0.6c1 0.6 1.2 1.4 2.1 2.1 0.7 0.3 0.5-0.7 1.6 0.1-0.1 1.4 3 0.5 2.3 1.9q0.3 0 0.7 0 0.4 0 0.7 0 0.4 0 0.8 0 0.3 0 0.7 0 0.2 0.1 0.4 0.2 0.2 0.2 0.4 0.4 0.2 0.2 0.3 0.4 0.1 0.2 0.1 0.4c0-0.5 0.9-0.2 2.1 0.4q0 0 0 0-0.1 0-0.2 0-0.1 0-0.2 0 0.1 0 0.1 0 0 0 0.1 0 0 0 0 0.1 0.1 0 0.1 0 0.1-0.1 0.2-0.1c0.6 0.3 1.3 0.7 1.9 1-0.4-0.1-1-0.4-1.5-0.6 0.8 0.7 2 1.5 2.6 1.3q-0.1-0.1-0.3-0.1-0.1-0.1-0.2-0.2-0.1-0.1-0.2-0.1-0.1-0.1-0.2-0.2c1.2 0.7 2.3 1.2 2.7 1.2-1.8-0.7-3.9-2-4.6-3.1q0.5 0.4 1.1 0.8 0.6 0.4 1.3 0.7 0.6 0.4 1.3 0.6 0.6 0.2 1.3 0.4c-1.9-1.7-4.9-3-6.2-3.8q0 0 0-0.1 0 0 0-0.1 0 0 0 0 0.1-0.1 0.1-0.1c-0.7-0.5-1.5-0.8-2.2-1.3-1.3-0.5-0.7 0.5-0.7 1-0.7-0.3-0.9-0.2-1.6-0.5 1.3-0.2 0-1 0.7-1.3-1.5 0.2-1.8-0.4-4-1.6 1.3-0.1-1.1-1.2-0.7-1.9q-0.6-0.2-1.2-0.4-0.6-0.2-1.2-0.4-0.6-0.3-1.2-0.5-0.5-0.3-1.1-0.6c-1.4-0.4-0.2 0.7-1 0.7-0.4-0.5-1.5-1-1.2-1.5-0.9 0-0.7 0.2-0.6 0.5q0.1 0.1 0.3 0.2 0.1 0.1 0.2 0.2 0.2 0.1 0.3 0.1 0.2 0.1 0.3 0.2-0.1 0-0.2 0-0.1-0.1-0.2-0.1-0.1 0-0.2 0-0.1-0.1-0.2-0.1v0.2c-2.2-0.7-2-1.6-4.2-2.3 0.3-0.1 0.7-0.3 1-0.4-1-0.5-1.6-0.8-2.5-1.3q0.2 0.2 0.4 0.3 0.1 0.2 0.4 0.3 0.2 0.2 0.4 0.3 0.2 0.1 0.4 0.2c-1.2-0.2-0.8-0.5-0.5 0.6q-0.4-0.3-0.7-0.5-0.4-0.3-0.8-0.6-0.4-0.2-0.8-0.5-0.4-0.2-0.8-0.4-0.2 0-0.4-0.1-0.2 0-0.4-0.1-0.2 0-0.4-0.1-0.2-0.1-0.4-0.2l0.1-0.2c-1.4-0.4-2.8-1.1-4-1.5-0.5-0.5 0.2-1-0.5-1.3 0 0.6-0.4 0.3-1.1 0-0.5 0.1-1.5-0.6-2.2-1.1-0.1 0-0.1 0-0.3 0.1v-0.3c-0.1-0.3-0.4-0.6-0.5-0.9q-0.4-0.2-0.8-0.3-0.4-0.2-0.9-0.3-0.4-0.1-0.8-0.2-0.4-0.1-0.9-0.2c-0.5-1.7-5.7-2.2-5.2-3.3-3.2-0.8-6-3-8.7-3.7 1.7-0.4 5.3 1.9 7.8 2.7 0.4 0 0.7 0 0.9-0.1-1.4-0.8-3.5-1.1-5.3-2.1 0.4-0.1 0.5-0.6 0.9-0.8q-0.3-0.1-0.7-0.2-0.4-0.1-0.8-0.2-0.4 0-0.7 0-0.4 0-0.8 0.1c-0.6-0.3 0.5-0.9 1.6-0.3-1.8-1.3-5.1-1.9-7-2.4-0.6 0.6 1.2 0.8 0.8 1.4-1.3 0.2-0.7-0.9-1.7-1.2-0.4-0.2-0.4 0.3-0.5 0.4-1-1.1-3.4-2.2-4.9-3.3-0.4-0.1-1-0.3-1.4-0.5h0.7c-0.4-0.3-0.7-0.7-0.5-1.1q-0.4 0-0.7-0.1-0.3-0.1-0.6-0.2-0.3-0.1-0.5-0.2-0.3-0.1-0.6-0.3c0.3 0.5 1.4 1 1.2 1.6-3.2-2-4.7-1.2-6.9-3.1-1.1 0.4-3.4-1.2-4.6-1.6-0.1 0.3-0.1 0.4-1.3 0.1 1.7-0.6-1.5-0.8-0.4-1.4h-0.4q0 0 0 0.1 0 0 0 0 0.1 0 0.1 0 0 0.1 0 0.1-0.2 0-0.4 0-0.2 0.1-0.5 0.1-0.2-0.1-0.4-0.1-0.3-0.1-0.5-0.2 0 0 0-0.1 0.1 0 0.1 0 0 0 0 0 0-0.1 0.1-0.1c-0.2-0.1-0.4-0.1-0.7 0-1-0.1-1.8-1.2-0.6-0.9-0.8-1.1-2.9-1.3-4.4-1.4 0.1 0.3 0.7 0.4 0.5 0.8-1.9-0.5-0.8-1.8-2.5-2.3-1.5-0.4-5.4 0-5.1-1.5q0.1 0.1 0.3 0.2 0.2 0.1 0.3 0.1 0.2 0 0.4 0 0.2 0 0.4 0c0.1-0.3-1.4-1.1 0.1-0.7-0.3-0.3-1.1-0.4-1.7-0.8 0.2 0.4-1.1 0.8-1.3-0.3 2.3-0.3 4.3 2.4 6.2 1.6 0.6 0.5 0.6 1.1 1.3 1.4 0.5 0 0.1-0.6 0.4-0.8 0 0 1.2 0.5 2.8 1.2q0.5 0.2 1 0.4 0.5 0.2 1 0.5 0.5 0.2 1 0.4 0.5 0.3 1 0.6c0.6 0.1 0.4-0.4 0.6-0.7 1.3 1.9 7.5 3.4 9.1 4.1q0.7 0.4 1.4 0.7 0.6 0.4 1.3 0.7 0.7 0.3 1.4 0.6 0.7 0.3 1.4 0.6 0.7 0.3 1.4 0.6 0.7 0.3 1.5 0.6 0.7 0.2 1.5 0.5 0.8 0.2 1.5 0.3c1.3 0.7 1.2 1.6 2.7 1.6q0.1 0.1 0.2 0.3 0 0.1 0.1 0.3 0 0.1-0.1 0.3 0 0.1-0.1 0.2l1.1 0.4c0.6 0 0.6-0.4 0.2-0.5q0.7 0.2 1.5 0.5 0.7 0.3 1.4 0.6 0.8 0.3 1.5 0.6 0.7 0.3 1.4 0.7c2.2 0.9 4.6 1.7 7.1 2.5-1.7-1.9-6.7-2.4-6.5-4.8-1.1-0.6-0.7 0.4-1.3 0.4-0.4-0.5-0.4-1-0.8-1.5-1.1 0.2-1 0-2.5-0.4-1-0.7 1.4 0.4 1.5 0.1-0.4-0.9-2.5-0.8-2.8-1.3 0.2-0.7 1.3-0.3 0.2-0.9-1.1 0-3.5-1.3-3.5-2.2-5-2.2-8.2-3.5-11.4-6.4-1-0.1 0.5 0.8 0.8 1.1-1.8-0.9-8.2-3.1-11.4-4.7q-0.6-0.2-1.2-0.4-0.6-0.2-1.3-0.4-0.6-0.2-1.2-0.4-0.6-0.3-1.2-0.6c-1.3-0.6-2.9-1.2-5.1-2.2-0.1 0.3 0.3 0.3 0.6 0.5-1.2-0.3-2.4-0.8-3.5-1.1-1.3-0.5-2.4-0.8-3.5-1.1-2.2-0.8-4.4-1.5-6.7-2.1q-0.4-0.1-0.8-0.3-0.4-0.1-0.8-0.2-0.4-0.2-0.8-0.3-0.4-0.1-0.8-0.1c-1.1-0.4-2.1-0.5-3.2-0.8-1.1-0.2-2.2-0.5-3.2-0.7-0.5-0.1-0.9-0.1-1.5-0.3-0.6 0-1-0.1-1.5-0.1 0.1-0.5 0.9-0.2 0.8-0.8-1.1-1-3.3-0.5-2.8 0.1q-0.3-0.2-0.7-0.3-0.3-0.1-0.7-0.3-0.4-0.1-0.7-0.2-0.4-0.1-0.8-0.1-0.6-0.2-1.2-0.3-0.6-0.1-1.2-0.2-0.6-0.1-1.2-0.1-0.7 0-1.3-0.1c-1.6-0.1-3.6-0.3-5.3-0.4q-0.3 0-0.6-0.1-0.3 0-0.6 0-0.3-0.1-0.6-0.1-0.3-0.1-0.7-0.2c-0.7-0.1-1.5-0.3-2-0.4-0.2 0 0-0.5 0-0.5-0.2 0-2.1 0.5-1-0.3q-0.6 0.1-1.1 0.2-0.6 0-1.1 0-0.6 0.1-1.2 0-0.5 0-1.1-0.1c-0.8 0-1.5-0.1-2.3-0.1q-0.3-0.1-0.6-0.1-0.3 0-0.5 0-0.3 0-0.6 0-0.3 0-0.6 0.1c-0.7-0.2-0.7-0.7-0.2-1h-2c-0.8 0 0.4 0.5 0 1-1.4-0.3-2.5-0.7-3.7-1q-0.5-0.1-0.9-0.2-0.5-0.1-0.9-0.1-0.5 0-1 0-0.4 0.1-0.9 0.2c0.2-0.5-0.2-0.7-0.4-1-1.4 0.5-3.6 0.2-4.7 0.2-0.3-0.7 1.1-0.5 1.3-1-1.9 0-3.8-0.4-5.9-0.6q-0.8-0.1-1.7-0.1-0.8 0-1.6 0-0.9 0.1-1.7 0.2-0.8 0.2-1.7 0.4c-1.1-1.1 2.3-0.2 2.4-1.1q-0.7 0-1.3 0-0.7 0-1.4 0.1-0.6 0.1-1.3 0.2-0.6 0.1-1.3 0.3c-1.7 0.3-3.5 0.8-4.9 0.3-0.8 0-0.2 0.6-0.9 0.8q-1.1-0.2-2.1-0.3-1-0.1-2.1 0-1 0.1-2.1 0.4-1 0.3-1.9 0.7c-0.6-1.4-2.4-1.3-4.5-0.8q-0.4 0.1-0.8 0.2-0.4 0.1-0.8 0.2-0.4 0.1-0.8 0.1-0.4 0.1-0.8 0.1h-1.5q-0.2 0-0.4 0-0.1 0-0.3 0-0.2 0-0.4 0-0.1-0.1-0.3-0.1-0.9 0.4-1.9 0.7-1 0.3-2 0.5-1 0.2-2 0.3-1 0.1-2 0.1c-0.7 0.1-0.9 0.6-1.3 0.9-1.4 0.3-0.3-0.1-0.5-0.6-1 0.1-1 0.6-2 0.9 0.2 0.2 0.7-0.1 1.1-0.1-2.1 1.1-5.3 1.6-7.8 2.3 1.3-0.9 4.8-2.2 6.2-1.9 0.2-0.1 0.1-0.4 0.5-0.6-0.5-0.6-2.6-0.3-3.5 0.6-1.2 0-2.2-0.1-3.3-0.1-1.7 0.3-0.4 1.4-1.8 1.7-0.6-1.1-2.2-0.8-3.9-0.1-1.7 0.6-3.3 1.4-4.2 0.8-2.1 1.2-6.1 2.2-9.3 3 0.8-1 0.3-1.1-1-0.8 2.1-1.3 1.8 0.3 4.1-1.6q-0.3-0.2-0.6-0.3-0.3-0.1-0.6-0.2-0.3 0-0.6 0.1-0.3 0.1-0.6 0.2c1.9-0.1 0.3 0.4-1.3 1 0.6-0.3 0.6-1 0.7-1.4 3-1 8.7-2.9 10.8-5.1q-0.6 0.1-1.1 0.3-0.5 0.1-1 0.3-0.6 0.1-1.1 0.3-0.5 0.2-1 0.4c0.1 0.4 0.5 0.6 1.2 0.3 0.2 0.3-1.2 0.5-1.6 0.8 0.8-1.1-1-0.5-1.1-1.1l2-0.8c-0.4-1.1-3.6 1.1-4.7 0.8-0.1-0.8 1.3 0 2.4-1.1-0.9-1-2.4 0.4-3.8 0.4 0.6-1.6 3.6-1.7 5.4-2.7 1.2-0.6 0.6-1.1 2.4-1.1q0.1-0.2 0.3-0.3 0.2-0.2 0.3-0.4 0.2-0.1 0.4-0.3 0.2-0.1 0.4-0.2 0.3-0.2 0.6-0.4 0.3-0.2 0.6-0.3 0.3-0.2 0.7-0.3 0.3-0.2 0.6-0.3c-0.1 0.3-0.6 0.5-0.6 0.8q0.7-0.1 1.2-0.4 0.6-0.3 1-0.7 0.5-0.4 0.8-0.9 0.3-0.6 0.4-1.2c-0.7-0.3-1.3 0.6-2.2 0.5 2.6-1.1 0.8-1 2.3-2.6 2.3-0.6 5.7-1.4 4.8-2.3 2.9-1.5 5.5-1.5 6.9-2.9 2.7 0.7 5.2-1.4 7.1-2.5q-0.6 0-1.2 0-0.6 0.1-1.2 0.2-0.6 0.1-1.2 0.2-0.6 0.2-1.1 0.4c-0.4-0.7 1.6-1.6 2.1-1.3q0.2-0.1 0.3-0.2 0.2-0.2 0.3-0.4 0.1-0.2 0.2-0.4 0-0.2 0-0.4c-2.2 0-4 1.9-5.8 1.2q1-0.5 2-0.9 1-0.5 2.1-0.9 1.1-0.5 2.2-0.8 1-0.4 2.1-0.7c1.4-0.3 6.3-0.5 4.5-1.1 1.1-0.8 5.4 0.2 5-1.9q0.3-0.1 0.6-0.2 0.3-0.1 0.6-0.2 0.3 0 0.7-0.1 0.3-0.1 0.6-0.1l2.5-0.5c1.5-0.3 3.2-0.6 4.9-1q0.6-0.1 1.2-0.3 0.7-0.1 1.3-0.3 0.7-0.1 1.3-0.2 0.7-0.2 1.3-0.3c1.8-0.3 3.8-0.4 5.7-0.8 0-0.4-1.5 0.2-2.2 0 1-0.6-0.6 0-0.4-0.7q0.4 0 0.9 0 0.4 0.1 0.8 0.2 0.5 0.1 0.9 0.2 0.4 0.2 0.9 0.3c1.5-0.8 3.6-0.8 5.7-0.8 2 0 3.8 0 4.7-0.9 1.5 0.3 2.3 0.3 2.2-0.5 2.6 0.7 4.5-0.9 6.8-0.3-0.1-1.1-1.5-1.3-3-1.3-1.6 0-3.4 0.4-4.5 0q0.7-0.1 1.5-0.2 0.7-0.1 1.5-0.1 0.7-0.1 1.5-0.1 0.7 0 1.5 0 0.8 0 1.6 0 0.7 0 1.5-0.1 0.8 0 1.6-0.1 0.8-0.1 1.5-0.2 0.7 0.2 1.4 0.3 0.6 0.1 1.3 0.2 0.6 0 1.3 0.1 0.7 0 1.3 0.1 0.7 0.1 1.3 0.2 0.6 0 1.2 0.1 0.7 0.1 1.3 0.1 0.6 0 1.2 0.1c-0.1-1-0.9-1.5-2.6-1.5 0.1-0.4 1.7 0 2.4 0 0.1 0.7 1.2 1 2.2 1.3q0.5-0.2 1.1-0.2 0.5-0.1 1.1-0.1 0.6 0 1.1 0.1 0.6 0 1.1 0.2 0.6 0.2 1.3 0.3 0.6 0.1 1.2 0.2 0.6 0 1.3 0 0.6 0 1.2 0v0.4c9.5 1.6 18.1 4.3 26.6 6.5 2.9 0.8 6.4 1.8 10 2.7q1.3 0.4 2.7 0.9 1.3 0.4 2.5 0.9 1.3 0.5 2.6 1.1 1.3 0.5 2.5 1.1c1.4 0-0.1-1.1-0.8-1.4q1.4 0.4 2.8 0.8 1.7 0.6 3.4 1.2c-0.1 1-0.9-0.4-1.5-0.1-0.1 0.5 1.5 0.6 2.1 0.9 0.6 0.2-0.1-0.3 0.1-0.6q1.4 0.4 2.7 0.9c0.8 0.2 2.2 0.8 0.8-0.3 0-0.1 0.2-0.1 0.3-0.1q-0.4-0.2-0.8-0.4-0.4-0.2-0.8-0.3-0.4-0.2-0.8-0.3-0.4-0.1-0.8-0.1c0.8-0.2 0.1-0.2 0.3-0.8-1.1-0.7-0.9 0.3-2-0.3 0.2-0.4 0.6 0 0.9 0-1.3-0.5-2.5-1.2-3.8-1.6l-3.8-1.5c-0.2-0.1-0.5-0.1-0.8-0.3q0.1 0.1 0.1 0.2 0.1 0 0.2 0.1 0.1 0 0.2 0 0.1 0 0.2 0c-1 0.4-1.7-0.4-2.5-0.9-1.5-0.6-3.1-1.1-4.6-1.6-2.3-0.6-4.7-1.4-7.1-2.1l-3.5-1.1q-0.4-0.1-0.8-0.3-0.5-0.1-0.9-0.3-0.5-0.1-1-0.2-0.4-0.2-0.9-0.3c-0.9 0 0.3 0.5-0.5 0.7-2-0.5-4.3-0.4-4.5-1.8-1.8-0.1-3.7-1.1-5-0.3-0.7-0.8-2.3-0.3-2.5-1.1-0.8-0.2-0.8 0.5-1.2 0.6-0.9-0.3-5.3-2.2-6-1.2-1.7-1.5-4.6-0.8-5.3-1.9-0.8 0.1-2 0-1.7 0.9-0.4-0.2-0.3-0.5-0.3-0.8-0.8 0-1.8-0.1-2.7-0.1q-0.4 0-0.8 0-0.3 0-0.7-0.1-0.4 0-0.7 0-0.4-0.1-0.8-0.1c-2-0.2-4.1-0.5-6.2-0.8q-0.6-0.1-1.2-0.2-0.5 0-1.1-0.1-0.6-0.1-1.2-0.1-0.5 0-1.1-0.1-0.2 0-0.4 0-0.1 0-0.3 0-0.2 0-0.4 0-0.1-0.1-0.3-0.1h-0.4q-0.8-0.1-1.5-0.1-0.8-0.1-1.5-0.1-0.8 0-1.5 0.1-0.8 0-1.5 0.1c0.6-1-1.9 0-1.9-0.7q-5.1 0.2-10.1 0.5-5 0.3-10 0.8-4.9 0.5-9.9 1.1-5 0.5-10 1.3c3.9-1 8.2-1.6 12.6-2.2l3.3-0.5c1.1-0.2 2.2-0.2 3.3-0.3 1.7-0.2 3.2-0.3 4.9-0.5-0.7-0.3 0.1-1.3-1-1.3 0.3-0.3 0.9-0.3 0.7-0.8 1.1 0 2.9 0.5 3.5-0.3 1.1 0 0.1 1-0.3 1.1-1.2 0.3-1.5-0.1-2.8 0.2-0.1 0.6 1.2 0.3 1 0.9h0.6c1.1 0 2.2-0.1 3.3-0.1h9.7q3.1 0 6.2 0.3c1.2 0.2 2.5 0.2 3.7 0.3q0.2 0 0.4 0 0.1 0 0.3 0 0.2 0 0.4-0.1 0.1 0 0.3 0v0.3h0.6c0.8-0.2-0.7-1.1 0.8-1.3q0.3 0.3 0.7 0.5 0.3 0.2 0.7 0.3 0.4 0.2 0.8 0.2 0.4 0 0.9 0c0.2 0.7 1.9 0.7 3.8 0.7 0-0.2 0-0.4-0.1-0.5q0.3 0.1 0.7 0.2 0.4 0.1 0.9 0.2 0.5 0 0.9 0.1 0.5 0 1 0 0.3 0.1 0.5 0 0.3 0 0.5 0 0.3 0 0.6 0 0.2-0.1 0.5-0.1c0.7-0.2 1.4-0.2 1.9-0.3v0.6q0.4 0 0.9 0 0.4 0 0.8 0 0.4 0 0.8 0.1 0.4 0 0.9 0.1c0.1-0.4 0.8-0.5 0.8-0.8q0.4 0.1 0.8 0.2 0.4 0.1 0.8 0.1 0.5 0.1 0.9 0.1 0.4 0 0.8 0c0.7 0.2 1.6 0.4 2.3 0.5l0.1 0.2q0.3 0 0.6 0.1 0.3 0.2 0.5 0.3 0.3 0.1 0.5 0.3 0.3 0.2 0.5 0.4c0.1 0.6-0.9-0.5-1.1-0.2q0 0.1 0.1 0.2 0.1 0.1 0.2 0.2 0.1 0.1 0.2 0.1 0.1 0.1 0.2 0.2 0.1 0 0.3 0.1 0.2 0 0.4 0.1 0.1 0 0.3 0 0.2 0.1 0.4 0.1 0.1-0.1 0.2-0.1 0.2 0 0.3 0 0.2 0.1 0.3 0.1 0.2 0.1 0.3 0.1c2.5 0.4 4.8 0.8 7.2 1.3q2.3 0.6 4.5 1.3v-0.2c0.7 0.2 0.8 0.3 0.9 0.5 1.4 0.5 3 1.1 4.5 1.7 0.1-0.3 0-0.3-0.2-0.4 3.7 1.1 7.3 2.2 11.2 3.1l6.2 1.9c0.9 0.2 1.6 0.5 2.4 0.7q0 0 0.1 0 0 0 0 0 0.1 0 0.1 0.1 0 0 0.1 0 0.4 0.1 0.9 0.3 0.5 0.1 1 0.2 0.4 0.2 0.9 0.3 0.5 0.2 0.9 0.3 0.2 0.1 0.5 0.2 0.2 0.1 0.4 0.2 0.2 0.1 0.5 0.1 0.2 0.1 0.4 0.2c-0.4-0.5-1.2-0.7-0.8-1.3 1.5 0.3 1 1 2.2 1.3-0.3 0.1-0.4 0.1-0.4 0.3 2.8 0.8 5.6 1.7 8.2 2.7q0.1 0 0.2 0 0.1 0 0.2 0.1 0.2 0 0.3 0.1 0.1 0 0.1 0.1c0.5 0.2 0.7 0.3 1.2 0.5 0.7 0.3 1.3 0.4 2 0.8-0.1-0.4 0-0.5 0.5-0.4 0.1 0.4 3.2 2.1 4 1.8q0.2 0.2 0.4 0.5c0.3 0.1 0.4 0.1 0.7 0.3 0 0 0-0.2 0.3-0.2q0.1 0.1 0.1 0.2 0.1 0.1 0.2 0.2 0.1 0.1 0.2 0.1 0.1 0.1 0.2 0.2 0.1 0.1 0.3 0.2 0.1 0 0.3 0.1 0.1 0.1 0.3 0.2 0.2 0 0.3 0.1 0.4 0.1 0.7 0.1 0.3 0.1 0.6 0.2 0.3 0.1 0.6 0.2 0.3 0.1 0.6 0.3c0.2 0.1 0.2 0.3 0.3 0.5 0.4 0.1 0.9 0 0.9-0.4q3 1.8 6.2 3.4v-0.2q0.1 0.1 0.3 0.2 0.1 0 0.2 0.1 0.1 0.1 0.3 0.2 0.1 0.1 0.2 0.2c1.1 0.4 2.1 0.7 3.2 1.2q5 2 10.1 3.7l-0.2 0.8q1.1 0.3 2.3 0.6 1.1 0.4 2.3 0.8 1.1 0.4 2.2 0.9 1.1 0.5 2.2 1 1.1 0.5 2.3 1.1 1.1 0.5 2.2 1.1 1.1 0.6 2.1 1.2 1.1 0.7 2.2 1.3c0-0.3-0.5-0.4-0.7-0.6 2.5 0.6 6.1 4 8.9 3.5 0.2 0.5 0 0.5-0.3 0.6 4.7 1.8 10.7 4.2 13.3 6.4 1.3 0.6-0.5-1.1 0.6-0.5q1.3 0.8 2.7 1.6 1.3 0.8 2.7 1.4 1.5 0.7 2.9 1.2 1.5 0.6 3 1c-0.3-0.1-0.5-0.1-0.6-0.3-1.1-0.1-1.9-0.9-3.8-1.7 0.3 0 0.6-0.3 0.5-0.5-2-1.3-3.9-2.7-5.9-3.8-0.3 0.3-1.2-0.3-1.2 0.1-0.7-0.4-0.7-0.6-0.2-0.7-0.5 0-0.9-0.5-1.4-0.8-0.2-0.2-0.4-0.2-0.7-0.4q0 0.1-0.1 0.1 0 0.1 0 0.2-0.1 0-0.1 0.1 0 0.1 0 0.1-0.1-0.1-0.2-0.2-0.1-0.1-0.1-0.2-0.1-0.1-0.2-0.2 0-0.1-0.1-0.2l-1.2-0.4c-0.2 0-0.2 0.1 0.2 0.4q-0.5-0.3-1-0.6-0.1 0-0.1 0 0 0 0 0c0.2-0.3 0.3-0.3 1 0h0.3c0-0.2-0.2-0.3-0.2-0.5h0.3c-0.1 0-0.3-0.1-0.4-0.1v0.1q-0.3-0.1-0.6-0.2-0.4-0.1-0.7-0.2-0.3-0.1-0.6-0.2-0.3-0.2-0.6-0.3-0.3-0.1-0.5-0.2-0.4-0.4-0.8-0.8-0.1 0-0.3-0.1-0.1-0.1-0.3-0.2-0.1-0.2-0.3-0.4-0.1-0.2-0.3-0.3-0.1-0.2-0.3-0.4-0.2-0.1-0.5-0.2-0.3-0.1-0.5-0.2-0.3-0.1-0.6-0.3-0.2-0.1-0.5-0.3-0.1 0.2 0 0.3c-0.2 0-0.4-0.1-0.8-0.3-0.1-0.4 0.4-0.3 0.5-0.6-0.2-0.2-2.5-1.9-2.9-1.1q-0.2-0.2-0.5-0.3-0.3-0.1-0.6-0.3-0.2-0.1-0.5-0.3-0.3-0.1-0.6-0.2c0.1-0.5-0.3-0.8-0.1-1.1 1.4 0.1 2.6 1.6 3 0.5-0.3-0.2-0.4-0.4-0.7-0.5l-0.1 0.1c-0.6-0.9-1.3-0.4-2.5-1.2-0.2-0.8 1.6 0 2.3 0.6 0.7 0.5 1.6 1.1 2.1 1.4h-0.2c0.9 0.7 2.6 1.1 3.7 2.1-1 0-0.7 0.3 0.2 0.8 1.5 0.6 3.1 1.4 5.1 2-0.3-1.2-3.5-2.5-5.3-3 0.3-0.3 0.8 0 1-0.3-1.5-1.1-1.5 0.2-3.1-0.8q0.5-0.1 1-0.1 0.4 0 0.9 0.1 0.5 0 0.9 0.2 0.4 0.2 0.8 0.5c-1.6-1.8-4-1.2-6.9-3.1-0.2-0.9-1.8-1.9-3.4-2.3 0.6-1.8 2.5 0.8 3.2 1.5 2.3 0.7 3.1 1.6 5.5 2.6 0.4 0.1 0.3 0 0.1-0.2 2.8 1.5 2.2 2.2 4.7 3.5 0-0.1 1 0.2 1.9 0.3-1-1.1-2.7-1.4-4.1-2.7-0.3-0.4 0-0.9-0.3-1.4-1.5-0.9-4.3-1.3-5.2-2.7q1 0.4 2 0.8 1 0.4 2.1 0.9 1 0.4 2 0.9 0.9 0.5 1.9 1.1c-0.5 0.4-0.7-0.4-1.8-0.8-0.8 1.2 1.8 1.1 1.7 2.3 1.9 0.8-0.3-2.3 1.9-0.7-0.1 0.1-0.5 0-0.8-0.2q0.1 0.1 0.2 0.2 0.1 0.2 0.3 0.3 0.1 0.1 0.2 0.2 0.1 0.1 0.3 0.2c0.9-0.7 2.9 0.7 5.9 2.1-0.1-0.5-1.5-1.4-0.9-1.3l0.8 0.5q-0.1-0.1-0.2-0.1-0.1-0.1-0.2-0.2-0.1 0-0.2-0.1-0.1 0-0.2-0.1c-1.4-0.6-3.8-1.7-5.6-2.5q0 0.1 0 0.1-0.1 0.1-0.1 0.1-0.1 0-0.1-0.1-0.1 0-0.1-0.1-0.2-0.1-0.4-0.2-0.2-0.1-0.4-0.1-0.2-0.1-0.4-0.1-0.2-0.1-0.4-0.1c-1.7-1.6-6.2-3.3-8.5-3.5-3.6-1.4-9.1-4.1-14.3-6.1-8.4-5-18.1-9.2-28-13.5-5-2.2-10-4.3-14.9-6.4-2.3-0.9-4.9-2-7.2-3.1q-0.9-0.4-1.8-0.8-0.9-0.5-1.8-0.9-0.9-0.4-1.8-0.9-0.8-0.4-1.7-0.9c-2.9-0.7-6.4-1.9-8.6-1.9 0.1-0.5 3.4 0.1 0.7-1 0.5-0.3 2.1 0.2 2.2-0.6q-0.6-0.3-1.2-0.6-0.7-0.3-1.3-0.6-0.7-0.3-1.3-0.5-0.7-0.2-1.4-0.4-0.6-0.1-1.3-0.3-0.7-0.2-1.3-0.5-0.7-0.2-1.3-0.5-0.6-0.4-1.2-0.7c0.8-0.2 0.4-1.3-0.4-1.8-1.3 1.5-5.3 0-7.2 1-1.4-0.2-1.3-0.7-2-1 2.4 0.5 3.5-0.3 6.1 0.5 0.7-0.6-1-0.8-1.4-1.3q0.4 0 0.7 0 0.4 0 0.7 0.1 0.4 0 0.7 0.1 0.4 0.1 0.7 0.1c0.2-0.6-0.5-0.6 0.2-0.9q-2.1-0.7-2.5 0c-1.3-0.5-2.6-0.8-3.7-1.1q-0.4-0.1-0.8-0.2-0.5-0.1-0.9-0.2-0.4-0.1-0.9-0.1-0.4-0.1-0.8-0.1-0.7-0.5-1.5-0.9-0.7-0.4-1.5-0.7-0.8-0.3-1.6-0.5-0.9-0.2-1.7-0.3c-2.4-0.3-4.7-0.5-6.5-0.7-1.1-0.1-0.7-0.6-1.6-0.8q-0.3-0.1-0.6-0.2-0.3-0.1-0.7-0.1-0.3-0.1-0.6-0.2-0.4 0-0.7-0.1c-0.8-0.1-2-0.1-2.9-0.3-2.1-0.2-4.3-0.3-6.4-0.5-1.1-0.1-2.3-0.1-3.2-0.3-1.1-0.2-2.1-0.2-3.1-0.3q-0.7-0.1-1.3-0.1-0.7-0.1-1.4-0.3-0.6-0.1-1.3-0.3-0.6-0.2-1.3-0.4c-1.4 0.3-2.8-0.2-2.8-1.1 1.6-0.8 5.1-0.4 6.3-1.1-0.1-0.8-0.6-1.5-1.9-1.6-1 0.8-3.4-0.7-3 0.9-0.7 0.7-0.5-1.1 0-1.1q-0.6 0-1.2-0.1-0.6-0.1-1.2-0.2-0.6-0.1-1.2-0.3-0.6-0.1-1.2-0.3-0.5-0.2-0.9-0.4-0.5-0.2-1-0.3-0.4-0.1-0.9-0.2-0.5-0.1-1-0.1c1.1-0.5 2.5-0.1 4.2 0.2 0.8 0.1 1.8 0.3 2.8 0.4q0.4 0.1 0.8 0.2 0.4 0 0.8 0.1 0.4 0 0.9 0 0.4 0.1 0.8 0.1c0.4 0 0.4-0.4 0.4-0.7q-0.3 0-0.6-0.1-0.3-0.1-0.6-0.1-0.3 0-0.7-0.1-0.3 0-0.6 0c0-0.3 1.7-0.3 2.4-0.3-0.3-1-3.2-0.8-4.2-1.3 0.4-1.1 3.1 0.5 4.2-0.6 1.9 0.6 8.3 2.1 8.3 0q4.3 0.7 8.5 1.3c1.5 0.1 2.9 0.3 4.3 0.4 1.4 0.2 2.8 0.5 4.2 0.7 2.8 0.3 5.6 0.8 8.3 1.1l8.4 1.4c2.8 0.5 5.6 1 8.2 1.6 2.6 0.6 5.3 1.1 7.9 1.9q2 0.5 3.9 1.1 1.9 0.5 3.8 1.2 1.8 0.6 3.7 1.4 1.8 0.7 3.7 1.5c0.9 0.2-0.5-0.5 0.5-0.5 1.1 1.2 2.8 0.8 3.9 1.8-0.8-1.4-3.9-2.1-5.8-2.5q-0.5-0.2-0.9-0.3-0.5-0.2-0.9-0.4-0.4-0.2-0.9-0.4-0.4-0.2-0.8-0.4c-1.3-0.4-2.5-0.9-3.6-1.2-1.7-0.5-4.2-1.3-6.8-2.3-2.8-0.8-5.7-1.7-8.5-2.5-1.1-1.7-4.3-1.6-6.4-2.4 0.4-0.3 1.8-0.1 3.3 0.3 1.4 0.5 2.9 1.2 3.6 1.5q0.7-0.2 1.3-0.3 0.6-0.1 1.3-0.1 0.6 0 1.3 0.1 0.6 0 1.3 0.1l-0.2 0.6q0.4 0 0.7 0.1 0.3 0 0.6 0 0.3 0.1 0.6 0.2 0.3 0.1 0.6 0.2c0.2-0.3-0.4-0.6-0.3-0.9 0.9 1.4 4.1 1.4 5.7 1.4 1.3 0.6-0.5 0.5-0.5 0.8 1.4 0.5 1.5 0.1 2.8 0.9 0.9 0.4 0.3-0.6-0.3-0.8 1.2 0.2 2.1 1.2 4 1.2 0.7-0.7-2.1-0.8-0.5-1.2q-1-0.4-1.9-0.8-0.9-0.4-1.9-0.9-0.9-0.4-1.8-0.9-0.9-0.5-1.8-1c0.6-0.3 5.6 2.4 6.5 1.7-2.3-1.5-6.2-2.6-9.1-3.4 0.5-0.5 1.9-0.4 3.7 0.4 0-0.1-0.5-0.3-0.8-0.4q0-0.2 0.2-0.2 0 0-0.1 0-0.5-0.2-1.1-0.4-0.5-0.2-1-0.5-0.6-0.2-1.1-0.5-0.5-0.3-1.1-0.6-0.6-0.3-1.1-0.5-0.6-0.2-1.2-0.4-0.6-0.2-1.2-0.4c1.1-1.5-4.3-1.5-4.3-2.7q1.1 0.4 2.3 0.7 1.1 0.4 2.2 0.7 1.2 0.3 2.4 0.5 1.1 0.3 2.3 0.5 1.1 0.1 2.1 0.3 1.1 0.3 2.1 0.6 1 0.3 2 0.7 1.1 0.4 2 0.9c0.6 0 1.1 0 0.6-0.3q0.4 0 0.9 0 0.4 0.1 0.9 0.2 0.4 0.1 0.8 0.2 0.4 0.2 0.9 0.4c1.3 0.4 2.6 1.1 3.6 0.9 1.6 2.4 6.1 2.6 9.1 3.7 2.6 1.7 7 3.6 11.5 5.5 4.3 2.1 8.9 4.1 11.5 5.9 1-0.6 2.2 1.1 4.9 1.3-0.3 0.3-0.9 0-1 0.3q0.5 0.1 1 0.2 0.5 0.1 1 0.3 0.4 0.1 0.9 0.3 0.5 0.1 1 0.3c-0.4-0.2-1-0.8-1.7-1 0.4-0.3 1.1-0.1 2.1 0.3-0.1 0.4 0 0.5 0.3 0.7q-0.1 0-0.1 0.1-0.1 0-0.1 0-0.1 0-0.1 0-0.1 0-0.1 0l2.5 1q0.8 0.3 1.6 0.6 0.8 0.3 1.7 0.5 0.8 0.3 1.6 0.5 0.9 0.2 1.7 0.4c0.2-0.6-2.9-1.1-2-1.7 4.3 2.1 6.3 3.7 9.8 4.1 0 0.7 1 1.1 1.6 1.8 0.8 0.1 0.5-1.1 1.8-0.2 0.1 0.8-0.9 0-1 0.5q0.6 0.2 1.3 0.4 0.6 0.2 1.2 0.5 0.6 0.3 1.2 0.6 0.6 0.3 1.2 0.7c-1-0.9 0-0.6-0.3-1.6-1.4-0.9-1.3 0.2-2.8-0.9 1-0.5 3.3 0.9 4.2 0.3 0.5 0.1-0.2 1.1-1 0.5-0.4 0.8 0.8 2 2.2 2.5q0.2 0 0.4 0 0.1 0 0.3 0 0.2 0 0.4 0.1 0.1 0 0.3 0.1c-0.1-0.4-0.7-0.5-1-0.7 0.9 0 1.3-0.5 2.3-0.1-0.5 0.6 0.1 1.2 0.8 2.3 1.4 0.2 4 2.3 5.3 2.3-0.3-0.8-3.5-1.6-2.7-2.4 1.4 1.6 2.4 1.2 3.8 1.4-0.8 0.8 5.3 3.8 6.3 2.7 1.2 0.6 1.5 2.2 2.3 1.6 0.3 0.9 2.1 1.9 3.6 2.8 0.3-0.3-0.1-0.4-0.5-0.7 1-0.4 3.2 3.3 5 2.5-0.3 0.3-0.2 0.5 0.1 0.6 0.6 0 0-0.5 1-0.3 1 0.6 0.3 0.5 0 1q0.5-0.1 0.9-0.1 0.5 0 1 0 0.5 0 0.9 0.1 0.5 0 1 0.1c-0.2 0.3 0 1 1.3 1.8-1.5-1.9 2.3-0.4 1.9 0.6 0.4 0.2 1.8 0.2 0.9-0.5 0.2 0 0.3 0.3 0.7 0.7 1 0 1.3-0.7 2.5 0-0.7 0.1-1.1 0.6-2.2 0.1q0.2 0.3 0.5 0.5 0.3 0.2 0.7 0.3 0.3 0.2 0.7 0.2 0.4 0 0.7 0c1.9 2.2 6.2 3.3 7 2.5 0.1-0.3 1.7 1 1.9 1.3 1 0.6 0.6-0.6 1.7 0.1q-0.4-0.3-0.8-0.5c0.4 0.1 0.8 0.2 0.9-0.1-1.2-0.3-0.7-0.8-1.2-1.1-0.2 0.3-0.9 0.1-1.2 0.2q-0.6-0.3-1.2-0.7-0.9-0.5-1.8-0.9-1-0.4-1.9-0.8c-0.3 0.8 1.9 1.2 1.6 2-1.8-1.2-1.5 0.5-3.3-0.9 0.2-0.2 0.7 0.1 1.1 0.3-0.4-1.6-2.3-3.2-4.8-4.8 1.6 0.2 3.7 2.1 4.4 2.9 0.6-0.2 1.5 0.3 2.5 0.6-2.4-1.1-4-2.4-7.2-4.1 0.3-0.6 1.8 0.3 2.6 0.5 1.1 0.8 1.7 1.6 2.9 2.4 0.4 0.1 0.2-0.4-0.1-0.6q1.9 1 3.8 2.1c0-0.1 0.1-0.4 0.1-0.6-1.5-0.2-3.3-2.1-5-2.2-0.2-1.4 6.7 2.2 5.1 3-0.2-0.1-0.3 0-0.4 0.2 1.1 0.3 2.1 0.4 2.2-0.5 1.8 1.9 3.5 1.1 5.3 1.4 1.3 1.6-2.1-0.2-2.5 0.2 0 1.2 2.2 0.3 3.1 1.6 1.4 0.1-0.9-1.3 0.4-1.2 3.1 1.8 7.1 4.8 10.3 5.4 0-0.3-0.7-0.6-1.3-0.9 1.2 0.1 1 0.1 1.4-0.3 0 0.3 1.6 1.1 0.7 0.3 1 0 2.3 2.2 3.6 2.2-0.2 0.2-0.4 0.2-0.5 0.5l1.4 0.6c-0.1-0.2-0.2-0.5-0.3-0.6 5.1 3.1 11.9 5.4 16.5 8.7 0.9 0.3 0-0.6-0.5-0.8q0.1 0 0.2 0 0.1 0 0.2 0 0.1 0.1 0.2 0.1 0.1 0 0.2 0.1c-0.3-0.2-0.5-0.5-0.8-0.7q-0.1 0-0.2 0.1-0.1 0-0.3 0-0.1 0.1-0.2 0.1-0.1 0.1-0.1 0.1c-0.6-0.4-1.3-0.9-1.2-1.5 0.7-0.4 1.9 1.2 1.9 0.3 1.3 0.7 3.5 1.5 4.7 1.3q0.1 0 0.3 0.1c0.2-0.2 0.7 0 1.1 0.3l0.1 0.2c-0.1-0.3-0.3-0.5-0.4-0.8q-0.3-0.2-0.5-0.3 0.1 0 0.1 0l-0.2-0.2q-0.1 0-0.3 0-0.1 0.1-0.2 0.1-0.2 0-0.3 0.1 0 0 0 0-0.2 0-0.4 0-0.2-0.4-0.5-0.7-0.3-0.4-0.7-0.7-0.4-0.4-0.8-0.7-0.5-0.2-0.9-0.5c-0.5-0.1-0.5 0.3-0.6 0.7-0.7-0.4-0.5-0.7-0.4-1q-1-0.2-2-0.5-1-0.3-2-0.7-1-0.3-1.9-0.7-1-0.5-1.9-0.9c-2.6-1.3-5.4-2.9-8.2-4-3.5-1.4-7.8-3-10.2-4.4-1.8-1.2-6.4-2.1-6.9-3.5-3.2-1.8-6.1-3.2-8.9-4.6-2.8-1.5-5.3-2.6-7.8-4h-0.6c0 0 0-0.2 0.2-0.2 0.3-0.3 0.8 0 1-0.3 0.2-0.4-1.3-0.8-1.7-1.1-0.7 0.5 1.1 0.8 0.4 1.3-2.5-1-6.9-3.7-10-5.1 0.4 0.5 1.8 0.8 1.5 1.4q-0.1 0-0.3-0.1-0.2-0.1-0.4-0.2-0.1-0.1-0.3-0.1 0-0.1 0-0.2-0.1-0.1-0.3-0.2-0.2-0.1-0.4-0.2-0.2 0-0.4 0-0.2 0-0.4 0.1c0.2 0.2 0.3 0.2 0.4 0.3 0.2 0 0.5 0.1 0.7 0.2 0 0.7 1.5 1.4 2.7 2-0.2 1-2.3-0.9-3.4-1.2q-0.1-0.1-0.1-0.3c0.3 0.1 0.5-0.1 0.7-0.2-0.3-0.2-0.4-0.2-0.7-0.3q-0.1 0-0.2 0-0.1-0.2-0.5-0.3l-0.1 0.1q-0.2-0.1-0.3-0.2-0.1-0.1-0.2-0.2 0-0.1-0.1-0.3-0.1-0.1-0.1-0.2c-1.3-0.2-2.8-1.3-4.1-2.3 1.3 0.4 2.3 1.5 4.1 2.1q0-0.1 0-0.1 0-0.1 0-0.1 0-0.1 0-0.2 0.1 0 0.1-0.1c-0.1 0-0.3-0.1-0.6-0.4-0.5 0.4-1.2-0.5-2.5-1 0-0.2 0.2-0.3 0.2-0.5q0.4 0.2 0.4 0.1c-0.4-0.2-0.7-0.3-0.8-0.6-0.2 0.4-0.2 0.5 0.1 0.7-0.6-0.2-1.2-0.8-2.2-1.3q0.1 0.1 0.2 0.2 0.1 0.1 0.2 0.2 0.2 0.1 0.3 0.2 0.1 0.1 0.3 0.2c-0.6 0.3-1.7-0.8-2-1.4-2.2-1.3-4.7-2.6-5.4-2.1-0.7-0.3-0.2-0.8-1.3-1.1-0.5-0.3-0.8-0.1-0.9 0.3-0.6-1.2-6.4-3.6-8-4.4 0.9-0.8 4.2 1.7 5.2 1.1-1.7-0.8-3.6-1.6-5.3-2.4q-0.5-0.3-1.1-0.5-0.6-0.2-1.1-0.4-0.6-0.2-1.2-0.3-0.6-0.1-1.2-0.2c-3.1-2.5-7-4.1-11-5.9-2.1-0.8-4-1.6-6-2.5q-0.7-0.3-1.4-0.7-0.7-0.4-1.4-0.8-0.7-0.4-1.4-0.8-0.7-0.4-1.3-0.9-0.7-0.1-1.3-0.2-0.6-0.2-1.2-0.4-0.6-0.2-1.2-0.5-0.5-0.3-1.1-0.6c0.3-0.2 0.5-0.2 0.6-0.5-4.5-2.2-7.2-1.4-10.6-4.6 0.8-0.3 1.2 1 2.7 1.5 0.5 0.3 1 0.5 1.1 0.2-0.3-0.3-0.8-0.8-1.3-0.9-1.1-1.2-3.3-2.2-5-3 0.4-0.7 2.7 0.6 2.8-0.5 2.6 2.4 4.7 2.7 8.6 4.3-0.1 0.5-1.4-0.3-1.4 0.1 3.4 1 4.3 1.8 7 2.3 2.1 2 5.7 2.7 9.9 5 1.4 0.4-0.2-1.2 1.8-0.3-0.9 2.7 6.2 2.7 8.2 5.6 0.5 0 0.8 0 1-0.3q1.3 0.8 2.6 1.6 1.3 0.7 2.7 1.5 1.3 0.7 2.7 1.4 1.4 0.7 2.8 1.3 1.2 0.5 2.5 1 1.2 0.6 2.4 1.1 1.3 0.6 2.5 1.2 1.1 0.6 2.3 1.3c-0.2 0.2-0.7 0.3-0.9 0.5q0.5 0.1 1.2 0.3 0.6 0.1 1.2 0.2 0.6 0.1 1.2 0.2 0.6 0 1.2 0.1c-0.3 0.6 3.8 3 4.5 1.9 0.7 1.2 5.3 4.1 6.6 3.6 0.5 1.9 3.5 2.2 5.1 3.7 0.8 0.3-0.3-0.7 0.5-0.5 1.1 0.9 2.1 1.7 2.9 1.3 0.3 1.1 2.4 1.1 2.1 2.3 0.6-0.1 1.3 0 1 0.8 1-0.3 2.1 1.3 2.6 0.7 1 2 5.2 2.5 6.1 3.6 0.9 0 1.3-0.6 2.5 0 2.3 2.4 3.2 2.1 6.7 3.2 1 0.9-1.4-0.7-1.2 0.1 3.9 1.8 8 4 12.2 5.7q0.8 0.4 1.5 0.7 0.8 0.3 1.6 0.6 0.8 0.3 1.6 0.6 0.8 0.3 1.6 0.5 0.7 0.3 1.5 0.5 0.8 0.2 1.6 0.3 0.8 0.2 1.5 0.3 0.8 0.1 1.6 0.2c0-1-1.4-0.8-1.1-1.4q0.4 0.1 0.8 0.2 0.4 0.1 0.8 0.2 0.4 0.1 0.8 0.2 0.4 0.1 0.8 0.2c0.2 0.4-0.7 0-0.8 0.3 0.1 0.5 0.7 0.8 1.2 1.1 0.9 0.1-0.2-0.5 0.6-0.5q0.1 0.2 0.3 0.4 0.2 0.2 0.5 0.2 0.2 0.1 0.5 0.1 0.3 0 0.5-0.1c1.2 0.7 0.1 0.2 0.1 0.8 1 0.5 1.1-0.1 1.4-0.6 0.7 0.3 0.6 0.6 0.4 1q1 0.2 1.9 0.5 0.9 0.2 1.8 0.5 0.9 0.3 1.8 0.6 0.9 0.4 1.8 0.7c1.1 0.5 2.3 1.1 3.6 1.6 1.1 0.5 2.4 1 3.5 1.4 0.8 0.4 1.5 0.8 1.2 0.8q0.3 0.1 0.6 0.2 0.3 0 0.5 0.1 0.3 0.1 0.6 0.2 0.3 0.1 0.5 0.2c-0.4-0.5-0.5-1.1-0.1-1.3q0.4 0.3 0.7 0.7 0.4 0.3 0.8 0.6 0.4 0.2 0.8 0.5 0.5 0.2 0.9 0.4c-0.1 0.3-0.7 0-1.1 0 1.1 0.7 1.9 1.5 1.9 2.1 1-1.1 2.1 1.1 4.2 1.1-0.8 1.3 3.1 2.5 4.6 2.2-0.7-0.9-2.6-1.7-4.3-2 1.2-0.5 2.9 0.3 4.4 0.9q0.3 0.1 0.6 0.2 0.3 0.1 0.5 0.2 0.3 0.1 0.6 0.2 0.3 0.1 0.6 0.2 0.2 0 0.4 0 0.3 0 0.5 0 0.2-0.1 0.4-0.1 0.3-0.1 0.5-0.2c3.3 0.9 5 3 8.3 3.2-0.4 0.4-0.7 0.7 0 1.4 1.6 0.5 0.4-0.5 1.3-1 3.3 1.5 7.6 0.8 11.8 3.2 1.1 0.2 0.1-0.5 0.8-0.6 3.8 0.6 4.9 1.5 6.7 1.5 0.1 0.7 0.8 1.2 2.2 1.3-0.1 0.3-0.7 0-1.1 0-0.4 0.5 0.6 0.7 0.9 1 0.4 0-0.2-0.7 1.3 0-0.2 0.3-1.1-0.2-0.8 0.6-1.7 0-2.6-1.1-2.9 0.2-1.3-2.3-3.6 0.1-6.1-1.5q0 0.2 0 0.3 0 0.1 0.1 0.2 0.1 0.1 0.2 0.2 0.1 0.1 0.2 0.1 0.3 0.1 0.5 0.1 0.3 0 0.5 0 0.2 0 0.5 0 0.2 0 0.5-0.1c0.1 0.2 0.3 0.2 0.4 0.3q0.1 0.1 0.2 0.1 0 0 0.1 0 0.1 0.1 0.1 0.1 0.1 0.1 0.1 0.2 0.2 0.1 0.4 0.1 0.1 0.1 0.3 0.1 0.2 0.1 0.4 0.1 0.2 0 0.3 0h0.5c1.1 0 2.2-0.3 2.6 0.8q0.2 0 0.3 0 0.2 0 0.4 0 0.2 0 0.3-0.1 0.2 0 0.4-0.1l1.2 1q0.1-0.1 0.2-0.2 0.1 0 0.3 0 0.1 0 0.2 0 0.1 0.1 0.2 0.2 0 0 0.1 0 0.1 0 0.2 0 0.2 0 0.3 0 0.1 0.1 0.2 0.1c0.4 0 0.8 0.5 1.5 0.8q0.1 0.1 0.2 0.1 0 0 0.1 0.1 0.1 0 0.1 0 0.1 0 0.2 0c-0.6-0.5-0.2-0.2 0.5 0.1 0.9 0.2 1.6 0.2 2.3 0.4v-0.2q0 0 0.1 0 0 0 0 0 0.1 0.1 0.1 0.1 0 0 0.1 0.1 0.8 0 1.7 0.1 0.9 0.2 1.7 0.3 0.9 0.2 1.7 0.5 0.8 0.2 1.7 0.5 0.4-0.1 0.9-0.2 0.4 0 0.9 0 0.4 0 0.9 0 0.4 0.1 0.8 0.2c0.3-0.3 1.2 0.3 2 0.1-0.1 0.1-0.1 0.2-0.2 0.2 1.6 0.3 3.4 0.9 4.8 1.3h0.6q0-0.1 0.1-0.1 0-0.1 0.1-0.2 0 0 0-0.1 0 0 0.1-0.1c1.6 0.8 3.3-1.6 6.9-0.5-1.1 0.5-0.3 0.3 0.3 0.8 0.5-0.2 0.8-0.5 1.4-0.6 1.1 0.4 0.8 0.6 2.3 0.6-0.1 0.6-0.6 0.5-0.1 1 1-0.7 1.4-0.4 2.8-0.8-0.3 0.4 0.1 1.2 1.7 0.6q0 0.1 0 0.2c-0.2 0-0.5 0.1-1 0.1 0.1 0 0.3 0.3 0.4 0.5h1.4v-0.2c-0.4 0-1 0-1-0.3 0.3 0.1 0.6 0.2 0.9 0.2 0.5 0.1 1 0.2 1.2 0.6h0.6v0.2c0.2-0.3 0.2-0.7 0.9-0.5 0.2 0.8 0.3 0.8-0.4 1.3 0.9 0.1 0.9-0.4 0.9-1 0.2 0 0.4 0.2 0.5 0.2v-0.2c0.3 0 0.7 0.2 1.1 0.2v-0.3c0.7 0.3 1.7 0.4 2.5 0.7q0.3 0.1 0.6 0.1 0.3 0.1 0.6 0.2 0.3 0.1 0.5 0.2 0.3 0.2 0.5 0.3c0.2-0.1 0-0.3 0-0.6 4.1 0.3 4.8 1.7 9.1 1-0.4 0.3-0.2 0.3 0 0.6 1.1 0.1 1.7 0 1.9-0.5 1-0.1 0.9 0.5 1.7 0.6 1.7 0.2 1.4-1.1 3.3-0.9-0.9 0.9 2.4 0.3 3.1 0.9 1 0 1.1-0.7 2.2-0.7 0.2 0.4-0.9 0.3-0.9 0.6 1.8 0.1 2.9 0.1 4 0.1q0.5 0 1 0 0.5 0 1 0 0.5 0 1 0 0.5 0 1 0c1.7 0.2 3.8-0.3 4.7-0.1 1.2 0.1 1.6 0.8 2.5 0.9 1.7 0.2 4.9-0.8 5.5 0.2q1.3-0.2 2.7-0.4 1.3-0.1 2.7-0.2 1.3-0.1 2.7-0.2 1.4 0 2.7 0c0.2-0.9 3.9-0.3 4.7-0.2 0.9-0.1 0.3-0.3 0.2-0.7 1.1 0.1 1.7 0.6 3.2 0.3 1-0.3 0.3-0.7 0.1-1.1 0.7-0.2 0.7 0.1 0.9 0.4q0.3 0.1 0.7 0.1 0.3 0 0.7 0 0.3 0 0.7-0.1 0.3 0 0.6-0.1c0-0.2-0.1-0.2-0.4-0.3 0.3-0.4 0.9-0.4 0.7-0.8 0.6 0.3 0.7 0.6 0.6 0.9q0.6-0.1 1.1-0.3 0.6-0.1 1.2-0.2 0.6-0.1 1.2-0.2 0.6 0 1.2-0.1c-0.1-0.1-0.3-0.1-0.4-0.3 0.7 0 0.7-0.1 0.7-0.5q0.4 0.1 0.8 0.1 0 0.1 0 0.1c0.5 0.2 0.9 0.2 1.3 0.3h0.1v-0.6c0.9-0.2 1.8-0.5 3.4-0.5q-0.2 0.2-0.4 0.3-0.2 0.2-0.4 0.2-0.2 0.1-0.5 0.1-0.2 0-0.4-0.1c0.4 0.3 0.1 0.6-0.4 0.8 1.4-0.2 3-0.2 3.4-1.3 0.6 0.2 1.6 0 1.6 0.6 0.9 0 0.8-0.6 1.2-0.9 0.4 1.4 3.9-0.5 5.6-0.7 1.2-0.1 3.1 0.8 4-0.6 1.4 0.8 3.1 0.2 4.9-0.5-1 0.2-2.1 0.5-3.5 0.8 0.2-0.1 1-0.4 0.3-0.4q0.6-0.3 1.3-0.5 0.6-0.2 1.3-0.3 0.6-0.1 1.3-0.2 0.7 0 1.4 0c0.3-0.2 0.1-0.5 0.1-0.6q0.3 0 0.6 0 0.3 0 0.6 0 0.3-0.1 0.6-0.1 0.3 0 0.6-0.1c0.4-0.6 1.5-0.3 2.2-0.6 1.3-0.7-0.4-1.3 1.4-0.3 1.1-0.4 2.1-0.8 3.2-1.1q0.3-0.2 0.6-0.2 0.3 0 0.7 0 0.3 0.1 0.5 0.2 0.3 0.2 0.6 0.4c1.8-0.1 1.6-0.9 2.9-1.2 0 0.3 0.3 0.3 0.7 0.3q0.2-0.1 0.4-0.1 0.3-0.1 0.5-0.1 0.2-0.1 0.4-0.2 0.3 0 0.5-0.1 0 0 0 0.1 0 0 0 0-0.1 0-0.1 0 0 0.1-0.1 0.1c0.5 0 0.7 0 0.7 0.3 1.2-1 3.2-1.1 4.8-1.3q0.3 0 0.6 0.1 0.4 0 0.7 0 0.3 0 0.7 0 0.3-0.1 0.6-0.1c1.1-0.3 1.7-0.8 2.7-1.1 1.1-0.3 2.5 0 3.6-0.2q1-0.1 2-0.2 1-0.2 2-0.4 1-0.3 2-0.5 0.9-0.3 1.9-0.6c0.7 0.3 0.8 0.3 0.7 0.9 2.1-2 4.3-0.9 6.8-1.9-0.4-0.4-1.7-0.1-1.8-0.7 1.7 1.2 6.3-1.3 9.2-1.8-0.4-0.9-3.1 0.6-3.2-0.6-1 1.4-3.3 0.9-5.3 1.9q1-0.6 2.1-1.1 1.1-0.5 2.1-0.9 1.1-0.5 2.2-0.9 1.1-0.4 2.2-0.8c3.1-0.9 6-1.9 8-2.7-0.6-0.3-1.3-0.1-2.3 0q-0.3 0.1-0.7 0.2-0.4 0.1-0.7 0.2-0.4 0.1-0.8 0.2-0.3 0.1-0.7 0.2c-1.9 0.7-4 1.3-5.1 0.5-2 1.1-2.4 1.1-3.8 1.9 0.1-0.6-0.1-0.9-1.1-0.9-1.5 2-6.8 1.5-7.4 3.3-1.1-0.8-2.5 0.5-3.5 0.5-0.1-0.4 1-0.4 0.9-0.7-0.6-1.1-4.9 1-4.3 1.3-2-0.6-4.2 0.8-6.4 1.9-1.8-0.3-8.1 0.3-9.3 1.9-0.7 0.2-1-0.2-1-0.6-3.6 0.9-5.7 1.7-9.6 1.7 3-1.3 6-0.9 7.6-2.5-0.2-0.2-0.8 0-0.8-0.5q-0.3 0.1-0.6 0.2-0.2 0.1-0.6 0.2-0.3 0-0.6 0-0.3 0-0.6-0.1c-0.9 0.6-3 1.6-4.3 1.1-0.8 1.2-2.6 1-3.8 2 0.7-0.8-1.1-0.2-2.2-0.2q0.5-0.3 1-0.5 0.5-0.2 1-0.4 0.5-0.2 1-0.3 0.6-0.1 1.1-0.3c1.4-0.3 2.8-0.8 4.1-1.1q1-0.2 1.9-0.4 0.9-0.2 1.9-0.5 0.9-0.2 1.8-0.5 0.9-0.3 1.8-0.6c0.9 0.1 2.4 0.8 2.8-0.4 1 0 1.4 0.5 2.4 0.5-0.6-0.3 0.2-0.5 1.1-1.1 0.7-0.1 0.5 0.5 1.2 0.3 1.6-0.1 0.4-1.1 1.8-1.2 0 0.3 0.5 0.3 0.9 0.1 2.5-2 9-2 11.4-3.3q0.5 0 1.1 0 0.6 0 1.2-0.1 0.5-0.1 1.1-0.3 0.5-0.2 1-0.4 0.7-0.3 1.3-0.5 0.7-0.3 1.4-0.4 0.7-0.2 1.4-0.3 0.6-0.2 1.3-0.2c1.4-1 3.9-2.1 4.8-1.5 0.7-0.3 1-0.7 1.5-1.1-0.3 0-0.8 0.2-0.8-0.3 0.8 0.7 1.5-0.3 2.5-0.5 4-0.7 9.7-2.7 14.4-3.8 0.2 0.7-0.4 0.7-1.2 0.8 0.1 0.2 0.1 0.3-0.1 0.5 0.1 0.3 0.8 0 0.6-0.2 1.2-0.1-0.2 0.7 0.7 0.7 1.4-2.6 5.7-1.9 8.8-2.9 0-0.1-0.4-0.1-0.6 0 3.1-2.1 7.7-4.1 9.9-3.8 1.1-0.3-0.3-0.9 1-1.2-0.8 0.9 1.5 0 1.5 0.7q0.3-0.2 0.7-0.4 0.3-0.2 0.7-0.2 0.4-0.1 0.8 0 0.1 0 0.1 0c-0.6 0.6 0.2 0.7 0.8 0.7 0.7 0.4-0.8 0.6-0.3 1.1q0.3-0.1 0.5-0.3 0.3-0.1 0.5-0.3 0.2-0.1 0.4-0.3 0.2-0.2 0.4-0.4c-0.5 0.3-0.7 0.2-1 0.2q0.1-0.1 0.2-0.1c0.5-0.9 1.8-1.4 3-1.9 0.2 0.5-0.7 0.8-1.2 0.7 0 0.5-0.3 0.8 0.7 1.4 0.4-0.9 1.1 0 2.2-0.9 0.2 0.3 0.3 0.3 0.6 0.3-0.4 1.1-0.2 1.9-1.3 2.4 0.4 0 0.6 0.3 0.7 0.6 0.6-0.2 0.6-0.5 1.3-0.6 0.1 0.4 0.8 0.4 1.6 0l-0.1 0.1q0.2-0.1 0.4-0.2 0.2-0.1 0.4-0.2 0.2-0.2 0.4-0.3 0.1-0.1 0.3-0.2c1.4-0.2-0.3 0.7 0.1 1-0.6-0.4-1.2-0.1-1.7 0.2-0.2 0.5 0.4 0.8 0.9 1-0.7 0-0.9 0-1.4 0.5 0.9 0.1 0.6 1.1-0.2 1.7v0.2c0.4 0.3 0.7-0.7 1.5-0.7l0.5 1.3c-1.5 0.2-1.1 0.9-3 1.1q-0.1 0.2-0.2 0.4-0.1 0.2-0.2 0.4-0.1 0.2-0.2 0.4-0.1 0.2-0.2 0.4c-0.7-0.2-0.9 0.3-1.7 0.6-0.4-0.5-2.5 0.3-2.9 0.7q0.2 0 0.4 0.1 0.2 0 0.4 0 0.2 0 0.4 0 0.2-0.1 0.4-0.1c-0.7 1.2 0.6 1.2 2.4 0.9 0.4-0.3 0.4-0.8 0.7-1.1 1.2 1.1 3.8-0.6 5.1-0.2 0.7-0.6 1.7-2.5-0.1-1.9-0.1-0.8 2.1-1.1 2.8-1.1 0.5 0.5-1 0.7-1.1 1.1 0.3 0.5 2.2 0 0.8 0.8 0.7-0.1 1.1 0 2-0.1-0.2 0.1-0.3 0.5 0.1 0.3-0.3 0.5-2.1 1.6-1.3 1.6-1.3 0.9-2.9 1.1-4.7 2 0.4 0.5 1.4-0.3 2.1-0.6 0 1 1.3 0.2 1.3 1.1-0.2 0.3-3.1 1.1-1.9 1.4q-0.5 0.1-1 0.3-0.5 0.1-0.9 0.3-0.5 0.1-1 0.3-0.5 0.2-0.9 0.4h0.1c-0.1 0-0.4 0.2-0.6 0.2q-0.8 0.4-1.6 0.8-0.8 0.5-1.6 0.8-0.9 0.4-1.7 0.8-0.9 0.3-1.7 0.6-1.6 0.4-3.2 0.8-1.5 0.4-3.1 0.8-1.6 0.3-3.2 0.7-1.6 0.3-3.2 0.5c-1 0.5-1.9 1-2.5 0.5-1.1 0.2-2.2 0.5-3.3 0.6q-0.1 0.1-0.2 0.1-0.1 0.1-0.1 0.2-0.1 0-0.2 0.1 0 0-0.1 0.1c-0.4 0.2-0.7-0.1-1.1-0.1-0.4 0-0.7 0.1-1.1 0.1h-0.2c-0.2 0.2-0.2 0.3-0.7 0.5-0.7 0.3 0.7 0.6-0.1 1.3-0.7 0.3-1.5-1.3-1.5 0q-0.5 0-0.9 0-0.4 0-0.9 0.1-0.4 0-0.8 0.1-0.5 0-0.9 0.1-0.5 0-1 0.1-0.4 0.1-0.9 0.2-0.5 0.1-0.9 0.2-0.5 0.1-1 0.3-4.3 1.1-8.6 2.3c-1.5-0.7-5 0.7-6.5 1.2 0.1 0.6 2.2-1 1.9 0.1q-0.3 0.1-0.7 0.2-0.4 0.1-0.7 0.2-0.3 0.1-0.7 0.3-0.3 0.1-0.7 0.3c0.9-1.9-4 0.1-5.1 0.3 0.3 0.6 1.7 0 2.6-0.2-3.3 2.4-8.4 1.3-12.8 3 0-0.6-1.1 0-1.2-0.4-3.2 2-6.8 1.2-9.9 2.5q-0.8 0-1.6 0.1-0.9 0-1.7 0.1-0.8 0.1-1.6 0.3-0.8 0.1-1.6 0.3c-0.9 0.2-1.8 0.5-2.9 0.8-1 0.3-2.3 0.6-3.7 0.9q0.2 0.1 0.3 0.2 0.1 0 0.2 0.1 0 0.1 0.1 0.3 0 0.1 0 0.2c0.7-0.9 1.4 0 2.2 0.2q0.1-0.1 0.2-0.2 0.1-0.1 0.2-0.2 0.2-0.1 0.3-0.1 0.2 0 0.3 0c-0.7-0.5-2.1-0.1-2.4-0.8 1.1-0.1 1.4 0.5 3 0 0.5 0.8-0.3 1.3 1.6 0.8-0.8 0.3-0.8 1-2.1 1.1 0.2 1.4 8.2-1.1 4.3-0.5 0.9-0.7 4.5-0.4 3.5-1.4 2.5-0.8 3.2 0.2 5.2-0.3 1.5-0.5 1.9-1.6 3.3-2.1l0.1 0.5q0.3-0.1 0.5-0.2 0.2-0.1 0.5-0.2 0.2-0.2 0.4-0.3 0.2-0.1 0.5-0.2c0.7-0.2 1.2-0.3 1.5 0.4-1-0.1-2.7 0.5-2.4 1.3 1.7-1.3 7.4-1.1 11-2.8 0.6 0 0.4 0.3 0.6 0.6q0.8-0.3 1.6-0.5 0.9-0.3 1.7-0.5 0.9-0.2 1.7-0.3 0.9-0.2 1.8-0.3 0.8-0.1 1.6-0.2 0.7-0.1 1.5-0.3 0.8-0.2 1.5-0.5 0.8-0.3 1.5-0.6l0.1 0.7c1-1.2 1.8-1.2 3.5-1.3-1.5 0.6-0.4 0.9-2.6 1.4 2.2-0.3 4.3-1.3 6-0.8-0.2-0.3-0.2-0.6-0.6-0.5 0.4-0.4 2.6-0.4 3.3-0.3 0.5-0.3 2.5-1.1 1.3-1.2 1.2-0.4 2.6-0.7 4-1.1l4.2-1.5c0.3 0.8-1.4 1.1-0.3 1.8-1.4 0.3-2.8 0.4-3.9 0.8q-0.4 0.1-0.8 0.2-0.4 0.2-0.8 0.4-0.4 0.2-0.8 0.5-0.3 0.3-0.6 0.6c-0.5 0.2-0.5-0.2-0.6-0.5-0.3 0.2-0.1 0.5-0.5 0.7 0.9 0.1 5-0.2 5.4-1.6 0.9 0 2.3-0.5 3.3-0.3 0.2 1.1 0.3 1.7-2.1 2.5 0-0.3 1.3-0.5 1-1 0-0.6-0.8-0.1-1-0.6q-0.2 0.1-0.4 0.2-0.3 0.1-0.5 0.2-0.2 0.1-0.4 0.2-0.3 0.1-0.5 0.2c-0.5 0.2-0.8 0.5-0.1 0.6-1 0.7-0.9-0.3-1.7-0.4-0.5 0.8-0.8 1.1-1.8 0.8-0.4 0.3-0.6 0.8-0.8 1.1q-1.3 0.3-2.6 0.6-1.2 0.3-2.5 0.7-1.2 0.3-2.5 0.7-1.2 0.4-2.4 0.8c0-0.1 0.2-0.3 0.2-0.4-1.2 0.9-2.2 1.1-4.8 1.9 0.1 0.4 0.1 0.6 0.5 0.6q-1.1 0.3-2.2 0.6-1.1 0.4-2.2 0.8-1.1 0.3-2.2 0.7-1.1 0.5-2.1 0.9c0.1-1.3-2.7 0.8-3.9-0.2-0.5 0.7-2 0.8-2 1.6-1.5 0.3 0.6-0.6-0.5-0.9-1.4 0.5-2.8 1.9-4.2 1.9-0.2 0-0.4-0.7-0.6-0.7-0.8 0.2-1.2 1-2.3 1.2 0.1-0.1 0.2-0.5 0.2-0.5-0.5 0.1-1.5 0.8-2 0.9-1.2 0.3-2.4-0.4-3.5-0.1-1 0.3-1.5 1.4-2.7 1.7-1.8 0.6-3.7-0.3-5.1 0.8-1 0.3-1.3-0.3-2.2-0.2-3.5 1.2-6.7 1.6-10.7 2.9-0.3 0.5-1.8 2.2-0.5 2.1-2.2 0.4-6.1 1.6-3.4 2.2 0.7 0.1 1.8-0.5 1.4-0.5 2.5 0 5.9-0.3 8.6-1.9 2.1-0.1 4.1-0.5 6.1-0.8 2.1-0.5 4-0.8 6-1.3q1.4-0.3 2.9-0.6 1.4-0.2 2.9-0.5 1.4-0.2 2.9-0.3 1.5-0.2 3-0.3c0.1 2.2 6.2 0.2 8.2-1.1q1.2-0.2 2.4-0.4 1.2-0.3 2.4-0.5 1.2-0.3 2.4-0.6 1.2-0.4 2.4-0.7c3.3-1 6.5-2.1 10-3 0.5 0.1 0.1 0.3 0.1 0.6 0.9-0.2 1.1-0.5 1-1 1.4 0.5 5.8-1.7 5.7-0.1 0.7-0.5 0.7-1.3 2.4-1.4-0.3 0.8 0 0.4 0.2 1.2-1.6 0.3-1.6-0.1-2.1 1.1 1.9-0.3 3.9-0.1 6-0.8 0-0.4 1.6-1.9 0.2-1.2 0.7-1 1.6 0.1 2.1 0.5 2.7-1 5.1-0.4 6.8-2.3 1.4 0.8 4.3-0.3 4.6 1 0.8-0.3-0.7-0.2-0.3-0.8 2.8-1 0.3 0.9 1.8 0.6-3.2 1.9-5.9-0.3-8.2 1.9 0.4-0.5 0.1-0.3-0.2-0.6-1.1 1.1-4.3 0-4.3 1.6q-0.5 0-1 0-0.5 0-1 0-0.5 0.1-1 0.1-0.5 0.1-1 0.2-0.6 0-1.2 0.1-0.6 0.1-1.2 0.3-0.5 0.2-1.1 0.4-0.6 0.2-1.1 0.5c0.1-0.7-0.7-0.4-0.7-1-3.9 1.4-6.9 1.1-9.7 1.6q-0.7 0.3-1.3 0.6-0.6 0.3-1.3 0.5-0.7 0.2-1.4 0.4-0.6 0.2-1.3 0.4c-1.8 0.3-3.5 0.5-5.3 0.8q-1.3 0.1-2.7 0.3-1.3 0.3-2.7 0.6-1.3 0.3-2.6 0.6-1.3 0.4-2.6 0.9c1 1.7 2 2.5 0.5 4.1 0.1 0.2 0.4 0.2 0.4 0.3 1.1-0.5 2.7-1.4 3.7-0.6-2.2 0-3.5 1.1-5.4 1.7 0.1 0.7-0.8 1.3-2 2.1 0.5 0.6 1.6 0.5 2.4 0.6-1.5 0.6-2.3 0.5-3.6 1.4 1.1-0.1 2.2-0.4 3.3-0.6q0.4-0.1 0.8-0.2 0.4-0.1 0.8-0.2 0.3 0 0.7-0.1 0.4-0.1 0.8-0.1 0.9-0.2 1.7-0.3 0.9-0.1 1.8-0.2 0.8-0.1 1.7-0.2 0.9-0.1 1.8-0.1 0.2-0.7-0.9-0.5c0.7-0.6 3.1-0.8 3.5-0.3 1.8-1.9 4.3-1.1 6.7-3-0.6-0.7-1.8-0.7-3.6-0.2-0.3-0.3-0.5-0.9-1-0.9 0-0.7 0.9-0.2 1.1-0.3 0.1 0.2 0.4 0.3 1 0.4h2.2c0.4-0.1 0.3-0.5 0.7-0.6-0.8-0.6-1.4 0-3.1 0.1 0.3-1.1 2 0.2 2.5-1.1-0.7-1.1-3 0-4.3 0q0.6-0.2 1.2-0.4 0.6-0.2 1.2-0.4 0.6-0.1 1.2-0.3 0.7-0.1 1.3-0.1 0.7-0.1 1.4-0.2 0.7-0.2 1.3-0.3 0.7-0.2 1.4-0.4 0.7-0.2 1.3-0.4c0.9 0.1 2-0.1 3.1-0.2q0 0 0 0.2c0.5 0 0.3 0.2 0.1 0.5q0.2 0 0.4 0 0.2 0 0.4 0 0.2 0 0.4-0.1 0.2 0 0.4-0.1l-0.2-0.6c1.1 0.1 2 0.5 1.7 1.9-1.8 1.1-2.2 2.4-5.6 3 2.4 1.4 5.7-2.5 7.2-2.5 0.6 0.8-1.8 0.6-0.8 1.4-1.1 0-2.2 0.3-2.5 1.1 0.7 0 3.1-0.3 2.8-1.4q0.6 0 1.2-0.1 0.7 0 1.3-0.1 0.6-0.2 1.2-0.3 0.6-0.2 1.2-0.5c0 0.7-1.1 0.8-1.3 1.4q0.2 0.1 0.4 0.1 0.2 0.1 0.4 0.1 0.2 0 0.4-0.1 0.2 0 0.3-0.1c-1.3 0.5-1.1 1.6-2 2.4 1.1 0 2 0.3 1.5 1.3-1.3 0.2-0.3-0.6-2 0.3 0.2 1.1 2.7 0 3.5-0.5-0.4 0.4-0.1 0.4 0.2 0.7 3.3-1.3 6.1-1 7.9-3.2-0.3-0.6-1.5-0.2-1.8-0.8-0.6-0.6 1.1-0.8 0.8-1.3 2.4-1.1 5.7 0 6.1-2.2 1.4-0.6 3.2-0.3 3.5-0.6-0.3 0.9 0.8 0.3 2.4-0.8 1.5-1 3.6-2.5 5.7-3-0.3-0.2-0.9 0-1-0.3l-4.6 1.4c-1.5 0.5-2.9 0.8-4.4 1.3-3 0.7-6 1.4-9.1 2.3 1.7-1.2 6.3-1.9 7.8-3.6 1.4-0.5 0 0.3 0.6 0.8 1.6-0.5 3.2-1.1 4.7-1.6q0.5-0.2 1.1-0.4 0.5-0.2 1.1-0.4 0.5-0.2 1-0.5 0.6-0.2 1.1-0.4c2.8-1.2 5.3-2.3 7.9-3.1 0.4-1.7 4.5-3.3 6.1-3.6q0.5-0.1 0.9-0.3 0.4-0.1 0.8-0.3 0.5-0.1 0.9-0.3 0.4-0.2 0.8-0.4c1.1-0.6 2.2-1.1 3.3-1.7 2.3-1.1 4.2-2.1 5.6-1.9 3-2.4 7.1-3 10.6-4 0.1-0.3 0.2-0.6-0.2-0.5q0.6-0.3 1.3-0.5 0.6-0.2 1.3-0.4 0.7-0.2 1.3-0.2 0.7-0.1 1.4-0.1c1.3-0.7-1-0.7 0-1q0.3 0.1 0.6 0.2 0.2 0.1 0.5 0.2 0.2 0.2 0.4 0.4 0.2 0.2 0.3 0.5-0.5 0.1-1 0.3-0.6 0.1-1.1 0.2-0.6 0.1-1.1 0.2-0.5 0-1.1 0.1v0.3q0.2 0 0.3 0 0.2-0.1 0.3-0.1 0.2 0 0.4-0.1 0.1-0.1 0.3-0.1c-0.5 0.9 0.4 0.3 1.3 0.3-0.1 1.3-2.3 1.4-3.8 2.4 1.1 0.3 3.6-0.8 5.4-2.1 0.3 0.5-0.6 0.8-0.4 1.1 0.1 0 0.2-0.1 0.4-0.1v0.4c0.7 0 0.9-0.3 1.9-0.7 0.4 0.7-1.4 1.1-2.6 1.7q0 0 0 0-0.1 0-0.1 0.1-0.1 0-0.2 0.1 0 0 0-0.1-0.1 0.1-0.2 0.2-0.1 0-0.1 0.1c-0.4 0.8 0.6-0.2 1.4 0.1 0.2 0.5 0.2 0.9-0.3 1.3l-0.7 0.2c-0.4 0.8 0.4 0.4 0.4 1.2 1.6-0.8 0.8-0.7 0.5-1.3 0.4 0 0.3 0.6 1.2 0.2 0.2 0.9-0.5 1.7-1.7 2.5q0.5-0.2 1-0.3 0.5-0.2 1-0.3 0.5-0.1 1-0.2 0.4-0.1 0.9-0.2c3.9-3.5 10.1-9.5 13.1-7.6l-0.2 0.2c1.1-0.7 3.3-0.8 4.1-1.9-0.5-0.2-0.7-0.8-1.8-0.2-0.8 0.5 0.7 0.2 0.4 0.8-1.7 0.8-1-0.5-1-0.9 0.6-0.2 1-0.4 1-0.7 0.7-0.3 0.6 0.5 1.4 0 0.3-0.4 0.1-0.8 0-1.6 0.4-0.1 0.6 0.4 0.7 0.7q0.2-0.1 0.3-0.1-0.1 0.2 0 0.6c1.1-0.6 1.2-0.9 0.9-1q0.3-0.2 0.6-0.3c1-0.5 0.3-1.8 2.1-1.8 0.1 0.4-1 0.5-0.8 0.8 0.9-0.1 1.5 0.2 2.5-0.1q-0.3 0.2-0.6 0.3-0.3 0.2-0.6 0.4-0.3 0.2-0.5 0.4-0.3 0.2-0.5 0.4c0.2 1 1.3 0.7 2.6-0.1-1.1-0.5 0.1-0.8 0.7-0.3 1.7-0.6 1.5-1.6 3.6-2.2 0.4 0.3-0.3 0.4-0.8 0.8 0.2 0.1 0.7 0 0.9 0.1 2.1-1.9 5.6-2.8 6.9-4.4q0.3 0.1 0.6 0.1 0.3 0 0.6-0.1 0.3-0.1 0.6-0.2 0.3-0.1 0.5-0.3c0.2 0.5-0.7 1.3-1.4 1.3 0.2 0.4 0.6 0.4 1.4 0 1.3-0.3-0.8 0.6-1.2 0.8 2.1 0.9 6.4-2.9 3.4-3.2 0.5-0.2 0.7-0.3 1.2-0.5q-0.2 0-0.4 0-0.1 0-0.3 0-0.1 0.1-0.3 0.1-0.1 0-0.3 0.1c0-1.3 2.2-1.8 3.5-2.6-0.7 1 1.2 0.4 2.2 0 0.8-0.4 0.1-0.9 0.6-1.4q0.3 0 0.6 0 0.4-0.1 0.7-0.2 0.3-0.2 0.6-0.4 0.2-0.2 0.4-0.5c1 0.8 1 1.3 2.5 0.5-0.1 0.6 0.4 1.1-0.8 1.7 2.6-1.1 5.8-1.2 7.2 0.2q0.4 0 0.8-0.1 0.4 0 0.8-0.2 0.3-0.2 0.7-0.4 0.3-0.3 0.5-0.6c-0.3 1.8-3.9 2.1-1.9 3.7 0.9-0.5-0.2-1 1.1-1.3 0 1.6 1.9-1.4-0.9 0 0.3-1.3 3.5-0.5 2.1 0.6 0.6 0.5 1-0.1 1.8-0.6 0 0.6-1.2 1.6-2.2 1.6 0.4 0 0.4 0.3 1 0.1-1 1-1.8 0.4-3.8 1.3h1.4c-0.4 0.9-2.3 0.9-2.2 0.5-0.3 0.4-1 0.7-1.4 1.1 0.1 0.3 0.6 0.1 0.7 0.5-1.1 0.1-1-0.2-2.1 0.3 0-1-0.3-1.3-1.9-0.5-0.4-0.2 0.5-0.5 0.4-0.8-0.3-0.1-1 0.3-1.5 0.5-1 0.5 0.8 0.9-0.7 1.3 0.4-0.8-0.5-0.5-0.3-1.3 1.4-0.5 1.8-0.5 2.3-1.3-0.9-0.1-1.9 1.4-2.6 0.8-1 0.5-2.1 1.9-0.6 1.4-2.3 1-4.4 2.4-8 3.8-0.6 0.5 0.1 0.4 0 1-1.1 0.5-2.5 0.6-3.2 1.4 1.6-0.1 0 1.9 1.6 0.7 0.7 0.1-1.2 0.6-1.9 1.2 0.6 0.5 1.9-0.4 2.6-0.9 0 0.2 0.3 0.4 0.7 0.3q-0.2 0.1-0.3 0.2-0.4 0.2-0.6 0.4-0.3 0.3-0.5 0.6-0.1 0.3-0.2 0.7 0 0 0.1 0 0.1 0 0.2 0 0 0 0.1 0.1 0.1 0 0.1 0.1c1-0.8 1.8-1.5 2.8-2.3 0.8 0.8 5.3-0.1 4.7-1.7q0.4 0 0.8 0 0.4 0 0.8 0 0.4 0.1 0.8 0.1 0.4 0.1 0.8 0.2c0.6-1.3 2.7-1.4 4.1-2.4-0.9 1.3 2 1.6-0.5 3.4 1.2 0.3 0.5 1.1 1.2 1.9q-0.5 0.2-0.9 0.4-0.5 0.2-1 0.4-0.5 0.1-1 0.2-0.5 0.1-1 0.1c-0.3 0.1 0 0.3 0 0.6-2 0.8-3.8 1.4-4.9 1q-0.1 0.3-0.4 0.7-0.2 0.3-0.5 0.6-0.3 0.3-0.7 0.4-0.4 0.2-0.8 0.3c-0.1 0.8 1.6 0.3 0.6 1q0.5 0 0.9-0.1 0.5-0.1 0.9-0.2 0.5-0.1 0.9-0.2 0.5-0.1 0.9-0.3c-1.5 1.2 0.6 0.6 0.7 1.9 1.3-1.6 2.4-1.5 4.9-2.6-0.9 1.3-3.9 1.5-3.9 2.7-0.9-0.1-2.2 0.8-3.4 1.3-3 4 5.3 0.5 7.4 1.3q0.2-0.2 0.3-0.3 0.1-0.1 0.3-0.2 0.2-0.1 0.3-0.2 0.2-0.1 0.4-0.1c0 0.1 0.2 0.3 0.5 0.1 0.9 0.5-1.1 0.8-0.3 1.1 1-0.4 0.9-0.1 1.6 0.4 2.6-1.8 5.1-3 6.9-2.3q0.2-0.1 0.4-0.2 0.1-0.1 0.3-0.2 0.2-0.1 0.4-0.2 0.1-0.1 0.3-0.1c0.3 0.7 1.8 0 2.5 0.3 1.1 1.9-1.7 3.8-1.7 5.7 3.7-1 4.2-2.6 8.1-4.3q-0.3-0.2-0.6-0.3-0.3-0.1-0.7-0.2-0.3-0.1-0.6-0.1-0.4-0.1-0.7 0c0.5-0.5 1.5 0 1.4-0.7 1.2 0.3 3 0 5.5-1.4 1 0.2 0.2 0.6 1 1q1.6-0.9 3.3-1.7 1.7-0.7 3.5-1.2 1.8-0.6 3.6-0.9 1.8-0.4 3.7-0.5 0.3-0.2 0.6-0.3 0.3-0.2 0.6-0.3 0.4-0.1 0.7-0.2 0.3-0.1 0.7-0.2 0.2 0 0.5-0.1 0.3 0 0.5 0 0.3 0 0.6 0 0.2 0 0.5 0 0.4-0.1 0.8 0 0.4 0 0.8 0.2 0.4 0.1 0.8 0.3 0.3 0.2 0.6 0.4c1.6 1.1 1.8 3.3 0.2 5.1zm-553.6 34.1q0.1 0 0.1 0 0 0 0 0-0.1 0-0.1 0 0 0 0 0zm179.2 74.9q0.2 0 0.3 0 0.4-0.1 0.7 0 0.2 0.1 0.4 0.2-0.7-0.1-1.4-0.2zm-169.6-127.4q0 0-0.1 0 0 0 0 0.1-0.1 0.1-0.1 0.1 0.1 0.1 0.1 0.1c0 0.2-0.1 0.2-0.3 0-0.3-0.8-1.5-1.4-2.6-2.2 0.4 0.1 0.7 0.2 1 0.3q0.1 0.1 0.1 0.1 0.5 0.4 0.9 0.8 0.5 0.4 1 0.7zm-11.4-6.3c1.4 0.9 3.8 2 5.3 2.2 0.2 0.1 0.5 0.3 0.4 0.4q0.1 0.1 0.1 0 0 0 0 0 0.1 0 0.1-0.1 0 0 0 0 0.2 0.3 0.5 0.5 0.3 0.2 0.6 0.4 0.3 0.2 0.6 0.3c-2.6-0.6-5.1-1.5-7.6-3.7zm5.3 2.2c-0.2-0.2-0.3-0.3-0.3-0.4 0.2 0 0.5 0 1 0.4q-0.3 0-0.7 0zm92.5-3.8c0.3 0 0.5-0.1 0.9 0q-0.1 0.4-0.6 0.5c-0.3-0.1-0.6-0.2-0.7-0.5q0 0 0 0 0.1 0.1 0.1 0.1 0.2 0 0.3-0.1zm353.1 23.5l0.2-0.1q0 0.1 0 0.2 0 0 0 0c-0.2 0-0.3 0.2-0.6 0.2q0.2-0.2 0.4-0.3zm-486.1 18.6q1.6 0.8 3.1 1.5 0.1 0.1 0.2 0.2 0 0 0 0-0.1 0-0.1 0-0.1 0.1-0.1 0.1-0.1 0-0.1 0 0 0 0 0c-0.9-0.5-2-1.1-3-1.8zm92-55.5c-0.5-0.2-1.1-0.6-1.7-0.9q0.1-0.1 0.2-0.1 0.3 0.2 0.6 0.4 0.5 0.3 0.9 0.6zm-23.3-17.2c-0.1 0-0.2 0-0.4 0q0-0.1 0-0.2 0.2 0.1 0.4 0.1 0 0.1 0 0.1zm-63.9-32.3c-0.4-0.2-0.7-0.5-0.9-0.5 0.2-0.3 0.5-0.3 0.7-0.2q0.4 0.4 0.6 0.8-0.2 0-0.4-0.1zm525.4 79.8q-0.2 0.1-0.3 0.2 0.1-0.1 0.3-0.2zm15.7-9.5q-0.1 0.1-0.1 0.2 0.1-0.1 0.1-0.2zm-35.2 6.2q0 0 0 0.1 0 0 0 0.1 0.1 0 0.1-0.1 0 0-0.1-0.1zm0 0.1c-0.3-0.5-0.8-0.1-0.4-0.7l-0.7 0.3c-0.2 0.1-0.4 0.1-0.2 0.3 0.1-0.2 0.4-0.2 0.4 0-0.6 0.2-0.9 0.5-0.9 0.8 1-0.3 1.3-0.2 1.8-0.7zm-8.2 4.2h0.1q0 0-0.1 0zm-17.5 4.1q-0.7 0.2-1.3 0.6 0.1-0.1 0.2-0.1 0.3-0.1 0.6-0.2 0.3-0.1 0.5-0.2 0-0.1 0-0.1zm-1.3 0.6q-0.1 0-0.3 0c0.8-0.6 1.3-1.1 2.2-1.7q-0.1-0.1-0.2-0.1-0.1 0-0.2 0-0.1 0-0.2 0 0 0-0.1 0.1c-0.9 1.3-2.5 1.7-3.9 3.2 1.1 0 1.7-0.9 2.7-1.5zm-74.1 17.5q0.4 0 0.9 0c-0.3 0.1-0.7 0.1-0.9 0zm-12.9 3.8q0.1 0.2 0 0.2-0.1-0.1 0-0.2zm-22.5-7.1q0 0 0 0 0 0 0 0zm75.8-42.2q-0.1 0-0.1-0.1 0 0.1 0.1 0.1zm-10.6-2.9q0 0 0 0.1 0 0-0.1-0.1 0.1 0 0.1 0zm0 0.1q0.3 0.1 0.5 0.2c-0.3 0-0.4-0.1-0.5-0.2zm-14.9 4.8q0 0 0.1 0 0 0-0.1 0zm-75.5 20.6q0.1-0.1 0.2-0.2-0.1 0.1-0.2 0.2zm-129.4 4.6q0 0 0 0 0 0 0 0zm-2.1-0.1h0.2q-0.1 0-0.1 0 0 0-0.1 0zm-16.4-3h0.2q0 0 0 0-0.1 0-0.2 0zm-135.4-51.7q0.2 0 0.4 0.1 0.1 0 0.3 0.1 0.2 0 0.4 0.1 0.1 0.1 0.3 0.2c-0.7-1.1-2.4-1.4-3.5-1.7q0 0 0 0 0-0.1 0-0.1 0 0 0 0.1 0 0 0 0c0.4 0.9 0.7 0.4 2.1 1.2zm46.7 25.5q0.2 0.1 0.3 0.2-0.2-0.1-0.3-0.2zm-23.1-8.7q0.1 0 0.1 0 0 0 0.1 0.1 0 0 0.1 0 0 0 0 0.1-0.1-0.2-0.3-0.2zm0 0q0 0 0 0 0 0 0 0 0 0 0 0zm-4.1-2.4q0 0 0.1 0.1-0.1-0.1-0.1-0.1zm7.6 5.7q0 0 0 0 0 0 0 0zm-128.4-49.3c-0.4-0.1-0.7-0.3-1-0.3q0.5 0.2 1 0.3zm-61.9 23q0.2 0 0.3 0.1-0.1 0-0.3-0.1zm162.6 113.5q0.1 0.1 0.1 0.1 0 0-0.1-0.1zm0.6 0.3q-0.1 0-0.2-0.1-0.1 0-0.1 0 0.2 0 0.3 0.1zm48.2 24.3q0 0-0.1-0.1 0.1 0.1 0.1 0.1zm97.4 34.2q0.1 0.2 0.3 0.3-0.1-0.1-0.3-0.3zm75.7 5.9h-0.2q0.1 0 0.2 0 0 0 0 0zm221.1-57.1q-0.1 0.1-0.1 0.1 0 0 0.1-0.1zm-22.8-60.1q0.1 0 0.2 0 0-0.1 0.1-0.1c0 0.1-0.1 0.1-0.3 0.1zm-76.2 18.4c0.1-0.1 0.3-0.1 0.5-0.1q-0.2 0.1-0.5 0.1zm-1.6-14.9c0-0.3 2.3-0.1 1.7-1.1-1 0-2.8 1-1.7 1.1zm-14.1 1.3c1.4-0.5 2.6 0.3 2.5-0.9-0.5 0.1-1 0.1-1.6 0.3-0.4 0.1-0.9 0.1-0.9 0.6zm-0.5 4.4c0.6 0.2 2.3-0.1 2.1-0.8-0.7 0.4-2.2 0.2-2.1 0.8zm-26.9 0.5c0.4 0 0.4 0.3 0.4 0.7q0.2-0.1 0.3-0.1 0.2 0 0.4-0.1 0.2-0.1 0.4-0.1 0.1-0.1 0.3-0.2c0.4-0.8-1.7-0.8-1.8-0.2zm-11.3 2.6c1.5-0.4 2.6 0 3.1 0.7-1 0-1.4-0.1-1.8 0.5 0.6 0 0.9 0.3 1.5 0.5 1.8-0.8 2.8-1.6 5.3-1.7-0.7-0.8-1.7-0.8-3-0.7-0.5 0.2-1.2 0.2-1.9 0.3h-2.2c-0.2-0.3 0.9-0.3 0.5-0.9-1.2 0.1-2.1 0.3-1.5 1.3zm10.6-20.5c-0.6-0.5 0-0.8-0.6-0.8-0.4 0.8-0.8-0.1-0.4-0.1-1.1 0-4.9 1.1-2.4 1.7 0.6-1 1.8-0.6 3.4-0.8zm8-1.7q0.3-0.2 0.7-0.4 0.3-0.2 0.7-0.4 0.3-0.2 0.6-0.5-0.4 0-0.8 0.1-0.4 0-0.8 0.1-0.4 0.1-0.7 0.3-0.4 0.1-0.8 0.3c-1.1 0.3-2.2 0.8-3.2 1.1q0.2 0 0.4 0.1 0.2 0 0.4 0 0.2 0.1 0.4 0.1 0.2 0 0.4 0c0.6-0.2 1.2-0.4 1.9-0.5q0.4-0.2 0.8-0.3zm6.6-3.2c-0.6-0.2-1.8 0.1-1.7 0.6 0.7 0.2 1.5-0.1 1.7-0.6zm29.2-5.2c-1 0.1-2.9 0-2.4 0.9 0.8-0.1 2.4-0.3 2.4-0.9zm-213 11.1c-0.7 0.3 0.2 0.4-0.5 0.7 0.8 0.4 1.7 0.5 1.8 0-0.4-0.1-0.7-0.4-0.6-0.7q-0.3-0.1-0.6-0.1-0.3-0.1-0.6-0.2-0.3-0.1-0.6-0.2-0.3-0.2-0.5-0.3c-0.4 0.6 0.9 0.6 1.6 0.8zm-5.7-1.5c1 0.5 1.4 1 2.4 0.7-1.1-0.5-1.4-1.1-2.4-0.7zm-123.5-48c-1.2-0.5-2.9-1-3.4-1.1 0.4 0.3 0.1 0.5 0.5 0.8 0.6-0.3 1.4 0 2.4 0.6 0-0.2 0.3-0.3 0.5-0.3zm0.2 5.2c0.1 0 0.3-0.1 0.5 0zm0.3-0.9c0.1 0.1 0.1 0.3 0.1 0.5q-0.2 0-0.6-0.2c-0.2-0.4 0.2-0.4 0.5-0.3zm29.2 13.9c0.7 1 2.1 0.8 2.4 1.4-0.2 0.8-3.2-0.9-2.4-1.4zm-121.7-44.7l-0.3-0.3q-0.1-0.1-0.2-0.1-0.2-0.1-0.3-0.2-0.1 0-0.3-0.1-0.1 0-0.3-0.1c0 0.2-0.4 0.2-0.5 0.5 0.7 0.3 1.4 0.6 1.9 0.3zm-58.9 24.2q0.8 0.1 1.5 0.3 0.7 0.2 1.4 0.5 0.7 0.2 1.4 0.5 0-0.1 0-0.2 0-0.1-0.1-0.2 0-0.1-0.1-0.2 0-0.1-0.1-0.2c-0.2-0.1-0.4-0.1-0.7-0.3-0.6-0.1-1.4-0.3-2.1-0.4q-0.3-0.1-0.7-0.1-0.3-0.1-0.6-0.1-0.3 0-0.7 0.1-0.3 0-0.6 0.1 0.7 0 1.4 0.2zm-108.3 37.6c-1.1 0.7-1.3 0.2-2.5 0.7 0.5 0.5-0.5 0.6-0.4 1.1 0.3 0.1 2.3-0.3 2.4-0.8-0.3 0-0.4 0-0.4-0.3 0.4-0.2 0.9-0.3 0.9-0.7zm12.4-11.8q-0.3 0-0.6 0.1-0.4 0.1-0.7 0.3-0.3 0.2-0.5 0.4-0.3 0.2-0.5 0.4c0.2 0 0.4 0 0.4 0.3 0.7-0.4 1.9-0.8 1.9-1.5zm18.1-11.3c0-1.1-3.1 0.2-3.3 0.8 1.8-0.3 1.6-0.6 3.3-0.8zm39.5 17.8q0.3-0.1 0.6-0.1 0.3 0 0.6 0 0.3 0 0.6 0 0.3 0 0.6 0.1c0.2-1.2-3.8-0.4-2.4 0zm9.3 0.3c1 0.3-0.9 0.1-0.7 0.6q0.5-0.1 1-0.2 0.4 0 0.9-0.1 0.5 0 0.9 0 0.5 0 1 0c0.3-0.8-2.7-0.6-3.1-0.3zm77.2 26.3c0.9 0.5 2.2 1.1 2.2 0.1-0.8 0-1.8-0.4-2.2-0.1zm-1.2-0.7q-0.1 0-0.3 0-0.1 0-0.2 0.1-0.1 0-0.2 0.1c0.4 0.2 0.9 0.3 1.4 0.5-0.2-0.2-0.5-0.3-0.5-0.6q-0.1-0.1-0.2-0.1zm-1.3-0.1q-0.1 0-0.2 0-0.1 0-0.2 0.1-0.1 0-0.1 0.1c0.2 0 0.5 0.1 0.8 0.1 0-0.1 0-0.1-0.1-0.3q-0.1 0-0.2 0zm7.2 2.8q0.3 0.1 0.7 0.1 0.4 0.1 0.8 0.1 0.4 0 0.8 0c-0.7-0.3-1.3-0.6-2-0.9-0.4 0.1-0.7 0.3-1.1 0.4q0.4 0.2 0.8 0.3zm11.2 4.6c-1.1-0.3-1.6-0.9-2.8-0.9q0.2 0.3 0.5 0.6 0.3 0.3 0.7 0.5 0.3 0.2 0.7 0.4 0.3 0.1 0.7 0.2zm23 15.6q0.5 0.3 0.8 0.6-0.2-0.2-0.4-0.3-0.2-0.1-0.4-0.3zm1.2 0.2q-0.4-0.2-0.8-0.4 0 0 0 0c0.2 0.2 0.5 0.3 0.8 0.4zm241.9 94.5q-0.5-0.1-1-0.2c0.2 0 0.5 0 1 0q-0.1 0.1 0 0.2zm-1.3-0.3q-0.5-0.1-1.1-0.2-0.1 0-0.2-0.1 0 0 0 0c0.7-0.2 0.8 0.2 1.3 0.3zm0 0q0.2 0.1 0.3 0.1-0.2 0-0.3-0.1zm42.2 10q-0.4-0.1-0.8-0.1-0.4-0.1-0.8-0.1-0.4 0-0.7 0.1-0.4 0.1-0.8 0.3c0.9-0.1 2.9 0.3 3.1-0.2zm20.2-4.9q-0.4 0-0.9 0 0-0.1 0-0.1c0.5-0.1 0.7 0 0.9 0.1zm205.5-68.8l-0.5-1.1c-0.5 0.2-0.7 0.3-1.2 0.5 0.3 0.6 0.9 0.8 1.7 0.6zm-6.4 21.1q0.1 0 0.1 0 0.1 0 0.1-0.1 0.1 0 0.1 0-0.1-0.1-0.1 0-0.1 0-0.1 0-0.1 0-0.1 0-0.1 0.1-0.1 0.1 0 0 0.1 0zm35.8-43.1c-0.2 0-0.3 0.1-0.5 0.1-0.2 0.2-0.2 0.4-0.1 0.5 0.4 0.3 0.8-1.2 1.5-0.5q-0.2 0.2-0.5 0.5-0.2 0.2-0.4 0.5-0.2 0.2-0.4 0.5-0.2 0.3-0.3 0.6 0.3 0 0.6-0.1 0.3-0.1 0.6-0.2 0.3-0.1 0.6-0.2 0.2-0.1 0.5-0.3c-0.2-0.6 1.3-1.3 2.7-1.9-0.4-0.6-2.3 0.5-2.5-0.3-0.4 0.3-1.3 0.5-1.8 0.8zm-27.6-3.5c0.2 0 0.3 0.2 0.4 0.2 1.6-0.8 3.4-1.8 5.5-2.7-1.7 0.6-3.1 1.4-5.9 2.5zm-22.6 46.8c-0.9 0.3-1 0-1.7 0.3 0 0.8 1 0.6 1.5 0.8-0.3-0.5 0.6-0.8 0.2-1.1zm-5.9 3.4q0.3 0.1 0.6 0.1 0.2 0 0.5 0 0.3 0 0.6 0 0-0.1 0-0.1 0.1 0 0.1 0 0-0.1 0.1-0.1 0 0 0.1 0c0-0.2 0.1-0.3 0.1-0.5-0.7 0.2-1.4 0.3-1.5-0.1q0.2-0.1 0.4-0.2 0.2 0 0.4-0.1 0.2-0.1 0.4-0.1 0.2-0.1 0.4-0.1 0.1-0.2 0.2-0.4 0-0.2 0-0.4 0-0.2 0-0.4-0.1-0.2-0.2-0.4c-0.4 0.2-0.7 0-1.1-0.3q0.1-0.1 0.2-0.2 0-0.1 0.1-0.2 0.1-0.1 0.2-0.1 0.1-0.1 0.2-0.1v-0.2c-1 0.2-1.5-0.2-2.9 0.5-1.4 1.7 0.1 1.6 0.6 3.3q0.2 0.1 0.5 0.1zm46.5-59.4c3.7-1.2 7.5-2.1 9.3-0.9 0-0.2 0.1-0.2 0.3-0.4-0.5-0.3-0.9-0.4-0.6-1.1-1.4 1-1.8 0.3-2.1-0.3-2.6 0.1-4.7 1.7-6.9 2.7zm-1.6 0.5q0.8-0.2 1.6-0.5-0.8 0.2-1.6 0.5zm4.2-32.5q0.4-0.1 0.8-0.2 0.4-0.1 0.7-0.3 0.3-0.3 0.6-0.5 0.3-0.3 0.6-0.6c-1.4 0.8-2.3 0.5-2.7 1.6zm-9.7 4.7c1.2-1.2 3.3-1.7 5-2-0.6 0.6-1.8 1.1-1.8 1.6 0-0.8-1.1-0.2-2.1 0.3 0.1 0.5 1.4-0.2 2.1-0.3 2.2 0.4 4.8-1.3 7.1-2.4-0.9-1.3-2.8 0.6-4.3 0.9 0.8-1.2-0.3-0.4-1-0.9 0.5 0 3.2-0.5 2.8-1.3-0.9 0.2-3 0.3-3.4 1.1 1-0.5 0.4 0.5 0 0.7-1.5 0-5.7 1.7-4.4 2.3zm-2.8-1.9q0.2 0 0.5 0 0.2-0.1 0.4-0.2 0.3-0.1 0.5-0.2 0.2-0.1 0.4-0.2c-0.1-0.6-2.1 0-1.8 0.6zm-14.1 4.5c0.9-0.7 1-0.2 1.9-0.7 0-0.8-2.3 0-1.9 0.7zm0.2-1.6q-0.5 0.1-1 0.4c0.2-0.4 0.7-0.5 1-0.4zm-23.6 9.2q-0.4 0.2-0.9 0.3-0.4 0.1-0.8 0.3-0.4 0.2-0.9 0.3 0.4 0 0.8 0 0.3 0 0.7-0.1 0.4 0 0.7-0.1 0.4-0.1 0.8-0.2c0.1-0.2 0.2-0.5 0.5-0.7q-0.4 0.1-0.9 0.2zm-9.5 0.3q-0.5 0.2-0.9 0.4-0.4 0.3-0.8 0.6-0.4 0.4-0.7 0.7c0.4-0.1 0.8-0.1 1.3-0.3-0.2 0-0.3-0.1-0.5-0.3q0.2 0 0.4 0 0.2 0 0.4 0 0.2 0 0.4 0 0.2 0 0.4 0 0.2-0.1 0.5-0.1 0.3-0.1 0.6-0.1 0.3 0 0.5-0.1 0.3 0 0.6 0c0.1-0.2 0.4-0.2 0.7-0.3-0.1-0.5-0.6-0.7-1.1-0.7-0.4 0.4 0.3 0.4 0.3 0.7-0.7 0.1-0.9 0-1.6 0.3-0.5-0.5 0.9-0.6 0.5-1.1q-0.5 0.1-1 0.3zm-5.9 3c0.9-0.1 1.7 0.2 2.3-0.6 0.2-1-2.8 0-2.3 0.6zm-31.7 14.4q0.3 0.1 0.6 0 0.3 0 0.6-0.1 0.2 0 0.5-0.1 0.3-0.1 0.5-0.2c0-0.5-0.5-0.3-0.5-0.8-1 0.3-2 0.6-1.7 1.2zm-89-8.5c1.1-0.3 2.8-0.3 2.8-1q-0.3 0-0.6-0.1-0.2 0-0.5 0-0.3 0-0.6 0-0.2 0-0.5 0c-0.6 0.1-0.3 0.4-0.7 0.6-1.8 0-3.6 0.2-5.4 0.3q-0.4 0-0.7 0.1-0.4 0-0.7 0-0.4 0.1-0.7 0.1-0.4 0.1-0.7 0.1c-0.9 0.2-1.8 0.2-2.7 0.4-2.9 0.3-5.5 0.9-8 1.4l-0.2-0.6q-0.7 0.1-1.4 0.2-0.7 0.1-1.4 0.2-0.7 0-1.4 0-0.8 0.1-1.5 0-0.7 0-1.4 0.1-0.6 0.1-1.3 0.1-0.7 0.1-1.4 0.3-0.6 0.1-1.3 0.3c0.7 0.7 2.4 0.7 4 0.5q0.7-0.1 1.3-0.2 0.6 0 1.2-0.1 0.7 0 1.3 0 0.6 0 1.2 0c-0.7 1.1-4.8 0.1-6.4 0.9 2.1 0 0.3 0.8 0.6 1.6q0.3 0.1 0.6 0.1 0.3 0.1 0.6 0.1 0.3 0.1 0.6 0.1 0.3 0 0.6 0 0.3 0 0.6 0 0.3-0.1 0.6-0.2 0.3-0.1 0.6-0.2 0.3-0.2 0.5-0.4c-0.7 0-2.1 0.7-1.8-0.1q0.6 0 1.1-0.1 0.5-0.1 1-0.2 0.6-0.1 1.1-0.3 0.5-0.2 1-0.4c0 0.5-0.7 0.8 0.4 0.8 0.6-0.6 1.4 0.3 2.2 0 0.2-0.5-1.1-0.8-0.1-1.1q0.3 0.2 0.7 0.3 0.3 0.2 0.7 0.3 0.4 0.1 0.8 0.1 0.3 0.1 0.7 0.1 0.5-0.2 1-0.3 0.5-0.2 1-0.3 0.5-0.2 1-0.3 0.5-0.1 1-0.2c1.4-0.3 2.8-0.5 4.1-0.8 2.6-0.5 5.1-0.9 6.8-1.4-0.4 0-0.4-0.3-0.3-0.8zm-22.5 18.4q0.5-0.1 0.9-0.3 0.5-0.2 1-0.4 0.4-0.2 0.9-0.4c-0.9 0-2.5 0.6-2.7 0.1-0.1-0.5 0.4-0.5 0.3-0.9-0.7 0.1-1.9-0.3-2.2 0.3 0.8-0.2 2.1 0.5 1.2 0.8-4.1 0.3-10.5 0-14.6 1.4 0.4 0 0.4 0.3 0.4 0.6 3.8-0.4 7-0.3 9.8-0.4q0.5-0.1 1-0.1 0.5 0 1-0.1 0.5-0.1 1-0.1 0.5-0.1 1-0.2 0.5-0.1 1-0.3zm-19.2-9.9q0.5 0 1 0 0.5 0 0.9 0 0.5 0 1 0c1-0.1 2-0.3 3.6-0.6 0.2 0.3-0.1 0.8 0.5 0.8 0-0.5 1.9-0.2 1.6-0.8-0.7-0.2-1.5 0-1.8-0.3 4.2-0.2 6.1-1.3 3.1-2.5 0.4 0.7 0.4 1.1-0.6 1.5-0.1-0.6-2.2-0.6-2.2 0 0.3 0.4 1.4-0.1 1.5 0.4-4.4 0-8.2 0.6-12.5 0.1-2.4 1.3-8.9-0.1-10.7 1.6q0.3 0.3 0.6 0.5 0.4 0.2 0.7 0.3 0.4 0.1 0.8 0.1 0.4 0 0.8-0.1c-0.1-0.6 0-1 1-1q-0.1 0.1-0.2 0.3-0.1 0.1-0.1 0.3-0.1 0.1 0 0.3 0 0.1 0 0.2 0.5-0.2 1-0.3 0.6-0.1 1.1-0.2 0.6-0.1 1.1 0 0.6 0 1.1 0.1c0.6-1-1.8 0-1.8-0.7 2.7-0.4 2.5 0.2 5 0.2 1.1-0.5-1-0.6 0-1 0.7 0.8 2 0 2.5 0.8q0.5 0 1 0zm0 4.3c0.8 0.2 1.7 0.3 2.1-0.3-1 0.5-2.2-0.6-2.1 0.3zm-7.8-1.7c1.5 0 2.4 0.8 2.9-0.3-0.8 0.1-2.6-0.2-2.9 0.3zm14.2-5.1c0-0.3-0.4-0.3-0.4-0.8-0.6 0.3-1.8 0.2-2.1 0.6 1.4-0.4 1.1 0.5 2.5 0.2zm5.5 1.6c2.1-0.6 4.2 0.1 5.3-1-2.2-0.1-3.2-0.6-5.1-0.6 0.3 0.6-0.1 1.1-0.2 1.6zm2.8 3.6q-0.2-0.1-0.4-0.1-0.3 0-0.5 0.1-0.2 0.2-0.3 0.4-0.1 0.2-0.2 0.4c0.7-0.1 1.6-0.3 1.4-0.8zm10.7-2.2c-3.9 0.8-4.3 1.3-8.9 1.8 0-0.2 0.3-0.4 0.3-0.5-2.1 0.5-1.7 1.4-0.1 1.9 2.1-0.5 10.6-1 8.7-3.2zm-1.9-1.6c0-0.4 1.1-0.3 1-0.8-0.2 0-1.1-0.8-1.4 0 1.2-0.1-0.9 1 0.4 0.8zm-0.3-1.4c-0.3-0.8-2.8 0.2-3.3-0.5-0.2 0.5-1.1 0.8-1.3 1.3 2 0.2 3.1-1.3 4.6-0.8zm8.9 0.5c1.4-1.3-4.6-0.8-7.2 0 2.9 0.5 5.3-0.8 7.2 0zm6.6 16.1c-0.6 0.2-1.3 0.2-1.9 0.4 0 0.4 0.2 0.8 0.9 0.8 0-0.4 1.1-0.4 1.1-0.7-0.4 0-0.3-0.1-0.1-0.5zm-1.4-0.1c2.1-0.2 4-0.2 4 1.4 1.5-0.3 0.8-0.8 0.6-1.3 0.7 0.2 3.7-1.1 4.8-0.6-1.1 0.6-3 0.3-2.9 1-0.7 0.1 0.7 0.4 0.8 0.8 0.9-0.5 2.5-1.6 2.7-0.2-1-0.5-1.7 0.5-2.5 0.8q1.1 0 2.2-0.1 1.2-0.1 2.3-0.2 1.1-0.2 2.2-0.5 1.1-0.3 2.2-0.6c-1 0.1-1-0.4-0.2-0.7 0.7-0.1 0.5 0.8 1.3 0.5 0.6-0.6-0.3-0.6-0.6-1.1q-0.3 0.1-0.6 0.1-0.3 0.1-0.7 0.2-0.3 0.2-0.6 0.3-0.3 0.2-0.6 0.3c-0.7-0.7-2.7 0.4-3.7 0q1-0.2 2-0.4 1-0.2 2.1-0.3 1-0.2 2-0.3 1-0.1 2.1-0.2 0-0.1 0-0.2 0-0.1 0-0.1 0-0.1 0-0.2 0.1-0.1 0.1-0.1 0-0.1 0.1-0.2 0-0.1 0.1-0.1 0-0.1 0.1-0.1 0.1-0.1 0.1-0.1c1.1 0.4 2.1-0.7 3.1-0.3q0-0.2-0.1-0.3 0-0.1-0.1-0.2-0.1-0.1-0.2-0.2-0.1-0.1-0.2-0.1c1.6-0.2 1.8-1 2.4-1.6-0.3 0-0.4 0-0.4-0.3l-1.8 0.3c-0.9 0.5 0.5 0.5-0.3 0.8-0.7 0-0.7 0.3-1.4 0.4l-0.1-0.9c-1.3 0.3-1.3 1.1-2.4 1.4-0.1-0.3 0.4-0.6 0.3-0.9-2.7 0.4-6.1 1.1-9.3 1.9q-1.1 0.3-2.1 0.5-1 0.2-2.1 0.4-1 0.2-2.1 0.3-1 0.1-2.1 0.2c0.2 0.3 0 0.6-0.5 0.8zm-0.8 0q-0.3 0-0.6 0-0.3-0.1-0.6-0.1-0.2 0-0.5-0.1c-0.9 0-1.7 0.2-2 0.7 0.7 0-0.1 0.4 0.4 0.4 0.3-0.3 1.3-0.3 2.1-0.3 0.8 0 1.7 0 1.8-0.6q-0.3 0-0.6 0zm-0.9-7.9q-0.3 0-0.6 0-0.2 0-0.5 0-0.1 0-0.2 0.1c0.8 0 1.3 0.5 1.8 0q-0.2 0-0.5-0.1zm-2.1 0.1q0 0 0 0h0.4q0.2 0 0.4 0-0.4-0.1-0.8 0zm0 0h-1.5q-0.5 0-1 0.1-0.5 0-1 0-0.5 0.1-1 0.2-0.4 0.1-0.9 0.2-0.9 0.2-1.8 0.4-1 0.2-1.9 0.3-0.9 0.2-1.8 0.3-1 0.2-1.9 0.3c0.2 1.5 3.5-0.7 4.9 0.1-0.9 0.7-3.6-0.3-3.2 1.3 2.2-0.3 1-0.2 2.2 0 1.3-1 2-0.8 4.7-1.1 0.5-0.7-1.8-0.5-0.8-1 0.7 0.3 1.1-0.3 1.5 0.3-0.2 0.2-0.4 0.8 0.2 1.3 1.2-0.8 5-0.9 6.4-2.2-1 0.2-3 0.8-3.4 0.3-0.1-0.5 1-0.3 1-0.6-0.3 0-0.7 0-0.7-0.2zm11.4-11.6c-4.2 1.2-9.4 1.5-11.8 2.4 0.7-0.1 1.8-0.6 1.5 0.2 3.8-1.1 7.9-0.5 10.3-2.6zm1.5-2.2c-2.2 1.5-6.9 1.1-10.2 2.6 0.5 0.6 7.2 0 5-0.8 2.2-0.2 2.6-0.5 4.7-0.5 0-0.5 1-0.6 0.5-1.3zm-1.6-0.6c0.5 0.2 1.6 0.5 1.8-0.3-0.3 0-1.8-0.2-1.8 0.3zm60.6-15.3q0.2-0.1 0.4-0.2 0.3-0.1 0.5-0.3 0.3-0.1 0.5-0.2c-2.1 0.5-4.3 0.8-6.5 1.2 0.4 0.4 1.2 0 2.1-0.1 1.1 0-2.1 0.5-2.1 0.9q0.6 0 1.1-0.2 0.6-0.1 1.2-0.2 0.6-0.1 1.1-0.3 0.6-0.2 1.2-0.4 0.2-0.1 0.5-0.2zm27.8-16.3h-0.1c0 0.2 0 0.2 0.1 0zm6.3 4.5c0.5 0.3 0 1.4 0.5 1.3 0-0.5 2-0.7 1.6-1.2-0.7 0-1-0.4-2.1-0.1zm-5.9-4.3q0.1 0 0.1 0 0 0-0.1 0zm0.1 0c0.1 0 0.2 0.3 0.8 0v-0.2q-0.1 0.1-0.2 0.1-0.1 0.1-0.2 0.1-0.1 0-0.2 0-0.1 0-0.2 0zm2.5-4.8c0.5-0.1 0.2 0.4-0.2 0.5-1.4 0-1.7 0.5-2.9 1.3 1.5 0.2 2.5 0.9 4 0.9q0.1 0 0.1-0.1 0.1 0 0.1-0.1 0 0 0.1-0.1 0-0.1 0-0.1h-0.1c-0.2-0.2 0-0.2 0.2-0.3q0.1-0.3 0.2-0.6 0-0.3 0.1-0.6 0-0.2 0-0.5 0-0.3 0-0.6c-0.4-0.1-2.5 0.2-1.6 0.3zm0.1-3.8c0.3 0.5 0.8 0.4 0.4 1 0.4-0.2 1.3-0.3 1.3-0.6-1.4 0.4-0.5-0.4-0.7-0.7zm-1.4 3.4c0.1-0.7 1.5-1.3 1.9-1.9q-0.2 0-0.5 0-0.3 0-0.5 0.1-0.3 0.1-0.6 0.1-0.2 0.1-0.5 0.2c0 0.3-0.5 1.6 0.2 1.5zm-1.6-3.4q-0.2 0-0.5 0 0 0 0 0c0.2 0 0.4 0 0.5 0zm-2.9 6.7c1.8-0.5 1.6-1.3 1.1-2.1-2.5 0.7 0.3 1.1-1.1 2.1zm-1.9-5.6q0 0.1 0.1 0.1-0.1-0.1-0.1-0.1zm0.1 0.1c0.9 0.1-0.7 0.4-0.5 1.1 1.1-0.4 3.6-1.6 3.2-2.7-0.3 0.3-2.1 1.6-2.7 1.6zm-3.3 4.2c1.5-0.3 3.3-1.4 2.1-1.6 0 0.7-2.5 1-2.1 1.6zm-6.6 5.3c1.3 0.1 2.8-1.8 3.8-0.5-0.8 0.8-2.1 0.3-1.8 1.2 1.4-0.7 1.8-0.3 2.9-0.6 1.4-0.6 2.5-2.4 4.6-2.2q0.1-0.4 0.2-0.7 0.1-0.4 0.2-0.7 0.1-0.4 0.1-0.7 0.1-0.4 0.2-0.8c-1 0.7-0.6-0.4-1.5 0.2-1.4 2.2-6 2.4-8.7 4.8zm1.3-5.4c0.4-0.7-0.2-0.4-0.3-0.8-1.6 0.6-0.6 0.8 0.3 0.8zm0 0q0 0 0 0 0 0 0 0 0 0 0 0zm0 0c0.5-0.1 1-0.2 0.7-0.4-0.3 0.2-0.4 0.2-0.7 0.4zm1 1.2c0.9-0.3 2-0.6 1.9-1.1-1 0.2-1.7 0.5-1.9 1.1zm-6.6 0c1.1-0.4 1.3 0.5 1.8-0.3 0.2-0.8-1.9-0.1-1.8 0.3zm-11.9 4.6c0 0.8 1.9 0.2 1.4-0.4-0.5 0.1-1 0.3-1.4 0.4zm-4.9 3.5c-2.1 1.1-5.6 1.1-6.3 2.4 2-0.2 6-1.1 6.3-2.4zm-82.5 17.5c-0.4 0.1-0.9 0.2-1.4 0.2q0-0.1 0-0.1l1.4-0.1zm-1.5 0.2c0.1 0.1 0.1 0.1 0.1 0q-0.1 0-0.1 0zm-86.5 109.4q0 0.1 0 0.1 0-0.1 0-0.1zm0 0.1q0.1 0 0.1 0 0 0 0.1 0.1 0 0 0.1 0.1 0 0 0.1 0c-0.3 0-0.7-0.1-1-0.1-0.4 0.1-1.1 0.1-0.9 0.6q0.2 0 0.5 0.1 0.2 0 0.5 0 0.3 0.1 0.5 0.1 0.3 0 0.5 0c0-0.4 0-0.5-0.1-0.7q0 0 0 0c-0.1-0.1-0.2-0.1-0.4-0.2zm0.4 0.2q0 0 0 0 0 0 0 0 0 0 0 0zm10.9-108.8q0 0 0 0.1 0.1 0 0.1 0 0 0.1 0 0.1l0.1-0.1c-0.1 0-0.1-0.2-0.3-0.2q0.1 0 0.1 0.1zm-4.6-1.2c-0.3-0.1-0.6-0.2-0.7-0.3 0.4-0.2 0.5-0.2 1.2 0.1-0.1 0.2-0.3 0.2-0.5 0.2zm-12.6-1.4q0.1 0.1 0.2 0.1 0.1 0.1 0.2 0.2 0.1 0 0.2 0.2h1c-0.2 0 0-0.2 0.2-0.4-0.6 0-1.9-0.6-2-0.1q0.1 0 0.2 0zm-251.6-40.3c0.5 0.5 2.1 1.3 2.3 0.6-0.7-0.3-2.1-1.5-2.3-0.6zm16.9 7.1q-0.2 0-0.4-0.1-0.1 0-0.3-0.1-0.2 0-0.4 0-0.1-0.1-0.3-0.1c0.7 0.8 4.2 2.1 5.4 2.2q-0.5-0.2-0.9-0.5-0.5-0.2-1-0.5-0.5-0.2-1-0.4-0.5-0.3-1-0.5c0-0.1-0.1-0.1-0.1 0zm18.3 8.7q-0.5-0.3-1-0.5-0.4-0.3-0.9-0.6-0.4-0.3-0.9-0.6h-0.4c0.9 0.5 1.8 1.1 2.7 1.6 0.3 0 0.4 0.2 0.7 0.2v0.1q0.1 0.1 0.3 0.2 0.2 0.1 0.3 0.1 0.2 0.1 0.4 0.1 0.2 0.1 0.3 0.1c-0.1 0-0.2-0.2-0.4-0.3h-0.1q-0.5-0.2-1-0.4zm1.6 0.7q-0.1 0-0.1 0 0 0 0.1 0zm2.9 0.6l-0.2 0.2c0.3 0.3 0.6 0.5 0.9 0.8 0.3 0 0.9 0.5 1.5 0.6 0.1-0.1 0-0.5-0.1-0.6-0.7-0.3-1.6-0.7-2.1-1zm18.9 9.5q0 0 0 0zm0 0c-0.3 0-0.6-0.1 0.3-0.8-0.4-0.1-0.9-0.4-1.3-0.6-1.8-0.1-3.9-2.7-5.4-1.9-1.7-0.8 0.6-0.2 0.6-0.6q-0.8-0.5-1.6-0.9-0.8-0.4-1.6-0.8-0.9-0.3-1.7-0.6-0.8-0.3-1.7-0.6c2.2 1.6 4.9 3.2 7 4.8-0.5 0.3-2.3-1-2.1 0q0.3 0.1 0.5 0.2 0.3 0.2 0.5 0.4 0.3 0.2 0.4 0.4 0.2 0.3 0.4 0.6c0.5-0.4 2.1 0.9 2.3 0.4-0.2-0.3-0.6-0.4-0.6-0.6 0.6 0.2 0.9 1.3 1.3 0.8q-0.1-0.1-0.2-0.2-0.2-0.1-0.3-0.2-0.1-0.1-0.2-0.3-0.1-0.1-0.2-0.3c1.2 0.5 1.5 2 2.3 1.8-0.2-0.3-0.7-0.8-0.1-0.6q0.2 0.2 0.4 0.4 0.2 0.2 0.4 0.4 0.2 0.2 0.5 0.3 0.2 0.2 0.5 0.3c0.4-0.6 2.1 0.1 3.1 0.8-0.2-0.3-0.3-0.8 0.4-0.7 0.3 0.7 0.4 0.8 0.1 1.2-0.1 0-0.1 0.1-0.3 0.1q0.2 0.1 0.3 0.1 0.2 0.1 0.3 0.2 0.2 0.1 0.3 0.2 0.1 0 0.3 0.1c-1.4-0.3-2.8-0.4-2.5 0.8 1.3 0.2 0.6 0 1.6 1.1 2 0.2 4.2 1.8 6.6 3.4 2.1 1.2 4.3 2.5 6.4 2.7-0.7-0.3-1-0.7-1-1 2.4 1.4 1.8-0.6 4.3 0-0.1 0.5-0.7 0-0.3 0.8q0.3 0.2 0.6 0.3 0.3 0.2 0.6 0.4 0.3 0.2 0.6 0.3 0.3 0.2 0.6 0.4c0.8 0-0.3-0.8 0.5-0.4 0 0.3 1 1.7 0.3 1.4-0.8-0.5-1.9-1.1-2.2-0.6 0.8 0.9 2.2 1.7 3.2 2.7-0.7-1.3 0.4-1.5 0.7-1.9 1.7 1.1 1.5 1.7 3.5 2-0.6 0.1-0.5 0.4-0.4 0.7 0.5-0.1 1.2-0.1 1.1-0.5 1.1 0.6 0.5 1.2 2.2 1.9 0.4-0.3 0-1.5 0.8-1.1q0 0.2-0.1 0.5-0.1 0.2-0.2 0.5-0.2 0.2-0.4 0.4-0.2 0.2-0.4 0.3c1.7 1.1 1.7 0.2 3.1 0.8-0.3 0.3-0.9 0.2 0.1 0.6 1.1 0.7-0.7-1.1 0.6-0.4 1.6 1.4 3.4 3.3 5.3 3 0 0.6 0.5 1.2 1.9 1.7-0.1-0.8 0.1-0.8 1.1-0.6 1.4 1.6 9.2 5.2 10.7 5.5 0.9 0.3-0.5 0.8 0.9 1.1 1.9 0.5 4.8 0.7 5.7 2.1-0.9-0.5-1.7-0.9-2-0.5 1.4 1 2.1 0.8 3.3 1.5-0.2-1 1.3-1.2 1.7-0.2-0.5-0.3-1.2-0.6-1.2-0.2l-0.2 0.5q0.5 0.3 1 0.6 0.5 0.2 1.1 0.4 0.5 0.2 1 0.4 0.5 0.2 1.1 0.4 0.7 0.1 1.3 0.3 0.7 0.2 1.3 0.5 0.7 0.3 1.3 0.6 0.6 0.3 1.2 0.6c-0.1-0.9-2.3-1.7-2-2.7 5.6 3.2 9.1 4.6 14.7 5.7q-0.1 0.1-0.1 0.2 0.1 0.1 0.3 0.2 0.1 0.1 0.3 0.2 0.1 0 0.3 0.1 0.1 0.1 0.3 0.1c0.7-0.5-0.5-0.6-0.8-0.9-0.2 0-0.2 0-0.3 0.1q-0.4-0.2-0.8-0.3-0.5-0.3-0.9-0.5-0.5-0.2-0.9-0.5-0.5-0.3-0.9-0.6 0 0.1 0 0.2 0 0 0 0.1 0.1 0 0.1 0.1 0 0.1 0.1 0.1c-1-0.3-0.7-0.6-1.8-0.9q0-0.3 0.4 0c0.5-0.5 0.7-0.4 0.9 0.1 1.4 0.6 2.5 1.3 3.7 1.9q-0.1-0.1-0.1-0.2 0-0.1 0-0.3 0-0.1 0-0.2 0-0.1 0.1-0.2 0.2 0.1 0.5 0.2 0.2 0.1 0.5 0.3 0.2 0.1 0.4 0.3 0.3 0.1 0.5 0.3c0.3 0 0.4-0.4 0.6-0.5q-0.2-0.3-0.3-0.5-0.2-0.2-0.4-0.4-0.3-0.2-0.5-0.3-0.2-0.1-0.5-0.2c-0.9 1-4.4-1.5-5.5-1.8q0.4 0.1 0.8 0.2 0.4 0.1 0.9 0.2 0.5 0.2 0.9 0.3 0.5 0.2 0.9 0.4l-0.8-0.9q-0.4-0.2-0.8-0.3-0.4-0.2-0.8-0.4-0.4-0.2-0.7-0.4-0.4-0.2-0.7-0.5 0.2 0 0.4 0 0.2 0.1 0.3 0.1 0.2 0.1 0.4 0.2 0.2 0.1 0.4 0.2-0.1-0.1-0.2-0.2-0.2-0.1-0.3-0.2-0.1-0.1-0.2-0.1-0.2-0.1-0.3-0.2-0.1-0.1-0.3-0.1-0.1-0.1-0.2-0.2-0.2-0.1-0.3-0.2-0.2 0-0.3-0.1c-0.1 0-1.3-0.5-0.8 0.2q-0.3-0.2-0.5-0.4-0.2-0.1-0.5-0.3-0.2-0.2-0.4-0.4-0.2-0.2-0.4-0.4c-0.2 0-0.3-0.1-0.5-0.1-2.9-1.1-5.8-1.9-7.6-2.9q0.1 0.1 0.2 0.1 0.1 0 0.2 0 0.1 0.1 0.2 0.1 0.1 0 0.2 0c-2.6-1.3-4.3-2.2-4.6-1.4 0.4-0.4 1.7 1.1 2.4 1.5-2.6-1.1-2.5-0.4-5.3-1.7q-0.6-0.6-1.3-1.1-0.7-0.5-1.4-1-0.7-0.5-1.4-0.9-0.7-0.4-1.5-0.8c-2.2-1.3-4.4-2.1-5.7-1.8-1.3-1.1-5.5-3.3-7.6-3.3-1.5-1.7-5-2.4-7.5-3.8 0.1 0.3-1 0.3-1.5 0 0 0.5 0.5 0.8 1.3 1.1-0.1 0.3-0.7-0.1-0.8 0.2-1-0.5-0.3-1.1-1.2-1.6 0-0.8 1.5 0.5 1.9 0.2q-0.2-0.2-0.5-0.3-0.2-0.2-0.4-0.3-0.2-0.2-0.4-0.4-0.2-0.2-0.4-0.5c-0.7-0.6-0.5 0.3-1.2 0 0-0.4-0.8-0.8-1.8-1.1-0.2 0.2-0.3 0.2-0.3 0.3q-0.1 0-0.3-0.1-0.1 0-0.2-0.1-0.1-0.1-0.2-0.2-0.1-0.1-0.1-0.2-0.1 0-0.2 0-0.1 0-0.2-0.1-0.1 0-0.2 0 0 0-0.1-0.1c0-0.4-0.9-0.9-1.3-1.4h-0.5q-0.1 0.1-0.1 0.2-0.1 0.1-0.1 0.2 0 0.1 0.1 0.2 0 0.1 0.1 0.2-0.2-0.1-0.4-0.2-0.1-0.1-0.2-0.2-0.1-0.2-0.2-0.3-0.1-0.2-0.1-0.4c-1.8-0.6-3.6-2.2-5.9-2.5 0.8 0.6 1.9 1.1 1.9 1.7-3.2-1.4-3.8 0.2-6.4-0.2-0.6-1.4-3.5-2-3.9-3.1 0.7 0.3 1-0.2 1.7 0.1 0.5 0.5 0.4 1.1 1.1 1.6q0.2-0.1 0.4-0.2 0.2 0 0.5-0.1 0.2 0 0.4 0 0.3 0 0.5 0c0.3 0.3-0.1 0.8 0.8 1.1 0.2-0.6-0.4-1.1 0.4-1.1-1.8-0.8-0.9-0.2-1.2-1.1-1.7-0.6-2.9-2.2-4.3-2.2 0.3-0.3-0.3-0.7-0.4-1-2.4-1.6-5.5-2.4-8.8-3.8q0.2 0.2 0.4 0.3 0.2 0.2 0.4 0.3 0.2 0.1 0.4 0.3 0.2 0.1 0.5 0.2c0.3 0.7-2.1-0.8-0.9 0.2-0.7 0.3-1.8-1.3-2.7-1.8zm84 40.6q0 0 0 0 0 0 0.1 0-0.1 0-0.1 0zm-5-3.8q0 0 0.1 0-0.1 0-0.1 0zm-51.1-19.5c0 0.1 0.1-0.1 0 0q-0.1-0.3-0.4-0.5-0.2-0.2-0.4-0.4-0.3-0.2-0.5-0.4-0.3-0.2-0.6-0.3 0 0.4 0.2 0.7 0.2 0.3 0.4 0.5 0.3 0.2 0.6 0.3 0.4 0.1 0.7 0.1zm-10.5-3.9q0.2-0.1 0.4-0.3 0.2-0.2 0.2-0.5 0-0.3-0.1-0.5-0.2-0.2-0.4-0.3c-0.1 0.6-1.4 0.8-0.1 1.6zm2.2-0.5c-0.4-0.2-1-0.5-1.1-0.3 0.4 0.4 0.1 1.1 1.1 1.6 0.4-0.5-0.4-0.8 0-1.3zm66.2 28.5c0.1 0 0.3 0.2 0.4 0.3 1.2 0.7 2.9 1.3 3.5 0.7l-0.3-0.3c-1.7-0.8-3.5-1.8-3.9-0.8 0.3 0 0.3 0 0.3 0.1zm-13-10.4c-0.1 0 0.4 0-0.1-0.2q-0.8-0.3-1.5-0.6-0.8-0.3-1.6-0.5-0.8-0.2-1.6-0.4-0.8-0.2-1.6-0.4c0 0.2 0.3 0.3 0.6 0.5q0.6 0.2 1.2 0.4 0.6 0.2 1.2 0.4 0.6 0.3 1.2 0.5 0.6 0.3 1.1 0.6c-0.1-0.8 0.5-0.5 1.1-0.3zm19.7-36.3c3.6 2.6 6.6 3.3 10.8 5.2-0.1-1 0.7-1 0.7-1.6h-1.1v0.2c-4.3-1.3-7.7-3.2-10.4-3.8zm-127.7-10.8q0.2 0 0.4 0.1 0.2 0 0.4 0.1 0.2 0 0.4 0.1 0.2 0.1 0.4 0.1h0.5q-0.3 0-0.6-0.1-0.2-0.1-0.5-0.2-0.3-0.1-0.5-0.2-0.3-0.1-0.5-0.2c-0.2 0.1-0.2 0.1 0 0.3zm18.9 10q-0.1-0.2-0.2-0.3-0.2-0.1-0.3-0.2-0.2-0.1-0.3-0.2-0.2-0.1-0.3-0.1c0.4 0.3 0.7 0.4 1.1 0.8zm127 7.9l1.4 0.6c0-0.1 0.1-0.1 0.1-0.3h-0.7c-0.1-0.2-0.4-0.3-0.5-0.5-0.2 0.2-0.2 0.2-0.3 0.2zm-19.5 40q0.2 0.1 0.3 0.1 0.2 0.1 0.4 0.1 0.2 0 0.4 0.1c4.3 2-1.1-1.5-1.5-0.4q0.2 0.1 0.4 0.1zm-55.4-28.9c-0.8-0.5-2-1.6-2.5-1 1 0.7 1.9 1.8 2.5 1zm48-22.4q-0.1-0.2-0.4-0.3-0.2-0.1-0.5-0.2-0.3 0-0.5 0.1-0.3 0.1-0.5 0.3c1.1 0.6 1.5 0.4 1.9 0.1zm-2.6-1.4c-0.3-0.3-2.5-1.7-3.1-1.4q0.3 0.1 0.5 0.3 0.3 0.2 0.5 0.4 0.2 0.2 0.4 0.4 0.2 0.2 0.4 0.5c-0.2-1.1 1.2 0.3 1.3-0.2zm-89.7 9.2c-0.9-1.6-4.3-1.9-4.5-3-0.5-0.3-0.8-0.2-1.2-0.3q0.6 0.4 1.3 0.8 0.6 0.4 1.2 0.8 0.7 0.5 1.3 0.9 0.6 0.5 1.2 1c0.1-0.2 0.3-0.2 0.7-0.2zm-5-4.1c-1.4-0.2-2.2-1.3-3.1-1 1 0.3 2.9 2.2 3.1 1zm-45.5-20.2c-0.8-0.1-1.3-0.1-1.5 0 0.9 0.5 1.9 0.8 2.9 1.3 1.8 0.6 3.6 1.4 5.4 2.2q0.6 0.3 1.3 0.6c-0.6-0.4 0.1-0.3 0.2-0.6-0.9-0.4-1.8-0.7-2.6-1.1q0.2 0.1 0.4 0.3c-2.1-0.4-5-1.6-6.1-2.7zm5.7 2.4c-0.6-0.3-1.1-0.6-1.3-0.9h-0.1c0.1 0.3 0.4 0.4 0.3 0.8 0.7 0.2 0.9 0 1.1 0.1zm2.5 1.8q0 0 0.1 0-0.1-0.1-0.2-0.1 0 0 0.1 0.1zm0.1 0q2.1 0.9 4.2 1.7c0 0 0 0-0.1-0.2q-0.5-0.2-1-0.5-0.5-0.2-1-0.4-0.6-0.2-1.1-0.4-0.5-0.1-1-0.2zm4.2 1.7q0 0 0 0 0 0 0 0 0 0 0 0zm-6.8-3.5q0 0 0 0 0 0 0 0zm2.6-0.3c-0.5-0.2-0.9-0.2-1.5-0.3q-0.2-0.1-0.4-0.1-0.3-0.1-0.5-0.1-0.2-0.1-0.4-0.1-0.3 0-0.5 0c1.7 1.1 3.2 0.9 4.6 1.7 0-0.5-0.6-0.8-1.3-1.1zm2.6 2.4q-0.3-0.2-0.6-0.3-0.3-0.2-0.5-0.3-0.3-0.1-0.6-0.2 1.1 0.6 2.2 1.1-0.3-0.2-0.5-0.3zm18.2 52.5q0.2 0.1 0.4 0.2 0.2 0.1 0.3 0.2 0.2 0.1 0.4 0.2-0.2-0.1-0.4-0.2-0.1-0.2-0.3-0.2-0.2-0.1-0.3-0.2-0.2-0.1-0.4-0.2 0.2 0.1 0.3 0.2zm41.7 23.1q-0.3-0.2-0.6-0.3-0.3-0.2-0.6-0.4-0.3-0.1-0.6-0.2 0.2 0.2 0.5 0.4 0.3 0.2 0.6 0.4 0.3 0.1 0.6 0.3 0.3 0.1 0.6 0.3-0.2-0.3-0.5-0.5zm4.7 4.1c0.9 0.3 2 0.3 1.5 0h-0.2c-0.3 0-1-0.5-1.3 0zm120.6-57.2c0.6 0.8 1.3 0.2 2.4 0.8 0.7-0.8-2.5-1.9-2.4-0.8zm-2.6-2.5c0 0.9 1.4 1.5 1.9 2.5 0.6-1.3-0.7-1.9-1.9-2.5zm-0.2 5.5c0.7 0.5 0.9 0.6 0.7 0.6q0.2 0.1 0.5 0.1 0.2 0 0.4 0.1 0.2 0 0.5 0 0.2 0 0.4 0l-0.1-0.2c-1-0.4-2-1.1-2.4-0.6zm-0.8 0q-0.2 0-0.4 0-0.1-0.1-0.3-0.1-0.2 0-0.4-0.1-0.1-0.1-0.3-0.1 0.1 0.1 0.3 0.2 0.1 0.1 0.3 0.1 0.2 0.1 0.3 0.2 0.2 0.1 0.3 0.1c0-0.1 0-0.3 0.2-0.3zm-18.2-12.8c0.4 0.1 0.7 0.3 1.1 0.4q-0.1-0.1-0.2-0.2-0.1-0.1-0.2-0.2-0.1-0.1-0.2-0.3 0-0.1-0.1-0.2c-0.4-0.2-0.4 0.3-0.4 0.5zm-12.2 2.2q-0.1-0.1-0.3-0.1-0.1-0.1-0.3-0.1-0.1-0.1-0.3-0.1 0.1 0.1 0.1 0.1 0.1 0.1 0.2 0.2 0.1 0.1 0.2 0.2 0.1 0 0.2 0.1 0.1 0 0.1 0 0.1 0 0.2 0 0 0.1 0.1 0.1 0.1 0 0.1 0.1v-0.4q-0.1 0-0.3-0.1zm-4.3-1q0.2 0 0.4 0.1 0-0.1-0.1-0.1 0 0-0.1-0.1-0.1 0.1-0.2 0.1zm0.5 0.1q0.1 0.1 0.2 0.1 0 0 0.1 0-0.2-0.1-0.4-0.1 0.1 0 0.1 0zm0.3 0.1c0.7 0.3 0.9 0.9 2.5 1.3 0.1 0.1 0.2 0 0.4 0q-0.3-0.2-0.5-0.4-0.2-0.1-0.5-0.2-0.3-0.1-0.6-0.2-0.2 0-0.5 0 0.1-0.1 0.2-0.2 0.2 0 0.3 0 0.2 0 0.3 0 0.2 0.1 0.3 0.2c-1.3-1-1.5-0.7-1.8-1v0.5q-0.1 0-0.1 0zm1.9 0.5q0 0 0 0 0 0 0 0zm-2.8-0.7c0 0.1 0.1 0.1 0.1 0q0 0-0.1 0zm2.7 4.3c-0.5 0-0.6 0-0.7 0.2q0.1 0.1 0.2 0.2 0.1 0.1 0.3 0.2 0.1 0 0.3 0.1 0.1 0.1 0.3 0.1c-0.3-0.2-0.7-0.5-0.4-0.8zm-12.1-4.1c-2-0.8-4.1-2.1-5.3-2.2 1.6 0.6 0.8 0.8 0.1 0.8 0.4 0.1 0.6 0.4 1.3 0.8 0.4-1.3 2.6 1.2 3.9 0.6zm-8.5-4.6c1.4 0.6 3.5 0.9 4.4 2.1-0.4-1.6-3.6-2.1-4.4-2.1zm-3.9-1.9c1.6 0.5 2.5 1.7 3.6 1.3-0.7 0.1-2.8-2.3-3.6-1.3zm-9.4-3.8q-0.3-0.2-0.7-0.4-0.4-0.1-0.8-0.1-0.4-0.1-0.8 0c1.1 0.8 1.7 1.6 2.8 1.4-0.4-0.4-2-0.6-1.7-1.1 0.6 0.2 1.7 1.1 1.8 0.7q-0.3-0.3-0.6-0.5zm-7.9-3.5c0.5 0.6 1.6 0.6 2.3 0.6-0.6-0.8-1.8-1.1-2.3-0.6zm-1.5-0.2c1.1 0.7 3.8 2.7 4.6 2.1-1.7-1.1-3.1-1.3-4.6-2.1zm-44.6 17.2l-0.2-0.2c-0.5-0.2-0.9-0.3-1.5-0.5 0.4 0.2 1 0.3 1.7 0.7zm-6.3 0.2q0.4 0.1 0.8 0.2 0 0 0 0-0.3 0-0.7-0.2 0 0-0.1 0zm7.4 11c0.4 0.3 0.9 0.5 1.4 0.8l0.2-0.6c-0.8-0.7-1.5-0.8-1.6-0.2zm-12.1-3.9c-0.7-0.2-1.4-0.5-2.1-0.7 0.8 0.3 1.4 0.7 1.5 1 0.6 0.1 0.7 0 0.6-0.3zm-66.8-31.2q-0.1 0.1-0.2 0.3 0 0.1-0.1 0.2-0.1 0.1-0.3 0.2c0.6 0.2 1.2 0.5 1.7 0.6l1.3 0.5c0.1-0.1 0.5-0.3 0.7-0.5q0.3 0.1 0.6 0.2 0.3 0.1 0.6 0.2 0.3 0.1 0.6 0.2 0.2 0.1 0.5 0.2c-0.2-0.3-0.4-0.4-0.2-0.8-1.7-0.9-1.4 0.2-3.1-0.7-0.1-0.8 0.8-0.2 1-0.7-1.1-0.6-1.1 0-2-0.5 0.2 0.4 1.1 0.7 0.6 1.2-0.6-0.4-1-0.5-1.6-0.8q0 0.1-0.1 0.2zm20.6 48.3c-0.7-0.3-1.1-0.9-0.6-0.8-0.1-0.1-0.1-0.2-0.2-0.2q-0.7-0.4-1.4-0.9-0.8-0.4-1.5-0.7-0.8-0.4-1.5-0.7-0.8-0.3-1.6-0.5c3 0.3-2.5-1.9-4.2-2.7-0.7 0.6 0.8 0.9 1.1 1.4 0.6-0.3 1.1-0.2 2.2 0.5q0 0 0 0.1 0 0 0 0.1-0.1 0-0.1 0.1-0.1 0-0.1 0c0.7 0.5 1.6 1.3 2.2 1.6 0.5-1.1 2.8 2.7 5.7 2.7zm-0.6-0.8q0 0 0 0 0 0 0 0zm10.2 7.9q-0.1-0.1-0.3-0.1-0.1-0.1-0.3-0.1-0.1-0.1-0.2-0.2-0.2 0-0.3-0.1 0.1 0.1 0.3 0.1 0.1 0 0.2 0.1 0.2 0 0.3 0 0.2 0.1 0.3 0.2c0.3 0-2.4-1.3-2.2-0.5 0.7 0.1 1.9 0.9 2.2 0.6zm43.3 26.3q-0.3-0.1-0.7-0.2-0.3-0.2-0.7-0.3-0.3-0.2-0.6-0.4 0.5 0.4 1.1 0.7 0.6 0.4 1.2 0.7 0.6 0.3 1.2 0.6 0.6 0.3 1.2 0.5c-0.7-0.5-1.2-0.9-1.9-1.4q-0.4-0.1-0.8-0.2zm-7.6-2.5q0.1 0 0.3 0.2-0.1-0.1-0.2-0.1 0-0.1-0.1-0.1zm2 1.1q0 0-0.1 0 0 0 0.1 0 0 0 0 0zm16.1 9.2q-0.2 0-0.4-0.2c0.3 0.2 0.4 0.4 0.7 0.4q-0.3-0.2-0.3-0.2zm0.2-0.2q-0.1 0-0.1 0-0.1 0.1-0.1 0.2 0.1-0.1 0.2-0.2zm-0.1 0c0.3-0.1 0.9-0.2 0.2-0.6-0.6 0.3-2.5-1.3-3.2-1.3q1.5 0.9 3 1.9zm2.3-0.1q0 0 0.1 0h-0.1-0.3q0.2 0 0.3 0zm0.8 0.5q-0.1-0.2-0.2-0.2-0.2-0.1-0.3-0.2-0.1 0-0.2-0.1zm-0.1-1q0.2 0 0.4 0.1 0.2 0 0.3 0 0.2 0.1 0.4 0.1-0.1 0-0.2-0.1-0.1-0.1-0.2-0.2-0.1-0.1-0.2-0.2-0.1-0.1-0.1-0.2c-1-0.2-0.9 0.1-0.7 0.4q0.1 0.1 0.3 0.1zm42.5 20.5c-0.8-0.3-2.2-1.4-2.1-0.4 0.6 0.6 2.1 1.2 2.1 0.4zm53 21.8q-0.7-0.2-1.4-0.5-0.8-0.2-1.5-0.5-0.7-0.3-1.3-0.7-0.7-0.3-1.4-0.7c-0.7 0.3 0.3 0.6-0.5 0.8 2.1 0.6 5.1 2 6.1 1.6zm1.4 0.8q0.3 0.1 0.6 0.2 0.4 0 0.7 0.1 0.3 0 0.6 0c-0.2-0.3-2.6-1.6-2.5-0.7q0.3 0.2 0.6 0.4zm43.7 13.9c-1.6-0.2-2-0.8-3.4-0.9-0.1 0.3-0.5 0.3-0.5 0.6 0.8 0.5 3.6 0.9 3.9 0.3zm6.6 1.9c-1.2-0.6-1.8-0.3-3.3-0.9-0.4 0.6 3.1 1.5 3.3 0.9zm16.7 7.8q-0.3-0.1-0.6-0.2-0.4-0.1-0.7-0.1-0.3 0-0.7 0.1-0.3 0.1-0.6 0.2c0.8 0.6 2.3 0.5 2.6 0zm1-2.6c-0.6-0.1-1.9-1.1-2.1-0.6 0.4 0.5 1.7 1.4 2.1 0.6zm4.2-1.1c-1.1-0.1-2.5-0.4-2.7 0.2 0.6 0.5 2.7 0.6 2.7-0.2zm1.5 1.1c-0.3-0.1-0.4 0 0 0.2 0.1-0.5 1.7 0 1.8-0.6q-0.1 0-0.2-0.1-0.2 0-0.3-0.1-0.1 0-0.2-0.1-0.1-0.1-0.1-0.2c-1.3-0.3-1.3 0.1-2.2 0-0.5 0.6 1.3 0.5 1.2 0.9zm3.1 5.6q0.2 0.1 0.5 0.2 0.3 0.1 0.5 0.2 0.3 0 0.6 0 0.3 0 0.6-0.1c0.3-0.9-2.2-0.9-2.2-0.3zm55.5-0.8q-0.2-0.1-0.5-0.1-0.2 0-0.4 0-0.2 0-0.4 0-0.2 0-0.4 0.1c0.3 0.5 0.8-0.2 1.7 0zm12.9 0q0.5 0 1 0 0.5 0 1 0.1 0.5 0 0.9 0.1 0.5 0.1 1 0.3c0.7-1.3-3.2-1-3.9-0.5zm1.4 14.4q-0.4 0-0.7 0-0.4 0.1-0.7 0.3-0.3 0.1-0.6 0.4c1.3-0.2 2.3-0.2 2.7-0.7q-0.4 0-0.7 0zm-0.6 2.1h1.8c0.3-1-2.2-0.8-1.8 0zm9.4-1.7q0.1-0.3 0.3-0.5 0.1-0.1 0.3-0.3 0.2-0.1 0.5-0.2c-2.4 0.5-6.4-0.5-8.8 0.6 1.4-0.1 1.4 0.3 1.8 0.7 1.8-0.7 3.5 0.1 5.7 0.1q0.1-0.2 0.2-0.4zm2-11.8c-2.3-0.2-3.4-0.8-5.5-0.2v0.7c2.1-0.7 3.9 0.1 5.5-0.5zm10.7-1.3c-4.1 1.1-7 0-10.7 1 1.1 0 1 0.9 2.3 0.9 0-0.6-0.9-0.6 0.4-0.9 0 0.5 0.3 0.8 1 0.8 0.5-1 4.7-1 6.8-0.3 0.1-0.8-0.2-0.8 0.2-1.5zm4.2 0.2c-1.5 0.2-3.3 0.2-3.3 1.1 1.4-0.2 2.1-0.8 3-0.3-0.1-0.5 0.5-0.6 0.3-0.8zm70.1 4.9q0 0 0 0 0 0 0 0c-0.3-0.6 2.4-0.5 2-0.9-1.6 0.3-3-0.5-3.8 0.6 1.3-0.5 0.7 0.6 1.8 0.3q0 0 0 0zm18.8-6.2q0.3-0.1 0.6-0.3 0.3-0.2 0.6-0.4 0.2-0.2 0.4-0.4c-1.2 0.2 0.5-0.6-0.1-0.9-0.5 0.3-0.8 0.3-1.1 0.1 0 0.7 0.7 0.5 0.8 1l-1.6 0.5c0.1-0.8-1.4 0.1-1.8-0.2 1.3-0.2 0.5-0.8 2.6-1.3q-0.1-0.1-0.3-0.3-0.1-0.1-0.3-0.1-0.2-0.1-0.4 0-0.2 0-0.4 0.1c-2.1 1.6-4.6 1.3-6.9 2.2 0.8 0.4 2.3 0 3.6 0h0.4c0 0.2-0.2 0.2-0.2 0.4v0.1q0.1 0.1 0.1 0.2 0.1 0.1 0.1 0.2 0.1 0.1 0.2 0.1 0.1 0.1 0.2 0.1c1.1-0.4 2.1-0.6 2.9-0.9q0.3-0.1 0.6-0.2zm26.7-22c0.4 1.4 2.9 0.8 4.6 0.9 0.9-0.6 1.2-1.5 0.8-2.2-0.7-0.3-1.2-0.1-2.2 0.5 0-0.3-0.4-0.5-1-0.3 0.3-1 0.8 0.3 1.7-0.3 0.3-0.3-0.6-0.7-1.7-0.5h-0.1c0.9 0.6-0.9 1.3-2.1 1.9zm22.9-5.1c0.7 1 3.9-0.8 4.9-1.4-0.8-1-2.9 1.1-4.9 1.4zm17.4-10.8q0.2 0.1 0.4 0 0.2 0 0.3 0 0.2-0.1 0.4-0.1 0.2-0.1 0.3-0.2c0.3-0.3 0.7-0.6 0.7-0.9q-0.3 0-0.6 0.1-0.3 0.1-0.5 0.2-0.3 0.1-0.6 0.3-0.3 0.1-0.5 0.3c0 0.2 0 0.2 0.1 0.3zm26.3-4.9c-1.2 0.6-2.5 0.6-2.5 1.1 0 0.2 0.2 0.2 0.2 0.3 1.4-0.6 2.5-0.4 2.3-1.4zm-5.4-11.4c-0.3-0.1-0.5-0.4-0.5-0.6 0.1 0.1 0.4 0.3 0.7 0.6zm4.7-6.3q0.3-0.1 0.7-0.3 0.3-0.1 0.7-0.2 0.4-0.2 0.7-0.3 0.4 0 0.8-0.1c-0.1-0.2-0.1-0.3-0.3-0.5-0.5 0.2-0.9 0.3-1.4 0.5-0.7-0.2-0.9-0.8-2-0.5-0.5 0.3-0.6 0.5-0.5 0.7 0.2-0.2 0.2-0.2 0.3-0.2 0 0.2 0.3 0.3 0.6 0.2l-0.2 0.1zm4.1-1.3c-0.2-0.1-0.2-0.1-0.2-0.2q0-0.1 0.1-0.1c0.1 0.1 0.2 0.2 0.3 0.3q0 0 0 0-0.1 0-0.1 0 0 0-0.1 0 0 0 0 0zm0.2 0q0 0 0 0 0 0 0 0zm34.7-38.7q-0.2-0.1-0.3-0.1-0.2-0.1-0.4-0.1-0.1-0.1-0.3-0.2c-0.4 0.3-0.9 0.5-1.3 0.8 0.6 0.1 0.7 0.5 0.6 1.1h0.6c0.8-0.5 0-1 1.5-1.4q-0.2-0.1-0.4-0.1zm-2.5 0.4q-0.1 0-0.2 0.1-0.1 0-0.1 0.1-0.1 0-0.2 0.1 0 0.1-0.1 0.2 0.4-0.3 0.8-0.5-0.1 0-0.2 0zm-207.5 116.7c0.2 0.3 0 1.2-1.4 1.4 0.2-0.5-0.3-1.3 1.4-1.4z"/>
		</g>
	</g>
</svg>