<svg xmlns="http://www.w3.org/2000/svg" width="26.83" height="28.067" viewBox="0 0 26.83 28.067">
  <g id="_002-resources" data-name="002-resources" transform="translate(-5.191 -3.939)">
    <path id="Path_6068" data-name="Path 6068" d="M49.255,26.59A13.112,13.112,0,0,0,42.526,9.885a.5.5,0,0,0-.411.907,12.051,12.051,0,0,1,6.247,15.354,2.315,2.315,0,1,0,.893.445Zm-1.442,3.12a1.321,1.321,0,1,1,1.321-1.321,1.321,1.321,0,0,1-1.321,1.321Z" transform="translate(-18.305 -2.912)" fill="#6053b4" stroke="#6053b4" stroke-width="0.2"/>
    <path id="Path_6069" data-name="Path 6069" d="M6.754,20.446c.8-.07.376-1.069.451-1.593A12.053,12.053,0,0,1,17.241,6.986a2.312,2.312,0,1,0-.067-1.007A13.076,13.076,0,0,0,6.259,19.991a.5.5,0,0,0,.5.455Zm12.7-15.428a1.321,1.321,0,1,1-1.321,1.321,1.321,1.321,0,0,1,1.321-1.321Z" transform="translate(-0.417 0)" fill="#6053b4" stroke="#6053b4" stroke-width="0.2"/>
    <path id="Path_6070" data-name="Path 6070" d="M25.6,47.489A12.037,12.037,0,0,1,9.426,45.042a2.306,2.306,0,1,0-.8.591,13.03,13.03,0,0,0,17.538,2.678.5.5,0,1,0-.56-.822ZM6.377,43.514A1.321,1.321,0,1,1,7.7,44.835a1.321,1.321,0,0,1-1.321-1.321Z" transform="translate(0 -18.675)" fill="#6053b4" stroke="#6053b4" stroke-width="0.2"/>
    <path id="Path_6071" data-name="Path 6071" d="M25.224,19.11a3.753,3.753,0,0,0-2.836,6.173,6.834,6.834,0,0,0-3.857,5.061,1.381,1.381,0,0,0,1.351,1.6H30.565a1.382,1.382,0,0,0,1.356-1.6,6.853,6.853,0,0,0-3.861-5.061,3.753,3.753,0,0,0-2.836-6.173Zm0,1a2.745,2.745,0,0,1,0,5.491A2.745,2.745,0,0,1,25.224,20.105Zm5.714,10.4a.37.37,0,0,1-.373.439H19.882a.368.368,0,0,1-.284-.132.374.374,0,0,1-.085-.308,5.82,5.82,0,0,1,3.726-4.489,3.709,3.709,0,0,0,3.969,0,5.835,5.835,0,0,1,3.73,4.489Z" transform="translate(-6.597 -7.568)" fill="#6053b4" stroke="#6053b4" stroke-width="0.2"/>
  </g>
</svg>
