<svg version="1.2" xmlns="http://www.w3.org/2000/svg" viewBox="0 0 189 38" width="189" height="38"><defs><clipPath clipPathUnits="userSpaceOnUse" id="cp1"><path d="m0-31h195v79h-195z"/></clipPath></defs><style>.a{fill:#6053b4}</style><g clip-path="url(#cp1)"><path fill-rule="evenodd" class="a" d="m80.5 0.2c-5.2 0.4-16.4 0-5.8 0 2.3 0 4 0 5.8 0zm49.1 2.3c12.5 0.3 22.6 0.6 36.3 0.2-0.8 0.6-4.1 0.3-6.4 0.3 3.5 1.3 15.2-0.1 18.1 1.4 1.9-0.1 2.2 0.3 4.3 0.2-0.6 0.4-2.6 0.3-3.2 0.7 0.6 1.4 7.5 0.8 9.6 1.6-1.7 0.1-5.6-0.5-8.6-0.5-3.7 1.8 5.2 4.7-0.5 6.4 1.8 0.7-1 1 0.5 2.1-0.1 0.5 3-0.2 2.2 0.5-1.3 0-0.9 0.2 0 0.2-0.5 0.5-1 0-2.7 0.1-0.8 0.4 0.7 1.2-1.6 1.3 0.1 0.4 2.3 0 2.6 0.3q-0.2 0.2-0.4 0.4-0.3 0.1-0.5 0.3-0.3 0.1-0.6 0.1-0.3 0.1-0.6 0.1c1.3 0.2 0.4 0.3 1.1 0.5-2.5 0.6-3.6 1.8-5.9 2.8 0.4 0.5 3 0.1 4.3 0.2-0.4 0.3-3.8 0.3-0.5 0.3-0.1 0.5-1.8 0.4-3.2 0.4 1.5 0.5 0.7 0.6 3.2 0.9 0.1 0.4-0.8 0.5-1.1 0.9 4.5 0.8 1.1 1.7 2.7 3.2 1.4-0.9 6-1 9.1-0.8-0.2 0.4-2.4 0.1-2.7 0.4 5.8 0.3-3.8 0.8-6.9 0.7 1.5 0.3 0.2 0.5 1.1 1.1h-2.2c-0.4 0.9 3.9 0.3 3.2 1.4-1.1 0-1-0.3-1-0.5h-5.9c-0.9 0.6-0.6 0.8-1.6 1.2 0.2 0.4 2.6 0.1 3.7 0.2 1.4 0.2-2.7 0.1-3.1 0.3 2.3 0 1.6 1.1 3.7 1.2-0.1 0.4-1.4 0.4-2.7 0.3q0.4 0.1 0.7 0.1 0.3 0.1 0.7 0.2 0.3 0.1 0.6 0.2 0.4 0.1 0.7 0.3c0.4-0.2 1.5-0.1 1.6-0.4 1.4 0.4-2.8 0.4-1.6 1.3-1.8-0.2-6.7-0.7-6.4-0.9-10 0.5-16.5 1.7-27.8 2.1-9.8 0.4-23.5 0.3-34.6 0.5-26.4 0.7-54.7-0.6-82.1 0.2 0.1 0.2 1.3 0.1 2.1 0.1-1.1 0.7-4.1 0.8-7.5 0.8 0-0.2 0.7-0.2 1.1-0.2-23.9-1.2-49.3-1.4-78.4-1.2-1 0-0.3 0.5-1 0.7-5.1-0.6-24.7-1.3-33.6-0.3q0.1-0.1 0.2-0.2 0.1 0 0.3-0.1 0.1 0 0.2 0 0.1-0.1 0.2-0.1c-20-0.2-41.4-0.4-63.3-1 0.1-0.5 1.8-0.3 3.1-0.3q-0.7-0.1-1.4-0.2-0.7-0.1-1.5-0.1-0.7-0.1-1.4-0.1-0.8 0-1.5 0c4.9-0.7 13.8 0.8 19.2-0.1-1.7-0.6-3.8 0-6.4-0.4 1.9-0.3 5.3-0.1 7.5-0.3-0.1-0.2-1-0.2-1.6-0.2 2.3-0.5 9.6-0.5 13.3-0.5-5.8-0.3-8.4-0.5-15-0.6 0-0.8 1.7 0.1 3.2-0.2q-1.1-0.1-2.1-0.3-1.1-0.1-2.1-0.2-1.1-0.1-2.2-0.1-1-0.1-2.1-0.1c1 0.6 2.7 0.1 4.8 0.6-1.3 0.4-4.8 0-6.9 0.1 1.8-0.2 0.8-0.3 1.6-0.9-2-0.1-7.7-0.5-10.1-0.3 0.2-0.7-5.3-0.7-9.1-0.7 2.4-0.3 0.9-0.6-1.7-0.5-0.1-0.3 0.5-0.4 0.6-0.6-3.1-0.2-5.7-0.5-7.5-0.7 7.1-0.4 15.6 0.5 27.2 0.5 0-0.1-0.6-0.1-1-0.1 3-0.3 8.9 0.4 12.8 0.1-5-1-14.3-0.2-17.6-0.7 0.3-0.3 2.5-0.1 2.7-0.6-1.1-0.3-3.4-0.1-4.8-0.3 5.2-0.4 13.9 0.3 19.2-0.2-0.2-0.4-3.3 0-1.6-0.5-2.1 0.2-5.9 0.5-6.4 0-1.2-0.7 3.7 0 5.3-0.1-4.8-0.9-13.6-0.8-22.9-0.9 3-0.8 6.9 0.1 12.2-0.2-0.4-0.6-3.9-0.2-5.8-0.3 0.1-0.3 2.2-0.3 0-0.3 0.7-0.5 2.8 0 4.8-0.4-1.7-0.4-4.6-0.4-6.4-0.7 2.1 0.6-0.5 0-1.1 0.3-0.7-0.1 0.6-0.7-2.1-0.5 0.1-0.4 2.3-0.1 3.2-0.1-0.1-0.6-3.5 0-3.2-0.8 0.9 0 1.4 0.4 1.6 0-1.4-0.4-5.1-0.1-7.5-0.1q0.5-0.1 1-0.2 0.4 0 0.9-0.1 0.5 0 0.9 0 0.5-0.1 1-0.1c-0.7-0.3-2.8-0.1-3.8-0.3 3.4-0.2 9.5 0.5 12.3 0-2-0.2-3.7-0.1-6.9-0.2 2.3 0-0.1-1.2-1.1-0.9-1.5-0.2 1.4-0.4 2.7-0.3q-0.4-0.1-0.8-0.2-0.3-0.1-0.7-0.1-0.4-0.1-0.8-0.1-0.4 0-0.8 0.1c-1.4-0.3 3.1-0.2 4.3-0.2-1-0.4-4.2 0-5.4-0.3-0.6-0.6 1.2-0.3 2.1-0.3-0.1-0.4-2.3-0.1-3.2-0.2-1.7-0.2 4.7-0.5 3.8 0.2 1.4-0.4-1.2-0.9-2.1-0.9 3.3-0.1 9.4 0 11.7-0.2-3.7-0.7-13.6 0.4-14.9-0.5 0.7-0.4 3.7-0.1 5.4-0.2 0-0.4-1.9 0-2.7-0.1-1.2-0.5 4.8 0.1 4.8-0.2 1.2 0.1-0.2 0.4-1.4 0.4 4.7 0.4 6.8 0.1 11.5 0.3-0.2 0.4-2.9 0-2.7 0.5 2.9-0.2 4.5-0.9 7.5-0.5-3.2-0.5-5.1-0.4-9.1-0.6 1.9-0.6 4.7-0.5 7.5-0.3-1.8-0.5-5.4-0.4-8.5-0.4 5.7-0.9 15.4-0.3 21.3-1.5q-0.8-0.1-1.6-0.2-0.8 0-1.6-0.1-0.8 0-1.6 0-0.2 0-0.5 0c-0.1-0.1-0.3-0.1-0.6 0q-0.3 0-0.5 0 0.8-0.2 1.6-0.3 0.8-0.2 1.6-0.2 0.8-0.1 1.6-0.1 0.8 0 1.6 0c-7.8-1-18.7-0.9-29.3-0.9 3.6-0.5 1.5 0 0-0.7h7.5c-4.2-0.7-6.1-0.2-10.2-0.2q0.2 0 0.3-0.1 0.1 0 0.3 0 0.1 0 0.2-0.1 0.2 0 0.3 0c-2.3 0-5.4 0-9.1-0.3 6.3-0.4 15.7 0.5 24.5 0.3-1-0.6-5.5-0.1-7.5-0.5-0.9-0.4 8.8-0.3 11.8-0.3-2.2-0.7-5.3-1-12.2-0.9-1.3 0.1 0.6 0.2-0.6 0.5h-7.5c0.1-0.3 1-0.2 1.6-0.2 0-0.4-2.2-0.1-3.1-0.1-1.2 0 0.6 0.2-0.6 0.5-2.2 0.3-3.3-0.2-4.4-0.3 3.4-0.3 10.1-0.6 14.6-0.7-3.3-0.4 3-0.6 1 0 3.7-0.4 6-0.3 11.8-0.4-1.5-0.7 4.7 0.1 7.4-0.3 0-0.1-0.6-0.1-1-0.1 3-0.2 8-0.5 12.8-0.6-5.4-0.3-10.8 0.1-16.5 0q1.7-0.2 3.4-0.3 1.7-0.2 3.5-0.3 1.7-0.1 3.4-0.1 1.8-0.1 3.5-0.1c-0.1-0.8-2.8 0-2.7-0.7 3.1-0.2 4.5 0 7.5-0.3-5.7-0.8-15.5-0.2-23-0.3 1-0.6 2.8-0.2 1.1-0.9 4 0.7 7.6 0 13.9 0-6.1-0.5-11.9 0-16.6-0.2 4.4-0.5 10.9-0.3 15.5-0.7 0.8-0.1-0.2-0.3 0-0.5 32.3-1.5 56.9-1.1 91.7-1.4 0.2-0.4-0.4-0.4-1-0.4 1-0.3 5-0.1 5.3 0.4 3.5 0.1 11.5-0.3 12-0.4 44.6-0.9 103.3-1.9 151.2-0.1q0.1-0.1 0.2-0.1-0.1 0.1 0 0.2zm-220.8 33.5q0.1 0 0.1 0 0 0-0.1 0zm-67.7-18.5q-0.1 0-0.3-0.1 0.2 0.1 0.3 0.1zm-10.5-6.7q-0.9 0.1-1.4 0.2c0.5-0.2 0.9-0.2 1.4-0.2zm147.6-8.3q-0.1 0-0.2 0 0.3 0 0.2 0zm-38.9-0.9c-0.8 0.3-5.1 0.8-4.8 0.2 0.8-0.3 3.1-0.2 4.8-0.2zm-57.6 0.4c1.3 0.8-3.2 0-4.3 0.5-2.2-0.7 4 0 4.3-0.5zm254.8 0.1c0.9-0.4 4.1-0.1 5.9-0.1-0.9 0.4-4.1 0-5.9 0.1zm-301.2 5.8c-4.3 1-10.8-0.1-17.1 0.1 2.5-0.4 11.9-0.1 17.1-0.1zm0.5 0.3c4.4-0.4 9.8 0 13.3 0-2.8 0.6-9.9 0-13.3 0zm-20.3 4.6c0.9-0.4 4.1-0.1 5.9-0.2-0.9 0.4-4.1 0.1-5.9 0.2zm16 1.9c1.1-0.3 5.1 0.3 5.4-0.1 1.7 0.6-4.5 0.3-5.4 0.1zm6.4 0.2c5.4-0.6 15.2 0.3 22.4 0.2 0.8 0.1 1.7-0.3 2.4-0.4q0.3 0 0.6 0 0.2 0 0.2 0.2c-5.5 0.9-19.1 0.1-25.6 0zm342.3 5.7c-0.2 0.2-3.6 0.1-1 0.4-0.9 0.8-1.5-0.3-3.2-0.2 0.4-0.4 3.3-0.5 4.2-0.2zm-0.5 0.5c2.2 0 0.9 1.3-1.1 0.9 0.2-0.1 1.1 0 1.1-0.3-0.6-0.2-0.2-0.3 0-0.6zm5.9 1.8c-0.6 0.3-0.6 0.4 0.6 0.6q-0.8 0.1-1.5 0.2-0.7 0-1.5 0-0.7 0.1-1.4 0-0.8 0-1.5 0 0.7-0.2 1.3-0.4 0.7-0.1 1.3-0.2 0.7-0.1 1.4-0.2 0.6 0 1.3 0zm-368 0.5c-0.6 0.3-0.4 0.5 0.4 0.5-4.5 0.1-8.6-0.3-12.6 0 2-1 9.3-0.1 12.2-0.5zm0.4 0.5q0.6 0 1.3 0-0.8 0.1-1.3 0zm-7.8 0.4c-0.3 0.2-0.7 0.4 0 0.4-0.9 0.2-6.4 0.4-6.4-0.2q0.8 0 1.6 0.1 0.8 0 1.6 0 0.8-0.1 1.6-0.1 0.8-0.1 1.6-0.2zm17.1 5c1-0.3 5-0.1 5.4 0.4-1.8-0.2-4-0.1-5.4-0.4zm33 3.4c-1.3 0.6-2.6 0.1-4.8 0.3-0.2-0.7 3.4-0.1 4.8-0.3zm-15.4 2.1c-0.3 0.7-2.6-0.1-4.8 0.2q0.6-0.2 1.2-0.2 0.6-0.1 1.2-0.1 0.6 0 1.2 0 0.6 0 1.2 0.1zm230.3 2.3c-3.5 0.8-21.8 0.7-25.6 0.2 9.5-0.4 17.9 0.1 25.6-0.2zm8.6 0.7c-2.1 0.3-3.9-0.4-4.8 0-2.3-0.4 5.3-0.7 4.8 0zm24.5-0.4c7 0.3 15.7 0.1 22.9 0.2 0.1 0.4-1.8 0.1-2.6 0.2 4.3 0.5 11.8 0 17.6 0.5-12.8 0.4-25.6-0.6-37.9-0.2zm-179.7-36c-0.7 0.7-4.7 0.3-6.9 0.4 1.8-1 3.9 0 6.9-0.4zm247.3 16.8c2.2 0.1 1.7-0.7 0.6-0.9-1.1 0.4 0.5 0.7-0.6 0.9zm-326.8 10.9c-4.1-0.1-8.2-0.2-12.2-0.3 3.1 0.7 7.8 0.3 12.2 0.3zm4.3-24.1v0.3c-0.5 0-0.5 0.1-0.5 0.1-1-0.4-0.7-0.1-2.7-0.1-1.1-0.2 2.2-0.3 3.2-0.3zm-30.4 9.4c1.7 0 5.5-0.3 7.5 0.1-1.7 0.4-5.5 0-7.5-0.1zm8 2.6c0.4-0.4 3-0.1 4.3-0.2 2.4 0.4-3.9 0.1-1.6 0.4-0.1 0.4-2-0.1-2.7-0.2zm-24 0.6c3.2-0.5 7.1 0.2 11.2 0-2.4 0.8-6.9-0.4-11.2 0zm11.8 0.3c2.9-0.5 8-0.1 12.2 0-1.9 0.5-7.5-0.3-12.2 0zm5.3 3.4q0 0 0 0 0 0 0 0zm6.8 0.1c-1.7 0.3-4.8-0.3-6.8-0.1 1.9-0.5 4.9 0 6.8 0.1zm17.7 4.7q0 0 0 0 0 0-0.1 0zm4.8 0.6q-0.6-0.2-1.1-0.3-0.6-0.1-1.2-0.2-0.6-0.1-1.2-0.1-0.6 0-1.2 0c1.4-0.5 4.7-0.1 4.7 0.6zm191.5 10.4c-0.9 1.3-7 0-8.5 0.3 1.9-0.5 5.8 0 8.5-0.3zm39.4 0.9c1.1-0.7 8.8-0.4 8.1 0.1 1.7 0 2.3-0.4 4.3-0.3-3.4 1-7.2-0.1-12.4 0.2z"/></g></svg>