<svg xmlns="http://www.w3.org/2000/svg" width="39.163" height="40" viewBox="0 0 39.163 40">
  <g id="_001-link-building" data-name="001-link-building" transform="translate(-1.67 -1)">
    <path id="Path_260514" data-name="Path 260514" d="M38.276,1H4.226A2.559,2.559,0,0,0,1.67,3.556V38.438A2.561,2.561,0,0,0,4.226,41h34.05a2.559,2.559,0,0,0,2.556-2.556V3.556A2.559,2.559,0,0,0,38.276,1ZM4.226,2.213h34.05a1.352,1.352,0,0,1,1.35,1.35V7.925H2.883V3.556A1.346,1.346,0,0,1,4.226,2.213Zm34.05,37.575H4.226a1.352,1.352,0,0,1-1.35-1.35V9.137H39.62V38.444A1.346,1.346,0,0,1,38.276,39.788Z" fill="#6053b4"/>
    <path id="Path_260515" data-name="Path 260515" d="M53.366,7.752h1.463a.606.606,0,0,0,0-1.213H53.366a.606.606,0,1,0,0,1.213Z" transform="translate(-19.159 -2.077)" fill="#6053b4"/>
    <path id="Path_260516" data-name="Path 260516" d="M47.186,7.752h1.463a.606.606,0,0,0,0-1.213H47.186a.606.606,0,1,0,0,1.213Z" transform="translate(-16.841 -2.077)" fill="#6053b4"/>
    <path id="Path_260517" data-name="Path 260517" d="M41.006,7.752h1.463a.606.606,0,1,0,0-1.213H41.006a.606.606,0,1,0,0,1.213Z" transform="translate(-14.524 -2.077)" fill="#6053b4"/>
    <path id="Path_260518" data-name="Path 260518" d="M9.746,7.752h10a.606.606,0,1,0,0-1.213h-10a.606.606,0,0,0,0,1.213Z" transform="translate(-2.801 -2.077)" fill="#6053b4"/>
    <path id="Path_260519" data-name="Path 260519" d="M9.746,21.033H14.94a.606.606,0,1,0,0-1.212H9.746a.606.606,0,1,0,0,1.212Z" transform="translate(-2.801 -7.058)" fill="#6053b4"/>
    <path id="Path_260520" data-name="Path 260520" d="M15.546,25.446a.6.6,0,0,0-.606-.606H9.746a.606.606,0,1,0,0,1.212H14.94A.6.6,0,0,0,15.546,25.446Z" transform="translate(-2.801 -8.94)" fill="#6053b4"/>
    <path id="Path_260521" data-name="Path 260521" d="M32.8,16.06a5.685,5.685,0,0,0-4.063,1.681l-3.587,3.594a5.7,5.7,0,0,0-1.081,6.594l-1.281,1.306a5.579,5.579,0,0,0-2.544-.619A5.676,5.676,0,0,0,16.183,30.3L12.6,33.891A5.736,5.736,0,0,0,20.708,42L24.3,38.41a5.7,5.7,0,0,0,1.106-6.519l1.325-1.35a5.681,5.681,0,0,0,6.538-1.1l3.588-3.594A5.728,5.728,0,0,0,32.8,16.06Zm-7.556,12.4.856-.881,2.056-2.1a.657.657,0,0,1,.469-.194.649.649,0,0,1,.456.187.681.681,0,0,1,.2.463.642.642,0,0,1-.187.463L27.72,27.8l-1.556,1.588v.006l-3.256,3.325-.587.6-.862.881a.67.67,0,0,1-.925.012.681.681,0,0,1-.2-.463.667.667,0,0,1,.188-.469l4.706-4.806ZM29.932,24.6a1.87,1.87,0,0,0-2.544-.056,1.886,1.886,0,0,1,.394-.575l3.594-3.587a2.05,2.05,0,0,1,2.831,0,1.992,1.992,0,0,1,.006,2.831L30.62,26.81a2.006,2.006,0,0,1-.663.438l.006-.006a1.84,1.84,0,0,0,.531-1.325,1.867,1.867,0,0,0-.563-1.312ZM19.682,35.066a1.853,1.853,0,0,0,2.3.237,2.079,2.079,0,0,1-.337.469L18.057,39.36a1.98,1.98,0,0,1-1.413.581h-.006a2,2,0,0,1-1.412-3.412l3.594-3.588a1.973,1.973,0,0,1,.806-.481,1.834,1.834,0,0,0-.506,1.294,1.856,1.856,0,0,0,.563,1.313Zm4.806-2.237a4.449,4.449,0,0,1,.269,1.525,4.521,4.521,0,0,1-1.325,3.206l-3.587,3.588a4.525,4.525,0,0,1-6.4-6.4l3.594-3.594a4.512,4.512,0,0,1,4.85-1.019l-1.037,1.056a3.349,3.349,0,0,0-.619-.062,3.192,3.192,0,0,0-2.269.944L14.376,35.66a3.213,3.213,0,0,0,2.269,5.481h.006A3.186,3.186,0,0,0,18.92,40.2l3.588-3.588a3.2,3.2,0,0,0,.944-2.275,3.257,3.257,0,0,0-.031-.431l.713-.725ZM36,25,32.408,28.6a4.518,4.518,0,0,1-3.2,1.325,4.578,4.578,0,0,1-1.581-.287l1.05-1.069a3.214,3.214,0,0,0,2.806-.894l3.594-3.594A3.207,3.207,0,0,0,36.02,21.8a3.217,3.217,0,0,0-5.494-2.269l-3.594,3.594a3.249,3.249,0,0,0-.894,2.8l-.719.719-.344.35a4.494,4.494,0,0,1,1.031-4.806L29.595,18.6a4.534,4.534,0,0,1,7.737,3.2A4.56,4.56,0,0,1,36,25Z" transform="translate(-3.469 -5.647)" fill="#6053b4"/>
  </g>
</svg>
